<?xml version="1.0" encoding="utf-8"?>
<!-- Generator: Adobe Illustrator 18.0.0, SVG Export Plug-In . SVG Version: 6.00 Build 0)  -->
<!DOCTYPE svg PUBLIC "-//W3C//DTD SVG 1.1//EN" "http://www.w3.org/Graphics/SVG/1.1/DTD/svg11.dtd">
<svg version="1.1" id="Layer_1" xmlns="http://www.w3.org/2000/svg" xmlns:xlink="http://www.w3.org/1999/xlink" x="0px" y="0px"
	 viewBox="0 0 612 792" enable-background="new 0 0 612 792" xml:space="preserve">
<polyline fill="none" stroke="#000000" stroke-miterlimit="10" points="361.2,184.2 361.2,184.7 360.7,187.1 360.6,188.9 
	359.7,191.3 359.4,192.8 358.4,194.5 356.6,197 356.1,198.4 352.4,202.4 351.5,203.9 348.5,206.1 348.3,206.7 345.5,209.1 
	344.6,209.6 343.9,209.9 340.3,212.4 338.7,213.4 338.1,213.8 333.9,215.8 332.3,216.8 331,217 329.6,218.1 326.1,219.5 
	324.9,219.8 324.2,220.3 322.4,220.9 316.4,223.2 314.7,223.5 311.3,224.8 307.6,225.8 305.8,226.4 303.7,226.8 300.4,227.7 
	298.5,227.9 294.2,229 292.4,229.3 292,229.5 290.1,229.9 285.8,230.5 285.4,230.7 283.5,230.9 279.5,231.7 273.9,232.3 
	273.1,232.1 271.2,232.6 261,233.1 258.3,233.4 253.6,233.3 251.7,233.5 247.9,233.5 247,233.7 245.1,233.6 243.2,233.9 
	241.4,233.6 240.4,233.7 233.8,233.3 230.1,232.8 228.2,232.8 225.5,232.6 223.6,232.6 221.7,232.5 220.9,232.2 219,232.2 
	217.2,231.5 214.6,231.3 212.7,231.3 210.8,231 209,230.5 208.4,230.5 205.6,229.7 203.7,229.7 202.3,229.5 198.6,228.6 
	196.3,228.2 194.5,227.7 193.8,227.7 190.5,226.7 188.6,226.4 186.9,225.7 184.8,225.4 183.1,224.6 181.3,224 179.4,223.6 
	177.7,222.9 175.9,222.6 170.9,220.3 170,220.2 167.6,219.2 166,218.3 164.9,217.9 163.4,217 161.6,216.4 160.4,215.8 154.7,212.6 
	150.5,209.7 149.7,209.4 147.7,207.5 145.9,206.1 143.2,203.4 140.4,201 138.9,199.7 138.3,198.4 138.1,198.3 137.1,196.6 
	136.3,195.5 135.4,193.8 134.7,192.8 134.4,191.2 133.7,190 132.8,187.1 132.6,185.2 132.8,184.7 132.7,184.3 "/>
<polyline fill="none" stroke="#000000" stroke-miterlimit="10" points="130.3,184.3 130.7,187.2 131.3,188.9 131.5,190.1 132.5,193 
	132.9,193.4 133.7,195.1 134.2,195.6 135.5,198 138.1,201.5 140.7,204.2 142.3,205.3 143.6,206.9 146.5,209.4 152.1,212.9 
	153.6,214.1 154.3,214.4 155,214.9 156.8,215.5 158.6,216.7 163,218.9 164.8,219.5 166.5,220.4 171.4,222.2 174.5,223.6 
	178.1,224.8 180,225.2 181.7,226 185.4,227 187.2,227.7 189.1,227.9 191.2,228.5 193,229.2 194.8,229.4 195.3,229.3 197.1,230 
	207,231.7 207.6,232.2 209.5,232.2 213.3,232.7 214,233 215.9,233.1 219.7,233.6 220.6,233.5 222.5,234 224.3,233.9 226.2,234.4 
	227.3,234.2 229.1,234.4 231,234.3 232.9,234.8 235.8,234.9 237.7,235.1 240.6,234.8 242.5,235.1 244.4,235 246.2,235 247.4,235.2 
	249.2,235 251.1,235.1 253,234.9 257.9,234.7 259.8,234.7 260.8,234.8 262.7,234.4 264.6,234.2 266.4,234.4 273,233.6 274.1,233.8 
	275.9,233.4 279.7,233 280.5,232.7 284.3,232.3 286.2,232.3 286.9,231.8 288.8,231.9 290.6,231.4 292.5,231.2 293.1,230.8 
	295,230.6 296.8,230.1 299.2,229.7 305.2,228.2 308.8,227.5 310.9,226.7 312.8,226.3 314.6,225.7 316.5,225.2 325.3,222.1 
	326.8,221.2 330.1,219.6 331.6,219.3 333.3,218.3 337.8,216.3 341.9,213.8 343.4,212.7 344.2,212.5 347.2,210.2 347.8,210 
	349.3,208.8 350.9,207.2 353.8,204.7 355.1,203.1 356.5,201.9 357.6,200.6 360.4,196.9 361.7,194.7 362,193.5 362.8,191.8 
	363,190.6 363.7,188.8 364.3,185.9 364.4,183 364.2,182 364.2,180.1 363.8,179.1 363.5,177.2 362.9,176.2 362.5,174.4 361.1,171.6 
	360.7,170.4 359.5,168.9 356.7,164.9 355.2,163.7 354.1,162.3 352.6,161.1 349.9,158.5 348.2,157.2 346.7,156.1 345.1,155.1 
	341.7,152.7 339.5,151.4 337.9,150.6 335.6,149.2 333.9,148.4 332.9,148.3 331.3,147.2 329.6,146.4 324.9,144.7 321.9,143.4 
	316.9,141.5 311.5,140.3 306.2,138.5 302.4,137.6 298.8,136.9 294.9,136 293,135.8 291.3,135.1 287.1,134.8 283,134 279.2,133.7 
	278.7,133.5 275,133 272.5,133 266.9,132.4 266.3,132.6 262.5,132.1 258.1,132 256.2,131.6 249.8,131.6 247.9,131.8 245.3,131.7 
	241.5,131.8 240.8,131.5 237,131.7 234.5,132 228.2,132.1 226.3,132.6 224.4,132.6 222.5,132.8 221.9,132.8 220,133.3 218.1,133.1 
	215.7,133.6 213.8,133.6 212,134.3 207.8,134.6 203.7,135.5 201.8,135.7 200,136.2 198.1,136.4 197.9,136.7 196,136.9 194.2,137.5 
	186.7,139.1 184.9,140 181.2,140.6 179.5,141.4 172.5,143.5 171.2,144.4 167.5,145.4 166.4,146.3 164.7,147.1 162.9,147.7 
	161.9,148.3 160.1,148.9 154.2,152.1 150.4,154.6 149.7,154.7 148.3,156.1 146.4,157.3 145,158.7 143.2,159.8 141.9,161.1 
	140.7,162.7 138,165.2 137,166.8 135.9,167.9 135.2,169.7 134.2,170.7 133.4,172.5 132.7,173.6 132.4,175.5 131.6,176.5 
	131.4,178.4 130.9,179.4 130.6,182.4 130.7,185.3 130.4,186.1 130.5,187 131,191.6 131.4,193.5 131.9,194.5 132.5,196.3 
	133.1,197.3 133,197.8 134.3,199.8 135.5,202.3 136.2,203 139.9,207 140.9,208.5 142.2,209.8 143.9,211 145.3,212.3 146.5,213 
	147.1,213.8 148.7,214.8 150.2,216 150.9,216.1 154.6,218.6 156.3,219.4 157.8,220.5 158.5,220.6 158.8,220.9 162.1,222.5 
	163.8,223.5 164.7,223.6 166.4,224.6 169.8,226 171.5,226.5 174.8,227.8 182,230.1 183.7,230.9 185.2,231 187,231.4 189.6,232.2 
	193.2,232.9 195,233.5 195.8,233.7 196.9,233.7 198.7,234.3 201.5,234.8 205.2,235.7 207,235.8 209.6,236.2 211.5,236.6 
	213.4,236.8 216,237.3 219.7,237.7 224.4,237.8 227.3,238.4 231,238.4 235.8,238.8 242.5,238.8 246.2,239.2 251.1,238.9 253,239.1 
	254.1,238.8 257.9,238.7 260.8,238.4 262.7,238.6 271.2,237.8 273.1,237.4 274.1,237.5 277.8,237.2 279.7,236.9 280.6,236.9 
	286.2,236.1 286.9,235.7 288.8,235.6 290.6,235.2 295,234.5 296.8,234.1 297.8,234.1 299.2,233.7 301.1,233.5 304.7,232.2 
	307,231.8 309.6,231.1 310.9,230.6 314.6,229.7 316.2,228.9 318.2,228.5 321.7,227.2 323.4,226.3 325.2,225.9 326.7,225 
	328.5,224.5 330.7,223.3 331.5,223.2 333,222.1 339.5,219 340,218.5 343.4,216.9 344,216.2 347.8,213.7 348.3,213 349.8,211.9 
	351.5,210.2 353,209.1 354.9,207 356.3,205.8 357.4,204.3 357.9,204 359.6,201.4 360.4,199.7 361.8,197.7 361.7,197.2 362.9,194.4 
	363.7,191.5 363.9,189.6 364.2,188.6 363.9,185.9 364.3,185.1 "/>
<polyline fill="none" stroke="#000000" stroke-miterlimit="10" points="132.7,184.2 132.6,181.3 133,179.4 132.8,178.4 133.5,176.6 
	134,174.5 136,170 138.1,167.4 139.9,164.5 141.1,163 142.5,162 145.2,159.4 146.7,158.3 148.2,156.9 149.7,155.8 153.2,153.6 
	155.1,152.1 158.5,150.4 160.7,149.1 163.4,148.1 166.7,146.4 167.8,146.1 169.5,145.4 172.3,143.9 175.9,142.7 178.9,141.4 
	185.8,139.6 187,139.1 187.4,139.1 194.7,137.2 196.5,137.1 198.4,136.3 200.3,136 204.1,135.1 209.8,134.4 211.9,134.3 
	217.9,133.2 219.7,133.3 221.5,132.8 227.6,132.4 228.1,132.2 230,132.5 231.9,132.2 238.1,132.1 239.9,131.6 242.4,131.6 
	248.6,131.8 252.4,131.7 252.9,132.1 254.8,131.9 256.7,132.1 258.5,132 259.1,132.2 264.7,132.3 265.3,132.7 270.9,132.8 
	271.4,133 273.3,133.4 275.2,133.4 277.1,133.8 277.5,133.7 281.3,134.1 283.2,134.4 283.5,134.6 287.3,135.1 293.1,136.2 
	295,136.3 297,137.1 298.9,137.3 302.5,138.4 304.4,138.7 306.2,139.3 308.5,139.7 313.2,141.4 316.5,142.3 321.3,144.3 
	323.2,144.8 324.9,145.6 329.6,147.5 333.9,149.7 337.9,152 340,153.5 342.3,154.6 343.7,155.9 345.3,156.9 345.5,157.2 
	348.7,159.4 352.5,163.5 353.7,164.6 355,166 355.8,167.2 356.7,168.1 358.3,171.7 359,172.8 360.2,175.5 360.5,177.4 360.9,178.3 
	360.8,180.2 361.2,181.1 361.1,183 361.3,184 "/>
<polyline fill="none" stroke="#000000" stroke-miterlimit="10" points="357.8,382.8 358,383.2 357.7,383.8 357,387.7 356.7,388.9 
	355.9,390.6 355.8,392 354.4,395 353.4,396.6 352.3,397.8 351.3,399.3 350.5,400.8 347.8,403.5 346.6,405 345.2,406.2 343.9,407.8 
	342.3,408.8 340.5,410.1 338.8,411.8 335,414.2 331.8,416.1 331.1,416.7 329.3,417.4 326.8,419 325,419.6 322.3,421.1 320.5,421.9 
	318.7,422.4 317.5,423.3 313.9,424.4 312.5,425.3 308.8,426.3 305.3,427.4 301.7,428.4 299.9,429 296.1,430.2 290.6,431.3 
	290.2,431.2 288.4,431.8 286.5,431.8 282.5,432.9 278.7,433.3 274.5,434.1 272.1,434.4 270.2,434.2 266.5,434.9 265.9,434.8 
	260.2,435.3 259.5,435.1 257.6,435.4 255.7,435.3 253.1,435.7 251.2,435.5 249.3,435.8 247,435.5 245.1,435.8 243.2,435.5 
	240.6,435.5 236.9,435.2 235,435.3 232.3,435.2 230.4,434.9 228.6,434.9 226,434.7 224.2,434.2 222.3,434.1 221.6,434.4 218,433.7 
	216.1,433.6 215.5,433.3 210,432.4 209.5,432.1 207.6,432 204,431.1 203.5,431.3 201.6,430.9 198,430.1 197.7,429.8 195.9,429.2 
	194,428.9 188.4,427.4 184.8,426.2 182.9,425.8 181.4,424.9 179.6,424.4 176.3,423.1 174.7,422.3 172.9,421.7 165.3,418.1 
	163.7,416.9 162.7,416.4 161.1,415.4 158.6,414.2 157.1,413 155.4,412.2 155,411.4 153.4,410.5 150,407.9 148.8,406.4 144.3,402.2 
	143.2,400.8 142.2,399.1 139.3,394.9 137.9,391.9 137.5,390 136.8,388.9 136.8,386.9 136.3,385.7 135.9,383.7 136,382.6 "/>
<polyline fill="none" stroke="#000000" stroke-miterlimit="10" points="133.1,217 133.2,219.9 133.4,221 "/>
<polyline fill="none" stroke="#000000" stroke-miterlimit="10" points="133.1,220.8 133.2,221 133,222.8 133.2,223.5 132.9,225.5 
	"/>
<polyline fill="none" stroke="#000000" stroke-miterlimit="10" points="361.2,225.5 360.7,223.2 360.7,220.8 "/>
<polyline fill="none" stroke="#000000" stroke-miterlimit="10" points="360.8,221 360.7,220.8 361,218.9 360.8,218.2 "/>
<polyline fill="none" stroke="#000000" stroke-miterlimit="10" points="135.9,372.2 134.9,374.2 135,374.6 134.4,376.4 134.3,377.7 
	134.2,378 134,379.9 133.7,381.1 133.9,381.6 133.7,382 134.2,388 134.1,389.3 135,393 135.8,394.7 136,396.1 137,397.8 
	137.5,399.5 138.8,400.9 139.5,402.4 140.5,404 141.8,405.3 144.2,408.5 145.6,409.7 148.3,412.6 150.1,414 151.7,414.9 
	153.1,416.2 153.4,416.7 155.1,417.6 158.9,420.4 160.6,421.1 167.4,425 170.4,426.2 172.1,427 177.1,428.8 178.8,429.8 
	182.3,430.8 185.7,432.1 187.6,432.4 191.1,433.8 193,434.4 194.8,434.7 196.6,435.3 200.6,436.1 202.4,436.6 202.8,436.5 
	206.5,437.5 208.4,437.8 208.9,437.7 210.7,438.2 214.5,438.4 216.9,439 220.7,439.6 221.3,439.5 225.1,439.8 227,440.1 
	227.6,440.4 233.3,440.5 235.9,440.8 237.8,440.7 244.3,440.8 246.1,441.2 247,440.8 248.9,440.8 250.8,440.9 252.6,440.7 
	253.5,440.8 255.3,440.7 259.1,440.8 260,440.5 272.7,439.6 274.6,439.4 276.4,438.9 278.3,438.7 278.9,438.8 280.7,438.3 
	282.6,438.1 284.5,438.1 286.8,437.4 291.1,436.7 292.9,436.1 294.7,436 298.8,435 300.6,434.4 302.4,434.1 306.2,432.8 
	308.1,432.4 315.1,429.6 317,429.1 323.4,426.3 326.7,424.5 329.7,423.3 332.3,421.7 334,420.9 335.5,419.8 336.4,419.4 
	339.6,417.2 341.6,415.3 343.7,413.9 346.8,411.1 348.3,409.9 349.5,408.5 349.9,408.4 352,405.2 354.4,402.3 356.3,399.3 
	356.3,399.1 357,397.3 357.8,395.9 359,392.7 359.4,390.8 359.7,389.6 359.6,389.2 359.9,386.1 360.1,385.6 359.7,377.9 
	358.8,374.5 358.9,374.2 358.3,372.5 358,372.2 "/>
<polyline fill="none" stroke="#000000" stroke-miterlimit="10" points="361.4,203.1 361.4,201.5 361.2,200.8 361.2,197.6 
	361.3,196.8 "/>
<polyline fill="none" stroke="#000000" stroke-miterlimit="10" points="358,382.8 357.7,381.7 358,378.1 358.2,377.6 358.1,377.4 
	358,372.1 358.5,369 "/>
<polyline fill="none" stroke="#000000" stroke-miterlimit="10" points="359,355.1 358.6,353.2 358.6,352.5 358.3,351.8 358.7,350.7 
	"/>
<polyline fill="none" stroke="#000000" stroke-miterlimit="10" points="358.6,351 358.7,350.7 358.4,348.8 358.6,348.2 "/>
<polyline fill="none" stroke="#000000" stroke-miterlimit="10" points="359.4,333.8 359,332 358.9,329.3 "/>
<polyline fill="none" stroke="#000000" stroke-miterlimit="10" points="359.1,329.8 359,329.5 359,327.6 359.1,326.5 "/>
<polyline fill="none" stroke="#000000" stroke-miterlimit="10" points="359.6,312.5 359.3,310.3 359.5,309.4 359.1,308 "/>
<polyline fill="none" stroke="#000000" stroke-miterlimit="10" points="359.1,308.3 359.5,306.1 359.2,304.8 "/>
<polyline fill="none" stroke="#000000" stroke-miterlimit="10" points="359.9,291 359.6,289.1 359.7,287.9 359.6,286.4 "/>
<polyline fill="none" stroke="#000000" stroke-miterlimit="10" points="359.7,286.7 359.6,286.4 359.6,284.5 359.9,283.8 "/>
<polyline fill="none" stroke="#000000" stroke-miterlimit="10" points="360.4,269.3 360.1,267.4 359.9,266.9 360.1,266.4 
	360.1,264.7 "/>
<polyline fill="none" stroke="#000000" stroke-miterlimit="10" points="360.2,265 360,264.7 359.9,262 360.2,261.1 "/>
<polyline fill="none" stroke="#000000" stroke-miterlimit="10" points="360.7,247.5 360.6,245.6 360.3,245.1 360.5,244.6 
	360.2,242.8 "/>
<polyline fill="none" stroke="#000000" stroke-miterlimit="10" points="360.4,243.1 360.4,240.3 360.6,239.2 "/>
<polyline fill="none" stroke="#000000" stroke-miterlimit="10" points="132.8,196.7 132.6,199.4 132.9,200.8 132.7,201.5 132.7,203 
	"/>
<polyline fill="none" stroke="#000000" stroke-miterlimit="10" points="135.7,369.1 136,372.2 135.9,375.7 136.1,377.7 135.8,378.5 
	136.2,382.8 "/>
<line fill="none" stroke="#000000" stroke-miterlimit="10" x1="135.4" y1="347.9" x2="135.4" y2="351.1"/>
<polyline fill="none" stroke="#000000" stroke-miterlimit="10" points="135.5,350.8 135.3,352.7 135.4,353.2 135,355.1 "/>
<polyline fill="none" stroke="#000000" stroke-miterlimit="10" points="135.1,326.4 134.9,327 135.3,329.7 "/>
<polyline fill="none" stroke="#000000" stroke-miterlimit="10" points="135,329.4 135.3,331.6 135,332 134.8,333.9 "/>
<polyline fill="none" stroke="#000000" stroke-miterlimit="10" points="134.5,304.8 134.9,307.3 134.6,308.3 "/>
<polyline fill="none" stroke="#000000" stroke-miterlimit="10" points="134.5,308 134.7,310.1 134.3,312.5 "/>
<polyline fill="none" stroke="#000000" stroke-miterlimit="10" points="134.4,283.1 134.2,283.8 134.2,285.7 134.4,286.4 "/>
<polyline fill="none" stroke="#000000" stroke-miterlimit="10" points="134.2,286.4 134.3,288.6 134.1,291 "/>
<polyline fill="none" stroke="#000000" stroke-miterlimit="10" points="134,261.2 134,264 134.2,265 "/>
<line fill="none" stroke="#000000" stroke-miterlimit="10" x1="134.1" y1="264.7" x2="133.8" y2="269.3"/>
<polyline fill="none" stroke="#000000" stroke-miterlimit="10" points="133.5,239.1 133.3,240.2 133.6,242 133.6,243 "/>
<polyline fill="none" stroke="#000000" stroke-miterlimit="10" points="133.7,242.8 133.7,244.6 133.4,245.2 133.5,247.4 "/>
<polyline fill="none" stroke="#000000" stroke-miterlimit="10" points="357,371.7 358.2,369.2 358.5,369.1 358.5,367.8 358.9,366 
	359.4,364.7 359.7,361.6 359.6,359.8 359.6,358.6 359.5,355.4 358.5,352.4 358.5,351.7 "/>
<polyline fill="none" stroke="#000000" stroke-miterlimit="10" points="357.6,350.5 358,349.9 358.1,349.1 358.5,348.1 359.5,344.6 
	359.9,341.4 360.3,340.3 360.1,335.3 359.2,331.1 358.9,330.4 "/>
<polyline fill="none" stroke="#000000" stroke-miterlimit="10" points="358,329.1 358.4,328.2 358.8,326.8 359.1,326.5 359.5,325.2 
	359.6,323.3 360,322.1 360.5,317.2 360.5,316.1 360.1,314.2 360.1,313.1 359.4,310.1 358.9,309.5 "/>
<polyline fill="none" stroke="#000000" stroke-miterlimit="10" points="358.4,307.5 358.4,307.1 359,306.7 359.3,305.2 359.6,304.9 
	359.9,303.6 360.2,301.7 360.6,300.6 361.1,297.6 361,295.7 361.2,294.6 361,292.7 360.6,291.5 360.1,288.6 359.8,288 "/>
<polyline fill="none" stroke="#000000" stroke-miterlimit="10" points="358.8,285.7 359,285.5 359.1,284.7 359.8,283 360.4,279.8 
	360.9,278.7 361.3,276.9 361.2,275.8 361.3,273.9 361.2,272.8 361.2,269.8 360.1,266.8 360,266.2 "/>
<polyline fill="none" stroke="#000000" stroke-miterlimit="10" points="359,263.8 360.7,260 361.3,257 361.6,254 361.7,249.1 
	361.2,248.1 360.7,245 360.4,244.5 "/>
<polyline fill="none" stroke="#000000" stroke-miterlimit="10" points="359.5,241.9 360,240.9 361.1,238 361.5,236.2 361.9,233.2 
	362.2,232.2 362.1,230.3 362.2,229.3 361.9,227.4 361.4,226.3 361.2,224.5 360.7,222.9 "/>
<polyline fill="none" stroke="#000000" stroke-miterlimit="10" points="359.9,219.7 360.3,218.7 360.7,217.1 361.4,215.9 
	361.5,213.9 362,212.9 362.4,210 362.5,208.1 362.3,205.2 361.7,202.3 361.4,201.3 361.2,200.9 "/>
<line fill="none" stroke="#000000" stroke-miterlimit="10" x1="358.3" y1="348.9" x2="358.7" y2="348.2"/>
<polyline fill="none" stroke="#000000" stroke-miterlimit="10" points="359,327.5 358.8,326.9 358.9,326.7 "/>
<polyline fill="none" stroke="#000000" stroke-miterlimit="10" points="359.1,306 359.4,305.4 359.4,305.2 "/>
<line fill="none" stroke="#000000" stroke-miterlimit="10" x1="359.5" y1="284.3" x2="359.6" y2="283.4"/>
<polyline fill="none" stroke="#000000" stroke-miterlimit="10" points="135.4,351.8 134.7,354.3 134.1,358.6 134.2,361.7 
	134.5,364.8 135,366.6 135.1,368 135.4,369.4 136.6,371.9 "/>
<polyline fill="none" stroke="#000000" stroke-miterlimit="10" points="135.1,330.6 134.2,334.3 134.1,336.2 133.8,337.3 
	133.7,339.2 134.1,340.4 134.2,343.5 134.5,345.4 135.2,348 135.6,348.3 136,350 136.6,350.5 "/>
<polyline fill="none" stroke="#000000" stroke-miterlimit="10" points="134.7,309.4 133.8,313.1 133.5,316.1 133.7,318 133.5,321 
	134,322.1 135,326.5 135.9,328.7 136,329.1 "/>
<polyline fill="none" stroke="#000000" stroke-miterlimit="10" points="134.2,287.9 133.5,290.3 133.3,291.5 133.2,297.5 
	133.5,299.3 133.4,300.6 134,302.4 134.5,304.9 135.3,306.6 135.4,307.2 135.7,307.5 "/>
<polyline fill="none" stroke="#000000" stroke-miterlimit="10" points="133.8,266.3 133.4,268.8 132.8,269.8 132.5,274.7 
	132.6,275.9 132.9,277.7 132.9,278.9 133.3,280.8 134,283.2 135.3,285.5 135.2,285.8 "/>
<polyline fill="none" stroke="#000000" stroke-miterlimit="10" points="133.6,244.7 133.5,245.3 132.8,247.1 132.5,248.2 
	132.5,250.1 132.1,251.1 132.5,257.1 133.2,258.8 133.4,260 133.9,261.2 134.2,263 134.8,263.9 "/>
<polyline fill="none" stroke="#000000" stroke-miterlimit="10" points="133.1,222.8 132.8,223.2 132.5,225.1 132,226.2 132.1,228 
	131.8,229.1 131.9,230.9 132.2,235 132.5,236.9 132.9,238 133.6,239.1 133.6,239.5 134.6,241.9 "/>
<polyline fill="none" stroke="#000000" stroke-miterlimit="10" points="132.6,200.9 131.6,206 131.7,207.1 131.4,209 131.8,210 
	132.1,212.9 132.6,215.8 133.2,217.2 133.3,218 134.3,219.6 "/>
<polyline fill="none" stroke="#000000" stroke-miterlimit="10" points="134.2,191.3 133.7,189.8 133.6,187.9 133.8,186.9 133.5,185 
	133.6,182.2 134.2,181.2 134.4,179.4 135.6,175.6 138.1,171.3 140.9,167.5 142.4,166.3 143.3,164.9 144.8,163.7 145.9,162.3 
	147.6,161.3 149.1,160 152.5,157.7 155.9,155.1 159.2,153.5 161.5,152.3 163.3,151.6 164,151.2 167.5,149.7 168.3,148.9 
	170.1,148.3 171.8,147.5 173,147.4 177.8,145.4 179.7,145.1 182.9,143.8 186.6,143 188.2,142.4 190.1,142.1 191.8,141.4 
	195.5,140.8 197.3,140 199.2,139.8 201,139.3 202.9,139.1 204.9,138.6 206.8,138.6 208.6,138 210.4,137.7 210.7,137.6 212.6,137.3 
	214.5,137.2 218.5,136.4 222.3,136.3 222.6,136 226.4,135.8 228.3,135.5 232.5,135.5 234.9,135.2 238.6,135.1 240.5,135.2 
	241.1,134.9 243,134.9 249.1,135.1 251,135 252.9,135.1 253.5,135.3 255.3,135.2 257.2,135.3 259.7,135.6 265.3,135.5 265.8,135.8 
	267.7,136 269.6,136 271.4,136.3 271.9,136 277.9,137 279.8,137.1 281.6,137.6 283.5,137.7 285.6,138.2 289.4,138.6 291.4,139.3 
	295.2,139.6 299,140.7 300.8,141.1 302.6,141.7 304.5,142 311.4,143.9 314.9,145.4 318.2,146.3 319.9,147.1 327.6,149.9 329.2,151 
	331.9,152.1 333.5,153.1 334.4,153.2 338.2,155.5 341.9,157.7 346.8,161.1 348.1,162.5 351.1,165 352.1,166.6 355.4,170.3 
	356.3,172 357.1,173.1 357.9,174.9 358.5,175.9 359,177.8 359.6,178.7 359.8,180.6 360.1,181.5 360.5,183.4 360.5,184.3 
	360.8,186.2 360.5,187.2 360.2,190 359.7,191.5 "/>
<polyline fill="none" stroke="#000000" stroke-miterlimit="10" points="132.6,184.3 132.6,182.4 133,179.5 133.7,176.7 134.3,174.9 
	137.7,168.8 141.6,164.5 141.7,164 142.5,163.1 146.6,159.3 149.7,157 150.7,156.6 151.6,155.9 153.2,154.9 155.1,153.3 
	156.7,152.4 159,151.3 160.8,150.6 162.3,149.4 164.9,148.3 172.4,145.5 174.1,144.6 177.2,143.5 180.8,142.5 184,141.3 
	185.9,140.9 187.5,140.4 191.3,139.7 193.1,139.1 194.9,138.8 196.7,138.2 202.4,137.1 204.2,136.9 206.2,136.2 208.1,136.1 
	210.3,135.7 212.1,135.6 213.9,135 215.8,134.9 219.9,134.3 222.3,134.3 224.2,133.9 227.9,133.9 234,133 234.6,133.3 238.3,132.9 
	240.2,132.9 240.8,133 244.6,132.7 246.4,132.8 247,132.8 250.8,133 253.2,132.8 261.3,133.1 263.1,133.3 265.6,133.3 267.5,133.7 
	271.2,133.8 271.7,134.2 273.6,134.1 275.5,134.3 277.7,134.7 279.6,134.8 283.3,135.6 287.4,136 289.2,136.6 289.5,136.5 
	293.1,137.3 299,138.2 300.8,138.7 302.6,139.4 308.1,140.5 311.4,141.7 313.3,142.1 316.5,143.3 318.4,143.7 321.5,144.8 
	324.9,146.4 326.1,146.7 329.4,148.4 330.5,148.6 332.1,149.7 336.3,151.6 337.9,152.8 338.6,153 343.3,155.8 344.8,156.9 
	345.5,157.7 347.1,158.7 349.9,161.4 351.4,162.5 353.5,164.9 353.9,165.1 355.7,168 357.2,169.9 358.3,172.3 359,173.3 360.5,178 
	361.1,180.9 361,181.9 361.2,183.9 "/>
<polyline fill="none" stroke="#000000" stroke-miterlimit="10" points="163,217.2 163.8,217 165.5,216.1 167.2,215.3 168.1,214.6 
	169.8,213.8 171.5,213.3 174.3,212 176.1,211.3 177.5,211 179.2,210.3 182.6,209.4 184.3,208.7 186.2,208.3 189.6,207.1 
	191.5,206.8 195,205.8 196.9,205.5 198.7,204.8 202.5,204.1 204.4,203.5 206.3,203.5 212.1,202.5 215.9,202 216.3,201.8 220,201.5 
	224.2,201 226,201 227.9,200.8 228.4,200.5 232.1,200.4 234,200 234.6,200.1 240.2,199.9 242.7,200.1 248.9,199.8 255.1,200.2 
	256.9,200.1 259.4,200.5 261.3,200.3 263.1,200.7 265,200.7 265.5,200.9 271.1,201.2 279.5,202.3 281.4,202.3 283.5,202.9 
	285.4,202.8 289.4,203.9 291.3,204.1 295.1,204.9 298.8,205.9 300.7,206 302.5,206.6 306.2,207.3 307.9,208.2 309.7,208.8 
	311.3,209 313,209.8 314.8,210.4 316.2,211 318,211.5 321.1,212.7 322.8,213.6 325.8,214.6 329.2,216.2 330.1,216.9 331.1,217 "/>
<polyline fill="none" stroke="#000000" stroke-miterlimit="10" points="145.9,206.4 148.6,204.4 150,203.1 151.5,202 153.4,200.8 
	155.1,199.9 158.7,197.7 159.3,197.1 162.8,195.6 163.6,195 167,193.6 169.8,192.5 171.5,191.6 177.5,189.3 179.3,188.8 181,187.9 
	182.6,187.6 186.2,186.4 187.9,186.2 195.1,184.2 197,183.9 200.8,182.8 202.6,182.7 204.4,182.3 208.4,181.7 210.4,181 212.3,181 
	216,180.4 216.4,180.5 218.1,180 221.9,179.7 224.2,179.3 232.1,179.1 234,178.6 242.7,178.2 244.6,178.3 246.4,178.2 247,178.3 
	248.9,178.2 250.8,178.4 252.6,178.2 255.1,178.6 256.9,178.6 258.8,179 259.4,178.8 265.6,179 277.4,180.2 279.7,180.3 
	281.6,180.6 283.4,181 283.7,181 287.4,181.6 289.3,181.8 291.3,182.6 302.6,184.9 308,186.4 309.8,187.2 311.4,187.5 313.1,188.3 
	314.9,188.8 316.5,189 319.9,190.7 321.3,190.9 327.7,193.7 330.3,194.9 331.9,196 334.5,197.1 336,198.3 338.3,199.5 341.3,201.7 
	345,204 345.2,204.3 346.6,205.6 348,206.3 "/>
<polyline fill="none" stroke="#000000" stroke-miterlimit="10" points="136.2,195.4 137.4,193.9 138,192.9 140.1,190.2 142.5,187.5 
	144,186.3 145.1,184.8 148.4,182.6 149.7,181.1 151.4,180.3 151.6,179.9 153.2,179 154.7,177.9 155.3,177.8 160.8,174.6 
	162.6,173.9 163.4,173.3 165.1,172.5 166.7,171.7 169.6,170.8 172.3,169.2 175.9,168 177.2,167.3 180.8,166.4 182.2,165.7 
	184.1,165.5 185.8,164.7 187.5,164.2 189.4,164.1 192.9,162.8 196.6,162.3 200.4,161.2 209.9,159.6 215.8,158.9 216.3,159.1 
	221.8,158.1 222.3,158.3 224.2,158 226,157.9 227.9,157.5 230.3,157.4 232.2,157.7 234.7,157.3 238.4,157.2 240.3,156.9 
	242.8,157.1 244.6,156.9 246.5,157.2 247.1,156.9 249,156.7 250.8,157 255.3,156.9 261.5,157.4 263.3,157.4 265.8,157.7 
	267.7,157.8 269.5,158.2 272,158.1 273.9,158.5 278.1,159 280,159.4 281.9,159.5 284.1,159.9 287.9,160.4 289.6,160.9 290,160.8 
	297.6,162.3 299.4,162.7 301.3,163.5 303.1,163.9 305,164.1 308.5,165.2 310.4,165.5 313.8,166.8 315.5,167.5 317.1,167.9 
	320.6,169.2 322,169.5 323.6,170.4 328.3,172.3 330,173.1 330.8,173.8 332.6,174.5 334.2,175.5 339,178 340.5,179.1 342.2,179.9 
	342.5,180.4 345.7,182.5 348.8,185.3 350.4,186.5 351.8,187.9 352.9,189.4 356.3,193.3 357,195 358,195.9 "/>
<polyline fill="none" stroke="#000000" stroke-miterlimit="10" points="193.7,227.6 197.4,226.8 199,226.3 200.9,226 202.6,225.5 
	204.7,225.3 208.4,224.5 210.3,224.4 210.4,224.2 212.3,223.8 216.1,223.3 216.4,223.2 222,222.7 222.4,222.5 224.2,222.6 
	226.1,222.2 228,222.3 228.5,221.9 230.3,221.8 234.1,222 234.6,221.8 240.2,221.5 240.8,221.7 246.4,221.3 247,221.5 250.8,221.3 
	252.6,221.5 253.2,221.3 256.9,221.7 259.4,221.6 261.3,221.7 269.3,222.4 271.6,222.4 273.5,222.9 279.5,223.4 283.2,224.1 
	285.3,224.4 287.1,224.8 289,225.1 289.2,225.3 291.1,225.4 292.9,226 294.8,226.5 298.6,227.1 300.2,227.6 "/>
<line fill="none" stroke="#000000" stroke-miterlimit="10" x1="134.3" y1="283.3" x2="134.4" y2="284.3"/>
<line fill="none" stroke="#000000" stroke-miterlimit="10" x1="134.6" y1="305.1" x2="134.8" y2="305.9"/>
<line fill="none" stroke="#000000" stroke-miterlimit="10" x1="135.1" y1="326.7" x2="135.1" y2="327.5"/>
<line fill="none" stroke="#000000" stroke-miterlimit="10" x1="135.4" y1="348.2" x2="135.7" y2="348.9"/>
<polyline fill="none" stroke="#000000" stroke-miterlimit="10" points="360.6,218.5 359.9,221.4 359,224.1 357.4,227 355.7,229.7 
	353.4,232.7 350.9,235.4 349.6,236.7 345,240.5 341.9,242.8 338.4,244.9 333.6,247.7 324.5,252 319.9,253.6 314.4,255.8 311,256.7 
	307.1,257.9 303.5,258.8 301.8,259.1 299.8,259.8 295.9,260.5 292,261.6 286,262.7 281.9,263.2 279.2,263.8 277.3,264.1 
	273.1,264.3 266.3,265.3 263,265.2 258.3,265.5 253.9,265.4 251.7,265.8 244.9,266 243,265.9 240.5,265.5 238.4,265.7 236.9,265.3 
	235.1,265.2 228.2,265.1 225.5,264.8 214.6,263.6 212.9,263.1 202.8,261.6 198.8,260.4 196.3,260.3 194.3,259.9 188.6,258.3 
	187.1,257.5 185,257.2 181.3,256 179.3,255.7 177.5,255 175.7,254.5 169.6,251.6 165.7,250.5 160.5,247.3 158.7,246.5 156.1,245.2 
	154.7,244.1 152.5,242.8 151,241.7 148.9,240.4 144.4,236.6 143.1,235.1 140.4,232.6 138.3,229.8 136.4,227.1 135.7,225.3 
	133.9,221.5 133.1,218.6 "/>
<polyline fill="none" stroke="#000000" stroke-miterlimit="10" points="358,370.8 357.1,374.4 354.9,379.7 351.1,385.4 348.7,388.2 
	345.7,391.2 342.6,393.9 339.4,396.4 335.6,399.1 327.1,403.9 322.7,406 314.4,409.4 309.5,411 305.6,412.5 294.5,415.5 
	292.9,415.7 285.1,417.3 281.2,417.7 278.6,418.4 262.4,420.1 260.6,420.1 257.8,420.4 256.1,420.3 253.4,420.5 247.8,420.4 
	243,420.6 240.8,420.2 234.9,420.3 228.7,419.7 224,419.5 221.5,419.1 218.1,418.3 213.5,417.9 207.3,417 205.7,416.4 203.6,416.3 
	201.2,415.8 195.4,414.4 193.8,413.7 190,412.7 186.4,411.5 184.2,411.3 177.6,408.3 174,407.4 172.5,406.5 167.8,404.2 164.8,403 
	163.2,402 162.3,401.4 156.6,398.1 154.4,396.6 153,395.4 151,394.1 149.7,392.8 145.3,388.4 144.1,387 142.5,386 141.4,384.5 
	139.8,381.2 138.9,380 137.4,377 136.9,375.2 136.3,374.1 135.6,371 "/>
<polyline fill="none" stroke="#000000" stroke-miterlimit="10" points="358.4,348.9 357.5,352.6 356.7,354.9 355.4,357.8 
	353.6,360.7 351.9,363 349,366.4 347.6,367.8 342.8,372.1 336.3,376.7 331.8,379.3 324,383.4 319.3,385.4 313,387.9 305.8,390.2 
	298.8,392 296.4,392.9 287.1,394.5 284.6,395.2 281.2,395.5 278.6,395.9 275.1,396.2 268.4,397.4 255.9,398 253,398.4 251.3,398.2 
	244.9,398.2 238.7,397.8 236.6,398 227.6,397.4 225.6,397.4 221.3,396.7 217.5,396.4 215.1,395.9 211.3,395.5 205.5,394.1 
	202.8,394 201.2,393.3 199.3,392.9 195.5,391.8 191.7,391.1 188.2,389.7 186.3,389.2 184.2,388.8 182.6,388 180.8,387.7 
	178.9,387.1 175.9,385.5 172.4,384.1 170.8,383.8 164.6,380.7 160.4,378.3 158.7,377.4 154.4,374.3 153,373.1 151.3,372.3 
	149.5,370.8 146.7,367.7 145.2,366.5 143.2,364.2 141.6,361.9 138.9,357.7 137.5,354.8 136.6,353.3 136.2,352.1 135.7,348.8 "/>
<polyline fill="none" stroke="#000000" stroke-miterlimit="10" points="358.9,327.4 358.2,330.3 357.2,333.3 354.7,338 353.9,339.2 
	351.6,342.3 349.3,344.8 346.2,347.9 343.1,350.6 339.9,352.9 334.3,356.7 330.3,358.8 324.2,361.8 319.6,363.8 314.9,365.5 
	311.3,367 300.6,370 290.9,372.2 285,373.2 280.9,374.1 278.9,374.1 272.3,375.4 268.9,375.5 264.3,376 258.1,376.2 251.2,376.9 
	247.8,376.6 245.1,376.6 243.4,376.4 236.5,376.7 234.1,376.2 230.4,375.8 225.8,375.7 219.6,374.9 217.4,375 215,374.4 213.4,374 
	209.5,373.5 209,373.3 203.4,372.4 197.5,371 193.2,370.3 191.5,369.7 189.9,368.9 185.9,368 178.7,365.8 173.9,363.6 170.6,362.5 
	169,361.5 164.4,359.4 160.1,357 153.9,353.2 152.2,351.7 150.6,350.6 149.4,349.1 147.5,347.8 143.2,343.9 140.2,339.3 
	139.2,337.6 138.2,336.5 137.2,334.9 136.9,333.4 135.9,331.2 135.1,327.4 "/>
<polyline fill="none" stroke="#000000" stroke-miterlimit="10" points="359.3,305.8 358.6,308.8 357.6,311.7 355,316.4 352,320.6 
	349.5,323.5 348,324.9 343.8,328.7 340.3,331.2 336.4,333.8 332.3,336.3 330.9,336.9 328.1,338.4 323.5,340.6 309.9,345.8 
	305,346.9 301,348.1 297.4,348.9 293.2,350.1 289.4,350.8 285.1,351.7 283.4,351.9 281.3,352.4 277.2,352.8 275.2,353.2 
	268.9,353.9 266.3,354.1 262.8,354.1 260.1,354.4 256.4,354.4 254.3,354.7 250,354.5 245.1,354.9 238.6,354.7 230.4,354.1 
	228,353.7 222,353.5 217.7,352.7 211.1,352.2 209,351.4 205.2,350.8 203.1,350.2 196.9,349.2 189.3,347.4 184.1,345.4 177.5,343.4 
	176.2,342.9 174.2,342.2 169,339.6 164.2,337.6 162.7,336.7 161.7,336.2 156.3,332.6 150.7,329.3 147.9,326.1 143.3,322.1 
	139.9,318 138.5,314.8 137,311.9 135.4,308 135.1,306 "/>
<polyline fill="none" stroke="#000000" stroke-miterlimit="10" points="359.5,284.4 358,290 354.7,295.8 352.5,298.6 349.9,301.5 
	347.1,304.2 344,306.9 340.5,309.4 335,312.9 329.3,316 320.1,320.1 317.2,321.2 315.2,322 308.5,324.2 306.8,324.5 302.8,325.8 
	299.3,326.4 297.3,327.2 291.7,328.2 289.3,329 285.1,329.6 283.5,330.1 279,330.5 277,330.5 272.8,331.4 269.9,331.6 268,331.9 
	265.2,331.9 260.1,332.2 258.3,332.2 254.2,332.6 253.6,332.5 247,332.7 243.4,332.4 241.3,332.6 235,332.1 232,332.2 230.1,332.1 
	225.8,331.4 221.7,331.1 219.3,330.7 217.1,330.7 214.8,330.4 211.9,329.8 210.1,329.7 206.5,329.2 204.7,328.9 202.8,328.2 
	198.9,327.6 191.2,325.8 183.9,323.2 178.1,321.9 175,320.5 173.1,320 170.3,318.4 166.6,317.1 165.6,316.4 161.1,314.3 
	159.7,313.2 158,312.2 157.1,311.9 155.7,310.7 152,308.2 148.7,305.4 147,304.4 144.2,301.5 143.1,299.8 141.8,298.5 140.8,296.8 
	138.6,294.2 135.4,287 134.5,284.1 "/>
<polyline fill="none" stroke="#000000" stroke-miterlimit="10" points="359.9,262.5 359.3,265.4 358.1,268.3 356.7,271.3 
	354.8,274.3 352.8,276.9 350.3,279.6 347.5,282.3 344.5,284.9 340.8,287.7 339.1,288.8 335.5,290.9 328.7,294.5 324,296.6 
	315.7,299.8 306.8,302.7 305.2,303 297.3,305.3 293.9,305.7 289.6,306.7 281.6,308.2 275.6,308.8 273.2,308.9 269.2,309.6 
	267.5,309.6 260.9,310.3 258.4,310.2 256.3,310.4 245.1,310.6 238.7,310.3 234.8,310.3 230.4,309.8 225.7,309.7 222.2,309.1 
	221.3,309.2 211.1,308.1 207,307.1 203,306.7 200.9,306 197,305.5 195,304.7 191.4,303.9 187.7,302.5 185.5,302.2 181.9,301 
	175.1,298.5 171.3,297.5 168.2,296 166.8,294.9 163.9,293.5 161,292.4 159.4,291.5 153.9,288 151.9,286.3 148.3,283.8 146.8,282.6 
	142.5,278.3 136.4,269.8 135.3,266.6 134.7,265.6 134.1,262.6 "/>
<polyline fill="none" stroke="#000000" stroke-miterlimit="10" points="360.3,240.5 359.9,242.3 358.5,246.4 357.2,249.2 
	356.3,250.7 353.1,254.9 350.8,257.4 347.9,260.1 342.9,264.1 335.6,268.8 330.1,271.6 324.4,274.3 315.9,277.6 308.9,279.8 
	303.5,281.2 301.4,282 289.7,284.4 285.7,285 281.7,285.8 279.4,286 275.7,286.5 269.6,287 266.6,287.4 261.1,287.7 256.1,288.4 
	253.4,288.4 248.1,288 247,288.2 243.1,288.2 236.9,287.7 233.7,287.9 231.9,287.8 228.2,287.4 227.5,287.2 220.8,287 217.2,286.4 
	215.5,285.9 209,285.2 206.3,285 202.9,283.9 200.4,283.7 197,282.6 190.8,281.5 188.9,280.8 185.3,279.8 183.5,279.1 179.5,278.3 
	175.9,277.1 172.8,275.5 169.5,274.3 168,273.3 166,272.8 163.1,271.4 160.6,269.7 157.2,268.1 153.1,265.6 151.1,263.9 
	147.6,261.6 143.1,257.5 142,256 140.6,254.8 138.5,252.1 137.6,250.3 136.8,249.2 135.2,246.5 134.2,243.3 133.9,242.8 
	133.2,240.7 "/>
<polyline fill="none" stroke="#000000" stroke-miterlimit="10" points="355.1,199.3 352.8,195.7 351.5,194.3 350.2,193.2 
	347.6,190.5 346,189.5 343.1,186.9 341.2,185.8 339.4,185 336,182.6 333.8,181.2 331.9,180.6 328,178.3 323.5,176.5 321.9,175.7 
	317,174.2 314.2,172.9 310.8,171.9 309.3,171.2 304,169.7 300.4,168.9 296.9,167.8 292.9,167.4 291,167.1 287.5,166 283.4,165.5 
	277.9,164.6 275.6,164.5 267.8,163.6 263.3,163.5 259.9,163 257.3,163.1 253.4,162.6 251.2,162.9 249.1,163 245.2,162.7 
	240.9,162.8 237.1,163 234.5,163.3 231,163.2 224.7,163.8 222.6,163.8 218.5,164.5 206.9,166 199.2,167.4 193.7,168.7 188.1,170.3 
	183.2,171.5 179.1,173.2 174.4,174.7 168.6,176.9 162.5,179.9 156.8,183 149.3,188.2 146.2,190.7 143.3,193.5 141.2,195.9 
	138.7,199.3 "/>
<polyline fill="none" stroke="#000000" stroke-miterlimit="10" points="324.2,220.1 322.4,219.6 318.6,217.9 316.6,217.4 
	313.8,216.1 308.7,214.6 306.7,214.3 303.5,213.1 301.6,212.7 300,212.1 296.3,211.3 292.5,210.7 290.9,210.2 288.8,209.9 
	287.1,209.4 279.3,208.4 277.3,208.3 275.3,207.8 267.7,206.8 265.1,206.9 259.2,206.3 253.5,206.2 251.3,206 246.9,206 
	244.8,206.2 240.8,206 236.8,206.4 231,206.3 226.6,206.9 223,207 220.5,207.5 216.7,207.6 214.8,208 212.6,208.6 207,209.3 
	202.8,210.3 195.7,211.5 191.8,212.7 188.6,213.4 183,215.3 178.5,216.5 174.4,218.3 171.6,219.3 169.5,220.3 "/>
<polyline fill="none" stroke="#000000" stroke-miterlimit="10" points="343.6,209.9 341.1,207.6 337.2,205.5 335.9,204.3 
	334.3,203.3 331.8,202.3 329.7,200.8 326,199.5 323.6,198.1 320.7,196.9 319.1,196.2 317,195.9 315.6,195.5 312.3,194 309,193 
	307,192.7 301.9,191.1 298.3,190.4 296.7,189.8 294.9,189.3 291,188.8 287.3,188 281.3,187.3 279.7,186.9 273.7,186.2 272,185.9 
	267.6,185.8 263.6,185.2 259.6,185.3 257.4,185 253.7,184.8 251.2,184.8 249.1,185 245.1,184.7 241.4,184.6 239.1,184.5 
	234.6,184.9 231.1,184.8 229.1,185 226.6,185.5 216.6,186.3 210.7,187.3 205.2,187.9 197.3,189.9 194,190.4 192.2,190.9 
	190.2,191.6 186.9,192.3 179.5,194.9 176.5,195.9 168.9,199 163.1,201.7 156.7,205.3 150.1,209.9 "/>
<polyline fill="none" stroke="#000000" stroke-miterlimit="10" points="285.3,230.7 277.3,229.3 269.5,228.4 255.4,227.6 
	253.5,227.7 251.3,227.5 243.2,227.5 241.2,227.2 237,227.7 233.1,227.7 231,227.9 225.3,228.1 222.6,228.7 217.1,229.3 
	215.1,229.4 208.6,230.7 "/>
<polyline fill="none" stroke="#000000" stroke-miterlimit="10" points="330.2,271.4 332,270.8 332.6,270.3 334.4,269.6 340.3,266.1 
	341.8,264.9 344.8,262.9 347.6,260.3 351.8,257.1 355.9,252.2 358,249.4 359.4,246.3 360.1,245.1 361.2,242.2 361.5,240.3 
	362.1,239.3 362,237.4 362.2,236.4 "/>
<polyline fill="none" stroke="#000000" stroke-miterlimit="10" points="361.7,280.4 360.7,285.2 359.8,288.2 358.5,291 356.7,293.7 
	356.1,295.1 354.8,296.5 353.9,298 351.3,300.7 348.9,303.5 347.3,304.7 345.9,306 341.2,309.6 338.1,311.6 335.1,312.8 
	334.5,313.6 332.8,314.5 330.2,315.4 329.7,315.8 327.9,316.5 327.3,317 325.6,317.9 323,318.8 316.5,321.4 305.4,324.8 
	303.5,325.2 298.1,326.6 294.1,327.5 286.2,328.8 285.6,329 283.8,329.5 280.1,329.9 279.4,330.2 275.7,330.3 273,330.9 
	269.3,331.1 266.5,331.5 260.9,331.7 260.1,332 258.2,331.8 253.5,332 251.6,331.9 249.7,332.2 245,332 243.1,332.2 241.3,332 
	240.3,332 234.7,332 231.9,331.6 225.3,331.2 223.4,330.8 216.9,330.3 215.1,329.9 214.3,330 212.4,329.6 210.5,329.4 208.6,329 
	207.9,329 206.1,328.5 204.2,328.3 202.5,327.6 201.8,327.8 198.1,326.8 195.8,326.6 192.2,325.4 190,325.2 186.4,323.8 
	184.5,323.4 182.7,322.7 179.5,322 169.9,318.4 168.8,317.9 167,317.2 166.4,316.5 164.5,316.2 164,315.5 161.7,314.6 157.7,312.3 
	157,311.8 154.2,310.3 151.2,308.2 148.3,305.8 146.6,304.8 143.9,301.9 142.3,300.9 138.6,296.4 137.5,295 136,291.9 134.8,290.4 
	134.4,289.1 133.2,286.2 132.6,283.2 132.5,281.3 132.1,280.2 "/>
<polyline fill="none" stroke="#000000" stroke-miterlimit="10" points="329.8,315.9 329.7,314 329.9,312.1 329.8,308.4 330.1,306.5 
	329.8,304.8 329.7,302.9 329.9,301 329.8,299.2 330,297.3 330,295.4 329.8,293.7 330.1,291.8 330.2,286.2 330.1,282.6 330.2,278.9 
	330.2,271.5 "/>
<polyline fill="none" stroke="#000000" stroke-miterlimit="10" points="163.7,271.4 165.5,272.1 170.3,274.5 171.6,274.8 
	173.3,275.6 175.2,276 176.9,277 179.5,277.6 181.3,278.4 183.2,278.7 184.6,279.1 186.3,279.9 188.2,280.2 191.9,281 193.7,281.7 
	197.7,282.7 201.4,283.2 203.8,283.8 207.5,284.3 208.1,284.7 213.7,285.2 214.4,285.4 216.3,285.5 220.8,286.3 227.3,286.7 
	229.1,287 237.6,287.4 244.3,287.3 246.1,287.4 247.2,287.6 249.1,287.4 255.7,287.4 259.5,287.1 260.5,287.3 267.1,286.9 
	269,286.4 272.7,286.3 275.5,285.7 277.4,285.8 285.6,284.6 286.4,284.6 290,283.7 292.6,283.5 294.3,282.9 298.1,282.4 
	298.6,282.1 302.2,281.4 304.3,280.6 306.2,280.5 309.7,279.2 314.8,278 318.3,276.5 322.7,275.2 327.3,273.1 328.3,273.1 
	329.9,271.9 330.6,271.8 330.7,267.9 330.5,258.7 330.8,254.9 330.8,253 330.6,251.1 330.8,249.5 330.8,245.7 331,243.8 331,238.4 
	330.8,236.5 331.1,229 330.9,222.3 "/>
<polyline fill="none" stroke="#000000" stroke-miterlimit="10" points="164.4,315.9 164.1,314 164.2,312.1 164.1,310.3 164.4,308.4 
	163.9,304.8 163.9,302.9 163.9,301 164.1,299.2 163.9,297.3 163.9,293.7 164,289.9 163.9,286.2 164,284.3 163.8,282.6 164,280.8 
	163.8,278.9 164,275.1 163.7,273.2 164,271.5 "/>
<polyline fill="none" stroke="#000000" stroke-miterlimit="10" points="132,236.4 132.3,239.4 132.7,242.4 133.9,245.3 137.2,251 
	139.2,253.9 141.9,256.5 142.2,257.1 144.7,259.1 146.3,260.2 147.6,261.8 149.2,262.8 150.7,264 152.4,264.9 155.3,267 158,268.7 
	159,269 160.7,269.8 163,271.3 163.6,271.4 163.7,269.6 163.6,267.7 163.6,265.8 163.5,263.9 163.7,262 163.5,260.4 163.5,256.6 
	163.2,252.8 163.6,249.3 163.4,247.4 163.5,245.5 163.3,238.2 163.1,236.3 163.5,234.4 163.3,232.6 163.4,230.7 162.9,222.1 "/>
<line fill="none" stroke="#000000" stroke-miterlimit="10" x1="360.7" y1="242.6" x2="462.3" y2="299.7"/>
<line fill="none" stroke="#000000" stroke-miterlimit="10" x1="362.1" y1="194.9" x2="462.3" y2="252.1"/>
<line fill="none" stroke="#000000" stroke-miterlimit="10" x1="360.3" y1="286.5" x2="462.3" y2="343.6"/>
<line fill="none" x1="462.3" y1="343.6" x2="462.3" y2="252.1"/>
<text transform="matrix(1 0 0 1 479.4261 288.6717)" font-family="'ArialMT'" font-size="28.2723">A</text>
<text transform="matrix(1 0 0 1 479.4261 340.5984)" font-family="'ArialMT'" font-size="28.2723">A</text>
<line fill="none" stroke="#000000" stroke-miterlimit="10" x1="300.7" y1="372.2" x2="402.3" y2="429.3"/>
<line fill="none" stroke="#000000" stroke-miterlimit="10" x1="300.4" y1="416.1" x2="402.3" y2="473.2"/>
<line fill="none" x1="402.3" y1="473.2" x2="402.3" y2="429.3"/>
<text transform="matrix(1 0 0 1 419.5121 470.1566)" font-family="'ArialMT'" font-size="28.2723">A</text>
<polyline fill="none" stroke="#000000" stroke-miterlimit="10" points="299.3,414.3 293.5,415.3 291.7,415.9 289.5,416.1 
	287.7,416.8 283.5,417.3 279.1,418.2 275.4,418.7 273.5,418.8 272.8,419.1 270.9,419.1 267.2,419.5 266.4,419.7 262.7,419.6 
	260.8,420 258.1,420 256.2,420.3 249.7,420.2 247.8,420.5 247,420.4 243.2,420.4 238.6,420.1 236.8,420.4 234.9,420 234,420.1 
	230.3,419.6 227.5,419.5 225.7,419.1 223.8,419.2 221.9,418.8 221.2,418.9 215.5,418.3 214.8,418 213,417.9 209.3,417.3 205,416.3 
	203.2,415.8 200.9,415.4 199.1,414.8 197.2,414.7 194.9,414.2 "/>
<polyline fill="none" stroke="#000000" stroke-miterlimit="10" points="297.2,414.6 297.4,412.8 297.3,409 297.4,407.1 297.4,405.2 
	297.5,403.9 297.2,400.2 297.3,394.5 297.5,391.3 297.4,385.7 297.5,383.8 297.4,380.6 297.5,378.7 297.4,376.9 297.5,373.1 
	297.4,371.8 292,372.8 291.6,373.1 289.7,373.3 286.1,374.1 285.6,374.4 283.7,374.8 277.4,375.5 273,376.2 271.1,376.3 
	269.3,376.6 267.4,376.5 262.9,377.1 260.2,377.3 258.3,377.2 256.4,377.4 253.6,377.6 251.7,377.4 249.8,377.6 247,377.5 
	245.1,377.6 241.4,377.4 240.4,377.6 236.7,377.1 234.8,377.3 232,376.9 228.3,377 227.5,376.6 223.7,376.5 219.2,376 217.3,375.8 
	214.8,375.2 211,374.8 209.1,374.3 208.5,374.4 202.5,373 200.6,372.7 198.8,372.2 196.9,372.1 196.5,371.9 "/>
<polyline fill="none" stroke="#000000" stroke-miterlimit="10" points="196.6,414.6 197,412.8 196.8,410.9 196.9,409 196.4,402 
	196.7,398.3 196.6,396.4 196.8,394.5 196.7,393.2 197,391.3 197,389.5 196.7,387.6 196.8,383.8 196.5,380.6 196.9,376.9 196.7,375 
	196.7,371.8 "/>
<polyline fill="none" stroke="#000000" stroke-miterlimit="10" points="428.9,660 429,659.3 428.8,658.4 428.9,657.7 428.8,656.9 
	428.9,655.3 428.8,654.5 428.9,653.8 428.9,653 429,651.4 428.8,649.8 429,649 428.9,648.3 428.9,647.5 428.8,646.7 429,645.9 
	429,644.4 428.9,643.6 429,642 429,641.2 428.9,640.4 429,638.9 429,637.3 428.9,634.2 429,633.4 428.9,631 428.9,630.2 
	428.8,629.5 429,627.9 428.9,625.6 429,624.8 428.9,623.2 429,622.4 428.9,621.6 429,620.8 429,619.3 428.9,618.5 429,617.7 
	428.9,616.1 428.9,615.4 429,613.8 428.9,611.4 429,609.1 428.9,608.3 429,607.5 428.9,606.7 429,606 429,605.2 428.8,604.4 
	429,603.6 429,601.2 428.9,599.7 429,598.1 429,595 429.1,594.2 428.9,592.6 428.9,590.3 428.9,588.7 429,587.2 428.9,583.2 
	429,582.4 428.9,581.7 429,580.9 428.8,577 429,575.4 428.9,570.7 429,569.9 429,569.1 428.8,568.4 429,567.6 428.9,566 429,565.2 
	428.9,564.4 429,562.9 428.9,556.6 429,555 428.9,554.2 429,553.5 428.9,551.9 429,550.3 428.8,549.5 429,548.8 429,546.4 
	429,545.6 429.1,544.8 428.9,543.3 429,541.7 429,539.4 429,537.8 429,537 429,536.2 428.9,534.6 429,532.3 428.9,530.7 429,529.2 
	428.9,528.4 429,526 428.9,525.2 429,524.5 428.9,522.1 429,519 428.9,518.2 429,516.6 428.9,515.8 429,514.3 429,510.3 429,509.6 
	"/>
<polyline fill="none" stroke="#000000" stroke-miterlimit="10" points="135.6,509.4 134.8,509.3 134,509.4 133.3,509.4 130.9,509.4 
	130.7,509.4 129.9,509.3 126.8,509.3 126,509.4 125.2,509.3 124.4,509.3 124.4,509.3 121.2,509.4 117.9,509.3 116.3,509.4 
	115.5,509.3 114.8,509.2 114,509.4 113.2,509.3 112.4,509.4 112.1,509.4 112.2,510.1 112,511.7 112.2,512.5 112.1,513.2 
	112.1,515.6 112,517.2 112.1,518 112.1,520.3 112.1,521.9 112.1,523.4 112.1,525.8 112,526.6 112.1,528.9 112.1,529.7 112,530.5 
	112.1,532.8 112.1,533.6 112,535.2 112.1,537.5 111.9,538.3 112.1,539.1 112,540.7 112.1,542.3 112,544.6 112.1,547 112,548.6 
	112,549.3 112.1,551.7 112.1,552.5 112.2,553.3 112.2,554.9 112.1,557.2 112.2,558 112.1,558.8 112.1,560.4 112,561.9 112.1,565.1 
	112.1,566.7 112.2,567.5 112,568.3 112.1,569 112.1,572.2 112.2,573 112.1,574.5 112.1,575.3 112.1,576.9 112.1,578.5 112.2,580 
	112.1,580.8 112.2,581.6 112.2,582.4 112.2,583.2 112.1,583.9 112.2,586.2 112.2,587 112.2,587.8 112.1,589.4 112.2,590.2 
	112.1,593.3 112.2,597.1 112.1,598.7 112.2,600.3 112.1,601.8 112.1,602.6 112.1,603.5 112.2,604.2 112.1,607.4 112.2,608.1 
	112.1,608.9 112.2,609.7 112.2,610.5 112.1,611.3 112.1,612.1 112.2,612.9 112.1,614.4 112.1,615.2 112,617.5 112.1,619.9 
	112.1,623 112,623.8 112.1,625.4 112,626.9 112.1,627.8 111.9,628.5 112.1,629.3 112.1,630.1 112,630.9 112.1,632.4 112,634 
	112.1,636.4 112.1,637.9 112.1,639.5 112,641.1 112.1,642.6 112.1,643.4 112,645 112.2,646.6 112.1,647.3 112.1,648.1 112,648.9 
	112.1,649.7 112.1,652 112.1,655.2 112.2,656 112.1,656.7 112.1,657.5 112.2,658.3 112.1,659.1 112.1,659.9 115.5,659.9 
	119.5,659.8 120.3,659.8 121,660 121.8,659.9 122.6,660 124.2,659.9 124.4,659.8 127.5,659.9 129.1,659.8 129.8,659.9 130.6,659.9 
	130.7,660 131.5,659.8 133.1,659.9 133.8,659.8 134.6,659.9 135.4,659.8 136.2,660 137,659.9 138.5,659.9 138.8,659.8 140.4,660 
	141.2,660 142,659.8 142.7,659.9 143.5,660 147.4,659.9 148.2,659.8 149,659.9 151.3,659.9 152.1,659.9 152.9,659.8 154.5,660 
	156.8,659.8 157.6,660 158.9,659.8 160.4,659.9 161.2,659.8 162,659.9 162.8,659.8 164.4,659.9 165.2,659.7 165.9,659.9 
	166.7,659.8 168.7,659.9 171,659.8 172.6,659.9 174.2,659.7 174.9,659.8 175.7,659.7 176.5,659.8 177.8,659.7 179.4,659.8 
	180.2,659.7 181,659.9 181.8,659.7 182.5,659.7 183.3,659.9 184.1,659.7 185.7,659.7 186.7,659.8 187.4,659.7 188.2,659.9 
	189.8,659.7 192.9,659.7 193.7,659.7 194.8,659.7 195.6,659.9 197.2,659.9 198,659.8 198.8,659.9 199.6,659.8 201.9,659.9 
	203.5,659.9 204.5,659.8 205.2,659.8 206,659.7 207.6,659.7 209.9,659.8 210.7,659.7 211.5,659.9 213.1,659.8 214.9,659.9 "/>
<polyline fill="none" stroke="#000000" stroke-miterlimit="10" points="112.2,509.4 112.2,510.2 112.3,511 112.2,511.8 112.2,512.5 
	112.1,514.1 112.1,515.7 112.2,516.5 112.2,517.3 112.1,518 112.1,519.6 112.1,520.4 112.1,521.2 112.2,522.7 112.1,524.3 
	112.2,525.1 112.2,525.9 112.2,526.7 112.1,527.4 112.2,528.2 112.1,529 112.1,529.8 112.2,530.6 112.1,531.4 112.2,532.1 
	112.1,534.5 112.2,536.1 112.1,536.8 112.1,537.6 112.2,538.4 112.1,540.8 112.1,542.3 112.1,543.1 112.2,544.7 112.1,546.2 
	112.2,547.8 112.1,548.6 112.2,549.4 112.2,550.2 112.1,550.9 112.2,551.7 112.2,555.7 112.2,556.4 112.2,558 112.2,558.8 
	112.2,559.6 112.1,560.3 112.2,561.1 112.1,563.5 112.2,564.3 112.1,565.1 112.2,565.8 112.2,567.4 112.2,568.2 112.2,569 
	112.3,569.7 112.3,570.5 112.2,571.3 112.3,572.1 112.2,572.9 112.2,574.5 112.2,575.2 112.2,579.9 112.1,580.7 112.2,581.5 
	112.1,582.3 112.2,583.1 112.3,583.9 112.3,584.6 112.1,585.4 112.2,586.2 112.1,587 112.3,587.8 112.1,589.3 112.2,590.1 
	112.2,590.9 112.3,592.5 112.2,593.3 112.2,595.6 112.3,598.7 112.2,599.5 112.2,600.3 112.2,601.1 112.3,601.9 112.2,602.7 
	112.2,603.5 "/>
<polyline fill="none" stroke="#000000" stroke-miterlimit="10" points="296.1,660.1 296.9,660.1 297.7,660 300,660.1 301.6,660 
	302.4,660.1 304,660 305.5,660.1 305.9,660.1 307.5,660.2 308.2,660.1 309.8,660 313.7,660.1 314.5,660.1 316.1,660.1 316.9,660.2 
	317.6,660.1 318.4,660.2 319.2,660.1 320,660.1 320.8,660.2 321.5,660.1 322.4,660.1 326.3,660.1 327.3,660 329.7,660.1 331.2,660 
	332.8,660.1 339.3,660.1 340,660.2 340.8,660.1 341.6,660.2 342.4,660.1 343.2,660 344,660 344.8,660.2 345.9,660 347.5,660.1 
	348.3,660 349.1,660.1 350.6,660 352.2,660.1 353,660.1 354.9,660.1 355.6,660 358,660 358.8,660.1 360.4,660.1 361.1,660 
	362.7,660.1 365.8,660 366.6,660.1 368.2,660 369.7,660.1 370.5,660 371.3,660.1 373.6,660.1 375.1,660.2 376.7,660 378.2,660.1 
	380.6,660 382.1,660.2 385.4,660 388.5,660.1 390.1,660 390.9,660 391.7,660 394,660.1 394.6,660 395.4,660.1 396.9,660 
	397.7,660.1 398.5,660 399.3,660.1 400.1,660 402.4,660 403.2,660 403.7,660.1 404.5,660 405.3,660.1 406,660 407.6,660.1 
	408.4,660 409.2,660.1 409.9,660 412.2,660.1 414.5,660 415.3,660.1 416.1,660 417.7,660.1 418.7,660.2 419.5,660.1 420.3,660.1 
	421.1,660.2 422.6,660 424.5,660.1 425.3,660.1 426.1,660.2 426.8,660 429,660.1 429.1,656.1 429,655.4 429.1,653.8 429,652.2 
	429,650.7 429.1,649.9 429.1,649.1 429,646 429,645.2 429,643.6 428.9,642.8 429,642.1 428.9,640.4 429,639.6 429,635.7 
	428.9,634.9 429,634.1 428.9,633.3 429,632.6 428.9,631.8 429,630.2 428.9,629.4 429,627.8 428.9,627 428.9,626.2 428.8,625.5 
	428.9,623.9 428.9,623.1 429,622.3 428.9,621.5 429,619.2 428.9,618.4 429,617.6 428.9,615.2 429,614.4 428.9,612.9 428.8,612.1 
	429,610.5 429,609.7 428.8,608.9 428.9,607.4 428.8,602.7 428.9,601.1 428.8,599.5 428.8,597.2 428.9,595.6 428.8,594 429,593.3 
	428.9,590.9 428.8,590.1 429,588.6 428.8,587 428.9,585.4 428.8,584.6 429,582.3 428.9,581.5 428.9,579.9 428.9,579.1 428.9,577.6 
	428.8,576.8 429,576 428.8,575.2 429,574.5 429,573.7 428.8,572.9 428.9,571.3 428.9,569.7 428.8,568.2 428.9,566.6 428.8,565.1 
	428.8,563.5 428.9,562.7 428.8,561.1 428.8,558 428.8,557.2 428.8,554.9 428.8,554.1 428.8,551.7 428.9,550.9 428.8,550.2 
	428.9,547.8 428.8,545.5 428.9,544.7 428.9,540.8 428.8,540.1 428.9,537.7 428.8,536.9 428.9,536.1 428.8,534.6 428.8,533.8 
	428.7,533 428.8,532.2 428.8,530.7 428.8,529.9 428.7,525.2 428.8,523.6 428.7,522.8 428.8,522 428.8,521.3 428.7,520.5 
	428.8,518.9 428.7,518.1 428.8,517.3 428.7,515 428.8,513.4 428.7,511.8 428.8,509.5 428.7,509.4 427.9,509.5 425.5,509.4 
	424.7,509.5 423.9,509.4 421,509.5 417.8,509.5 417.6,509.5 416.8,509.5 416,509.5 413.7,509.4 412.9,509.5 411.3,509.4 
	411.1,509.5 407.9,509.4 407.2,509.5 405.6,509.4 404.8,509.5 404,509.4 403.4,509.5 401.8,509.4 401.1,509.5 399.5,509.4 
	397.9,509.5 397.1,509.4 396.4,509.5 394.8,509.6 393.5,509.4 392,509.5 390.4,509.4 389.6,509.5 388.8,509.4 388.1,509.5 
	387.3,509.5 386.5,509.4 384.9,509.6 383.5,509.5 381.2,509.5 380.4,509.5 375.1,509.5 374.3,509.4 373.9,509.6 "/>
<polyline fill="none" stroke="#000000" stroke-miterlimit="10" points="219.5,509.4 214.4,509.4 213.6,509.3 212.8,509.4 212,509.5 
	210.5,509.3 205.8,509.4 205,509.3 204.6,509.4 203.9,509.4 203.1,509.3 200.7,509.4 199.9,509.3 197.6,509.3 196.8,509.3 
	195.2,509.3 194.3,509.3 193.5,509.3 191.9,509.3 191.1,509.2 190.3,509.4 189.6,509.3 188.8,509.3 186.4,509.3 185.3,509.3 
	184.5,509.3 183.7,509.3 182.9,509.3 181.3,509.2 180.5,509.3 179.8,509.2 179,509.3 178.2,509.2 177.4,509.2 177.1,509.3 
	174.8,509.2 173.2,509.3 171.7,509.2 170.9,509.3 170.1,509.2 169.3,509.3 167.9,509.3 165.6,509.3 163.2,509.2 162.4,509.3 
	161.7,509.2 160.9,509.2 160.1,509.1 159.3,509.2 158.5,509.2 158.1,509.3 157.4,509.3 155.8,509.2 155,509.3 152.6,509.2 
	151.9,509.3 151.1,509.2 150.3,509.3 149.5,509.2 148.7,509.3 145.8,509.2 145,509.3 143.5,509.3 142.7,509.3 141.9,509.3 
	140.3,509.4 139.6,509.3 138.8,509.3 136.5,509.2 134.8,509.2 134,509.1 133.3,509.2 131.7,509.3 130.9,509.3 130.7,509.2 "/>
<polyline fill="none" stroke="#000000" stroke-miterlimit="10" points="277.5,509.4 275.1,509.5 274.3,509.3 273.5,509.4 
	272.7,509.3 272,509.4 270.4,509.3 269.6,509.3 268,509.3 267.2,509.4 266.2,509.3 265.4,509.3 264.6,509.2 263.8,509.3 
	262.2,509.3 259.1,509.3 257.5,509.2 257.2,509.4 256.4,509.3 254.8,509.4 253.3,509.4 252.5,509.3 250.9,509.4 249.3,509.3 
	248.6,509.4 247.8,509.3 247.7,509.5 246.9,509.5 245.3,509.3 243.8,509.4 243,509.5 242.2,509.5 241.4,509.4 240.6,509.4 
	239.8,509.3 239,509.4 238.3,509.4 237.3,509.5 236.5,509.3 235.7,509.4 234.9,509.5 233.4,509.3 232.6,509.4 231.8,509.4 
	231,509.5 230.2,509.4 228.7,509.4 227.9,509.4 227.1,509.5 226.3,509.4 224.7,509.4 223.9,509.3 222.4,509.5 220.8,509.4 
	219.5,509.5 218.7,509.4 217.9,509.5 216.4,509.4 215.6,509.5 212.9,509.5 211.3,509.4 210.5,509.5 208.2,509.6 204.7,509.5 
	203.9,509.5 203.1,509.6 201.6,509.5 198.4,509.5 196.8,509.4 195,509.5 "/>
<polyline fill="none" stroke="#000000" stroke-miterlimit="10" points="377,509.5 376.2,509.3 375.4,509.4 374.2,509.3 373.4,509.4 
	371.9,509.4 371.1,509.5 370.3,509.4 369.5,509.5 368.7,509.4 363.3,509.5 361.8,509.4 359.4,509.4 358.6,509.5 357.1,509.5 
	356.3,509.3 355.5,509.4 354.7,509.4 353.2,509.5 352.4,509.4 350.8,509.5 350,509.5 348.5,509.4 346.9,509.5 345,509.4 
	343.5,509.5 342.7,509.5 341.9,509.5 341.1,509.4 340.3,509.5 338.7,509.5 338,509.4 337.2,509.5 336.1,509.3 335.3,509.4 
	332.9,509.5 331.4,509.4 329.8,509.4 329,509.5 328.2,509.4 327.3,509.5 326.5,509.4 325.7,509.4 325,509.5 324.2,509.4 
	323.4,509.5 322.6,509.4 320.3,509.4 319.5,509.5 317.9,509.4 316.9,509.5 316.1,509.4 314.5,509.5 313,509.4 312.1,509.5 
	310.6,509.5 309.8,509.5 307.5,509.4 305.9,509.5 302,509.5 301.2,509.4 299.6,509.5 298.1,509.4 297.3,509.4 296.5,509.3 
	295.7,509.5 295,509.5 294.2,509.3 293.4,509.4 291.8,509.5 291,509.4 287.1,509.4 286.3,509.3 285.5,509.4 284.8,509.4 
	284.6,509.4 283,509.4 282.2,509.3 281.4,509.4 279.9,509.3 278.3,509.4 276.8,509.4 276,509.3 272,509.5 271.2,509.4 270.4,509.4 
	268.9,509.5 267.3,509.4 266.5,509.5 266.2,509.4 265.4,509.5 264.6,509.4 263.9,509.5 262.3,509.4 259.1,509.4 258.4,509.5 
	257.3,509.5 256.5,509.3 255.7,509.5 252.6,509.4 251.8,509.5 250.2,509.4 248.7,509.5 246.2,509.4 244.6,509.5 243.9,509.5 
	241.5,509.5 240.7,509.4 239.9,509.4 238.4,509.5 237.4,509.5 "/>
<polyline fill="none" stroke="#000000" stroke-miterlimit="10" points="374.3,509.5 371.9,509.4 368,509.4 367.2,509.5 366.5,509.5 
	365.7,509.5 364.2,509.5 363.4,509.5 361.9,509.4 361.1,509.5 360.3,509.4 359.5,509.5 358.8,509.5 358,509.4 356.4,509.6 
	354.9,509.5 352.6,509.6 350.2,509.5 347.1,509.5 346,509.4 344.4,509.6 343.6,509.5 339.7,509.6 338.9,509.5 338.1,509.5 
	337.4,509.5 336.1,509.5 335.4,509.6 333.8,509.5 333,509.6 332.2,509.5 330.6,509.6 329.9,509.5 328.3,509.5 327.5,509.5 
	327.3,509.6 "/>
<polyline fill="none" stroke="#000000" stroke-miterlimit="10" points="130.7,509.4 129.9,509.3 126.8,509.5 126,509.4 125.2,509.4 
	124.4,509.3 123.6,509.3 122,509.4 119.5,509.3 118.7,509.4 116.4,509.3 115.6,509.4 114.8,509.3 112.1,509.4 "/>
<polyline fill="none" stroke="#000000" stroke-miterlimit="10" points="215,660.1 217.3,660.1 218.9,660.1 219.7,660.2 220.5,660.1 
	221.3,660.2 222,660.1 222.8,660.1 223.6,660.3 225.2,660.1 226.8,660.2 228.4,660.1 231.5,660.3 232.3,660.2 233.9,660.3 
	236.2,660.2 237,660.3 237.1,660.2 238.7,660.3 239.5,660.2 240.3,660.3 241,660.2 241.8,660.3 242.6,660.3 243.4,660.3 245,660.2 
	247.3,660.3 247.7,660.3 248.4,660.2 249.2,660.3 250,660.2 253.2,660.2 257.1,660.3 257.2,660.3 258,660.2 258.8,660.3 
	259.6,660.2 260.4,660.3 261.1,660.2 264.3,660.3 265.1,660.1 265.9,660.1 266.1,660.1 267.7,660.2 268.5,660.2 269.2,660.3 
	270,660.2 271.6,660.3 273.2,660.2 274,660.3 274.7,660.2 275,660.1 276.6,660.3 279,660.2 280.5,660.3 283.7,660.3 284.5,660.3 
	286.1,660.3 286.9,660.2 288.5,660.4 289.3,660.3 290,660.4 290.9,660.3 291.6,660.4 293.2,660.3 294,660.3 294.8,660.2 
	294.9,660.3 295.7,660.4 298.5,660.3 299.3,660.4 300,660.4 300.8,660.3 303.2,660.4 304.8,660.3 305.5,660.4 305.9,660.3 
	306.6,660.4 309,660.3 310.5,660.4 311.3,660.3 315.3,660.4 316.8,660.3 317.6,660.3 319.2,660.3 319.9,660.4 320.7,660.3 
	321.5,660.3 322.3,660.3 323.1,660.3 323.9,660.4 324.7,660.3 326.2,660.3 327,660.4 328.1,660.3 328.9,660.5 330.4,660.3 
	332,660.3 335.1,660.3 335.9,660.3 336.7,660.3 336.9,660.4 337.7,660.3 342.4,660.3 343.2,660.4 343.9,660.3 344.7,660.4 
	346.7,660.3 348.2,660.2 350.6,660.3 351.4,660.2 352.2,660.4 353.7,660.3 354.5,660.3 354.8,660.2 355.6,660.3 357.2,660.3 
	358,660.3 358.8,660.2 359.5,660.2 363.4,660.3 365,660.2 368.1,660.3 368.9,660.2 369.7,660.3 371.2,660.2 372.8,660.3 
	373.6,660.1 374.3,660.3 376.6,660.2 378.2,660.3 379.7,660.1 382.1,660.3 383.7,660.2 384.5,660.3 384.6,660.2 385.4,660.3 
	386.2,660.2 387,660.3 389.3,660.2 390.9,660.3 393.2,660.2 395.4,660.3 396.2,660.2 397,660.3 397.8,660.2 398.5,660.3 
	400.1,660.2 400.9,660.3 401.7,660.2 402.5,660.3 403.7,660.2 405.3,660.3 406.1,660.2 406.9,660.3 407.6,660.3 408.4,660.4 
	409.2,660.3 410.8,660.4 411.4,660.3 413,660.3 413.8,660.4 416.1,660.2 416.9,660.3 417.7,660.2 418.7,660.3 419.5,660.3 
	420.3,660.4 423.4,660.2 424.4,660.4 426,660.2 427.5,660.3 429,660.3 "/>
<polyline fill="none" stroke="#000000" stroke-miterlimit="10" points="215,660 218.2,660.1 218.9,660 220.5,660.1 221.3,660 
	222.1,660 223.6,659.9 225.2,660.1 227.6,659.9 228.4,660 230.8,660 231.5,660 232.4,660 233.9,660 234.7,660.1 236.3,660 
	237.1,660 240.3,659.9 241.8,660.1 242.6,659.9 243.4,660 245.7,660 247.3,660.1 248.4,660 249.2,660 250.8,660 251.6,659.9 
	252.3,660.1 253.1,660 253.9,660.1 254.7,660.1 255.5,659.9 257,660 257.2,660 258.8,659.9 259.5,660 260.3,660 261.9,660 
	263.5,659.9 264.2,660 265,659.9 267.7,659.9 268.5,660 269.2,659.9 270.8,660 273.2,659.9 274.7,660 275,659.9 276.6,659.9 
	277.4,660 278.2,659.9 280.5,660 282.9,659.9 284.5,660 285.3,660 286.1,660 286.9,659.9 288.4,660 289.2,659.9 290,660 290.8,660 
	291.6,659.9 292.4,660 293.9,659.9 294.7,660 294.9,660 "/>
<polyline fill="none" stroke="#000000" stroke-miterlimit="10" points="393.5,582.5 394.3,582.5 395.1,582.4 395.9,582.5 "/>
<polyline fill="none" stroke="#000000" stroke-miterlimit="10" points="400.3,582.4 402.9,582.5 403.7,582.4 405.3,582.5 
	406.9,582.5 "/>
<polyline fill="none" stroke="#000000" stroke-miterlimit="10" points="409.1,582.4 409.2,582.4 409.9,582.5 410.7,582.4 
	411.5,582.4 411.4,580.9 411.4,580.1 "/>
<polyline fill="none" stroke="#000000" stroke-miterlimit="10" points="411.5,574.4 411.4,573.9 411.5,571.5 411.4,570.7 411.5,570 
	411.4,569.2 411.5,567.6 411.4,566.8 411.5,566 411.5,566 "/>
<polyline fill="none" stroke="#000000" stroke-miterlimit="10" points="411.4,563.1 411.4,562.9 411.5,562.1 411.5,561.3 
	411.4,560.8 409.1,560.8 "/>
<polyline fill="none" stroke="#000000" stroke-miterlimit="10" points="404.4,560.8 402.1,560.9 401.3,560.8 395.8,560.8 395,560.7 
	394.2,560.7 393.5,560.8 392.7,560.7 391.9,560.8 390.4,560.7 389.6,560.9 388,560.7 387.2,560.8 386.4,560.7 385.7,560.8 
	382.5,560.8 381.7,560.9 380.2,560.7 379.4,560.8 378.6,560.7 377,560.8 375.5,560.7 374.7,560.9 373.9,560.7 371.5,560.8 
	370,560.7 368.4,560.9 366.9,560.7 364.5,560.8 362.9,560.7 362.1,560.7 361.4,560.7 359.8,560.8 357.5,560.7 355.9,560.8 
	354,560.7 353.2,560.9 350.8,560.7 350,560.8 348.5,560.7 346.9,560.9 346.1,560.8 344.6,560.8 343,560.7 341.4,560.7 340.6,560.8 
	339.9,560.7 338.3,560.8 337.5,560.7 336.7,560.8 335.9,560.7 335.2,560.8 334.4,560.7 332.8,560.7 330.5,560.9 329.7,560.8 
	328.9,560.9 327.3,560.8 326.1,560.7 325.4,560.8 324.6,560.8 323.8,560.7 322.2,560.9 320.7,560.8 319.1,560.8 318.3,560.9 
	316.7,560.8 312,560.7 311.3,560.9 309.7,560.8 308.1,560.9 307.3,560.8 306.6,560.8 305.8,560.7 305,560.8 303.4,560.8 
	301.1,560.8 299.5,560.8 298.7,560.9 297.9,560.8 296.4,560.9 295.6,560.8 294,560.7 291.7,560.7 290.9,560.8 290.1,560.7 
	289.3,560.9 286.2,560.7 285.4,560.8 283.8,560.7 283,560.8 282.2,560.8 281.4,560.9 279.9,560.7 279.1,560.8 278.3,560.7 
	277.5,560.8 276,560.7 274.4,560.8 273.6,560.7 272,560.8 271.2,560.9 270.5,560.7 268.9,560.7 268.1,560.9 265.8,560.7 265,560.8 
	262.6,560.7 259.5,560.8 258.8,560.8 258,560.7 257.2,560.8 254.8,560.7 254,560.9 252.5,560.7 250.1,560.8 249.3,560.7 
	247.8,560.7 247,560.7 246.2,560.8 245.4,560.7 243.9,560.8 242.3,560.7 241.5,560.9 240.7,560.9 236.8,560.7 235.2,560.8 
	232.9,560.9 232.1,560.8 231.3,560.8 230.5,560.7 229,560.9 227.4,560.7 226.6,560.8 225.8,560.7 225,560.8 224.3,560.8 
	223.5,560.7 221.1,560.8 219.6,560.8 216.8,560.8 216,560.7 215.3,560.8 213.7,560.7 212.9,560.8 210.6,560.7 209.8,560.8 
	209,560.7 205.1,560.8 204.3,560.7 201.9,560.7 200.4,560.8 199.6,560.7 198.8,560.8 198,560.7 197.2,560.8 195.7,560.7 
	194.9,560.8 194.1,560.7 193.3,560.8 191,560.7 189,560.8 187.5,560.8 186.7,560.9 185.9,560.7 185.1,560.8 182,560.7 181.2,560.9 
	179.6,560.7 178.9,560.8 177.3,560.7 175.7,560.7 172.6,560.8 171.8,560.8 171,560.8 170.2,560.7 167.9,560.8 167.1,560.8 
	166.3,560.8 164.8,560.7 164,560.8 160.8,560.7 156.9,560.9 154.6,560.7 153.8,560.8 152.2,560.7 151.8,560.8 151,560.7 
	146.3,560.8 144.9,560.7 "/>
<polyline fill="none" stroke="#000000" stroke-miterlimit="10" points="142.5,560.8 141.6,560.8 140.8,560.7 140.2,560.8 
	140.2,563.2 "/>
<polyline fill="none" stroke="#000000" stroke-miterlimit="10" points="140.3,568.8 140.2,571.7 140.3,572.5 140.2,576.5 
	140.2,577.3 "/>
<polyline fill="none" stroke="#000000" stroke-miterlimit="10" points="140.2,580.1 140.2,580.4 140.2,581.1 140.3,582.5 141,582.4 
	142.6,582.5 "/>
<polyline fill="none" stroke="#000000" stroke-miterlimit="10" points="147.3,582.4 148.1,582.4 149.6,582.6 151.2,582.4 
	151.8,582.4 154.1,582.6 155.7,582.5 156.5,582.4 157.3,582.5 159.6,582.5 160.4,582.4 161.2,582.4 162.8,582.4 165.1,582.4 
	166.7,582.5 168.2,582.5 169,582.6 169.8,582.4 170.6,582.5 172.9,582.4 176.1,582.6 176.9,582.4 179.2,582.5 181.6,582.4 
	182.4,582.5 183.9,582.4 185.5,582.5 186.3,582.4 187.8,582.4 188.6,582.5 189.4,582.4 189.8,582.5 191.4,582.4 192.2,582.5 
	193.8,582.6 194.5,582.4 198.4,582.5 200,582.5 200.8,582.4 201.6,582.5 202.4,582.5 203.2,582.5 204.7,582.4 205.5,582.4 
	206.3,582.4 207.8,582.5 210.2,582.4 211,582.5 213.3,582.4 214.9,582.5 216.5,582.4 216.8,582.6 217.6,582.4 218.4,582.5 
	220.7,582.4 222.3,582.6 223.1,582.4 224.7,582.4 227,582.5 230.9,582.4 231.7,582.5 232.5,582.4 233.3,582.5 234.1,582.4 
	234.8,582.4 235.6,582.5 236.4,582.4 238,582.4 238.8,582.5 240.3,582.5 242.7,582.4 243.5,582.6 244.2,582.4 245,582.5 
	247.4,582.4 249.7,582.6 250.5,582.4 251.3,582.5 252.1,582.4 254.5,582.6 256.8,582.4 257.6,582.5 258.8,582.4 259.5,582.5 
	260.3,582.5 261.1,582.5 261.9,582.4 263.5,582.5 264.2,582.4 265,582.5 265.8,582.5 266.6,582.4 267.4,582.5 268.9,582.4 
	269.7,582.5 270.5,582.4 275.2,582.5 276,582.4 280.7,582.4 281.5,582.6 283.1,582.4 283.8,582.4 284.6,582.5 285.4,582.4 
	286.1,582.6 288.5,582.4 290,582.6 291.6,582.4 293.2,582.5 295.5,582.4 297.1,582.6 297.9,582.5 298.7,582.5 300.3,582.4 
	302.6,582.5 304.2,582.4 308.9,582.5 309.7,582.4 310.4,582.6 312,582.4 312.8,582.5 313.6,582.4 315.9,582.6 316.7,582.4 
	318.3,582.5 319.1,582.4 322.2,582.5 326.1,582.5 326.9,582.4 330.1,582.5 330.9,582.4 332.4,582.5 335.5,582.5 337.1,582.5 
	337.9,582.4 339.5,582.5 340.3,582.4 341,582.5 341.8,582.4 342.6,582.4 344.9,582.5 346.5,582.4 348.1,582.5 349.7,582.4 
	351.2,582.5 352,582.4 352.8,582.5 353.6,582.4 354,582.5 356.3,582.5 357.1,582.4 357.9,582.5 358.7,582.4 360.2,582.5 361,582.4 
	362.6,582.4 363.4,582.4 366.5,582.4 367.3,582.5 368.9,582.5 369.6,582.6 370.4,582.4 371.2,582.5 373.5,582.4 376.7,582.6 
	378.3,582.4 379.8,582.5 382.2,582.4 382.9,582.6 384.5,582.4 385.3,582.5 386.1,582.5 386.9,582.4 387.7,582.4 388.4,582.4 
	388.8,582.5 "/>
<line fill="none" stroke="#000000" stroke-miterlimit="10" x1="391.1" y1="582.5" x2="393.5" y2="582.5"/>
<polyline fill="none" stroke="#000000" stroke-miterlimit="10" points="411.5,539 410.7,539.1 409.1,539 "/>
<polyline fill="none" stroke="#000000" stroke-miterlimit="10" points="404.4,539.1 404.4,539.1 403.6,539 402.1,539.1 401.3,539 
	399.7,539.2 398.9,539 398.2,539.1 397.4,539.1 396.6,539.2 395.8,539 394.2,539 393.5,539.1 391.9,539 389.6,539.1 388.8,539 
	386.4,539 384.1,539.2 383.3,539 381,539.1 380.2,539.1 379.4,539.2 377.8,539 375.5,539.1 374.7,539 373.1,539.1 372.3,539 
	371.6,539.1 370.8,539 368.4,539.1 367.6,539 366.1,539.2 363.7,539 362.1,539 361.4,539.1 359,539.1 358.2,539.2 357.5,539.1 
	356.7,539.2 355.9,539 354,539.2 353.2,539.1 350.8,539.2 350,539.1 346.9,539 343.8,539.1 343,539 342.2,539.1 341.4,539 
	340.6,539.1 339.1,539.1 338.3,539.2 335.9,539 330.5,539.1 329.7,539 328.9,539 327.3,539 326.9,539.1 322.2,539.1 321.4,539.2 
	320.7,539.1 318.3,539.1 317.5,539 316.7,539.1 315.2,539 314.4,539.1 312.8,539 312,539.1 311.3,539 310.5,539.1 307.3,539.1 
	306.6,539.2 305,539 304.2,539.1 300.3,539 299.5,539.2 298.7,539.1 296.4,539.1 295.6,539 294.8,539 293.2,539.2 290.1,539 
	289.3,539.1 287.7,539 287,539 286.2,539 284.6,539.1 282.2,539.1 280.6,539.1 279.9,539.1 279.1,539.1 277.5,539 276.7,539.1 
	276,539 275.2,539.1 274.4,539 272.8,539.1 272,539 271.2,539.2 270.5,539 269.7,539.1 267.3,539 265.8,539.1 262.6,539 258,539.1 
	255.6,539 254,539.2 252.5,539 251.7,539.1 250.9,539 250.1,539.1 249.3,539.1 248.6,539 247,539.2 245.4,539.1 243.1,539.2 
	240.7,539 236.8,539 236,539.2 234.4,539 232.9,539.2 231.3,539.2 230.5,539 229.8,539.1 226.6,539.1 225.8,539.2 224.3,539.1 
	223.5,539.2 222.7,539.1 221.1,539.2 220.4,539.1 218,539 214.5,539.1 211.3,539.2 210.6,539 209.8,539 209,539 208.2,539.1 
	206.6,539 205.1,539.2 202.7,539 201.2,539.2 199.6,539 197.2,539.2 195.7,539 193.3,539.2 191.8,539 190.2,539 188.3,539.2 
	185.9,539 185.1,539.1 184.3,539 183.6,539.2 182.8,539.1 182,539.2 179.6,539 178.9,539.2 178.1,539.1 177.3,539 174.9,539.1 
	174.2,539 173.4,539 171.8,539 171,539.1 170.2,539.1 168.7,539.2 167.1,539 166.3,539.2 164.8,539.1 164,539.2 161.6,539 
	160,539.2 159.3,539.2 156.1,539.1 155.4,539 153.8,539.2 152.2,539 151.8,539.1 150.2,539.2 147.1,539 145.5,539.1 144.9,539 "/>
<polyline fill="none" stroke="#000000" stroke-miterlimit="10" points="142.5,539 142.4,539 141.6,539.1 140.8,539 140.2,539.1 
	140.3,539.8 140.2,540.6 140.3,541.4 140.3,541.5 "/>
<polyline fill="none" stroke="#000000" stroke-miterlimit="10" points="140.2,547.1 140.2,549.3 140.2,550 140.2,551.6 140.3,553.2 
	140.2,554.7 140.2,555.5 140.2,555.6 "/>
<polyline fill="none" stroke="#000000" stroke-miterlimit="10" points="140.2,558.4 140.2,558.7 140.3,559.4 140.2,560.2 
	140.2,560.8 141.8,560.8 142.6,560.7 "/>
<polyline fill="none" stroke="#000000" stroke-miterlimit="10" points="147.3,560.7 148.1,560.9 148.9,560.8 151.2,560.8 
	152.6,560.7 154.1,560.8 154.9,560.8 155.7,560.7 157.3,560.9 158.8,560.7 160.4,560.9 161.2,560.7 162.8,560.8 163.5,560.9 
	165.1,560.8 166.7,560.9 167.5,560.8 168.2,560.9 169,560.7 170.6,560.9 171.4,560.8 172.2,560.9 174.5,560.7 175.3,560.9 
	177.6,560.7 178.4,560.8 180.8,560.8 181.6,560.7 183.1,560.9 183.9,560.8 185.5,560.8 186.3,560.7 189.4,560.8 189.8,560.8 
	190.6,560.8 191.4,560.7 193,560.8 193.8,560.7 195.3,560.8 199.2,560.8 200,560.9 201.6,560.7 204.7,560.8 205.5,560.7 
	209.4,560.8 211,560.8 211.8,560.8 213.3,560.7 214.1,560.8 214.9,560.7 215.7,560.8 216.5,560.8 216.8,560.9 217.6,560.8 
	218.4,560.9 219.2,560.8 220,560.8 222.3,560.7 224.7,560.9 227,560.7 229.4,560.8 230.9,560.8 231.7,560.7 232.5,560.8 
	234.8,560.8 235.6,560.7 236.4,560.7 238,560.7 240.3,560.7 241.9,560.8 243.5,560.8 244.2,560.9 245,560.7 245.8,560.8 
	248.2,560.7 249.7,560.8 251.3,560.9 252.1,560.7 252.9,560.7 254.5,560.8 256.8,560.7 257.6,560.9 260.3,560.7 261.1,560.8 
	261.9,560.7 265,560.8 266.6,560.7 268.9,560.9 269.7,560.7 271.3,560.9 275.2,560.8 276,560.7 276.8,560.8 281.5,560.7 
	283.1,560.8 284.6,560.7 285.4,560.9 286.9,560.8 287.7,560.8 288.5,560.7 290,560.9 290.9,560.8 291.6,560.7 293.2,560.8 
	294,560.7 294.8,560.7 296.3,560.9 298.7,560.7 301,560.8 301.8,560.7 302.6,560.8 303.4,560.7 304.2,560.8 304.9,560.8 
	305.7,560.7 306.5,560.8 308.9,560.9 310.4,560.7 312,560.8 315.1,560.7 315.9,560.9 317.5,560.7 319.1,560.7 321.4,560.7 
	323,560.8 326.9,560.7 327.7,560.8 328.5,560.7 329.3,560.8 331.6,560.8 333.2,560.7 334.8,560.8 339.5,560.7 340.3,560.8 
	341,560.8 341.8,560.7 342.6,560.8 344.2,560.7 344.9,560.9 345.7,560.7 347.3,560.8 353.6,560.7 354.7,560.8 356.3,560.7 
	357.9,560.8 359.5,560.7 361,560.8 361.8,560.7 364.1,560.8 365.7,560.8 367.3,560.9 368.1,560.8 368.9,560.9 369.6,560.7 
	371.2,560.8 372,560.8 372.8,560.9 375.1,560.7 375.9,560.8 378.3,560.7 379,560.8 381.4,560.9 382.2,560.7 383.7,560.8 
	384.5,560.8 386.1,560.8 386.9,560.7 390,560.8 390.8,560.7 392.4,560.9 393.5,560.8 394.3,560.7 397.4,560.9 401.3,560.8 
	402.1,560.7 402.9,560.8 403.7,560.7 404.5,560.8 405.3,560.8 406,560.7 406.8,560.8 "/>
<polyline fill="none" stroke="#000000" stroke-miterlimit="10" points="409.1,560.8 409.2,560.9 410.7,560.7 411.5,560.8 411.5,560 
	411.4,559.2 411.4,558.5 "/>
<polyline fill="none" stroke="#000000" stroke-miterlimit="10" points="411.4,552.8 411.5,549 411.4,548.2 411.5,545.9 411.4,545.1 
	411.5,544.3 411.5,544.3 "/>
<polyline fill="none" stroke="#000000" stroke-miterlimit="10" points="411.4,541.4 411.4,539.6 411.5,539.1 "/>
<polyline fill="none" stroke="#000000" stroke-miterlimit="10" points="393.5,539.2 394.3,539 395.8,539 "/>
<polyline fill="none" stroke="#000000" stroke-miterlimit="10" points="400.3,539.1 400.5,539.1 401.3,539.2 402.1,539 402.9,539.1 
	404.5,539.1 405.3,539.2 406,539.2 406.8,539 406.9,539 "/>
<polyline fill="none" stroke="#000000" stroke-miterlimit="10" points="409.1,539.1 410.7,539 411.5,539.2 411.5,539.1 411.5,536.7 
	"/>
<polyline fill="none" stroke="#000000" stroke-miterlimit="10" points="411.4,531 411.5,529.7 411.4,528.9 411.5,528.1 411.4,526.5 
	411.5,525.8 411.4,525 411.5,524.2 411.4,523.4 411.5,522.5 "/>
<polyline fill="none" stroke="#000000" stroke-miterlimit="10" points="411.4,519.7 411.4,519.5 411.5,518.7 411.4,517.9 
	411.5,517.4 410.7,517.4 409.2,517.4 "/>
<polyline fill="none" stroke="#000000" stroke-miterlimit="10" points="404.5,517.4 404.4,517.4 403.6,517.4 402.9,517.4 
	402.1,517.3 401.3,517.4 398.9,517.3 398.2,517.4 397.4,517.3 396.6,517.4 395,517.4 394.2,517.4 391.9,517.4 391.1,517.4 
	390.4,517.4 389.6,517.4 382.5,517.4 381.7,517.3 381,517.4 380.2,517.3 378.6,517.4 377.8,517.4 377,517.3 376.3,517.4 
	375.5,517.3 374.7,517.4 373.1,517.3 372.3,517.4 371.5,517.3 370,517.5 369.2,517.3 367.6,517.4 366.9,517.3 365.3,517.4 
	363.7,517.4 362.9,517.3 362.1,517.4 361.4,517.4 360.6,517.4 359.8,517.4 357.5,517.4 355.1,517.3 353.2,517.3 352.4,517.4 
	350.8,517.3 350,517.4 347.7,517.3 346.1,517.4 344.6,517.3 343.8,517.4 343,517.3 342.2,517.4 340.6,517.3 339.9,517.4 
	339.1,517.3 336.7,517.4 335.9,517.3 333.6,517.4 332.8,517.3 330.5,517.3 329.7,517.4 328.1,517.3 326.9,517.4 326.1,517.3 
	323.8,517.4 320.7,517.3 319.9,517.4 318.3,517.4 317.5,517.4 316,517.3 311.3,517.3 309.7,517.4 306.5,517.4 305.8,517.5 
	304.2,517.4 302.6,517.4 299.5,517.3 297.9,517.4 297.1,517.4 296.4,517.4 295.6,517.3 294,517.4 293.2,517.4 292.5,517.4 
	290.9,517.4 290.1,517.4 288.5,517.3 287,517.4 285.4,517.4 284.6,517.4 283.8,517.4 283,517.4 279.9,517.4 277.5,517.4 
	276.7,517.3 274.4,517.4 272.8,517.4 272,517.4 270.5,517.3 269.7,517.4 268.1,517.3 267.3,517.4 266.5,517.3 265.8,517.4 
	265,517.4 264.2,517.4 262.6,517.3 261.8,517.4 261.1,517.3 257.2,517.4 255.6,517.4 254.8,517.3 253.3,517.4 251.7,517.4 
	250.9,517.4 250.1,517.3 247.8,517.4 247,517.3 246.2,517.3 244.6,517.5 242.3,517.3 241.5,517.4 239.9,517.3 236,517.4 
	235.2,517.4 233.7,517.3 229.8,517.4 225,517.3 222.7,517.4 221.1,517.3 219.6,517.4 216,517.4 215.3,517.4 213.7,517.3 
	212.9,517.4 212.1,517.4 210.6,517.4 209,517.3 205.1,517.4 204.3,517.3 201.9,517.4 201.2,517.4 200.4,517.3 198,517.4 
	197.2,517.4 195.7,517.3 194.9,517.4 194.1,517.3 193.3,517.4 192.5,517.3 191.8,517.4 190.2,517.3 189.8,517.4 187.5,517.4 
	186.7,517.4 184.3,517.4 183.6,517.3 182.8,517.4 180.4,517.3 178.1,517.4 177.3,517.4 176.5,517.3 174.2,517.4 173.4,517.4 
	171.8,517.4 171,517.3 170.2,517.3 169.5,517.4 168.7,517.3 167.1,517.4 166.3,517.3 165.5,517.4 164.8,517.4 162.4,517.4 
	158.5,517.4 156.1,517.4 155.4,517.4 154.6,517.3 153,517.4 150.2,517.3 149.4,517.4 147.9,517.4 147.1,517.3 145.5,517.4 
	144.9,517.4 "/>
<polyline fill="none" stroke="#000000" stroke-miterlimit="10" points="142.5,517.3 142.4,517.3 141.6,517.4 140.8,517.4 
	140.2,517.3 140.3,518.1 140.2,518.9 140.2,519.6 "/>
<polyline fill="none" stroke="#000000" stroke-miterlimit="10" points="140.2,525.3 140.2,526.8 140.2,527.5 140.3,528.3 
	140.2,529.9 140.2,533.9 "/>
<polyline fill="none" stroke="#000000" stroke-miterlimit="10" points="140.3,536.7 140.3,536.9 140.2,537.8 140.2,539.1 141,539.1 
	141.8,539 142.6,539.1 "/>
<polyline fill="none" stroke="#000000" stroke-miterlimit="10" points="147.3,539.1 148.1,539.1 149.6,539 150.4,539.1 151.2,539 
	151.8,539.2 153.4,539 154.9,539.1 155.7,539.1 156.5,539.2 157.3,539 158.1,539 158.8,539.2 160.4,539 162,539.1 164.3,539 
	166.7,539.1 167.5,539 169,539.1 170.6,539.1 171.4,539 172.9,539.2 174.5,539 176.1,539 176.9,539.2 179.2,539.1 181.6,539 
	183.1,539 183.9,539 184.7,539.1 186.3,539 187,539.1 189.8,539.1 193.8,539.1 196.1,539 196.9,539.2 197.7,539.1 199.2,539.1 
	200,539 200.8,539.1 202.4,539 203.2,539.1 204.7,539.1 207.1,539 208.6,539.1 210.2,539 211.8,539.2 212.6,539.1 214.1,539 
	216.5,539.2 216.8,539.1 218.4,539 221.5,539.2 222.3,539.1 223.1,539.1 223.9,539 224.7,539.1 225.4,539 227.8,539.1 228.6,539 
	229.4,539 230.2,539.2 232.5,539 233.3,539.2 234.8,539.1 235.6,539.2 236.4,539 237.2,539.1 238.8,539 240.3,539.1 241.1,539 
	245.8,539.2 247.4,539 249.7,539 250.5,539.1 251.3,539 252.1,539.1 253.6,539 255.2,539.1 256,539.1 256.8,539.2 257.6,539 
	261.1,539.1 264.2,539.1 265,539.1 265.8,539 266.6,539.1 267.4,539 268.9,539.1 269.7,539 272.1,539.2 275.2,539.1 277.6,539.1 
	278.3,539.2 279.1,539.1 280.7,539.2 281.5,539 282.3,539 283.1,539.2 283.8,539 284.6,539.1 285.4,539 286.9,539.2 287.7,539.1 
	288.5,539.1 290,539 290.9,539.1 292.4,539.1 293.2,539.1 294.8,539 296.3,539 297.1,539.1 298.7,539.1 299.5,539 300.3,539.1 
	301,539.2 302.6,539.1 304.9,539.2 307.3,539 308.1,539.1 308.9,539 311.2,539 312,539.2 312.8,539 313.6,539.2 314.3,539 
	315.9,539.1 319.1,539.1 319.8,539 321.4,539 322.2,539.2 323,539.1 324.5,539 325.3,539.1 326.1,539 327.7,539.1 328.5,539 
	329.3,539.2 330.1,539 332.4,539.2 333.2,539.1 334.8,539.1 336.3,539 337.1,539.1 338.7,539 341,539.1 342.6,539 343.4,539.1 
	344.9,539.1 345.7,539.1 347.3,539.2 348.1,539.1 348.9,539.2 351.2,539 352,539 352.8,539 355.5,539.2 356.3,539.1 357.1,539.2 
	357.9,539 358.7,539 359.5,539.2 361,539 362.6,539.1 364.9,539 366.5,539.1 369.6,539.1 371.2,539.1 372,539 373.5,539.1 
	375.1,539 375.9,539.1 376.7,539 377.5,539.2 378.3,539.1 382.2,539 383.7,539.1 384.5,539 385.3,539.1 386.9,539 387.7,539.1 
	388.8,539.1 "/>
<polyline fill="none" stroke="#000000" stroke-miterlimit="10" points="391.1,539.1 391.6,539.1 392.4,539 393.5,539.1 "/>
<polyline fill="none" stroke="#000000" stroke-miterlimit="10" points="393.5,604.1 394.3,604.1 395.9,604.2 "/>
<polyline fill="none" stroke="#000000" stroke-miterlimit="10" points="400.3,604.1 400.5,604.1 402.1,604.2 402.9,604.1 
	403.7,604.2 404.5,604.1 406,604.2 406.8,604.1 406.9,604.1 "/>
<polyline fill="none" stroke="#000000" stroke-miterlimit="10" points="409.1,604.2 409.9,604.1 411.5,604.2 411.4,601.8 "/>
<polyline fill="none" stroke="#000000" stroke-miterlimit="10" points="411.4,596.2 411.5,595.6 411.4,594.8 411.5,594 411.4,593.2 
	411.5,591.7 411.4,588.5 411.5,587.7 "/>
<polyline fill="none" stroke="#000000" stroke-miterlimit="10" points="411.4,584.8 411.4,583 411.5,582.5 410.7,582.4 409.9,582.5 
	409.2,582.5 "/>
<polyline fill="none" stroke="#000000" stroke-miterlimit="10" points="404.5,582.5 404.4,582.5 403.6,582.5 402.9,582.4 
	402.1,582.5 400.5,582.4 398.9,582.5 398.2,582.4 395.8,582.6 395,582.4 393.5,582.4 392.7,582.6 391.1,582.4 390.4,582.4 
	389.6,582.5 387.2,582.4 383.3,582.5 382.5,582.4 380.2,582.5 379.4,582.4 378.6,582.6 377,582.4 374.7,582.5 373.9,582.4 
	372.3,582.5 371.6,582.4 370.8,582.5 369.2,582.4 367.6,582.5 366.9,582.4 365.3,582.6 362.9,582.4 362.1,582.5 358.2,582.5 
	357.5,582.6 356.7,582.4 355.9,582.5 355.1,582.4 353.2,582.6 352.4,582.4 350,582.6 346.9,582.4 343,582.5 342.2,582.4 
	341.4,582.5 340.6,582.4 339.9,582.5 338.3,582.4 337.5,582.5 335.2,582.4 334.4,582.5 329.7,582.5 328.9,582.4 327.3,582.4 
	326.9,582.5 321.4,582.5 320.7,582.6 319.1,582.4 317.5,582.5 316.7,582.4 316,582.5 314.4,582.4 313.6,582.5 312,582.4 
	311.3,582.5 310.5,582.4 309.7,582.5 308.1,582.4 305.8,582.6 304.2,582.4 303.4,582.5 301.9,582.4 301.1,582.5 299.5,582.4 
	298.7,582.5 297.9,582.4 295.6,582.5 294.8,582.4 294,582.4 292.5,582.5 290.1,582.4 288.5,582.5 287,582.4 286.2,582.4 
	284.6,582.4 282.2,582.5 280.6,582.4 279.9,582.5 279.1,582.5 278.3,582.5 276.7,582.4 275.2,582.4 274.4,582.5 273.6,582.4 
	272,582.5 271.2,582.4 270.5,582.5 269.7,582.4 268.9,582.5 268.1,582.4 267.3,582.5 265.8,582.5 265,582.5 261.1,582.4 
	257.2,582.6 256.4,582.5 255.6,582.5 254.8,582.4 253.3,582.5 251.7,582.4 250.9,582.5 250.1,582.4 249.3,582.5 248.6,582.5 
	247.8,582.4 246.2,582.6 244.6,582.4 242.3,582.5 237.6,582.4 236,582.4 235.2,582.5 233.7,582.4 232.1,582.6 231.3,582.5 
	230.5,582.5 229.8,582.4 229,582.4 226.6,582.5 223.5,582.5 222.7,582.6 221.9,582.4 221.1,582.5 220.4,582.6 219.6,582.4 
	218,582.4 216.8,582.5 212.9,582.4 210.6,582.6 209.8,582.4 209,582.4 208.2,582.4 206.6,582.5 205.8,582.4 204.3,582.5 
	203.5,582.4 201.9,582.4 200.4,582.6 198.8,582.5 196.4,582.6 194.9,582.4 194.1,582.5 192.5,582.5 190.2,582.4 189.8,582.5 
	187.5,582.5 185.1,582.4 184.3,582.5 183.6,582.4 182.8,582.6 182,582.4 181.2,582.5 178.9,582.4 178.1,582.6 177.3,582.5 
	176.5,582.4 174.2,582.5 173.4,582.4 171.8,582.4 171,582.4 170.2,582.5 169.5,582.4 167.9,582.5 166.3,582.4 165.5,582.6 
	164,582.5 163.2,582.5 160.8,582.4 159.3,582.6 155.4,582.5 154.6,582.4 153,582.6 151.8,582.5 149.4,582.6 144.9,582.5 "/>
<polyline fill="none" stroke="#000000" stroke-miterlimit="10" points="142.5,582.4 141.6,582.4 140.2,582.5 140.3,583.3 
	140.2,584.8 140.2,584.9 "/>
<polyline fill="none" stroke="#000000" stroke-miterlimit="10" points="140.2,590.5 140.2,592.7 140.2,595.8 140.3,597.4 
	140.1,598.9 140.2,599 "/>
<polyline fill="none" stroke="#000000" stroke-miterlimit="10" points="140.2,601.8 140.2,602.9 140.2,603.6 140.2,604.2 141,604.1 
	142.5,604.2 "/>
<polyline fill="none" stroke="#000000" stroke-miterlimit="10" points="147.3,604.2 147.3,604.2 148.1,604.1 148.9,604.3 
	149.6,604.1 151.8,604.2 153.4,604.1 154.9,604.2 156.5,604.1 158.1,604.2 159.6,604.1 161.2,604.2 162,604.1 163.5,604.1 
	164.3,604.2 165.9,604.1 167.5,604.2 168.2,604.1 169,604.3 169.8,604.1 171.4,604.2 172.2,604.2 172.9,604.3 175.3,604.1 
	176.1,604.2 178.4,604.1 179.2,604.2 181.6,604.2 182.4,604.1 183.9,604.2 184.7,604.2 186.3,604.2 187,604.1 190.6,604.1 
	191.4,604.2 192.2,604.1 193,604.2 194.5,604.1 196.1,604.2 200,604.2 200.8,604.3 202.4,604.1 205.5,604.1 206.3,604.1 
	207.8,604.1 209.4,604.1 210.2,604.2 212.6,604.2 214.1,604.1 214.9,604.2 215.7,604.1 216.5,604.2 216.8,604.1 217.6,604.2 
	219.2,604.2 223.1,604.1 225.4,604.2 227.8,604.1 229.4,604.2 232.5,604.1 233.3,604.2 234.1,604.1 235.6,604.2 236.4,604.1 
	237.2,604.1 238,604.1 238.8,604.1 239.6,604.1 241.1,604.1 242.7,604.2 244.2,604.1 245,604.2 245.8,604.1 247.4,604.1 
	250.5,604.1 252.1,604.3 253.6,604.1 255.2,604.2 258.8,604.1 260.3,604.2 261.1,604.1 261.9,604.2 262.7,604.1 265.8,604.2 
	267.4,604.1 269.7,604.3 270.5,604.1 274.4,604.2 276,604.2 276.8,604.1 277.6,604.2 279.1,604.2 280.7,604.1 281.5,604.1 
	282.3,604.1 284.6,604.2 285.4,604.1 286.1,604.2 289.3,604.1 290.9,604.3 292.4,604.1 294,604.2 294.8,604.1 297.1,604.3 
	297.9,604.1 300.3,604.2 301.8,604.1 302.6,604.1 303.4,604.2 304.2,604.1 304.9,604.2 305.7,604.2 306.5,604.1 308.1,604.2 
	309.7,604.2 311.2,604.1 312.8,604.2 315.9,604.1 316.7,604.3 318.3,604.1 321.4,604.1 322.2,604.1 324.5,604.1 325.3,604.1 
	331.6,604.2 334,604.1 335.5,604.2 337.9,604.1 338.7,604.2 340.3,604.1 341,604.2 341.8,604.2 342.6,604.1 343.4,604.2 
	344.9,604.1 345.7,604.2 346.5,604.1 349.7,604.2 353.6,604.1 355.5,604.2 357.1,604.1 358.7,604.2 360.2,604.1 361.8,604.2 
	362.6,604.1 364.1,604.1 364.9,604.2 366.5,604.1 368.1,604.2 368.9,604.1 369.6,604.3 370.4,604.2 372,604.2 372.8,604.2 
	373.5,604.2 375.9,604.1 376.7,604.2 379,604.1 379.8,604.2 383.7,604.2 384.5,604.2 385.3,604.1 388.8,604.2 "/>
<polyline fill="none" stroke="#000000" stroke-miterlimit="10" points="391.1,604.1 391.6,604.1 392.4,604.2 393.5,604.2 "/>
<polyline fill="none" stroke="#000000" stroke-miterlimit="10" points="140.2,625.8 141.8,625.8 142.5,625.9 "/>
<polyline fill="none" stroke="#000000" stroke-miterlimit="10" points="147.3,625.9 147.3,625.9 148.1,625.8 148.9,625.9 
	150.4,625.9 151.8,625.9 152.6,625.9 154.1,625.8 156.5,625.9 158.1,625.8 159.6,625.9 164.3,625.9 167.5,625.9 168.2,625.8 
	169.8,625.9 170.6,625.9 171.4,625.9 172.2,625.8 172.9,625.9 174.5,625.9 175.3,625.9 176.1,625.8 176.9,625.9 177.6,625.8 
	180,625.9 181.6,625.8 183.9,625.9 185.5,625.9 187,625.9 189.4,625.8 189.8,625.9 192.2,625.8 193,625.9 193.8,625.8 194.5,625.9 
	196.1,625.8 203.2,625.9 203.9,625.9 204.7,625.9 205.5,625.9 206.3,625.9 207.1,625.9 207.8,625.9 210.2,625.9 211,626 
	213.3,625.9 214.1,625.9 214.9,625.8 215.7,625.9 216.5,625.9 216.8,626 217.6,625.9 220,625.9 223.1,625.9 223.9,625.8 
	224.7,625.9 225.4,625.9 226.2,625.8 227,625.9 228.6,625.9 231.7,625.8 232.5,625.9 233.3,625.8 236.4,625.9 237.2,625.8 
	238.8,625.9 239.6,625.8 240.3,625.9 241.1,625.8 242.7,625.9 243.5,625.8 244.2,625.9 245,625.9 246.6,625.9 248.2,625.8 
	249,625.9 249.7,625.9 250.5,625.9 251.3,625.8 252.1,625.9 253.6,625.9 254.5,625.8 256.8,625.9 257.6,625.8 258.8,625.9 
	259.5,625.9 261.1,625.9 262.7,625.9 263.5,625.9 264.2,625.8 265,625.9 265.8,625.8 266.6,625.9 267.4,625.9 268.2,625.9 
	268.9,625.9 269.7,625.8 270.5,625.9 272.9,625.9 273.7,625.9 275.2,625.9 276.8,625.8 277.6,625.9 279.1,625.8 279.9,625.9 
	280.7,625.9 281.5,625.9 282.3,625.8 284.6,625.9 287.7,625.9 288.5,625.9 289.3,625.8 293.2,625.9 294,625.8 296.3,625.9 
	297.1,625.8 297.9,625.9 299.5,625.9 301,625.9 303.4,625.9 304.9,625.9 305.7,625.9 306.5,625.9 307.3,625.8 308.9,625.9 
	309.7,625.8 310.4,625.9 312,625.9 317.5,625.9 318.3,626 319.1,625.9 320.6,625.9 321.4,625.8 322.2,625.8 323,625.9 323.8,625.8 
	324.5,625.9 325.3,625.8 326.9,625.9 327.7,625.9 328.5,625.9 329.3,625.8 330.9,625.9 334,625.9 334.8,625.9 335.5,625.9 
	336.3,625.8 337.1,625.9 339.5,625.8 341,625.9 341.8,625.9 344.9,625.9 347.3,625.8 348.1,625.9 350.4,625.8 351.2,625.9 
	352,625.9 352.8,625.9 353.6,625.9 354.7,625.8 357.9,625.9 358.7,625.8 360.2,625.9 361,625.9 361.8,625.9 363.4,625.8 
	366.5,625.9 367.3,625.9 368.1,625.9 368.9,625.8 370.4,625.9 371.2,625.9 372,625.9 372.8,625.8 373.5,625.9 375.1,625.9 
	375.9,625.9 376.7,625.8 377.5,625.9 378.3,625.9 380.6,625.9 382.2,625.8 386.1,625.9 390,625.8 392.4,625.9 394.3,625.8 
	395.9,625.8 397.4,625.7 398.2,625.9 400.5,625.9 402.1,625.8 402.9,625.9 403.7,625.8 405.3,625.9 406,625.8 406.8,625.9 "/>
<polyline fill="none" stroke="#000000" stroke-miterlimit="10" points="409.1,625.9 409.2,625.9 409.9,625.8 410.7,625.9 411.5,626 
	411.5,625.1 411.4,624.3 411.4,623.6 "/>
<polyline fill="none" stroke="#000000" stroke-miterlimit="10" points="411.4,617.9 411.5,617.2 411.4,614.9 411.5,614.1 
	411.4,613.3 411.5,612.5 411.4,611.8 411.5,610.2 411.4,609.4 411.4,609.4 "/>
<polyline fill="none" stroke="#000000" stroke-miterlimit="10" points="411.4,606.5 411.5,605.5 411.4,604.7 411.5,604.2 
	410.7,604.3 409.9,604.1 409.2,604.2 "/>
<polyline fill="none" stroke="#000000" stroke-miterlimit="10" points="404.5,604.2 404.4,604.3 403.6,604.2 402.9,604.3 
	401.3,604.2 400.5,604.2 399.7,604.1 398.9,604.2 397.4,604.1 395.8,604.2 395,604.1 393.5,604.2 392.7,604.3 391.9,604.1 
	390.4,604.1 389.6,604.2 388,604.1 385.7,604.2 382.5,604.1 381,604.1 380.2,604.2 379.4,604.1 377,604.2 376.3,604.1 375.5,604.2 
	373.9,604.1 371.5,604.2 370.8,604.1 369.2,604.1 368.4,604.1 367.6,604.2 366.9,604.1 364.5,604.2 363.7,604.1 362.1,604.2 
	359.8,604.1 355.9,604.2 350.8,604.2 350,604.3 349.3,604.2 346.9,604.3 346.1,604.2 343.8,604.1 342.2,604.2 341.4,604.1 
	339.9,604.2 339.1,604.1 338.3,604.2 337.5,604.1 336.7,604.2 335.9,604.2 335.1,604.1 334.4,604.2 332,604.1 331.2,604.2 
	330.5,604.1 328.1,604.2 326.9,604.1 325.4,604.1 324.6,604.3 320.7,604.2 318.3,604.1 317.5,604.3 316.7,604.1 315.2,604.2 
	313.6,604.1 312.8,604.2 311.3,604.1 310.5,604.2 308.9,604.1 308.1,604.2 307.3,604.1 306.5,604.2 303.4,604.1 302.6,604.3 
	301.1,604.1 300.3,604.2 298.7,604.1 297.9,604.1 297.1,604.1 295.6,604.2 294.8,604.1 292.5,604.2 291.7,604.1 290.9,604.1 
	289.3,604.2 287,604.1 285.4,604.2 283.8,604.1 283,604.1 282.2,604.1 280.6,604.2 276,604.1 275.2,604.2 273.6,604.1 272.8,604.2 
	272,604.1 271.2,604.2 270.5,604.1 268.9,604.2 268.1,604.1 267.3,604.2 266.5,604.1 265.8,604.2 263.4,604.1 261.8,604.2 
	258,604.1 255.6,604.2 252.5,604.2 251.7,604.1 250.1,604.2 248.6,604.1 247.8,604.2 247,604.1 246.2,604.2 245.4,604.2 
	244.6,604.1 243.1,604.3 241.5,604.1 239.2,604.2 236.8,604.1 236,604.2 234.5,604.1 232.9,604.1 232.1,604.2 230.5,604.1 
	229,604.3 227.4,604.2 226.6,604.1 224.3,604.2 221.9,604.2 220.4,604.2 219.6,604.3 218.8,604.1 214.5,604.2 213.7,604.2 
	212.1,604.1 207.4,604.2 206.6,604.1 205.8,604.1 205.1,604.1 203.5,604.2 202.7,604.1 201.2,604.2 200.4,604.1 198.8,604.1 
	197.2,604.3 195.7,604.2 193.3,604.3 191.8,604.1 191,604.2 189.8,604.1 189,604.2 188.3,604.1 187.5,604.2 185.9,604.1 
	184.3,604.2 182,604.1 181.2,604.2 180.4,604.1 179.6,604.2 178.9,604.1 178.1,604.3 175.7,604.1 174.9,604.3 174.2,604.2 
	173.4,604.1 171,604.2 170.2,604.1 168.7,604.1 167.9,604.1 167.1,604.2 166.3,604.1 164.8,604.3 163.2,604.1 162.4,604.3 
	160.8,604.2 160,604.2 157.7,604.1 156.1,604.3 153,604.2 151,604.2 150.2,604.2 149.4,604.2 148.6,604.2 146.3,604.3 145.5,604.2 
	144.9,604.2 "/>
<polyline fill="none" stroke="#000000" stroke-miterlimit="10" points="142.5,604.1 140.8,604.1 140.2,604.2 140.1,605 140.3,606.5 
	"/>
<polyline fill="none" stroke="#000000" stroke-miterlimit="10" points="140.2,612.2 140.2,615.9 140.2,619.1 140.2,620.7 
	140.2,620.7 "/>
<polyline fill="none" stroke="#000000" stroke-miterlimit="10" points="140.2,623.6 140.2,623.8 140.2,624.6 140.2,625.3 
	140.2,625.9 "/>
<line fill="none" stroke="#000000" stroke-miterlimit="10" x1="140.3" y1="625.9" x2="140.2" y2="628.2"/>
<polyline fill="none" stroke="#000000" stroke-miterlimit="10" points="140.2,633.9 140.2,634.5 140.3,635.3 140.2,636 140.3,636.8 
	140.2,637.6 140.3,641.5 140.2,642.4 "/>
<polyline fill="none" stroke="#000000" stroke-miterlimit="10" points="140.3,645.2 140.3,647 140.2,647.6 141.8,647.6 142.5,647.6 
	"/>
<polyline fill="none" stroke="#000000" stroke-miterlimit="10" points="147.2,647.5 148.1,647.5 148.9,647.5 149.6,647.7 
	150.4,647.5 152.6,647.7 153.4,647.5 154.1,647.6 158.1,647.6 158.8,647.7 160.4,647.5 161.2,647.7 162,647.7 162.8,647.5 
	164.3,647.6 165.1,647.7 166.7,647.6 168.2,647.7 169,647.6 169.8,647.7 170.6,647.5 172.2,647.7 172.9,647.5 173.7,647.7 
	174.5,647.6 175.3,647.5 176.9,647.7 177.6,647.6 178.4,647.6 179.2,647.5 180,647.7 182.4,647.7 183.1,647.5 183.9,647.6 
	185.5,647.6 186.3,647.7 187.8,647.5 189.4,647.7 189.8,647.6 190.6,647.6 191.4,647.7 193,647.5 194.5,647.6 195.3,647.5 
	197.7,647.7 198.4,647.6 199.2,647.6 200,647.6 201.6,647.6 203.2,647.5 203.9,647.6 204.7,647.5 205.5,647.7 206.3,647.6 
	207.1,647.5 207.8,647.6 210.2,647.6 211.8,647.6 213.3,647.7 216.5,647.6 216.8,647.7 217.6,647.6 218.4,647.7 219.2,647.6 
	220,647.7 220.7,647.6 221.5,647.7 223.9,647.5 225.4,647.6 227,647.6 227.8,647.6 228.6,647.5 231.7,647.7 232.5,647.7 
	233.3,647.5 234.1,647.7 237.2,647.5 238.8,647.6 239.6,647.5 241.1,647.5 242.7,647.5 243.5,647.7 246.6,647.6 247.4,647.7 
	249.7,647.5 250.5,647.6 252.1,647.6 252.9,647.7 253.6,647.5 256.8,647.6 257.6,647.5 258.8,647.6 259.5,647.5 261.1,647.6 
	261.9,647.5 262.7,647.7 265,647.5 266.6,647.7 268.2,647.5 268.9,647.5 269.7,647.7 270.5,647.7 271.3,647.5 273.7,647.7 
	274.4,647.6 275.2,647.6 276.8,647.6 279.9,647.7 280.7,647.5 285.4,647.6 286.1,647.5 286.9,647.7 288.5,647.5 289.3,647.7 
	290,647.5 290.9,647.7 291.6,647.6 292.4,647.7 293.2,647.5 294.8,647.6 295.5,647.5 299.5,647.6 302.6,647.6 303.4,647.5 
	304.2,647.6 304.9,647.5 305.7,647.7 306.5,647.7 307.3,647.5 308.1,647.6 309.7,647.6 310.4,647.7 312,647.5 313.6,647.6 
	314.3,647.5 315.9,647.6 316.7,647.6 317.5,647.7 318.3,647.6 319.1,647.5 324.5,647.6 325.3,647.5 327.7,647.6 328.5,647.5 
	329.3,647.7 330.1,647.5 330.9,647.7 331.6,647.6 332.4,647.6 334,647.5 337.1,647.6 337.9,647.5 339.5,647.6 340.3,647.5 
	341.8,647.6 342.6,647.7 343.4,647.5 344.2,647.6 345.7,647.5 346.5,647.7 347.3,647.5 348.1,647.6 348.9,647.6 349.7,647.7 
	351.2,647.5 352.8,647.6 353.6,647.4 354.7,647.6 357.1,647.6 358.7,647.5 359.5,647.7 361,647.5 362.6,647.7 363.4,647.6 
	364.1,647.5 365.7,647.7 366.5,647.6 368.9,647.7 369.6,647.6 370.4,647.7 371.2,647.5 372,647.7 372.8,647.7 373.5,647.6 
	374.3,647.7 375.1,647.7 375.9,647.5 377.5,647.7 378.3,647.6 379,647.6 379.8,647.5 380.6,647.7 382.2,647.6 382.9,647.6 
	383.7,647.5 384.5,647.6 386.1,647.6 386.9,647.7 388.4,647.5 390,647.7 390.8,647.6 391.6,647.7 393.5,647.5 394.3,647.6 
	396.6,647.5 398.2,647.7 400.5,647.5 402.9,647.6 403.7,647.5 404.5,647.6 405.3,647.5 406,647.7 406.8,647.6 "/>
<polyline fill="none" stroke="#000000" stroke-miterlimit="10" points="409.1,647.6 409.9,647.6 410.7,647.7 411.5,647.6 
	411.4,646.8 411.5,646 411.5,645.2 "/>
<polyline fill="none" stroke="#000000" stroke-miterlimit="10" points="411.4,639.5 411.5,638.2 411.4,637.4 411.4,635 411.5,634.3 
	411.4,633.5 411.5,631.9 411.4,631 "/>
<polyline fill="none" stroke="#000000" stroke-miterlimit="10" points="411.5,628.2 411.5,628 411.4,625.9 410.7,625.9 409.9,625.8 
	409.1,625.9 "/>
<polyline fill="none" stroke="#000000" stroke-miterlimit="10" points="404.4,625.9 404.4,625.9 403.6,625.9 401.3,625.9 
	400.5,625.8 398.9,625.9 398.2,625.8 397.4,625.9 396.6,625.8 392.7,625.9 391.1,625.8 390.4,625.9 388.8,625.9 388,625.8 
	387.2,625.8 386.4,625.9 384.9,625.8 383.3,625.9 381.7,625.8 381,625.9 378.6,625.8 377,625.9 375.5,625.8 374.7,625.9 
	373.9,625.8 373.1,625.9 371.6,625.8 370.8,625.9 370,625.8 367.6,625.9 366.9,625.8 364.5,625.9 363.7,625.9 361.4,625.8 
	360.6,625.9 359,625.8 356.7,625.8 355.9,625.9 354,625.9 353.2,625.8 351.6,625.8 350.8,625.9 349.3,625.9 348.5,625.9 
	345.3,625.8 342.2,625.9 341.4,625.9 340.6,625.9 339.9,625.8 339.1,625.9 338.3,625.8 337.5,625.8 336.7,625.9 335.9,625.9 
	335.2,625.8 334.4,625.9 333.6,625.8 332,625.9 330.5,625.9 329.7,625.9 328.1,625.9 327.3,625.9 326.9,625.9 326.1,625.9 
	325.4,625.8 324.6,625.9 323.8,625.8 323,625.9 322.2,625.8 319.9,625.9 319.1,625.8 318.3,625.9 316.7,625.9 316,625.8 
	315.2,625.9 314.4,625.9 313.6,625.9 311.3,625.8 310.5,625.9 309.7,625.8 307.3,625.9 306.6,626 305,625.9 303.4,626 301.1,625.9 
	300.3,625.8 297.9,625.8 297.1,625.9 296.4,625.8 295.6,625.9 294.8,625.8 294,626 293.2,625.8 292.5,625.9 290.9,625.8 
	290.1,625.9 289.3,625.9 285.4,625.9 284.6,625.8 283,625.9 282.2,625.8 281.4,625.8 280.6,625.9 279.1,625.9 278.3,625.8 
	276.7,625.9 275.2,625.8 274.4,625.9 273.6,625.8 272.8,626 272,625.9 271.2,625.8 270.5,625.9 269.7,625.8 268.9,625.8 268.1,626 
	266.6,625.8 265,625.9 264.2,625.9 263.4,625.8 261.1,625.8 260.3,625.9 259.5,625.9 258,625.9 257.2,625.8 255.6,625.9 254,625.8 
	253.3,625.9 251.7,625.9 250.9,625.9 250.1,625.8 249.3,625.9 248.6,625.9 247.8,625.9 247,625.8 246.2,625.9 245.4,625.8 
	243.9,625.9 243.1,625.8 242.3,625.9 239.9,625.8 237.6,625.9 236.8,625.9 236,626 235.2,625.8 233.7,625.9 232.1,625.9 
	229.8,625.9 229,625.9 226.6,625.8 225.8,625.9 225,625.8 224.3,625.9 223.5,625.8 222.7,625.9 221.1,625.9 219.6,625.9 218,625.8 
	215.3,625.9 214.5,625.9 213.7,625.9 212.9,625.8 211.3,625.8 209,625.9 208.2,625.9 204.3,625.9 203.5,625.9 201.2,625.9 
	200.4,625.9 199.6,625.8 198,625.9 197.2,625.9 196.4,625.9 194.9,625.9 191,625.9 190.2,625.9 189,625.9 186.7,625.8 185.9,625.9 
	185.1,625.8 184.3,625.8 182.8,625.9 182,625.9 181.2,625.9 179.6,625.9 178.1,625.8 177.3,625.9 173.4,625.8 172.6,625.9 
	171,625.8 170.2,625.9 169.4,625.8 168.7,625.9 167.1,625.9 166.3,625.8 165.5,625.9 164.8,625.9 164,625.9 163.2,625.8 
	161.6,625.9 160.8,625.8 160,626 158.5,625.8 153.8,625.9 151,625.8 150.2,625.9 148.6,625.9 147.9,625.9 146.3,625.8 144.9,625.8 
	"/>
<polyline fill="none" stroke="#000000" stroke-miterlimit="10" points="142.5,625.9 140.8,625.9 140.2,625.9 "/>
</svg>
