<?xml version="1.0" encoding="UTF-8"?><svg id="Layer_1" xmlns="http://www.w3.org/2000/svg" viewBox="0 0 385.68 318.61"><defs><style>.cls-1{stroke-dasharray:1.8 1.8;}.cls-1,.cls-2,.cls-3,.cls-4,.cls-5,.cls-6,.cls-7{fill:none;stroke:#000;stroke-linecap:round;stroke-linejoin:round;}.cls-1,.cls-2,.cls-3,.cls-5,.cls-7{stroke-width:.67px;}.cls-2{stroke-dasharray:1.97 1.97;}.cls-8{fill:#101418;}.cls-3{stroke-dasharray:2.08 2.08;}.cls-4{stroke-width:.81px;}.cls-6{stroke-width:.89px;}.cls-7{stroke-dasharray:1.89 1.89;}</style></defs><polyline class="cls-4" points="315.99 188.6 307.73 192.81 302.91 195.18 296.33 198.62 293.95 199.69 289.67 201.91 286.99 202.06 285 201.99 283.47 201.83 282.55 201.91 280.34 202.14 274.9 201.99 273.6 202.06 270.31 202.14 267.79 202.22 264.73 202.14 264.65 208.72 264.57 209.95 264.65 210.71 264.57 213.39 265.03 214.15 265.49 214.92 266.56 216.3 267.02 216.75 268.93 219.66 269.85 220.81 271.31 222.95 273.98 226.78 275.74 226.7 277.58 226.78 285.23 226.32 286.92 226.4 289.13 226.24 289.98 223.49 291.43 222.04"/><polyline class="cls-4" points="315.99 188.6 315.3 183.24 314.54 179.34 314.16 177.12"/><polyline class="cls-4" points="313.31 211.48 315.15 212.85 315.23 210.33 315.53 207.27 315.46 206.43 315.61 201.99 315.53 199 316.07 188.67 315.38 183.24 314.61 179.34 314.23 177.12 314 177.12 313.85 179.42 313.77 183.16 313.7 184.24 313.62 186.91 313.7 187.99 313.62 189.82"/><polyline class="cls-4" points="72.29 189.75 72.29 188.14 72.06 185.15 72.14 183.39 71.98 181.41 71.91 178.96 71.83 177.43 71.6 177.43 71.22 180.79 71.14 182.63 70.91 184.54 70.84 187.07 70.61 188.98 70.68 190.74 70.91 195.71 71.07 197.47 71.07 200.53 71.3 203.59 71.52 207.88 71.68 208.64 71.83 213.31 74.36 212.47 76.04 212.93 77.65 213.62 80.32 214.84 82.7 216.3 83.77 216.75 85.45 217.75 90.73 220.43 91.65 220.96 93.41 221.88 96.47 223.64"/><polyline class="cls-4" points="71.75 177.43 71.6 179.42 71.45 180.87 71.37 182.78 71.14 184.7 71.07 187.22 70.91 189.13 76.57 191.96 79.71 193.72 80.55 194.03 81.47 194.41 84.61 196.17 89.58 198.62 92.87 200.38 96.01 202.22 96.93 202.68 99.61 202.6 101.67 202.68 104.81 202.52 109.32 202.68 112.38 202.52 116.44 202.6 118.05 202.52 121.87 202.6 121.95 204.82 122.1 206.88 122.25 212.85 113.07 226.7 109.63 226.78 105.65 227.01 102.9 226.85 97.62 227.08 97.39 226.24 97 225.48 96.77 224.33 95.32 222.95"/><polyline class="cls-4" points="108.18 118.13 113.46 118.28 120.88 118.28 129.37 105.73 129.29 101.98 129.37 99.99 129.29 97.01 129.37 95.48"/><polyline class="cls-4" points="129.29 95.33 129.29 95.4 128.45 95.4 127 95.55 123.17 95.48 121.8 95.63 116.44 95.48 114.6 95.63 111.93 95.78 108.79 95.63 107.03 95.71 95.7 100.3 92.34 101.75 89.12 102.98 86.45 104.2 80.63 106.5 80.17 109.56 80.02 111.01 79.79 112.54 79.56 116.37"/><polyline class="cls-4" points="79.41 116.29 79.64 116.29 79.64 118.05 79.94 123.1 80.02 126.85 80.09 127.69 80.25 128.99 80.4 131.21 80.55 132.44 80.63 134.73"/><polyline class="cls-4" points="81.55 129.83 83.16 127 81.24 128.99"/><line class="cls-4" x1="81.55" y1="129.83" x2="83.31" y2="128.76"/><polyline class="cls-4" points="81.24 129.15 81.85 130.6 82.31 131.36 82.85 132.05 83.77 132.82 84.84 133.51 85.68 133.81 89.74 134.58 95.4 134.58 100.98 134.04 106.8 132.82 108.25 132.36 110.85 131.36 113.15 130.22 115.29 128.84 116.13 128.15 116.9 127.39 117.59 126.62 118.2 125.7 118.74 124.63 119.04 123.56 119.19 122.41 118.96 121.34 118.28 120.57 117.51 120.12 117.2 119.96 115.83 119.5 114.37 119.05 111.08 118.43 107.56 117.97"/><polyline class="cls-4" points="107.26 111.62 107.33 112.47 107.33 114.91 107.64 117.36 107.64 118.13 106.72 117.36"/><polyline class="cls-4" points="81.09 119.05 81.32 123.02 81.24 123.94 81.32 128.99 81.01 133.35 80.78 134.88 80.55 134.88 80.48 133.05 80.17 130.98 80.02 128.76 79.87 127.46 79.79 122.79 79.48 117.67 79.48 116.29 79.71 112.54 79.94 110.86 80.02 109.4 80.48 106.34 87.06 103.74 88.97 102.82 92.11 101.6 95.47 100.15 99.45 98.62 106.87 95.55 108.71 95.48 112 95.63 116.52 95.33 119.81 95.4 121.34 95.48 123.56 95.33 126.92 95.4 129.22 95.25 129.14 97.09 129.22 99.76 129.14 101.75 129.22 105.58"/><polyline class="cls-4" points="304.28 135.04 305.43 126.31 305.51 125.01 305.43 124.09 305.51 122.57 305.66 120.73 305.82 115.98"/><polyline class="cls-4" points="306.12 115.91 305.89 115.91 305.66 114.07 305.2 112.16 304.67 109.1 304.51 107.41 304.21 105.96 303.29 105.73 302.45 105.43 300.08 104.35 297.55 103.44 295.1 102.36 294.34 101.98 290.97 100.76 286.23 98.62 285.39 98.31 282.94 97.31 281.25 96.7 278.12 95.25 274.67 95.33 272.15 95.25 267.86 95.33 263.66 95.25 260.59 95.4 256 95.33"/><polyline class="cls-4" points="255.93 95.25 255.7 101.22 255.54 103.67 255.62 104.81 256.69 106.19 257.69 107.95 258.68 109.33 260.52 112.62 261.74 114.15 263.88 117.21 268.86 117.44 271.61 117.29 273.37 117.36 274.9 117.52 276.28 117.44"/><polyline class="cls-4" points="278.19 116.75 276.66 117.29 275.51 117.74 274.67 117.82 273.83 117.82 272.07 118.05 270.39 118.43 268.86 118.89 267.63 119.35 266.56 119.96 265.8 120.8 265.49 121.95 265.49 123.1 265.72 124.25 266.18 125.32 266.71 126.31 268.93 128.69 269.85 129.37 271 129.91 272.22 130.37 272.99 130.75 274.21 131.21 275.9 131.98 278.19 132.66 278.8 132.89 280.34 133.28 283.86 133.81 288.68 134.27 291.2 134.42 292.96 134.42 296.02 134.27 297.78 133.97 299.23 133.51 300.38 132.82 301.22 132.13 301.91 131.36 302.98 129.15"/><line class="cls-4" x1="275.51" y1="117.74" x2="277.05" y2="117.9"/><line class="cls-4" x1="302.98" y1="128.76" x2="301.22" y2="126.85"/><polyline class="cls-4" points="265.34 121.72 265.34 122.87 265.57 124.02 266.03 125.09 266.56 126.08 268.78 128.46 269.47 128.99 270.54 129.53 272.07 130.14 272.84 130.52 274.06 130.98 275.74 131.75 278.65 132.59 280.18 132.97 282.78 133.43 284.77 133.66 291.12 134.12 293.65 134.04 295.87 133.89 297.63 133.66 299.08 133.12 300.23 132.44 301.07 131.75 301.76 130.98 302.14 130.29 302.83 128.69 302.98 123.71 303.14 122.11"/><polyline class="cls-4" points="277.66 107.64 277.58 109.4 277.35 113.54 277.43 116.98"/><polyline class="cls-4" points="302.98 128.76 303.98 133.43 304.21 135.11 304.44 135.11 305.59 126.47 305.66 122.64 305.81 120.8 305.97 116.06 305.66 114.22 305.43 113.15 305.2 112.31 304.9 110.78 304.67 109.25 304.51 107.57 304.21 106.04 303.37 105.81 302.45 105.43 299.31 103.97 297.63 103.36 296.79 102.98 295.1 102.36 294.34 101.98 290.97 100.76 286.23 98.62 282.09 97.01 281.25 96.78 278.12 95.32 274.6 95.4 272.07 95.32 270.31 95.4 269.47 95.32 267.71 95.4 263.5 95.32 260.52 95.4 256 95.32 255.77 99.3 255.7 101.29 255.54 103.74 255.62 104.97"/><polyline class="cls-4" points="264.73 202.29 264.65 210.86 264.5 213.47"/><polyline class="cls-4" points="316.14 188.67 302.29 195.71 296.4 198.77 294.18 199.85 289.82 202.06 286.3 202.22 283.47 202.06 282.55 202.14 280.33 202.37 277.43 202.29 274.98 202.22 273.68 202.29 272.15 202.22 267.86 202.37 264.8 202.29 264.8 202.22"/><polyline class="cls-4" points="290.44 223.03 291.74 222.19 295.1 220.5 297.78 219.05 308.42 213.62 311.09 212.47 312.85 211.93 314 211.86"/><polyline class="cls-4" points="288.98 226.32 289.13 221.88 289.36 219.13"/><polyline class="cls-4" points="121.8 202.45 112.23 202.37 109.48 202.52 107.41 202.45 104.96 202.29 103.74 202.29 101.83 202.45 96.7 202.45 95.17 201.68 92.72 200.23 86.9 197.24 84.46 196.1 81.32 194.34 80.48 193.95 79.56 193.65 76.42 191.89 70.68 189.06"/><polyline class="cls-4" points="122.25 212.7 122.03 206.88 121.87 205.28 121.72 202.45"/><line class="cls-4" x1="73.74" y1="212.16" x2="71.83" y2="213.47"/><polyline class="cls-4" points="97.54 226.86 97.39 224.64 97.39 221.35 97.16 219.66"/><polyline class="cls-4" points="81.24 129.15 81.93 130.83 82.39 131.67 82.93 132.36 83.77 133.12 84.84 133.81 85.68 134.04 88.13 134.5 88.97 134.73 90.35 134.88 92.18 134.81 92.95 134.88 95.47 134.81 101.06 134.27 106.88 133.05 108.33 132.59 111.01 131.59 111.77 131.21 113.3 130.45 114.45 129.76 116.29 128.38 117.05 127.61 117.74 126.77 118.28 125.93 118.81 124.86 119.12 123.79 119.27 122.49"/><polyline class="cls-4" points="244.83 218.06 244.68 219.36 244.37 220.73 243.99 221.96 243.46 223.18 242.92 224.33 242.15 225.55 241.31 226.7 240.24 227.93 239.17 229 237.95 230.15 236.57 231.29 235.11 232.36 233.58 233.36 231.98 234.28 228.61 236.04 226.32 237.11 222.18 238.64 221.34 238.87 217.82 239.94 215.53 240.47 213.31 240.86 209.02 241.78 202.37 242.62 200.68 242.69 198 242.92 192.88 243 188.52 242.92 185.84 242.77 182.4 242.46 180.71 242.23 178.88 242.16 177.19 241.93 174.82 241.39 172.52 240.78 168.32 239.94 166.02 239.25 165.33 239.17 164.49 238.95 161.66 237.8 160.28 237.34 157.15 235.96 153.55 234.12 152.78 233.66 151.87 233.21 151.1 232.75 148.88 231.06 146.2 228.92 145.13 227.7 143.3 225.32 142.53 224.1 141.61 222.04 141.08 220.35 140.85 219.05 140.69 217.83"/><polyline class="cls-4" points="239.17 179.95 237.33 180.03 236.64 179.95"/><polyline class="cls-4" points="239.55 179.95 236.64 180.03 237.33 180.1 238.18 180.03"/><line class="cls-4" x1="238.86" y1="179.95" x2="239.09" y2="179.95"/><line class="cls-4" x1="241.92" y1="180.03" x2="239.09" y2="179.95"/><polyline class="cls-4" points="241.92 180.03 239.09 179.95 236.49 180.49 234.04 180.56"/><polyline class="cls-4" points="241.92 180.03 239.55 179.95 239.78 179.95"/><polyline class="cls-4" points="242.08 179.8 241.92 180.03 242.08 180.03"/><polyline class="cls-4" points="143.53 179.95 143.3 180.03 143.22 177.89 145.36 177.81 148.58 177.89 150.41 177.81 153.09 177.89 155.16 177.73 157.07 177.89 161.05 177.81 164.03 177.89 164.95 177.81 168.85 177.96 171.3 177.89 172.14 177.96 174.36 177.96 176.89 177.89 181.86 177.96 183.54 177.96 186.22 177.81 188.75 177.89 193.03 177.89 194.71 177.96 197.39 177.89 202.52 177.89 204.28 177.81 207.57 177.89 215.6 177.89 217.36 177.96 221.57 177.81 225.93 177.96 234.66 177.89 237.18 177.96 239.55 177.89 242.61 178.04 242.54 180.26 242.15 180.18"/><polyline class="cls-4" points="238.25 179.95 239.78 180.03 238.25 179.95"/><polyline class="cls-4" points="232.59 179.95 234.5 179.95 230.6 180.03 228.69 180.1"/><line class="cls-4" x1="222.18" y1="179.87" x2="221.42" y2="179.87"/><line class="cls-4" x1="231.21" y1="179.95" x2="228.53" y2="180.03"/><line class="cls-4" x1="192.95" y1="179.95" x2="194.1" y2="180.03"/><line class="cls-4" x1="192.95" y1="179.95" x2="194.1" y2="180.03"/><polyline class="cls-4" points="194.1 179.95 192.11 179.8 190.89 179.87"/><polyline class="cls-4" points="192.95 179.95 192.11 179.87 190.89 179.95"/><polyline class="cls-4" points="192.95 179.95 192.11 179.87 190.89 179.95"/><line class="cls-4" x1="151.56" y1="179.95" x2="155.84" y2="179.95"/><polyline class="cls-4" points="122.18 169.77 122.25 172.22 122.41 174.06 122.48 175.82 122.41 180.1 122.71 184.47 122.64 187.22 122.71 190.28 125.85 189.9 127.99 189.97 132.05 189.9 134.42 190.05 135.11 189.97 136.56 189.9 139.39 189.97 142.15 189.67 143.83 189.74"/><line class="cls-4" x1="152.1" y1="180.03" x2="151.71" y2="179.95"/><polyline class="cls-4" points="154.93 179.95 153.17 180.03 151.94 179.95"/><polyline class="cls-4" points="151.79 179.95 153.01 180.03 154.77 179.95"/><polyline class="cls-4" points="144.14 187.07 143.68 190.43 144.21 192.19 144.37 193.26 144.44 196.48 144.37 197.93"/><polyline class="cls-4" points="241.31 197.78 241.24 195.87 241.54 193.04 241.54 192.35 241.77 191.05 241.92 190.43 241.54 187.99 241.47 186.99"/><polyline class="cls-4" points="241.85 189.59 245.21 189.59 247.97 189.74 249.19 189.9 251.41 190.05 254.63 189.82 255.77 189.9 258.07 189.82 262.35 190.05 263.04 190.13 263.12 187.07 263.12 183.55 263.27 182.4 263.35 176.36 263.5 174.82 263.43 169.77"/><polyline class="cls-4" points="228.76 117.51 230.6 117.36 231.44 117.44 236.64 117.06 239.09 117.36 239.02 116.9 239.09 115.22 237.26 115.3 234.12 115.14 232.36 115.14 230.75 115.07 229.84 115.14 228.15 115.07 223.56 115.22 220.88 115.07 215.83 115.22 212.93 115.14 211.7 115.07 209.02 115.14 204.58 115.14 202.9 115.07 200.53 115.22 198.31 115.14 196.47 115.22 195.1 115.14 191.81 115.22 185.46 115.14 183.31 114.99 181.48 115.14 171.45 114.99 167.93 115.07 166.1 115.22 161.35 115.07 158.52 115.14 157.61 115.22 156.61 115.22 154.16 115.07 146.51 115.14 146.51 117.29 149.95 116.83 151.1 116.75 154.08 116.9"/><polyline class="cls-4" points="260.36 125.32 260.21 124.25 259.75 124.17 259.75 125.09 259.68 126.08 259.75 127.31 259.98 129.14 260.06 130.75 260.59 137.18 260.82 141 260.98 142.38 261.21 143.84 261.67 148.81 261.74 151.26 261.97 153.78 261.97 154.78 262.05 155.93 261.97 156.61 262.43 161.66 262.43 163.12 262.89 167.02 262.89 169.85 263.42 169.93 263.65 167.63 263.35 164.5 263.12 163.12 263.04 161.59 262.81 159.29 262.66 157.53 262.74 156 262.43 153.09 262.28 150.11 261.9 146.28 261.82 144.75 261.36 141.31 261.05 136.03 260.67 131.52 260.59 128.92 260.36 127.38 260.36 125.32"/><polyline class="cls-4" points="242.46 178.04 239.32 177.96 237.1 178.04 234.66 177.89 225.7 178.04 221.95 177.89 217.82 178.04 215.6 177.96 213.84 178.04 208.18 177.96 204.13 177.81 202.37 177.96 197.24 177.96 194.56 178.04 186.99 177.89 182.63 178.04 176.73 177.89 174.13 178.04 170.92 177.96 170 178.04 166.79 177.96 165.41 177.81 163.57 177.96 161.43 177.89 156.99 178.04 155.39 177.89 152.4 178.04 150.56 177.96 143.3 178.04"/><polyline class="cls-4" points="126 125.7 126 124.25 125.47 124.25 125.32 127.92 124.93 130.9 124.78 133.35 124.4 136.72 124.32 138.86 123.33 150.42 123.1 154.62 122.64 158.22 122.48 159.67 122.48 160.98 121.95 167.79 121.95 169.78 122.41 169.85 122.87 164.27"/><polyline class="cls-4" points="140.85 213.69 140.39 215.23 140.24 216.45 140.08 218.97 140.16 220.28 140.24 220.73 140.62 222.34 141.84 226.09 142.07 226.55 142.91 227.7 145.44 231.06 145.97 231.6 147.2 232.75 150.87 235.27 152.56 236.19 154.31 237.11 155.23 237.72 156.76 238.56 159.9 239.79 161.05 240.4 162.65 241.01 164.11 241.32 165.49 241.78 166.33 242.01 168.47 242.77 174.21 243.84 175.74 244.3 177.35 244.61 179.18 244.76 184.31 245.3 186.99 245.37 192.11 245.75 195.71 245.68 198.39 245.45 202.6 245.3 204.28 245.14 208.56 244.53 213.61 243.61 215.99 243.08 217.67 242.62 221.49 241.47 226.47 239.71 230.91 237.64 232.67 236.73 234.2 235.81 235.88 234.74 237.33 233.66 239.94 231.45 241.01 230.3 242.15 228.92 243.07 227.7 244.22 225.63 245.37 222.34 245.6 221.04 245.83 219.28 245.75 217.6 245.29 215.15 244.83 213.69"/><line class="cls-4" x1="167.4" y1="117.06" x2="168.47" y2="116.98"/><line class="cls-4" x1="168.47" y1="116.98" x2="168.01" y2="116.98"/><line class="cls-4" x1="168.47" y1="116.98" x2="167.4" y2="117.06"/><polyline class="cls-4" points="237.72 146.28 238.18 143.07 238.56 141.69 238.63 141.23 238.25 140.32 238.18 139.86 238.1 138.1"/><line class="cls-4" x1="245.06" y1="204.44" x2="244.98" y2="203.44"/><polyline class="cls-4" points="244.83 218.06 244.76 216.14 244.83 215.23 244.91 212.85 244.98 212.16"/><line class="cls-4" x1="245.06" y1="204.67" x2="245.14" y2="202.6"/><line class="cls-4" x1="245.44" y1="195.87" x2="245.6" y2="193.65"/><line class="cls-4" x1="245.52" y1="193.8" x2="245.6" y2="193.26"/><polyline class="cls-4" points="241.47 187.14 241.39 184.01 241.47 180.56"/><polyline class="cls-4" points="144.29 180.33 144.21 181.86 144.29 184.77 144.14 187.22"/><polyline class="cls-4" points="140.77 212.16 140.85 215.3 141 218.06"/><polyline class="cls-4" points="140.69 202.52 140.77 203.37 140.69 204.59"/><line class="cls-4" x1="140.16" y1="193.65" x2="140.24" y2="195.87"/><polyline class="cls-4" points="147.58 138.25 147.5 139.93 147.43 140.32 147.05 141.31 147.05 141.77 147.27 142.69 147.81 146.36"/><polyline class="cls-4" points="147.2 136.57 147.2 136.72 147.43 137.26 147.5 137.64 147.58 138.48"/><polyline class="cls-4" points="238.48 136.41 238.25 135.5 238.1 133.97"/><polyline class="cls-4" points="238.18 138.33 238.33 137.18 238.56 136.49"/><polyline class="cls-4" points="238.1 134.12 237.95 132.05 237.95 130.98 238.33 128.3 238.71 127.16 238.48 125.7 238.41 123.79"/><polyline class="cls-4" points="244.76 212.7 245.21 211.25 245.52 209.94 245.67 208.26 245.52 205.81 245.06 203.75"/><line class="cls-4" x1="245.44" y1="195.48" x2="245.37" y2="194.8"/><polyline class="cls-4" points="244.76 203.44 245.6 200.99 245.9 199.69 245.98 198.47 245.75 196.1 245.52 194.8"/><polyline class="cls-4" points="244.76 212.7 244.6 213.39 244.76 212.7"/><polyline class="cls-4" points="245.14 194.49 245.44 193.65 246.06 191.43 246.29 189.75"/><polyline class="cls-4" points="241.85 200.61 241.47 199.46 241.24 197.78"/><polyline class="cls-4" points="144.37 197.63 144.21 199.16 144.06 199.77 143.91 200.07 143.99 200.61 150.03 200.69 152.55 200.76 156.38 200.61 157.53 200.69 164.19 200.69 168.24 200.61 172.07 200.76 176.12 200.61 181.17 200.61 183.54 200.69 188.59 200.76 190.35 200.61 192.88 200.53 194.56 200.69 202.9 200.69 205.43 200.76 208.03 200.61 211.24 200.69 213.69 200.61 216.9 200.69 217.75 200.76 220.04 200.69 222.11 200.84 227.16 200.61 230.14 200.69 231.52 200.84 235.73 200.84 237.33 200.76 241.77 200.69 241.69 200.15 241.54 199.85 241.39 199.23 241.16 197.7"/><polyline class="cls-4" points="241.92 190.43 241.69 189.59 241.39 187.14"/><line class="cls-4" x1="144.44" y1="194.57" x2="144.44" y2="195.1"/><polyline class="cls-4" points="144.37 197.86 144.21 199.46 143.99 200.61 144.14 199.85"/><polyline class="cls-4" points="144.14 187.14 143.91 189.13 143.68 190.36"/><polyline class="cls-4" points="140.69 203.9 140.47 204.67 140.24 205.89 140.16 208.34 140.24 209.64 141.08 212.7"/><polyline class="cls-4" points="140.24 194.87 140.01 196.1 139.93 197.32 140.01 199.84 140.24 201.07 140.69 202.29 140.92 202.83 141.08 203.44"/><polyline class="cls-4" points="139.32 189.82 139.55 191.51 139.93 192.73 140.54 194.49"/><polyline class="cls-4" points="147.81 133.97 147.73 134.73 147.35 136.11 147.2 136.57 151.64 136.49 161.66 136.64 163.57 136.57 166.33 136.64 168.16 136.49 171.15 136.41 172.22 136.49 174.36 136.49 176.89 136.57 179.18 136.41 180.41 136.49 182.17 136.41 183.39 136.49 186.53 136.49 192.95 136.34 196.01 136.41 202.37 136.26 204.89 136.34 206.35 136.26 210.09 136.41 215.45 136.26 224.71 136.49 228.38 136.49 231.9 136.34 233.51 136.41 234.27 136.49 238.56 136.41 238.4 136.26"/><polyline class="cls-4" points="147.58 123.79 147.5 124.71 146.97 127.08 147.12 127.61 147.35 128.99 147.43 129.83 147.58 134.12"/><line class="cls-4" x1="262.74" y1="156.84" x2="262.74" y2="156.61"/><polyline class="cls-4" points="262.66 155.31 262.74 154.47 262.51 152.94"/><polyline class="cls-4" points="263.04 160.82 263.12 158.99 262.89 158.53"/><line class="cls-4" x1="262.2" y1="158.99" x2="262.35" y2="160.67"/><line class="cls-4" x1="262.97" y1="166.87" x2="262.89" y2="167.02"/><polyline class="cls-4" points="263.73 167.48 263.96 166.79 263.58 165.26"/><polyline class="cls-4" points="263.58 169.16 263.96 168.63 263.73 168.17"/><line class="cls-4" x1="263.65" y1="167.25" x2="263.96" y2="166.87"/><line class="cls-4" x1="262.74" y1="165.18" x2="262.81" y2="165.72"/><polyline class="cls-4" points="263.65 164.72 263.58 165.26 263.43 165.11"/><polyline class="cls-4" points="263.81 166.03 263.73 164.42 263.5 164.95"/><polyline class="cls-4" points="263.5 169.7 263.96 169.85 263.58 169.01"/><line class="cls-4" x1="236.87" y1="179.57" x2="234.04" y2="180.49"/><line class="cls-4" x1="239.63" y1="180.49" x2="241.77" y2="180.49"/><polyline class="cls-4" points="241.77 180.49 242 180.49 242.08 180.03"/><polyline class="cls-4" points="232.59 179.95 234.04 180.49 231.29 179.72"/><polyline class="cls-4" points="215.91 180.1 216.75 180.18 219.28 180.56 223.41 180.41 227.08 180.56"/><polyline class="cls-4" points="230.83 179.49 228.07 179.95 225.4 179.57"/><line class="cls-4" x1="230.98" y1="179.49" x2="225.32" y2="180.41"/><line class="cls-4" x1="222.41" y1="180.41" x2="220.27" y2="179.87"/><polyline class="cls-4" points="202.98 180.49 212.77 180.49 215.91 180.03"/><polyline class="cls-4" points="211.78 179.57 212.92 179.65 215.99 180.1"/><polyline class="cls-4" points="219.12 179.49 215.99 180.1 214.61 179.87"/><line class="cls-4" x1="206.42" y1="179.95" x2="206.42" y2="179.95"/><polyline class="cls-4" points="209.64 180.49 208.87 180.18 207.49 179.8"/><polyline class="cls-4" points="186.07 180.56 186.99 180.41 189.43 180.18 191.81 180.26 195.33 180.64 198.69 180.64 202.6 180.49"/><polyline class="cls-4" points="206.27 179.49 202.98 179.95 198.23 179.64"/><polyline class="cls-4" points="206.34 180.49 202.9 179.88 206.19 179.42"/><line class="cls-4" x1="196.24" y1="180.56" x2="193.87" y2="179.72"/><polyline class="cls-4" points="189.51 179.57 186.22 179.49 182.78 180.26"/><polyline class="cls-4" points="178.26 179.95 179.34 179.95 182.7 180.56 186.07 180.49"/><polyline class="cls-4" points="172.91 180.56 176.2 180.1 177.96 180.26 179.49 180.49 182.78 180.1 186.22 180.41"/><polyline class="cls-4" points="182.7 180.26 180.94 179.88 180.25 179.65"/><polyline class="cls-4" points="214.3 117.51 212.62 117.36 208.26 117.44"/><polyline class="cls-4" points="176.2 179.65 172.91 179.57 170.84 180.03"/><line class="cls-4" x1="169.54" y1="180.56" x2="172.83" y2="180.64"/><polyline class="cls-4" points="163.42 180.18 166.56 180.56 169.69 180.26 172.98 180.64"/><polyline class="cls-4" points="176.12 180.18 178.95 179.72 180.33 179.64"/><polyline class="cls-4" points="123.02 189.82 123.17 189.52 123.17 188.37 123.71 183.55 123.71 182.32 123.86 179.57 124.24 176.05 124.4 173.75 124.47 171.69 124.93 168.4 124.93 167.02 125.39 162.43 125.7 156.77 125.85 155.31 126 151.87 126.46 147.74 126.54 145.6 126.54 143.53 126.39 141.46 126.31 135.65 126.08 131.13 126.08 128.46 125.93 127.61"/><polyline class="cls-4" points="163.57 179.49 161.89 179.34 160.59 179.34 158.52 179.87"/><polyline class="cls-4" points="155.62 180.41 157.99 180.49 160.36 180.41"/><polyline class="cls-4" points="145.52 180.26 146.28 180.49 149.11 180.18 152.63 180.56 155.69 180.41 157.53 180.26 159.36 180.26 160.74 180.41"/><polyline class="cls-4" points="166.48 179.49 163.42 180.18 162.27 180.26"/><polyline class="cls-4" points="122.79 168.09 122.64 169.32 122.64 170.16 122.71 172.99 122.87 173.91 122.94 175.59 122.87 179.87 123.02 180.79 123.17 184.16 123.1 186.91 123.17 189.36"/><line class="cls-4" x1="144.29" y1="180.33" x2="149.26" y2="180.1"/><line class="cls-4" x1="151.79" y1="180.49" x2="149.26" y2="180.1"/><polyline class="cls-4" points="143.53 179.95 143.76 180.18 143.98 180.33 144.21 180.26"/><polyline class="cls-4" points="143.83 180.18 146.66 180.26 145.13 179.64"/><polyline class="cls-4" points="149.88 179.95 149.27 180.1 149.72 179.95"/><polyline class="cls-4" points="122.64 161.13 122.41 161.66 122.33 162.89 121.95 165.72 122.03 166.64 122.26 167.02"/><line class="cls-4" x1="122.79" y1="168.09" x2="122.94" y2="166.18"/><line class="cls-4" x1="122.48" y1="169.77" x2="122.56" y2="169.85"/><line class="cls-4" x1="122.94" y1="166.18" x2="122.94" y2="166.1"/><line class="cls-4" x1="121.87" y1="165.72" x2="122.33" y2="164.5"/><polyline class="cls-4" points="262.58 189.44 262.58 184.77 262.81 180.95 262.89 176.43 263.04 174.82 262.97 171.3 263.27 169.77"/><polyline class="cls-4" points="122.94 156.69 122.48 157.76 122.41 159.52 122.48 160.9 122.64 161.13"/><line class="cls-4" x1="123.33" y1="165.03" x2="123.33" y2="162.89"/><line class="cls-4" x1="123.25" y1="163.04" x2="123.33" y2="162.81"/><polyline class="cls-4" points="123.02 164.65 123.25 162.81 123.4 158.83"/><polyline class="cls-4" points="123.1 155.39 122.64 156.23 122.56 157.38"/><line class="cls-4" x1="123.25" y1="154.24" x2="123.1" y2="154.32"/><line class="cls-4" x1="124.01" y1="153.25" x2="123.94" y2="153.4"/><line class="cls-4" x1="123.4" y1="159.52" x2="123.48" y2="159.06"/><polyline class="cls-4" points="122.79 158.22 122.56 157.69 122.79 158.53"/><polyline class="cls-4" points="123.4 159.29 123.94 153.94 124.09 151.41"/><polyline class="cls-4" points="123.4 150.88 123.02 151.64 123.17 154.17"/><polyline class="cls-4" points="259.68 126.85 259.6 131.9 259.52 132.82 259.45 135.65 259.45 139.93 259.29 142.54 259.45 144.22 259.45 146.59 259.68 148.81 259.91 153.48 260.06 155.24 260.14 157.61 260.44 160.36 260.59 163.42 260.82 165.49 261.05 168.55 261.13 171.69 261.51 175.44 261.59 176.97 261.97 181.79 262.05 183.24 262.58 189.06 262.66 189.44 262.81 189.82"/><polyline class="cls-4" points="123.71 147.43 123.25 148.89 123.25 150.72 123.4 150.88"/><line class="cls-4" x1="124.01" y1="153.17" x2="124.09" y2="151.72"/><polyline class="cls-4" points="123.25 150.03 123.17 148.89 123.63 148.35"/><polyline class="cls-4" points="124.32 148.81 124.32 148.81 124.47 147.28 124.4 147.36"/><line class="cls-4" x1="123.4" y1="150.42" x2="123.25" y2="150.03"/><line class="cls-4" x1="124.01" y1="155.24" x2="123.94" y2="153.09"/><polyline class="cls-4" points="123.48 145.75 123.4 146.67 123.48 148.12"/><polyline class="cls-4" points="184.31 117.21 183.54 117.44 180.41 117.52"/><polyline class="cls-4" points="185 117.44 186.53 117.52 189.21 116.98 191.35 116.9 192.8 116.9 194.94 117.29"/><polyline class="cls-4" points="239.09 115.45 237.26 115.45 230.83 115.22 229.91 115.3 227.39 115.22 223.48 115.37 221.04 115.22 215.99 115.37 211.85 115.22 209.18 115.3 207.87 115.22 204.74 115.3 203.05 115.22 200.68 115.37 198.46 115.3 196.63 115.37 194.41 115.3 191.12 115.37 188.9 115.3 185.69 115.37 183.54 115.22 181.71 115.3 177.27 115.14 175.51 115.22 171.68 115.14 166.33 115.37 161.58 115.22 158.75 115.3 156.76 115.37 154.31 115.22 146.66 115.3"/><line class="cls-4" x1="202.44" y1="116.9" x2="205.58" y2="116.83"/><line class="cls-4" x1="214.76" y1="116.98" x2="217.67" y2="116.9"/><polyline class="cls-4" points="223.1 117.06 223.48 116.98 226.47 117.06"/><line class="cls-4" x1="231.52" y1="116.9" x2="234.04" y2="116.83"/><polyline class="cls-4" points="263.2 167.71 263.2 166.79 262.74 163.27 262.66 161.05 262.28 157.61 262.2 155.93 261.59 147.05 261.28 143.99 260.98 142.15 260.9 141.24 260.67 137.41 260.21 131.44 260.14 129.22 259.83 126.93 259.83 125.4 259.75 124.33"/><polyline class="cls-4" points="263.04 169.24 263.2 167.71 263.73 167.71"/><line class="cls-4" x1="122.64" y1="167.79" x2="122.56" y2="169.77"/><polyline class="cls-4" points="126 124.25 125.85 126.16 125.85 127.54 125.47 131.29 125.32 133.81 125.09 136.26 125.01 137.79 124.63 141.92 124.55 143.84 124.01 149.96 123.78 153.71 123.25 158.37 123.02 163.65 122.64 167.86 122.1 167.86"/><line class="cls-4" x1="124.09" y1="152.41" x2="124.47" y2="146.9"/><line class="cls-4" x1="124.4" y1="147.2" x2="124.78" y2="143.76"/><polyline class="cls-4" points="124.4 147.2 124.63 145.06 124.78 141.69 125.16 137.94 125.24 136.64"/><polyline class="cls-4" points="125.16 137.03 125.47 133.05 125.54 131.36 125.93 127.46 126 125.63 125.93 126.7"/><line class="cls-4" x1="162.04" y1="117.51" x2="164.03" y2="117.13"/><polyline class="cls-4" points="177.12 116.9 180.18 116.9 180.64 116.98"/><polyline class="cls-4" points="173.52 117.51 174.21 117.59 177.19 117.06"/><line class="cls-4" x1="262.51" y1="152.94" x2="262.43" y2="151.26"/><line class="cls-4" x1="260.9" y1="142.76" x2="260.98" y2="142.99"/><line class="cls-4" x1="260.36" y1="136.18" x2="260.52" y2="137.49"/><line class="cls-4" x1="261.44" y1="141.46" x2="261.51" y2="141.16"/><line class="cls-4" x1="259.98" y1="130.75" x2="260.13" y2="132.28"/><line class="cls-4" x1="260.36" y1="136.03" x2="260.29" y2="134.73"/><polyline class="cls-4" points="260.9 132.51 260.82 131.29 260.98 129.83 260.59 128.46"/><line class="cls-4" x1="261.13" y1="135.73" x2="261.21" y2="135.5"/><polyline class="cls-4" points="171.76 117.36 171.38 117.51 173.44 117.51 174.21 117.59"/><line class="cls-4" x1="168.55" y1="117.44" x2="171.45" y2="117.52"/><polyline class="cls-4" points="167.4 117.06 168.01 116.9 168.47 116.98"/><polyline class="cls-4" points="167.4 117.06 165.26 117.29 162.58 116.98"/><polyline class="cls-4" points="169.39 117.06 168.32 117.29 166.71 117.13"/><line class="cls-4" x1="160.13" y1="117.44" x2="162.81" y2="117.44"/><line class="cls-4" x1="156.61" y1="117.06" x2="156.84" y2="117.06"/><line class="cls-4" x1="238.18" y1="117.29" x2="238.4" y2="117.51"/><polyline class="cls-4" points="238.33 123.87 238.1 120.19 238.18 118.28 238.1 117.28 235.88 117.06"/><polyline class="cls-4" points="234.89 117.13 235.88 117.21 238.25 117.28 238.25 117.21"/><polyline class="cls-4" points="238.18 117.44 238.33 117.52 238.56 117.29"/><line class="cls-4" x1="151.79" y1="116.9" x2="151.79" y2="116.9"/><line class="cls-4" x1="152.4" y1="117.21" x2="154.85" y2="117.29"/><polyline class="cls-4" points="148.19 117.06 150.03 117.21 151.02 117.13 152.48 117.21 151.1 116.75"/><polyline class="cls-4" points="146.97 117.21 147.05 117.36 147.28 117.59 147.43 117.13"/><line class="cls-4" x1="154.31" y1="117.36" x2="156.53" y2="117.06"/><polyline class="cls-4" points="225.93 117.21 223.18 117.29 221.19 117.06 220.27 116.98"/><polyline class="cls-4" points="226.24 117.21 225.63 117.44 227.39 117.29 228.46 117.21"/><line class="cls-4" x1="220.19" y1="117.36" x2="225.63" y2="117.51"/><polyline class="cls-4" points="217.36 117.36 220.35 117.13 219.96 117.06"/><polyline class="cls-4" points="211.93 117.36 216.9 117.44 219.43 117.36 220.73 117.44"/><polyline class="cls-4" points="223.87 117.44 226.01 117.21 227.39 117.29 228.76 117.44 226.47 116.9"/><polyline class="cls-4" points="125.32 127.84 125.16 128.07 125.24 128.84"/><polyline class="cls-4" points="125.32 126.54 125.01 127 125.24 127.84"/><line class="cls-4" x1="125.32" y1="126.31" x2="125.09" y2="126.54"/><line class="cls-4" x1="214.61" y1="117.44" x2="208.41" y2="117.21"/><polyline class="cls-4" points="214.61 117.44 214.23 117.59 215.99 117.52"/><polyline class="cls-4" points="204.2 117.44 205.27 117.52 207.19 117.29 208.41 117.21 207.72 117.06"/><polyline class="cls-4" points="202.37 117.44 205.43 117.29 208.64 117.44"/><polyline class="cls-4" points="125.01 129.83 124.78 130.37 124.55 131.82 124.7 133.58 124.47 134.81 124.55 134.96"/><polyline class="cls-4" points="124.78 134.04 124.24 136.03 124.32 136.95"/><line class="cls-4" x1="205.43" y1="117.36" x2="202.21" y2="117.21"/><line class="cls-4" x1="199.15" y1="117.36" x2="196.09" y2="117.13"/><polyline class="cls-4" points="202.44 117.21 201.22 117.36 199.08 117.52 196.02 117.44"/><line class="cls-4" x1="192.88" y1="117.44" x2="196.02" y2="117.36"/><polyline class="cls-4" points="124.47 136.87 124.09 137.18 124.09 138.86 124.24 139.7"/><line class="cls-4" x1="124.93" y1="140.55" x2="124.93" y2="140.09"/><line class="cls-4" x1="124.24" y1="139.55" x2="123.94" y2="142.54"/><line class="cls-4" x1="124.32" y1="139.78" x2="124.24" y2="139.55"/><polyline class="cls-4" points="124.09 142.23 123.94 142.46 123.56 145.67 123.94 145.06"/><line class="cls-4" x1="124.93" y1="144.75" x2="124.78" y2="142.54"/><line class="cls-4" x1="124.47" y1="149.27" x2="124.4" y2="146.97"/><polyline class="cls-4" points="237.64 146.28 237.72 145.98 238.25 142.23 238.56 141.23"/><polyline class="cls-4" points="238.18 138.02 238.25 137.1 238.48 136.41"/><polyline class="cls-4" points="259.37 145.6 257.69 145.83 254.7 145.9 251.87 145.83 250.19 145.67 248.73 145.67 246.59 145.9 243.23 145.98 240.7 146.13 238.25 146.21 237.56 146.28"/><line class="cls-4" x1="261.97" y1="154.55" x2="261.74" y2="155.31"/><polyline class="cls-4" points="241.77 189.06 245.83 189.13 246.44 189.21 248.05 189.29 249.27 189.44 251.49 189.59 253.71 189.44 258.22 189.29 262.51 189.52 263.12 190.13 262.66 189.44"/><polyline class="cls-4" points="123.33 189.59 126 189.36 129.37 189.44 131.21 189.29 134.5 189.44 137.56 189.29 139.55 189.36 142.53 189.13 144.06 189.21"/><line class="cls-4" x1="125.77" y1="132.89" x2="125.54" y2="131.75"/><line class="cls-4" x1="125.85" y1="130.68" x2="125.7" y2="129.45"/><polyline class="cls-4" points="147.5 117.13 147.73 120.81 147.66 123.94"/><polyline class="cls-4" points="148.04 146.28 145.97 146.05 142.99 145.9 139.93 145.98 138.09 145.9 136.87 145.75 134.88 145.75 130.14 145.9 128.07 145.83 126.54 145.67"/><polyline class="cls-4" points="147.12 141.23 147.43 142.15 147.89 145.29 148.12 146.28 150.41 146.28 154.47 146.44 155.92 146.59 158.52 146.51 161.12 146.51 165.41 146.74 168.55 146.67 171.38 146.74 175.28 146.67 177.35 146.74 183.08 146.67 185.99 146.82 188.21 146.74 189.66 146.67 191.35 146.74 194.64 146.59 199.92 146.74 204.05 146.59 205.27 146.67 208.26 146.74 210.09 146.67 217.29 146.67 221.11 146.59 225.47 146.74 227.46 146.59 235.42 146.36"/><polyline class="cls-4" points="147.2 136.72 147.35 136.49 147.58 137.18 147.66 138.25"/><polyline class="cls-4" points="238.4 136.34 238.25 135.8 238.1 134.2"/><polyline class="cls-4" points="238.71 127.16 238.48 125.93 238.4 123.87"/><polyline class="cls-4" points="237.56 149.42 237.56 153.17 237.79 156.61 237.79 158.07 237.95 159.37 238.02 160.82 238.17 162.2 238.17 164.34 238.25 165.8 238.25 168.24 238.33 170.39 238.56 172.61 238.86 177.58"/><line class="cls-4" x1="237.56" y1="148.35" x2="237.64" y2="150.8"/><line class="cls-4" x1="237.64" y1="146.28" x2="237.56" y2="148.35"/><line class="cls-4" x1="241.31" y1="195.1" x2="241.39" y2="194.49"/><polyline class="cls-4" points="123.02 189.82 123.25 189.59 122.56 190.13"/><polyline class="cls-4" points="146.89 177.73 147.05 173.98 147.5 169.32 147.58 167.25 147.81 163.35 147.81 159.98 148.04 157.61 148.19 154.85 148.19 152.71 148.35 150.57"/><line class="cls-4" x1="148.27" y1="150.65" x2="148.12" y2="147.36"/><polyline class="cls-4" points="147.81 134.12 147.73 134.96 147.58 135.73 147.43 136.41"/><polyline class="cls-4" points="147.58 123.94 147.5 125.01 147.05 127.08"/><polyline class="cls-4" points="238.33 117.21 238.41 117.52 238.25 117.21"/><polyline class="cls-4" points="39.01 87.83 43.29 86.07 45.05 85.38 47.42 86.45 48.26 86.76 52.09 88.67 54.46 89.74 56.22 90.28 58.36 91.35 61.2 90.28 63.03 93.11 63.41 93.87 64.1 95.55 64.87 96.78 61.35 96.47 59.66 96.24 57.29 95.71 52.86 95.33 49.64 94.79 52.47 93.72 51.02 92.88 49.49 92.11 47.27 90.89 45.59 90.28 42.53 88.74 39.01 87.83"/><polyline class="cls-4" points="340.63 85.38 343.92 86.6 346.67 87.52 333.21 93.87 336.34 94.87 332.82 95.4 330.45 95.56 326.86 96.17 324.33 96.4 322.49 96.7 320.96 96.86 324.56 90.12 326.09 90.81 327.47 91.27 340.63 85.38"/><polyline class="cls-4" points="374.07 236.34 368.1 239.71 367.33 239.33 365.88 238.49 363.66 237.34 360.37 236.04 356.47 234.2 354.86 233.51 351.88 231.9 351.03 231.68 350.12 231.29 347.06 232.98 346.6 232.21 346.14 231.45 343.31 228.16 342.39 226.7 341.85 226.01 340.48 223.79 342.08 224.18 344.76 224.41 346.37 224.79 348.97 225.17 350.81 225.33 355.78 226.24 357.62 226.4 358.84 226.63 355.93 228.16 358.3 229.23 359.07 229.69 360.6 230.45 362.28 231.06 365.5 232.44 368.48 234.05 369.32 234.35 374.07 236.34"/><polyline class="cls-4" points="17.58 239.48 16.13 238.64 14.44 237.95 12.84 237.18 11.61 236.34 19.65 232.59 25.77 229.84 29.98 227.85 28.45 227.01 26.92 226.32 30.44 225.71 32.12 225.55 35.56 225.02 38.01 224.79 40.77 224.25 45.43 223.72 38.78 232.67 35.95 230.99 32.66 232.59 29.67 233.82 27.91 234.66 17.58 239.48"/><line class="cls-4" x1="122.56" y1="161.97" x2="122.25" y2="162.89"/><line class="cls-4" x1="124.78" y1="143.53" x2="124.86" y2="142.92"/><line class="cls-4" x1="124.78" y1="133.97" x2="124.78" y2="134.12"/><line class="cls-4" x1="140.16" y1="193.26" x2="140.24" y2="193.8"/><line class="cls-4" x1="140.24" y1="194.8" x2="140.16" y2="195.48"/><line class="cls-4" x1="140.77" y1="203.36" x2="140.69" y2="204.36"/><line class="cls-4" x1="144.29" y1="180.33" x2="144.21" y2="182.02"/><line class="cls-4" x1="151.79" y1="116.9" x2="151.79" y2="116.9"/><line class="cls-4" x1="149.72" y1="179.95" x2="151.79" y2="179.49"/><polyline class="cls-4" points="154.31 179.95 153.17 180.03 151.79 179.95"/><line class="cls-4" x1="153.7" y1="116.9" x2="151.79" y2="116.98"/><line class="cls-4" x1="151.79" y1="116.9" x2="153.78" y2="117.06"/><polyline class="cls-4" points="155.77 179.95 154.08 179.87 155.77 179.95"/><line class="cls-4" x1="156.84" y1="117.06" x2="156.84" y2="117.06"/><line class="cls-4" x1="158.06" y1="116.98" x2="160.05" y2="117.44"/><line class="cls-4" x1="158.52" y1="179.95" x2="157.45" y2="180.18"/><line class="cls-4" x1="167.4" y1="117.06" x2="168.47" y2="116.98"/><polyline class="cls-4" points="167.02 180.56 169.46 180.56 170.15 180.33"/><line class="cls-4" x1="167.86" y1="180.1" x2="166.4" y2="179.57"/><line class="cls-4" x1="168.47" y1="116.98" x2="168.93" y2="117.13"/><line class="cls-4" x1="169.39" y1="117.06" x2="169.39" y2="117.06"/><line class="cls-4" x1="170.84" y1="180.03" x2="169.69" y2="180.26"/><polyline class="cls-4" points="176.73 117.06 177.42 117.21 179.56 116.98"/><line class="cls-4" x1="181.78" y1="179.72" x2="179.26" y2="179.95"/><line class="cls-4" x1="180.64" y1="117.06" x2="180.64" y2="117.06"/><polyline class="cls-4" points="190.97 179.87 191.88 179.8 192.96 179.87"/><line class="cls-4" x1="194.94" y1="117.21" x2="196.09" y2="117.06"/><line class="cls-4" x1="194.56" y1="180.03" x2="195.56" y2="180.1"/><line class="cls-4" x1="194.56" y1="180.03" x2="195.56" y2="180.1"/><line class="cls-4" x1="197.7" y1="117.21" x2="199.23" y2="116.98"/><polyline class="cls-4" points="202.21 117.21 200.38 117.36 199.15 117.36"/><line class="cls-4" x1="202.37" y1="180.1" x2="199.54" y2="180.56"/><line class="cls-4" x1="206.42" y1="179.95" x2="206.27" y2="179.95"/><line class="cls-4" x1="208.87" y1="117.44" x2="211.32" y2="116.98"/><line class="cls-4" x1="222.03" y1="179.87" x2="222.18" y2="179.87"/><line class="cls-4" x1="221.42" y1="179.87" x2="222.18" y2="179.87"/><line class="cls-4" x1="220.96" y1="117.36" x2="223.1" y2="116.98"/><line class="cls-4" x1="224.86" y1="117.06" x2="224.33" y2="117.21"/><polyline class="cls-4" points="227.92 180.1 229.68 180.1 230.83 180.03"/><line class="cls-4" x1="228.53" y1="180.1" x2="230.98" y2="180.03"/><line class="cls-4" x1="232.36" y1="117.06" x2="230.91" y2="117.21"/><line class="cls-4" x1="234.27" y1="179.95" x2="232.59" y2="179.95"/><line class="cls-4" x1="235.57" y1="179.95" x2="233.89" y2="179.87"/><line class="cls-4" x1="236.49" y1="180.03" x2="233.89" y2="179.95"/><polyline class="cls-4" points="236.49 180.03 234.04 179.95 234.2 179.95"/><line class="cls-4" x1="240.85" y1="180.26" x2="239.4" y2="179.95"/><line class="cls-4" x1="260.44" y1="127.16" x2="260.67" y2="126.47"/><polyline class="cls-4" points="83.16 127 81.32 128.92 81.32 127.16 81.17 126.39 81.09 124.71 81.09 123.87 81.24 122.87 81.24 122.18 81.01 118.36 81.09 117.36 81.01 115.3 81.09 114.38 81.01 113.61 81.09 111.7 80.86 109.33 80.86 107.8 80.71 106.5"/><polyline class="cls-4" points="106.65 117.36 107.33 117.9 107.56 118.13 107.64 117.21 107.26 114.99 107.33 113.15 107.26 110.78 107.33 109.86 107.26 106.73 107.1 105.96 106.95 103.9 107.03 101.06 106.88 97.16 106.8 96.4 106.88 95.71"/><polyline class="cls-4" points="106.65 117.36 105.19 117.59 103.51 118.13 97.69 120.5 95.09 121.65 92.64 122.56 91.73 123.02 87.52 124.71 85.76 125.47 84.76 126.01 83.08 127"/><polyline class="cls-4" points="277.35 116.98 277.43 115.22 277.35 113.31 277.43 112.39 277.35 111.55 277.5 109.86 277.43 107.72 277.58 105.88 277.5 104.74 277.66 102.98 277.58 102.13 277.81 100.3 277.73 98.85 277.89 95.17"/><polyline class="cls-4" points="301.22 126.85 303.06 128.69 303.14 126.16 303.52 122.03 303.44 120.42 303.6 118.05 303.9 110.02 304.13 106.04"/><polyline class="cls-4" points="301.22 126.85 299.54 125.63 298.01 124.78 296.02 124.09 294.41 123.25 291.89 122.18 291.05 121.72 289.36 121.03 286.92 119.81 286 119.5 285.16 119.12 284.31 118.66 283.47 118.36 281.1 117.21 279.42 116.83 277.96 116.67"/><polyline class="cls-4" points="313.39 211.48 313.93 211.93 314.69 212.39 315.3 212.85 315.46 211.93 315.46 209.49 315.61 208.26 315.61 207.27 315.53 206.5 315.69 204.59 315.61 203.82 315.76 199.54 315.69 199.08 315.92 197.17 315.84 194.49 316.07 191.81 316.22 188.75"/><polyline class="cls-4" points="289.67 202.06 289.82 203.67 289.67 205.35 289.59 208.03 289.67 208.8 289.52 210.63 289.59 211.4 289.52 212.62 289.59 213.39 289.44 216.68 289.44 219.13 289.29 221.8 289.44 223.34 289.21 226.24 290.13 223.41 291.35 222.11"/><polyline class="cls-4" points="313.39 211.48 312.55 211.55 311.63 211.71 309.95 212.39 308.26 213.24 293.88 220.66 292.96 221.19 291.28 222.34"/><polyline class="cls-4" points="96.7 202.6 96.93 204.21 96.85 204.97 96.93 207.96 97.08 210.1 97 211.93 97.16 213.85 97.08 214.77 97.23 217.9 97.16 219.74 97.23 220.58 97.39 221.35 97.46 227.09 97.31 226.17 96.93 225.4 96.78 224.18 95.7 223.11 95.32 222.8"/><polyline class="cls-4" points="70.68 189.06 70.76 190.82 70.99 193.95 70.99 196.71 71.14 197.55 71.14 200.61 71.37 203.67 71.45 205.51 71.6 206.2 71.68 208.03 71.83 208.8 71.76 209.79 71.91 213.54"/><polyline class="cls-4" points="95.4 222.8 93.94 221.8 93.03 221.27 91.95 220.89 89.66 219.43 86.98 218.13 86.29 217.67 85.37 217.21 83.84 216.37 82.08 215.53 80.4 214.46 78.56 213.77 77.11 212.85 75.35 212.24 74.51 212.09 73.67 212.01 71.75 213.31"/><line class="cls-4" x1="241.85" y1="179.87" x2="242.23" y2="179.95"/><polyline class="cls-4" points="122.18 169.7 122.33 171.15 122.25 172.99 122.33 173.91 122.25 174.82 122.33 175.67 122.25 179.95 122.33 180.95 122.41 187.07 122.64 188.6 122.64 189.97 123.86 189.9 125.7 189.67 127.84 189.75 129.29 189.59 131.82 189.67 133.35 189.9 134.11 189.9 134.88 189.75 136.41 189.67 139.24 189.67 142.07 189.29 142.68 189.29 143.76 189.44"/><polyline class="cls-4" points="241.54 193.11 237.87 193.26 236.19 193.19 235.27 193.26 232.74 193.11 230.83 193.26 229.15 193.11 228.23 193.19 227.23 193.11 225.09 193.19 224.25 193.11 222.41 193.19 220.5 193.03 218.13 193.19 217.29 193.11 216.29 193.19 215.07 193.03 211.78 193.11 211.01 193.03 209.33 193.19 206.88 192.96 205.2 193.19 203.13 193.11 199.46 193.11 197.78 193.03 194.41 193.11 192.88 193.03 191.96 193.11 191.12 193.03 190.12 193.19 188.59 193.03 187.6 193.19 186.83 193.11 183.54 193.03 179.79 193.19 177.19 193.11 173.21 193.19 172.14 193.03 171.22 193.11 168.93 193.11 168.01 193.19 166.63 193.11 164.8 193.19 163.57 193.11 162.73 193.11 161.81 193.26 160.59 193.19 156.84 193.11 152.4 192.96 150.41 193.11 149.57 193.03 148.5 193.11 146.05 192.96 144.29 193.03"/><polyline class="cls-4" points="143.6 190.43 143.91 191.66 144.14 192.19 144.37 193.19 144.52 194.26 144.44 195.56 144.52 196.4 144.44 197.86"/><polyline class="cls-4" points="241.31 197.86 241.24 195.94 241.62 192.96 241.62 192.27 241.92 190.89 242.15 190.28"/><polyline class="cls-4" points="241.85 189.59 242 189.67 243.23 189.59 244.3 189.67 245.14 189.67 246.13 189.82 248.27 189.74 249.04 189.9 251.41 190.13 252.71 190.13 253.63 189.9 254.7 189.74 256.62 189.9 258.53 189.82 260.75 189.9 262.28 190.05 262.89 190.2 263.04 185.08 262.97 183.7 263.12 182.55 263.2 179.26 263.12 176.51 263.27 174.82 263.2 173.14 263.35 171.31 263.27 169.7"/><line class="cls-4" x1="263.58" y1="169.7" x2="263.73" y2="167.63"/><line class="cls-4" x1="242.46" y1="179.95" x2="242.54" y2="177.89"/><polyline class="cls-4" points="143.22 177.96 143.3 178.42 143.3 179.95"/><line class="cls-4" x1="122.1" y1="167.79" x2="122.18" y2="169.77"/><polyline class="cls-4" points="237.72 146.28 238.18 143.07 238.56 141.69"/><polyline class="cls-4" points="244.83 212.78 244.6 214.23 244.37 215 243.23 217.6 242 219.51 240.62 221.19 240.16 221.73 238.33 223.49 236.26 225.17 233.97 226.7 233.35 227.01 232.28 227.7 229.61 229.07 228.84 229.46 226.7 230.37 223.02 231.83 221.8 232.21 220.81 232.67 217.98 233.43 216.45 233.74 214.84 234.2 214.07 234.28 213.31 234.51 210.78 235.04 209.25 235.2 207.49 235.58 205.81 235.81 204.97 235.88 203.13 236.19 198.85 236.42 197.93 236.57 194.56 236.57 190.97 236.73 190.2 236.57 187.45 236.65 185 236.34 182.24 236.27 178.95 235.65 177.96 235.73 177.12 235.65 175.43 235.27 174.59 235.2 172.98 234.74 171.3 234.51 170.54 234.28 169.77 234.2 168.93 234.05 165.41 232.82 163.57 232.44 161.2 231.29 159.44 230.83 158.29 230.3 157.6 229.84 154.47 228.54 153.63 227.85 152.86 227.39 151.87 226.93 150.34 225.94 149.72 225.32 148.96 224.79 147.66 223.64 146.89 223.18 146.43 222.57 144.21 220.43 143.45 219.13 143.07 218.21 142 216.68 141.61 216.07 141.46 215.53 140.85 213.01"/><polyline class="cls-4" points="245.06 202.6 244.68 204.36 243.99 206.2 243.61 206.96 241.85 209.72 240.7 210.94 239.63 212.01 238.25 213.24 236.87 214.31 235.5 215.23 233.89 216.3 232.51 217.06 230.52 218.13 228.99 218.9 226.7 219.97 220.35 222.19 218.2 222.72 215.76 223.41 214.07 223.79 212.62 224.02 210.09 224.56 208.56 224.71 207.65 224.94 206.8 225.1 204.36 225.25 203.44 225.48 202.67 225.48 199.92 225.86 197.39 225.94 195.56 226.09 192.11 226.01 189.59 225.86 187.75 225.94 185.99 225.86 183.31 225.71 180.87 225.32 178.95 225.32 178.19 225.1 176.43 224.94 174.06 224.41 172.37 224.18 171.61 223.87 168.24 223.26 166.1 222.49 165.41 222.42 163.88 221.81 161.58 221.19 159.67 220.2 157.45 219.51 157.22 219.28 155.61 218.59 154.62 217.98 152.78 217.14 151.94 216.53 151.33 215.99 149.65 215.07 148.88 214.54 148.12 214.08 147.43 213.46 146.97 212.78 146.43 212.24 145.74 211.7 144.6 210.18 143.68 209.1 143.45 208.72 142.91 208.11 142.61 207.65 142.07 206.43 141.77 205.58 141.54 205.28 141 202.83"/><polyline class="cls-4" points="245.44 194.03 244.68 196.48 243.38 199.08 242.23 200.92 240.7 202.75 239.63 203.82 238.33 204.97 236.95 206.04 233.81 208.11 232.36 208.87 228.53 210.63 224.33 212.16 222.87 212.62 218.13 213.85 216.6 214.23 215.83 214.31 213.16 214.92 210.71 215.22 209.71 215.45 208.95 215.68 207.26 215.84 202.67 216.45 200.22 216.45 199.31 216.6 197.55 216.68 196.63 216.76 195.86 216.68 192.11 216.76 191.27 216.68 190.2 216.76 189.44 216.6 188.44 216.68 187.52 216.6 185.99 216.37 184.92 216.45 184.08 216.37 183.16 216.45 182.32 216.3 179.64 216.07 176.81 215.68 174.06 215.38 171.61 214.84 170.54 214.92 168.85 214.54 168.09 214.31 167.17 214.15 165.64 213.62 163.96 213.31 163.11 213.08 160.89 212.32 159.44 211.93 157.37 211.09 156.61 210.71 155.23 210.33 154.47 209.95 152.71 208.87 151.87 208.49 150.11 207.5 147.73 205.74 145.9 204.21 145.29 203.59 144.21 202.37 143.3 201.07 142.84 200.61 142.3 199.92 141.23 198.24 140.24 195.71 140.01 194.34"/><polyline class="cls-4" points="243.76 189.59 243.38 190.51 242.08 193.04 241.47 194.11"/><polyline class="cls-4" points="241.47 187.14 241.54 184.7 241.47 183.09 241.7 180.33"/><polyline class="cls-4" points="234.12 200.69 232.59 201.38 230.75 201.83 228.76 202.52 227 202.98 224.79 203.37 222.26 203.9 219.66 204.21 218.59 204.51 217.67 204.67 215.14 204.82 210.25 205.58 205.66 205.97 203.67 206.04 202.67 206.27 199.92 206.2 196.86 206.43 195.71 206.35 194.18 206.2 192.8 206.35 191.96 206.27 189.82 206.35 188.21 206.2 186.99 206.2 185.15 206.27 184.31 206.2 183.24 206.04 181.33 206.12 180.33 205.89 179.41 205.97 178.34 205.74 176.5 205.81 173.83 205.35 171.84 205.2 169.08 204.74 168.16 204.74 167.17 204.59 166.4 204.36 164.42 204.21 162.73 203.82 161.74 203.75 160.89 203.59 159.36 203.14 157.53 202.91 156.92 202.68 155.62 202.37 154.62 202.14 153.7 201.76 152.94 201.6 151.56 200.99"/><polyline class="cls-4" points="144.21 182.02 144.37 184.7 144.21 186.61 144.29 187.14"/><polyline class="cls-4" points="144.44 194.18 143.99 193.72 142.91 191.66 142.68 191.12 142.22 189.44"/><polyline class="cls-4" points="147.2 141.62 147.43 142.54 147.96 146.06"/><polyline class="cls-4" points="147.2 136.72 147.58 137.26 147.66 137.64 147.66 138.48"/><polyline class="cls-4" points="238.48 136.41 238.25 135.57 238.25 134.73 238.1 133.97"/><polyline class="cls-4" points="238.02 138.4 238.25 137.26 238.48 136.72"/><polyline class="cls-4" points="238.71 126.93 238.56 126.39 238.4 125.62 238.33 124.71 238.17 123.79"/><polyline class="cls-4" points="241.92 200.61 241.47 199.54 241.24 197.86"/><polyline class="cls-4" points="242.08 190.36 241.85 189.82 241.54 188.29 241.47 187.14"/><polyline class="cls-4" points="144.37 197.86 144.21 199.54 143.99 200.69"/><polyline class="cls-4" points="144.21 187.14 144.06 188.06 143.99 189.13 143.6 190.43"/><polyline class="cls-4" points="147.73 134.04 147.73 134.81 147.43 136.18"/><polyline class="cls-4" points="147.58 123.87 147.5 124.78 146.97 126.93"/><polyline class="cls-4" points="263.73 168.86 264.04 169.7 263.65 169.01"/><polyline class="cls-4" points="241.92 180.33 242.15 180.41 242.23 179.95"/><polyline class="cls-4" points="238.18 129.83 237.18 129.99 236.42 129.83 234.04 129.76 233.35 129.68 228.15 129.83 223.87 129.76 222.8 129.83 222.03 129.76 220.04 129.91 219.2 129.76 217.13 129.83 215.6 129.68 214.3 129.83 211.4 129.76 209.63 129.83 208.87 129.76 207.49 129.83 206.65 129.76 204.43 129.83 203.67 129.68 202.82 129.6 201.37 129.76 198.39 129.68 195.25 129.76 194.26 129.91 192.19 129.76 191.27 129.83 189.97 129.76 188.21 129.83 187.37 129.76 184.16 129.83 182.01 129.76 180.56 129.91 179.03 129.68 176.66 129.91 174.97 129.83 170.69 129.91 167.86 129.83 164.03 129.99 163.11 129.91 159.59 129.83 157.76 129.91 156.07 129.83 153.47 129.91 152.63 129.99 151.1 129.83 147.81 129.91"/><polyline class="cls-4" points="146.97 127.16 147.12 127.69 147.66 130.67 147.58 132.13 147.66 134.2"/><polyline class="cls-4" points="126.23 139.25 126.31 140.16 126 142.61 126.08 143.61 125.7 146.28 125.54 150.11 124.78 157.46 124.55 163.19 124.24 164.88 124.09 168.55 123.86 170.08 123.71 172.15 123.71 173.45 123.56 174.9 123.17 179.65 123.17 181.1 123.02 182.4"/><polyline class="cls-4" points="126.39 145.67 126.39 145.14 126.46 144.37 126.39 142.69 126.46 140.16 126.31 139.25 126.39 135.57 126.23 133.51 126.16 131.13 126.23 130.29 126.08 129.53 126.08 128.53 125.93 127.69"/><polyline class="cls-4" points="122.71 169.39 122.87 171.23 122.71 173.07 122.94 175.67 122.94 177.5 122.87 179.26 122.87 179.95 123.02 180.33 123.1 180.87 123.02 182.48 123.1 187.07 123.33 189.36 123.17 189.67"/><polyline class="cls-4" points="262.74 182.48 262.35 177.96 262.13 176.81 262.2 175.36 262.13 173.98 261.89 172.15 261.51 167.86 261.36 165.49 261.36 164.8 261.05 161.89 261.05 160.98 260.9 159.44 260.9 158.76 260.59 155.93 260.67 155.01 260.59 154.4 260.36 152.18 260.21 151.72 260.21 150.8 260.06 150.34 260.14 149.35 259.98 148.04 259.98 147.51 259.83 146.74 259.75 144.07 259.52 142.69 259.45 139.17"/><polyline class="cls-4" points="262.81 189.67 262.66 189.36 262.58 188.75 262.58 187.99 262.74 186.07 262.66 183.55 262.89 180.87 262.81 179.95 262.89 178.42 262.66 176.58 262.89 174.9 262.81 173.22 262.97 171.23 263.2 169.77"/><polyline class="cls-4" points="259.68 126.85 259.75 128.38 259.52 131.21 259.6 131.9 259.45 132.82 259.37 135.65 259.45 137.41 259.37 138.25 259.45 139.09 259.45 139.93 259.22 142.61 259.22 143.45 259.29 144.3 259.22 145.52"/><polyline class="cls-4" points="238.1 134.2 237.95 132.05 238.02 130.91 238.41 128.23 238.79 127.08"/><polyline class="cls-4" points="239.09 117.29 239.02 116.9 239.09 115.45"/><polyline class="cls-4" points="259.75 124.25 259.83 125.09 259.68 126.24"/><line class="cls-4" x1="263.04" y1="169.7" x2="263.12" y2="167.71"/><line class="cls-4" x1="122.64" y1="167.79" x2="122.64" y2="169.77"/><line class="cls-4" x1="126" y1="126.16" x2="126.08" y2="124.17"/><line class="cls-4" x1="146.66" y1="115.3" x2="146.74" y2="117.13"/><polyline class="cls-4" points="238.25 123.94 238.1 123.1 238.17 121.72 238.1 120.19 238.25 118.2 238.17 117.29 238.4 117.52 238.56 117.36"/><polyline class="cls-4" points="147.12 117.13 147.12 117.28 147.27 117.51 147.43 117.06"/><polyline class="cls-4" points="213.46 177.81 211.47 177.27 209.94 177.04 208.33 176.66 207.65 176.58 206.8 176.43 204.28 176.28 203.51 176.13 200.45 175.74 198.54 175.82 197.85 175.67 196.02 175.67 194.56 175.51 187.14 175.67 182.24 176.05 178.26 176.58 175.89 176.97 172.3 177.66"/><polyline class="cls-4" points="238.18 165.26 237.26 164.57 236.8 164.11 236.34 163.35 235.88 162.89 235.12 162.43 233.89 161.51 233.13 161.05 232.28 160.82 231.37 160.44 228.38 159.83 227.23 159.37 226.47 159.14 224.94 158.91 224.02 158.83 221.57 158.45 220.81 158.22 218.21 157.99 216.52 157.76 215.76 157.53 214.68 157.61 213.84 157.53 211.4 157.07 208.56 157 203.21 156.54 202.21 156.61 200.38 156.46 199.46 156.54 198.54 156.38 197.62 156.46 195.86 156.38 193.8 156.54 192.8 156.46 192.11 156.31 189.21 156.46 188.36 156.38 186.37 156.54 185.61 156.46 183.7 156.54 181.86 156.77 179.18 156.84 178.03 157.07 174.59 157.23 171.84 157.61 169.31 157.76 168.39 157.99 161.66 158.91 159.98 159.37 156.92 159.83 154.77 160.44 152.71 161.21 151.25 161.97 149.88 162.89 148.81 163.81 147.5 165.18"/><polyline class="cls-4" points="237.64 152.79 237.18 152.02 236.42 151.1 235.34 150.34 233.89 149.88 231.9 149.65 230.14 149.57 228.92 149.42 226.39 149.42 223.1 149.19 222.26 149.04 221.27 149.12 219.43 149.12 217.67 148.96 216.52 149.04 214.84 148.89 213.61 148.96 211.09 148.81 209.86 148.89 206.19 148.66 204.81 148.81 203.13 148.66 200.91 148.73 198 148.58 197.16 148.58 196.24 148.66 192.88 148.5 191.04 148.66 189.89 148.5 185.84 148.73 185.07 148.66 183.7 148.73 181.25 148.58 179.95 148.66 177.96 148.58 176.12 148.73 175.13 148.89 173.21 148.81 171.99 148.96 170.31 148.96 168.24 149.12 165.56 149.04 164.64 149.19 161.89 149.34 160.97 149.42 159.29 149.34 156.61 149.57 155.16 149.5 151.79 150.03 150.49 150.34 149.42 151.03 148.58 152.02 148.19 152.79"/><polyline class="cls-4" points="238.25 142.54 236.57 142.46 235.8 142.61 233.43 142.54 230.91 142.61 228.38 142.61 225.86 142.46 224.79 142.61 223.94 142.61 222.26 142.46 219.28 142.61 218.59 142.46 215.68 142.46 213.54 142.54 211.93 142.38 210.55 142.54 208.95 142.38 207.49 142.54 206.73 142.46 205.43 142.38 204.58 142.38 203.59 142.54 197.47 142.46 195.94 142.61 195.17 142.54 194.26 142.61 192.11 142.46 191.04 142.61 188.98 142.38 188.06 142.46 185 142.38 183.47 142.54 181.02 142.38 179.56 142.46 177.42 142.38 176.66 142.31 174.82 142.46 173.6 142.38 172.68 142.46 169.77 142.38 168.85 142.46 164.87 142.38 163.04 142.46 161.28 142.31 159.21 142.54 158.45 142.46 156.69 142.46 155.08 142.38 152.33 142.61 150.11 142.38 149.19 142.46 147.66 142.38"/><polyline class="cls-4" points="238.18 137.56 237.26 137.64 234.89 137.56 233.97 137.64 231.44 137.71 229.99 137.56 229.07 137.56 227.23 137.71 226.39 137.64 225.47 137.71 223.79 137.64 222.87 137.71 222.03 137.56 220.19 137.71 217.29 137.64 216.37 137.71 215.53 137.64 213.38 137.79 212.62 137.71 211.4 137.64 208.33 137.71 207.42 137.79 206.57 137.79 203.59 137.71 202.37 137.64 201.3 137.64 199 137.71 197.47 137.56 196.55 137.64 191.19 137.64 188.82 137.79 185.99 137.56 184.16 137.64 182.01 137.56 181.09 137.64 179.03 137.48 176.73 137.64 175.05 137.56 172.83 137.71 171.99 137.71 170.92 137.56 169.08 137.71 167.17 137.56 165.94 137.71 165.03 137.79 163.5 137.64 161.51 137.71 160.59 137.64 157.91 137.71 157.15 137.56 155.46 137.56 153.63 137.64 150.8 137.64 149.04 137.79 147.73 137.64"/><polyline class="cls-4" points="238.63 177.73 237.87 176.97 236.49 175.9 235.65 175.51 233.58 173.98 232.74 173.52 231.21 172.61 226.77 170.69 224.63 170.16 223.48 169.7 222.11 169.32 218.97 168.63 218.05 168.47 215.91 167.79 214.38 167.56 212.7 167.4 212.01 167.17 210.32 167.02 209.56 166.87 205.43 166.41 202.83 166.25 201.3 165.87 200.38 166.03 199.46 166.03 197.78 165.87 196.24 165.64 194.41 165.72 192.88 165.57 191.04 165.64 190.28 165.57 189.36 165.72 187.68 165.72 186.76 165.8 185.23 165.72 183.47 165.87 180.79 166.25 180.1 166.18 179.18 166.33 174.36 166.87 169.46 167.79 168.55 168.01 163.5 169.09 161.66 169.77 159.29 170.46 156.46 171.61 154.7 172.45 152.1 173.91 150.64 174.82 149.19 175.82 147.05 177.66"/><polyline class="cls-4" points="259.29 145.67 259.14 145.6 258.38 145.75 257.61 145.83 254.55 145.9 253.02 145.75 251.79 145.83 250.03 145.67 247.97 145.75 247.43 145.67 245.6 145.83 243.23 145.83 239.78 146.05 238.33 145.98 237.56 146.05 237.64 145.75 238.25 141.92 238.48 141 238.02 140.16 237.95 139.7 237.95 137.94"/><polyline class="cls-4" points="238.02 138.17 238.17 136.87 238.33 136.57 238.48 136.64 238.33 136.49"/><polyline class="cls-4" points="248.35 189.29 248.27 188.37 248.12 187.3 248.12 185.61 247.97 184.85 247.89 183.47 247.74 183.09 247.59 182.25 247.66 180.26 247.36 177.5 247.28 176.66 247.36 175.05 247.2 173.68 247.13 172.15 247.05 171.54 247.13 170.62 246.75 167.79 246.75 166.25 246.67 165.72 246.75 164.8 246.59 162.74 246.59 161.82 246.21 159.06 246.21 157 245.9 151.72 245.9 150.42 245.52 145.98"/><polyline class="cls-4" points="259.83 189.36 259.68 188.22 259.6 186.91 259.52 185.69 259.37 184.85 259.37 182.09 259.29 180.72 259.14 180.26 259.14 179.34 258.91 177.5 258.91 175.97 258.68 173.75 258.53 170.77 258.6 170 258.22 166.18 257.99 162.51 257.76 161.74 257.84 159.52 257.76 158.6 257.61 158.14 257.53 157.3 257.38 155.39 257.46 154.47 257.15 152.94 257.07 150.34 256.92 149.27 256.69 145.9"/><polyline class="cls-4" points="241.77 189.06 243.15 189.06 245.83 189.21 246.29 189.29 247.05 189.36 248.43 189.29 249.35 189.44 251.49 189.67 252.87 189.59 253.78 189.44 254.63 189.36 255.93 189.44 258.22 189.36 262.58 189.52 262.81 189.75"/><polyline class="cls-4" points="123.1 189.67 123.33 189.52 124.78 189.44 125.93 189.29 127.99 189.36 131.21 189.21 133.58 189.52 134.27 189.52 137.4 189.29 138.25 189.36 139.85 189.29 142.38 189.06 143.91 189.13"/><polyline class="cls-4" points="140.01 145.98 140.08 147.81 139.93 149.04 139.93 150.42 139.47 154.01 139.39 155.24 139.24 156.61 139.16 160.59 138.93 163.58 138.86 165.57 138.63 167.25 138.63 168.7 138.4 170.39 138.4 172.61 138.17 174.21 138.09 176.2 137.86 177.81 137.94 178.57 137.79 181.4 137.56 182.94 137.56 184.62 137.4 186.76 137.4 189.44"/><polyline class="cls-4" points="128.99 145.83 128.84 146.74 128.91 147.74 128.68 151.18 128.3 154.24 128.38 155.47 128.15 157.76 127.99 160.52 128.07 161.05 127.69 165.03 127.69 166.41 127.46 168.01 127.3 171.54 127.08 173.98 126.92 176.89 126.69 178.42 126.69 179.8 126.62 180.41 126.54 182.55 126.31 185.61 126.08 187.83 126.08 189.29"/><polyline class="cls-4" points="147.5 117.13 147.66 122.56 147.58 124.02"/><polyline class="cls-4" points="148.12 146.21 146.66 146.13 145.9 146.06 143.91 146.13 142.84 145.98 141.15 145.9 139.93 145.9 139.01 145.83 138.09 145.9 134.8 145.75 132.97 145.75 130.36 145.9 126.16 145.75"/><polyline class="cls-4" points="147.73 138.17 147.58 140.24 147.2 141.23 147.5 142.15 148.04 145.9 148.19 146.21"/><polyline class="cls-4" points="147.2 136.57 147.35 136.57 147.66 137.1 147.73 138.17"/><polyline class="cls-4" points="238.4 136.34 238.25 135.8 238.1 134.2"/><polyline class="cls-4" points="238.71 127.16 238.56 126.62 238.4 125.93 238.25 123.94"/><polyline class="cls-4" points="241.85 200.07 241.62 199.85 241.47 199.23 241.24 197.7"/><polyline class="cls-4" points="242 190.13 241.85 189.59 241.77 188.83 241.54 188.06 241.47 186.99"/><line class="cls-4" x1="144.44" y1="194.49" x2="144.44" y2="194.49"/><polyline class="cls-4" points="144.44 197.55 144.21 199.16 144.06 199.85 143.91 200.15"/><polyline class="cls-4" points="144.21 186.99 144.06 187.91 143.99 188.83 143.6 190.13"/><polyline class="cls-4" points="147.73 134.2 147.66 135.04 147.5 135.8 147.35 136.41"/><polyline class="cls-4" points="147.58 123.94 147.5 125.01 146.97 127.16"/><line class="cls-4" x1="144.37" y1="180.26" x2="144.21" y2="182.02"/><line class="cls-5" x1="212.08" y1="230.83" x2="212.12" y2="229.83"/><polyline class="cls-7" points="212.1 227.95 212.08 227.7 212.16 226.7 212.31 225.32 212.47 224.41 212.39 222.57 212.47 221.73 212.77 218.82 213 217.63"/><polyline class="cls-5" points="213.24 216.72 213.54 215.76 212.54 215.86"/><polyline class="cls-3" points="210.49 216.22 210.09 216.3 206.88 216.53 203.44 216.91 202.52 216.91 198.01 217.29 196.4 217.37 192.04 217.37 190.35 217.29 187.6 217.37 186.07 217.21 182.55 217.06 177.5 216.37 174.18 216.04"/><polyline class="cls-5" points="173.14 215.94 172.14 215.84 172.45 216.68 172.47 216.78"/><polyline class="cls-1" points="172.84 218.55 173.29 221.73 173.21 224.48 173.52 226.78 173.52 227.77 173.37 230.91 173.44 231.91 173.44 232"/><polyline class="cls-5" points="173.37 232.89 173.29 233.89 174.28 234.05"/><polyline class="cls-2" points="176.23 234.33 177.35 234.43 181.25 235.04 183.85 235.12 186.22 235.42 188.75 235.5 189.51 235.58 194.56 235.58 198.69 235.42 206.04 234.74 208.56 234.35 210.02 234.2 210.51 234.11"/><polyline class="cls-5" points="211.48 233.93 212.47 233.74 212.34 232.75"/><line class="cls-5" x1="212.21" y1="231.83" x2="212.08" y2="230.83"/><path class="cls-8" d="M47.59,33.44s-.04-.05-.06-.07c-.04-.05-.08-.1-.13-.14-.03-.03-.05-.06-.08-.08-.04-.04-.07-.08-.11-.12-.03-.03-.05-.06-.08-.09-.04-.04-.07-.08-.11-.11-.03-.03-.06-.06-.08-.09-.03-.04-.07-.07-.1-.11-.03-.03-.06-.06-.09-.09-.03-.03-.07-.07-.1-.1-.03-.03-.06-.06-.09-.08-.03-.03-.07-.06-.1-.1-.03-.03-.06-.05-.09-.08-.03-.03-.07-.06-.1-.09-.03-.03-.06-.05-.09-.08-.03-.03-.06-.06-.1-.09-.03-.03-.06-.05-.09-.07-.03-.03-.06-.06-.1-.08-.03-.03-.06-.05-.09-.07-.03-.03-.06-.05-.1-.08-.03-.02-.06-.05-.09-.07-.03-.03-.06-.05-.09-.08-.03-.02-.06-.05-.09-.07-.03-.03-.06-.05-.09-.07-.03-.02-.06-.04-.09-.07-.03-.02-.06-.05-.09-.07-.03-.02-.06-.04-.09-.06-.03-.02-.06-.04-.09-.07-.03-.02-.06-.04-.09-.06-.03-.02-.06-.04-.09-.06-.03-.02-.06-.04-.09-.06-.03-.02-.06-.04-.09-.06-.03-.02-.06-.04-.09-.06s-.06-.04-.09-.06c-.03-.02-.06-.03-.09-.05-.03-.02-.06-.04-.09-.06-.03-.02-.06-.03-.09-.05-.03-.02-.06-.04-.09-.05-.03-.02-.06-.03-.08-.05-.03-.02-.06-.03-.09-.05-.03-.01-.06-.03-.09-.05-.03-.02-.06-.03-.09-.05-.03-.01-.06-.03-.09-.04-.03-.02-.06-.03-.09-.05l-.08-.04s-.06-.03-.09-.04c-.03-.01-.06-.03-.08-.04-.03-.01-.06-.03-.09-.04-.03-.01-.06-.03-.08-.04-.03-.01-.06-.03-.09-.04-.03-.01-.06-.02-.08-.03-.03-.01-.06-.03-.09-.04-.03-.01-.06-.02-.08-.03-.03-.01-.06-.02-.09-.03-.03-.01-.06-.02-.08-.03-.03-.01-.06-.02-.09-.03-.03,0-.06-.02-.08-.03-.03-.01-.06-.02-.09-.03-.03,0-.06-.02-.08-.03-.03-.01-.06-.02-.09-.03-.03,0-.05-.02-.08-.03l-.09-.03-.08-.03s-.06-.02-.09-.03c-.03,0-.05-.02-.08-.02-.03,0-.06-.02-.08-.03-.03,0-.06-.01-.08-.02s-.06-.02-.08-.02-.05-.01-.08-.02c-.03,0-.06-.02-.08-.02-.03,0-.05-.01-.08-.02-.03,0-.06-.01-.08-.02-.03,0-.05-.01-.08-.02-.03,0-.06-.01-.09-.02-.03,0-.05-.01-.08-.02-.03,0-.06-.01-.08-.02-.03,0-.05-.01-.08-.02-.03,0-.06-.01-.08-.02-.03,0-.05-.01-.08-.02-.03,0-.06-.01-.08-.02l-.08-.02s-.06-.01-.08-.02c-.03,0-.05-.01-.08-.02-.03,0-.06-.01-.08-.02l-.08-.02s-.06-.01-.08-.02c-.03,0-.05,0-.08-.01-.03,0-.06-.01-.08-.02-.03,0-.05,0-.08-.01-.03,0-.05,0-.08-.01h-.08s-.05-.02-.08-.03c-.03,0-.05,0-.08-.01-.03,0-.05,0-.08-.01-.03,0-.05,0-.08-.01-.02,0-.05,0-.07-.01-.03,0-.06-.01-.09-.02-.03,0-.05,0-.08-.01-.05,0-.1-.02-.15-.03-.02,0-.04,0-.06-.01-.03,0-.07-.01-.1-.02-.02,0-.04,0-.06,0-.03,0-.06-.01-.09-.02-.02,0-.05,0-.07-.01-.03,0-.06-.01-.09-.02-.02,0-.04,0-.06-.01-.03,0-.06-.01-.09-.02-.02,0-.04,0-.06-.01-.03,0-.06-.01-.09-.02-.02,0-.04,0-.06-.01-.03,0-.06-.01-.09-.02-.02,0-.04,0-.06-.01-.03,0-.06-.01-.09-.02-.02,0-.04,0-.06-.01-.03,0-.06-.01-.09-.02h-.06s-.06-.03-.1-.03c-.02,0-.04,0-.05-.01-.04,0-.09-.02-.13-.03,0,0-.01,0-.02,0-.15-.03-.3-.07-.45-.11l-.02.13c-.59-.17-1.16-.38-1.71-.69-.33-.8-.88-1.71-1.66-2.65-.05-.06-.11-.12-.16-.18-.32-.65-.74-1.3-1.26-1.92-1.19-1.42-2.27-2.13-3.12-2.48-.68-.31-1.23-.38-1.57-.39h0c-.25,0-.39.03-.39.03l2.95,4.02s0,0,0,0t0,0s0,0-.01.01h0s-.03.03-.06.05c0,0,0,0,0,0-.01.01-.03.02-.04.04h0s-.06.07-.1.11c0,0,0,0,0,0-.02.02-.04.04-.06.06,0,0,0,0,0,0-.04.05-.09.1-.14.15h0s-.07.08-.1.12c-.39.23-.63.43-.63.43l-3.46-3.59-.1.08s-.06.13-.1.38h0c-.12.74-.08,2.5,1.99,4.96.55.65,1.17,1.19,1.81,1.63,0,0,0,0,0,0,0,.01.02.02.03.03.04.05.07.1.12.15.79.94,1.59,1.63,2.32,2.09.02.05.04.1.05.16.03.08.05.15.07.23,0,.02.01.04.02.06.03.09.05.19.07.28,0,0,0,0,0,0,.09.38.15.77.18,1.16h-.24s0,.09.01.13c0,.03,0,.05,0,.08,0,.03,0,.05,0,.08,0,.02,0,.05,0,.07,0,.03,0,.05,0,.08,0,.03,0,.05,0,.07,0,.03,0,.05,0,.08,0,.03,0,.05,0,.08,0,.03,0,.05,0,.08,0,.03,0,.05,0,.08,0,.03,0,.05,0,.08,0,.03,0,.05,0,.08,0,.03,0,.05,0,.08s0,.05,0,.08c0,.03,0,.05,0,.08,0,.03,0,.05,0,.08v.08s0,.05,0,.08c0,.03,0,.05,0,.08v.08s0,.05,0,.08v.16s0,.05,0,.08c0,.03,0,.05,0,.08v.16s0,.1,0,.14c0,.03,0,.05,0,.07,0,.03,0,.06,0,.09v.32s0,.05,0,.08v.08s0,.05,0,.08c0,.03,0,.06,0,.09,0,.03,0,.05,0,.08,0,.03,0,.06,0,.08v.08s0,.06,0,.08c0,.03,0,.05,0,.08,0,.03,0,.06,0,.08v.08s0,.06,0,.08v.08s0,.06,0,.09c0,.03,0,.05,0,.08,0,.03,0,.06,0,.09,0,.03,0,.05,0,.08,0,.03,0,.06,0,.09,0,.03,0,.06,0,.08,0,.03,0,.06,0,.09,0,.03,0,.06,0,.08,0,.03,0,.06,0,.09,0,.03,0,.06,0,.08,0,.03,0,.06,0,.09,0,.03,0,.06,0,.08,0,.03,0,.06.01.09,0,.03,0,.06.01.09s0,.06.01.09c0,.03,0,.06.01.08,0,.03,0,.06.01.09,0,.03,0,.06.01.09,0,.03,0,.06.01.09,0,.03,0,.06.01.09,0,.03.01.06.02.09,0,.03.01.06.02.09,0,.03.01.06.02.09,0,.03.01.06.02.09,0,.03.01.06.02.09,0,.03.01.06.02.09,0,.03.01.06.02.09,0,.03.01.06.02.09,0,.03.01.06.02.09,0,.03.01.06.02.09,0,.03.02.06.03.09,0,.03.02.06.03.09,0,.03.02.06.03.1,0,.03.02.06.03.09,0,.03.02.06.03.1,0,.03.02.06.03.09.01.03.02.06.03.1.01.03.02.06.03.09.01.03.02.07.03.1.01.03.02.06.03.09.01.03.02.07.04.1.01.03.02.06.03.09.01.03.03.07.04.1.01.03.02.06.04.09.01.03.03.07.04.1.01.03.03.06.04.09.01.03.03.07.04.1.01.03.03.06.04.1.02.03.03.07.05.1.01.03.03.06.04.1.02.03.03.07.05.1.02.03.03.06.05.1.02.03.03.07.05.1.02.03.03.07.05.1.02.04.04.07.06.11.02.03.03.06.05.1.02.04.04.07.06.11.02.03.04.07.06.1.02.04.04.07.06.11.02.03.04.06.06.1.02.04.05.07.07.11.02.03.04.07.06.1.02.04.04.07.07.11.02.03.04.07.06.1.02.04.05.08.07.11.02.03.04.07.07.1.03.04.05.08.08.11.02.03.04.07.07.1.03.04.05.08.08.12.02.03.05.06.07.1.03.04.06.08.09.12.02.03.04.06.07.1.03.04.06.08.1.13.02.03.05.06.07.09.03.05.07.09.11.14.02.03.04.06.07.08.04.05.08.1.12.15.02.03.04.05.06.08.06.08.12.15.19.23,3.63,4.32,6.65,4.81,7.67,3.96,1.02-.85.41-2.08.41-2.08,0,0-3.44-.99-6.01-4.05-.04-.05-.08-.1-.13-.15-.01-.02-.03-.03-.04-.05-.03-.03-.05-.07-.08-.1-.02-.02-.03-.04-.05-.06-.02-.03-.05-.06-.07-.09-.02-.02-.03-.04-.05-.06-.02-.03-.04-.06-.07-.09-.02-.02-.03-.04-.05-.07-.02-.03-.04-.06-.06-.09-.02-.02-.03-.05-.05-.07-.02-.03-.04-.06-.06-.08-.02-.02-.03-.05-.05-.07-.02-.03-.04-.06-.05-.08-.01-.02-.03-.05-.05-.07-.02-.03-.03-.06-.05-.08-.01-.03-.03-.05-.04-.08-.02-.03-.03-.05-.05-.08-.01-.03-.03-.05-.04-.07-.02-.03-.03-.06-.05-.08-.01-.03-.03-.05-.04-.08-.01-.03-.03-.06-.04-.08-.01-.03-.03-.05-.04-.08-.01-.03-.03-.06-.04-.08-.01-.03-.03-.05-.04-.08-.01-.03-.03-.05-.04-.08-.01-.03-.02-.05-.04-.08-.01-.03-.03-.05-.04-.08-.01-.03-.02-.05-.04-.08-.01-.03-.03-.05-.04-.08-.01-.03-.02-.05-.03-.08-.01-.03-.02-.06-.04-.08-.01-.03-.02-.05-.03-.08-.01-.03-.02-.05-.03-.08-.01-.03-.02-.05-.03-.08-.01-.03-.02-.06-.03-.08-.01-.03-.02-.05-.03-.08-.01-.03-.02-.06-.03-.08-.01-.03-.02-.05-.03-.08,0-.03-.02-.05-.03-.08,0-.03-.02-.05-.03-.08,0-.03-.02-.05-.03-.08,0-.03-.02-.05-.03-.08,0-.03-.02-.05-.03-.08,0-.03-.02-.05-.03-.08,0-.03-.02-.05-.03-.08,0-.03-.02-.05-.02-.08,0-.03-.02-.05-.02-.08,0-.03-.01-.05-.02-.08,0-.03-.02-.05-.02-.08,0-.03-.02-.05-.02-.08,0-.03-.01-.05-.02-.08,0-.03-.01-.05-.02-.08,0-.03-.01-.05-.02-.08,0-.03-.01-.05-.02-.08,0-.03-.01-.05-.02-.08,0-.03-.01-.05-.02-.08,0-.03-.01-.05-.02-.08,0-.03-.01-.05-.02-.08,0-.03-.01-.05-.02-.08,0-.03-.01-.05-.02-.08,0-.03-.01-.05-.02-.08,0-.03-.01-.05-.01-.08,0-.03-.01-.05-.02-.08,0-.03,0-.05-.01-.08,0-.03,0-.05-.01-.08,0-.03,0-.05-.01-.08,0-.03,0-.05-.01-.08,0-.03,0-.05-.01-.08,0-.03,0-.05-.01-.08,0-.03,0-.05-.01-.08,0-.03,0-.05-.01-.08,0-.03,0-.05-.01-.07,0-.03,0-.05-.01-.08,0-.02,0-.05,0-.07,0-.03,0-.05-.01-.08,0-.02,0-.05,0-.07,0-.03,0-.05,0-.08,0-.02,0-.05,0-.07,0-.03,0-.05,0-.08,0-.02,0-.05,0-.07,0-.03,0-.05,0-.08,0-.02,0-.05,0-.07,0-.03,0-.05,0-.08,0-.02,0-.05,0-.07,0-.03,0-.05,0-.08,0-.02,0-.05,0-.07,0-.03,0-.05,0-.07,0-.02,0-.05,0-.07,0-.02,0-.05,0-.07,0-.02,0-.05,0-.07v-.07s0-.04-.01-.07c0-.02,0-.05,0-.07,0-.02,0-.04,0-.06,0-.02,0-.05,0-.07,0-.02,0-.04,0-.07,0-.02,0-.05,0-.07,0-.02,0-.04,0-.07,0-.02,0-.05,0-.07,0-.02,0-.04,0-.06,0-.02,0-.05,0-.07,0-.02,0-.04,0-.06,0-.02,0-.05,0-.07,0-.02,0-.04,0-.06,0-.03,0-.05,0-.07,0-.02,0-.04,0-.05,0-.03,0-.05,0-.07,0-.02,0-.04,0-.06,0-.03,0-.05,0-.08,0-.03,0-.05,0-.08,0-.03,0-.05,0-.08,0-.02,0-.04,0-.06,0-.02,0-.04,0-.06,0-.02,0-.04,0-.06v-.06s0-.04,0-.06c0-.02,0-.04,0-.06,0-.02,0-.04,0-.06,0-.02,0-.04,0-.05,0-.02,0-.04,0-.06,0-.02,0-.03,0-.05,0-.02,0-.04,0-.06,0-.02,0-.03,0-.05,0-.02,0-.04,0-.06,0-.02,0-.03,0-.05h0s0-.01,0-.01c0-.03,0-.06,0-.08h-.07c-.04-.57-.1-1.03-.2-1.34.02-.01.09-.11.13-.17.11-.16.21-.46.28-.86.17,0,.31-.01.44-.03h0s.04,0,.06-.01c.02,0,.04,0,.05-.01h0s.03,0,.05-.01c0,0,0,0,0,0,.01,0,.03,0,.04-.01,0,0,0,0,0,0,.01,0,.02,0,.03-.01,0,0,0,0,.01,0,0,0,.02,0,.03-.01,0,0,.01,0,.02,0,0,0,.01,0,.01,0,0,0,.02-.01.03-.02.02-.02.04-.03.05-.05.03.02.06.03.09.05,0,0,.02,0,.03.01.03.01.06.03.09.04,0,0,.01,0,.02,0,.04.01.07.03.11.04,0,0,.02,0,.03.01.03.01.06.02.1.04.01,0,.02,0,.03.01.04.01.09.03.13.04,0,0,.02,0,.02,0,.04.01.08.02.12.04.01,0,.03,0,.04.01.04.01.08.02.13.04,0,0,.02,0,.03,0,.05.01.1.03.15.04.02,0,.04.01.06.02.04,0,.08.02.11.03.01,0,.02,0,.04,0l-.03.2s.08.02.13.03h0s.03,0,.04.01c.02,0,.03,0,.05.01.02,0,.04,0,.06.01.02,0,.03,0,.05.01.02,0,.04.01.06.02.01,0,.03,0,.04.01.02,0,.05.01.07.02.01,0,.03,0,.04.01.02,0,.05.01.07.02.01,0,.03,0,.04.01.02,0,.05,0,.07.01.02,0,.03,0,.05.01.03,0,.05.01.08.02.01,0,.02,0,.03,0,.12.03.24.06.37.09.02,0,.04,0,.06.01.02,0,.05.01.07.02,0,0,.01,0,.02,0,.1.02.2.05.31.07.02,0,.04,0,.06.01.02,0,.04,0,.06.01.03,0,.05.01.08.02.02,0,.04.01.06.02.02,0,.04.01.07.02.02,0,.04.01.07.02.02,0,.05.01.07.02.02,0,.04.01.07.02.02,0,.05.01.07.02.02,0,.04.01.07.02s.05.01.07.02c.02,0,.04.01.07.02.02,0,.05.01.07.02.02,0,.04.01.07.02.02,0,.05.01.07.02.02,0,.04.01.07.02.02,0,.05.01.07.02l.07.02s.05.01.07.02c.02,0,.05.01.07.02.03,0,.05.01.07.02.02,0,.05.01.07.02.03,0,.05.02.07.02s.05.01.07.02c.03,0,.05.02.07.02.02,0,.05.02.07.02.03,0,.05.02.08.02.02,0,.05.02.07.02.02,0,.05.02.07.03.03,0,.05.02.07.02.03,0,.05.02.08.03.02,0,.05.02.07.03.03,0,.05.02.08.03.02,0,.05.02.07.03.03,0,.05.02.08.03.02,0,.05.02.07.03.03,0,.05.02.08.03.02,0,.05.02.07.03.03,0,.05.02.08.03.02.01.05.02.07.03.03.01.05.02.08.03.02,0,.05.02.07.03.03,0,.05.02.08.03.02.01.05.02.07.03.03.01.05.02.08.03.02.01.05.02.07.03.03.01.05.02.08.03.02.01.05.02.07.03.03.01.05.02.08.04.03.01.05.02.07.03.03.01.05.02.08.04.02.01.05.02.07.04.03.01.05.03.08.04.02.01.05.03.07.04.03.01.05.03.08.04.02.01.05.03.07.04.03.01.05.03.08.04.02.01.05.03.07.04.03.01.05.03.08.04.02.01.05.03.07.04.03.01.05.03.08.04.02.01.05.03.07.04.03.01.05.03.07.04.02.01.05.03.07.04.02.02.05.03.08.05l.07.04s.05.03.07.05c.02.02.05.03.07.05.03.02.05.03.07.05.02.01.05.03.07.05.03.02.05.03.07.05s.05.03.07.05c.03.02.05.03.07.05.02.02.05.03.07.05.03.02.05.04.07.05.02.02.04.03.07.05.03.02.05.04.07.06.02.02.05.03.07.05.02.02.05.04.07.06.02.02.04.04.07.05.03.02.05.04.07.06.02.02.04.04.07.05.02.02.05.04.07.06.02.02.04.04.06.06.03.02.05.04.07.06.02.02.04.04.06.06.02.02.05.04.07.07.02.02.04.04.06.06.03.02.05.05.07.07.02.02.04.04.06.06.02.02.05.05.07.07.02.02.04.04.06.06.03.03.05.05.08.08.02.02.04.04.06.06.03.03.05.06.08.08.02.02.03.04.05.06.03.03.06.06.09.1.01.02.03.03.04.05.04.05.08.1.13.15,2.57,3.06,2.96,6.61,2.96,6.61,0,0,1.11.8,2.12-.05,1.02-.85,1.04-3.91-2.59-8.23-.06-.08-.13-.15-.19-.22M31.84,27.85c-.41.35-1.03.3-1.38-.12s-.3-1.03.12-1.38c.41-.35,1.03-.3,1.38.12.35.41.3,1.03-.12,1.38"/><path class="cls-6" d="M59.76,36.48c-1.05,12.15-11.75,21.16-23.9,20.12-12.15-1.05-21.16-11.75-20.12-23.9,1.05-12.16,11.75-21.16,23.9-20.12,12.16,1.05,21.16,11.75,20.12,23.9Z"/><path class="cls-6" d="M109.68,34.59c0,12.2-9.89,22.09-22.09,22.09s-22.09-9.89-22.09-22.09,9.89-22.09,22.09-22.09,22.09,9.89,22.09,22.09Z"/><path d="M79.96,23.62l-3.75,3.75c-.12.12-.12.33,0,.45l.32.32-1.47,1.47-.28-.28c-.12-.12-.33-.12-.45,0l-1.9,1.91c-.12.12-.12.33,0,.45l3.23,3.22c.12.12.33.12.45,0l1.91-1.91c.12-.12.12-.33,0-.45l-.58-.58,1.47-1.47.58.58c.12.12.33.12.45,0l.81-.81,5.78,5.97c-.24.24-.24.62,0,.86l11.13,11.12c.09.09.23.09.32,0,1.12-.59,2.03-1.5,2.62-2.62.09-.09.09-.23,0-.32l-11.13-11.12c-.24-.24-.62-.24-.86,0l-5.97-5.78.81-.81c.12-.12.12-.33,0-.45-.69-.69-.78-1.76-.23-2.56,1.4-1.98,3.54-2.94,4.43-3.26.12-.04.11-.21-.02-.24-4.3-1.04-7.67,2.56-7.67,2.56"/></svg>