<?xml version="1.0" encoding="utf-8"?>
<!-- Generator: Adobe Illustrator 18.0.0, SVG Export Plug-In . SVG Version: 6.00 Build 0)  -->
<!DOCTYPE svg PUBLIC "-//W3C//DTD SVG 1.1//EN" "http://www.w3.org/Graphics/SVG/1.1/DTD/svg11.dtd">
<svg version="1.1" id="Layer_1" xmlns="http://www.w3.org/2000/svg" xmlns:xlink="http://www.w3.org/1999/xlink" x="0px" y="0px"
	 viewBox="0 0 612 792" enable-background="new 0 0 612 792" xml:space="preserve">
<polyline fill="none" stroke="#000000" stroke-miterlimit="10" points="432.5,185.4 433.1,185.2 434.3,185.3 434.9,185.4 
	435.5,185.3 436,185.3 437.2,185.4 437.8,185.3 438.4,185.4 439,185.2 439.6,185.3 440.8,185.2 441.4,185.3 441.9,185.3 
	442.5,185.2 443.7,185.3 445.5,185.2 446.1,185.3 446.1,185.2 446.1,183.5 446,182.9 446.1,182.3 446,181.1 446.1,180.5 446,179.3 
	446.1,178.1 446.1,177.5 446.1,177 446.1,175.8 446.2,175.2 446.1,174.6 446.2,174 446.1,173.4 446.2,171.1 446.1,170.5 
	446.2,169.9 446.1,169.3 446.2,168.9 445.6,169 443.8,169 442.6,168.9 442,169 440.8,169 440.2,168.9 439.7,169 439.1,168.9 
	438.5,169 436.7,168.9 436.1,169 435.6,168.9 435,169 433.8,168.9 433.2,169 431.5,169 430.9,168.9 430.3,169 429.7,168.9 
	424.4,169 423.8,168.9 423.2,169 422.7,168.9 421.5,169 420.9,169 420.3,168.9 419.7,168.9 419.1,168.9 418.6,169 417.3,168.9 
	416.8,168.9 416.2,168.9 415,169 414.4,168.9 413.2,168.9 412.6,168.9 411.4,169 410.2,169 409.6,168.9 409.1,169 408.5,168.9 
	407.9,169 407.3,168.9 405.5,169 403.7,168.9 402.3,168.9 401.7,169 400.5,168.9 399.9,169 398.1,168.9 396.9,169 395.7,168.9 
	395.1,169 394.6,168.9 394,169 392.8,168.9 392.2,169 391.6,168.9 389.8,169 389.3,168.9 387.5,169 386.9,168.9 385.1,168.9 
	384.5,168.9 383.3,168.9 382.4,168.9 381.9,168.9 380.1,168.9 377.7,168.9 377.1,169 375.9,168.9 375.3,169 374.1,168.9 
	370.6,168.9 369.4,169 367,168.9 366.4,169 365.2,168.9 364,169 361.6,168.9 360.4,169 359.9,169 359.3,169 358.7,168.9 357.5,169 
	356.9,169 356.3,169 355.1,169 354.6,169 353.4,168.9 352.1,169 350.9,169 350.4,169 349.8,169 349.2,169 346.8,169 345.1,169.1 
	344.5,169 342.7,169.1 341.5,169 340.9,169.1 339.7,169 339.1,169.1 337.9,169 337.3,169.1 336.8,169 336.2,169.1 335.6,169 
	335,169.1 333.8,169 333.2,169 332.7,169 329.7,169.1 328.5,169 327.9,169 326.7,169.1 325.5,169 324.9,169.1 324.4,169 
	322.6,169.1 322,169 321.4,169 320.2,169.1 318.4,169 317.9,169.1 316.6,169 313.7,169.1 313.1,169.1 311.9,169 308.9,169.1 
	305.3,169.1 303.5,169.1 302.3,169 301.1,169.1 298.4,169.1 297.9,169.1 296.7,169.1 296.1,169.2 295.5,169.1 294.3,169.2 
	293.1,169.1 290.1,169.2 289.5,169.1 287.7,169.2 287.1,169.2 286.6,169.1 284.8,169.2 284.2,169.2 283,169.1 282.4,169.2 
	281.8,169.1 281.3,169.2 280.7,169.1 280.1,169.2 278.9,169.1 278.6,169.2 276.9,169.2 276.3,169.2 274.5,169.2 273.9,169.1 
	273.3,169.2 271.6,169.1 269.8,169.2 269.2,169.1 268.6,169.1 266.8,169.2 266.3,169.1 265,169.2 264.5,169.1 263.9,169.1 
	263.3,169.2 262.7,169.1 261.5,169.2 261,169.1 260.4,169.2 259.8,169.2 258,169.2 255,169.2 253.2,169.2 252.7,169.2 252.1,169.1 
	250.9,169.2 248.8,169.1 248.2,169.2 247,169.1 246.4,169.1 245.2,169.1 244,169.1 243.4,169.1 242.8,169 242.3,169.1 241.7,169.1 
	241.2,169 241.3,169.7 241.2,170.3 241.3,170.9 241.2,171.4 241.3,172 241.2,172.6 241.3,173.2 241.2,173.8 241.3,174.3 
	241.1,174.9 241.2,176.1 241.1,176.7 241.3,177.3 241.1,178.5 241.3,182.1 241.2,183.3 241.3,183.8 241.2,184.4 241.2,185.4 
	241.8,185.5 242.4,185.4 243.6,185.5 247.1,185.5 248.4,185.4 248.9,185.5 249.5,185.4 249.9,185.5 251.1,185.4 252.3,185.5 
	252.9,185.4 253.5,185.5 254.1,185.4 254.7,185.4 255.2,185.5 256.4,185.4 257.6,185.5 259.4,185.4 261.2,185.5 261.8,185.4 
	263,185.5 264.2,185.5 264.8,185.4 266,185.5 267.2,185.4 268.4,185.4 269,185.5 270.8,185.4 272.6,185.4 273.8,185.4 274.3,185.4 
	274.9,185.5 276.1,185.4 276.7,185.5 278.8,185.4 281.8,185.5 283.6,185.4 284.1,185.5 284.7,185.4 285.9,185.5 286.5,185.4 
	287.1,185.4 288.3,185.4 288.9,185.4 290.1,185.4 291.9,185.4 293.1,185.5 294.3,185.4 295.5,185.5 296.1,185.4 297.3,185.4 
	299.1,185.5 299.3,185.4 300.5,185.4 302.9,185.5 303.5,185.4 304,185.5 304.6,185.4 305.2,185.5 305.8,185.5 307.6,185.5 
	308.1,185.4 308.7,185.5 309.3,185.6 311.1,185.5 311.7,185.6 312.9,185.5 313.4,185.6 314,185.5 314.6,185.5 315.8,185.5 
	317,185.5 317.6,185.5 321.2,185.6 322.4,185.5 324.2,185.5 324.7,185.5 325.3,185.5 325.9,185.6 327.1,185.5 328.3,185.6 
	328.9,185.5 329.5,185.6 330,185.5 332.7,185.6 335.1,185.5 335.7,185.6 336.2,185.5 336.8,185.6 337.4,185.5 338.6,185.6 
	339.2,185.5 341,185.6 343.3,185.6 345.1,185.6 345.7,185.6 346.3,185.6 347.5,185.6 348.1,185.5 348.6,185.5 349.2,185.6 
	349.8,185.5 350.4,185.6 350.9,185.5 352.1,185.6 352.7,185.5 353.3,185.6 354.5,185.5 355.1,185.5 356.3,185.5 356.9,185.5 
	358.1,185.4 359.3,185.4 359.9,185.5 361.1,185.5 361.6,185.4 362.2,185.5 362.8,185.5 364,185.5 365.8,185.5 367.6,185.4 
	368.2,185.5 368.7,185.4 370.5,185.5 371.1,185.6 371.7,185.5 372.2,185.6 372.8,185.5 374,185.6 376.4,185.6 377,185.5 
	378.2,185.5 378.8,185.6 379.3,185.5 380.5,185.5 381.1,185.5 381.7,185.5 382.9,185.5 383.5,185.5 384.1,185.6 384.6,185.4 
	386.4,185.6 387,185.5 388.2,185.6 389.4,185.5 390,185.5 391.2,185.5 393,185.5 394.2,185.5 394.8,185.5 396,185.5 396.6,185.5 
	397.8,185.5 398.4,185.5 398.9,185.5 400.7,185.4 401.3,185.5 401.9,185.4 404,185.5 404.5,185.5 405.1,185.6 405.7,185.5 
	406.3,185.5 406.9,185.6 408.1,185.4 409.3,185.5 411,185.5 412.3,185.5 414.6,185.6 415.8,185.6 416.4,185.5 417.6,185.6 
	418.8,185.5 419.4,185.6 420,185.5 420.6,185.6 421.1,185.6 424.1,185.5 425.3,185.6 425.9,185.5 426.5,185.6 427.7,185.5 
	428.3,185.6 431.3,185.6 431.8,185.6 432.5,185.4 "/>
<g>
	<g>
		<g enable-background="new    ">
			<path d="M332.7,224.5v-13.6h4.7c1.1,0,1.9,0.1,2.4,0.2c0.8,0.2,1.4,0.5,2,1c0.7,0.6,1.3,1.4,1.6,2.3s0.5,2,0.5,3.2
				c0,1-0.1,2-0.4,2.8c-0.2,0.8-0.6,1.5-0.9,2s-0.8,0.9-1.2,1.2c-0.4,0.3-1,0.5-1.6,0.7s-1.4,0.2-2.2,0.2H332.7z M334.5,222.9h2.9
				c0.9,0,1.6-0.1,2.1-0.3c0.5-0.2,0.9-0.4,1.2-0.7c0.4-0.4,0.8-1,1-1.7c0.2-0.7,0.4-1.6,0.4-2.6c0-1.4-0.2-2.5-0.7-3.3
				c-0.5-0.8-1-1.3-1.7-1.5c-0.5-0.2-1.3-0.3-2.3-0.3h-2.9V222.9z"/>
		</g>
	</g>
</g>
<line fill="none" stroke="#000000" stroke-miterlimit="10" x1="240.3" y1="168.7" x2="216.8" y2="168.7"/>
<line fill="none" x1="216.8" y1="168.7" x2="216.8" y2="185.4"/>
<line fill="none" stroke="#000000" stroke-miterlimit="10" x1="216.8" y1="185.4" x2="240.3" y2="185.4"/>
<line fill="none" stroke="#000000" stroke-miterlimit="10" x1="240.3" y1="185.4" x2="240.3" y2="200.2"/>
<line fill="none" x1="240.3" y1="200.2" x2="446.3" y2="200.2"/>
<line fill="none" stroke="#000000" stroke-miterlimit="10" x1="446.3" y1="200.2" x2="446.3" y2="185.4"/>
<g enable-background="new    ">
	<path d="M202.3,180.9l1.8,0.5c-0.4,1.5-1.1,2.6-2,3.4c-1,0.8-2.2,1.2-3.6,1.2c-1.5,0-2.7-0.3-3.6-0.9c-0.9-0.6-1.6-1.5-2.1-2.6
		s-0.7-2.4-0.7-3.7c0-1.4,0.3-2.7,0.8-3.7s1.3-1.9,2.3-2.4s2.1-0.8,3.3-0.8c1.4,0,2.5,0.3,3.4,1c0.9,0.7,1.6,1.7,1.9,2.9l-1.8,0.4
		c-0.3-1-0.8-1.7-1.4-2.2s-1.4-0.7-2.3-0.7c-1,0-1.9,0.3-2.6,0.8c-0.7,0.5-1.2,1.2-1.5,2c-0.3,0.8-0.4,1.7-0.4,2.6
		c0,1.2,0.2,2.2,0.5,3s0.9,1.5,1.6,1.9s1.5,0.6,2.3,0.6c1,0,1.9-0.3,2.6-0.9C201.6,182.9,202.1,182,202.3,180.9z"/>
</g>
<line fill="none" stroke="#000000" stroke-miterlimit="10" x1="301.9" y1="351.2" x2="306.1" y2="349"/>
<polyline fill="none" stroke="#000000" stroke-miterlimit="10" points="304.6,349.9 302.9,350.7 308,348.2 "/>
<line fill="none" stroke="#000000" stroke-miterlimit="10" x1="306.1" y1="349.2" x2="302.5" y2="351"/>
<line fill="none" stroke="#000000" stroke-miterlimit="10" x1="301.9" y1="351.2" x2="308.7" y2="347.8"/>
<line fill="none" stroke="#000000" stroke-miterlimit="10" x1="314.6" y1="345.1" x2="312.7" y2="346"/>
<line fill="none" stroke="#000000" stroke-miterlimit="10" x1="305.9" y1="349.2" x2="302.4" y2="351.1"/>
<line fill="none" stroke="#000000" stroke-miterlimit="10" x1="302.6" y1="350.9" x2="300.7" y2="351.8"/>
<polyline fill="none" stroke="#000000" stroke-miterlimit="10" points="329.5,411.2 329.2,413.2 328.3,417 326.7,420.6 325.5,422.4 
	324.2,424.2 322.7,426 321.1,427.6 319.3,429.3 317.2,431.1 315,432.7 312.6,434.2 309.1,436.3 305.2,438.2 301.8,439.8 
	295.6,442.1 287.7,444.4 285.6,444.9 282.2,445.5 275.7,446.9 265.7,448.1 263.2,448.2 259.2,448.6 251.5,448.7 244.9,448.6 
	240.9,448.4 235.8,448 233.3,447.6 230.5,447.5 229.2,447.3 226.8,446.9 220.3,445.4 "/>
<line fill="none" stroke="#000000" stroke-miterlimit="10" x1="288.9" y1="357.5" x2="292.7" y2="355.6"/>
<line fill="none" stroke="#000000" stroke-miterlimit="10" x1="290.6" y1="356.6" x2="288.8" y2="357.5"/>
<polyline fill="none" stroke="#000000" stroke-miterlimit="10" points="292.7,355.6 289.4,357.2 292.6,355.7 "/>
<polyline fill="none" stroke="#000000" stroke-miterlimit="10" points="375.9,315.7 376.6,315.3 376.6,312.6 376.1,312.3 
	373.6,313.4 370.7,314.9 362.9,318.5 357.8,321.1 352,323.7 338.7,330.2 334.3,332.2 331.8,333.5 322.7,337.8 319.7,339.3 
	310.9,343.5 308.8,344.4 300.7,348.4 295.5,350.8 274.5,360.9 274.4,363.9 275.1,364.1 275.3,364 "/>
<polyline fill="none" stroke="#000000" stroke-miterlimit="10" points="220.5,360.7 218.9,359.7 220.5,360.7 "/>
<polyline fill="none" stroke="#000000" stroke-miterlimit="10" points="218.6,359.7 221.2,361 224.4,362.3 "/>
<line fill="none" stroke="#000000" stroke-miterlimit="10" x1="224.4" y1="362.3" x2="221.7" y2="361.1"/>
<polyline fill="none" stroke="#000000" stroke-miterlimit="10" points="224.9,362.5 225.9,363.2 227.4,363.9 "/>
<polyline fill="none" stroke="#000000" stroke-miterlimit="10" points="224.4,362.3 226.1,363.3 227.8,364.1 "/>
<polyline fill="none" stroke="#000000" stroke-miterlimit="10" points="225.3,362.8 224.4,362.3 222.2,361.3 "/>
<polyline fill="none" stroke="#000000" stroke-miterlimit="10" points="227.9,364.1 226.3,363.4 224.4,362.3 222.4,361.4 "/>
<line fill="none" stroke="#000000" stroke-miterlimit="10" x1="217.6" y1="359.1" x2="220.5" y2="360.7"/>
<polyline fill="none" stroke="#000000" stroke-miterlimit="10" points="219.5,360.1 215.5,358 213.6,357.1 "/>
<polyline fill="none" stroke="#000000" stroke-miterlimit="10" points="214.2,357.4 217.4,358.9 219.1,359.9 "/>
<line fill="none" stroke="#000000" stroke-miterlimit="10" x1="219.4" y1="360.1" x2="217.6" y2="359.1"/>
<polyline fill="none" stroke="#000000" stroke-miterlimit="10" points="216,358.2 214.9,357.6 214.2,357.3 "/>
<polyline fill="none" stroke="#000000" stroke-miterlimit="10" points="213.6,357.1 214.7,357.5 216.4,358.5 215.3,357.8 213.2,357 
	"/>
<line fill="none" stroke="#000000" stroke-miterlimit="10" x1="190.4" y1="345.9" x2="190.7" y2="346"/>
<line fill="none" stroke="#000000" stroke-miterlimit="10" x1="179.9" y1="340.9" x2="178.5" y2="340.3"/>
<line fill="none" stroke="#000000" stroke-miterlimit="10" x1="180" y1="340.9" x2="178.6" y2="340.2"/>
<polyline fill="none" stroke="#000000" stroke-miterlimit="10" points="174.3,338.4 175.4,339.1 177.3,339.9 "/>
<polyline fill="none" stroke="#000000" stroke-miterlimit="10" points="177.4,339.9 175.1,338.9 174.3,338.4 "/>
<polyline fill="none" stroke="#000000" stroke-miterlimit="10" points="177.4,339.9 175.1,338.9 174.5,338.6 "/>
<line fill="none" stroke="#000000" stroke-miterlimit="10" x1="135.3" y1="319.7" x2="138.3" y2="321"/>
<line fill="none" stroke="#000000" stroke-miterlimit="10" x1="136.6" y1="320.3" x2="138.3" y2="321"/>
<line fill="none" stroke="#000000" stroke-miterlimit="10" x1="137.9" y1="320.9" x2="138.3" y2="321"/>
<polyline fill="none" stroke="#000000" stroke-miterlimit="10" points="177.7,422.5 176.5,420.6 175,417.5 174.3,415.7 173.8,413.2 
	173.6,411.3 "/>
<line fill="none" stroke="#000000" stroke-miterlimit="10" x1="137.9" y1="320.9" x2="134.5" y2="319.3"/>
<line fill="none" stroke="#000000" stroke-miterlimit="10" x1="135.1" y1="319.6" x2="138.3" y2="321"/>
<line fill="none" stroke="#000000" stroke-miterlimit="10" x1="138.3" y1="321" x2="134.9" y2="319.5"/>
<line fill="none" stroke="#000000" stroke-miterlimit="10" x1="137.5" y1="320.7" x2="134.9" y2="319.5"/>
<line fill="none" stroke="#000000" stroke-miterlimit="10" x1="134.7" y1="319.4" x2="135.5" y2="319.8"/>
<line fill="none" stroke="#000000" stroke-miterlimit="10" x1="137.3" y1="320.6" x2="134.7" y2="319.4"/>
<line fill="none" stroke="#000000" stroke-miterlimit="10" x1="137.3" y1="320.6" x2="135.7" y2="319.9"/>
<polyline fill="none" stroke="#000000" stroke-miterlimit="10" points="228.2,364.1 228.7,363.9 228.7,360.9 226.3,359.9 
	222.9,358.4 216,354.9 214,354.1 210,351.8 207.8,351 206.6,350.4 196.8,345.4 192.8,343.8 191.6,343.3 189.8,342.3 187.3,341.3 
	182.9,338.8 180.4,337.8 174.6,335 173.5,334.3 172.2,333.8 170,332.7 168.2,332 166.4,331.1 164.8,330.6 162.9,329.6 161.8,328.9 
	160.6,328.3 157.2,326.8 155.7,326.2 151.9,324 150.7,323.5 148.5,322.7 147.3,322.2 145.4,321.2 143.7,320.1 138.2,317.7 
	133.8,315.5 128.2,313 126.9,312.3 126.3,312.5 126.3,313.9 126.3,315.4 126.5,315.6 "/>
<line fill="none" stroke="#000000" stroke-miterlimit="10" x1="150.7" y1="285.2" x2="148.9" y2="286.1"/>
<line fill="none" stroke="#000000" stroke-miterlimit="10" x1="149.8" y1="285.6" x2="150.7" y2="285.2"/>
<polyline fill="none" stroke="#000000" stroke-miterlimit="10" points="150.7,285.2 149.8,285.7 150.7,285.2 "/>
<line fill="none" stroke="#000000" stroke-miterlimit="10" x1="149.3" y1="285.8" x2="150.7" y2="285.2"/>
<line fill="none" stroke="#000000" stroke-miterlimit="10" x1="149.4" y1="285.8" x2="150.7" y2="285.2"/>
<line fill="none" stroke="#000000" stroke-miterlimit="10" x1="162.9" y1="280" x2="159.9" y2="281.3"/>
<line fill="none" stroke="#000000" stroke-miterlimit="10" x1="163.6" y1="279.7" x2="159.8" y2="281.4"/>
<line fill="none" stroke="#000000" stroke-miterlimit="10" x1="163.6" y1="279.7" x2="162.9" y2="280"/>
<line fill="none" stroke="#000000" stroke-miterlimit="10" x1="163" y1="280" x2="159.8" y2="281.4"/>
<line fill="none" stroke="#000000" stroke-miterlimit="10" x1="162.7" y1="280.1" x2="163.6" y2="279.7"/>
<line fill="none" stroke="#000000" stroke-miterlimit="10" x1="159.9" y1="281.3" x2="163.6" y2="279.6"/>
<polyline fill="none" stroke="#000000" stroke-miterlimit="10" points="362.4,290.6 365.3,291.8 370.8,293.5 374.2,295.1 
	374.8,294.9 374.7,292.2 373.4,291.7 370.8,290.3 366,288.5 364.7,288.2 359.1,285.2 352.6,282.6 348.3,280.6 347.2,280.3 
	342.7,278.3 341.5,277.7 339.2,276.9 337,275.8 333.7,274.1 327.5,271.9 322,269.1 319.6,268.2 317.2,267.1 314.7,266.3 
	312.5,265.3 311.3,264.8 308.1,263.1 304.5,261.8 300,259.8 295.8,258.2 293.6,256.9 289.7,255.3 287.1,254.4 284.3,253 
	281.1,251.5 277,250 272.9,248.1 272.4,248.3 272.4,251.1 273.5,251.5 275.2,251.7 276.3,252.3 278.2,252.8 280.8,253.9 "/>
<polyline fill="none" stroke="#000000" stroke-miterlimit="10" points="376.5,312.6 363,319 357.4,321.8 352.6,323.9 338,331.1 
	333.7,333 331.1,334.3 325.5,336.9 319.4,339.9 315,341.9 311.3,343.8 308.2,345.1 299.9,349.2 294.7,351.6 290.2,353.9 275,361.1 
	"/>
<polyline fill="none" stroke="#000000" stroke-miterlimit="10" points="361.2,322.8 368.5,319.2 361,322.9 "/>
<line fill="none" stroke="#000000" stroke-miterlimit="10" x1="371.2" y1="318" x2="373.9" y2="316.6"/>
<line fill="none" stroke="#000000" stroke-miterlimit="10" x1="359.7" y1="323.5" x2="360.8" y2="323"/>
<polyline fill="none" stroke="#000000" stroke-miterlimit="10" points="347.2,329.4 350.7,327.7 353.7,326.3 "/>
<line fill="none" stroke="#000000" stroke-miterlimit="10" x1="337.1" y1="334.3" x2="341.7" y2="332.1"/>
<polyline fill="none" stroke="#000000" stroke-miterlimit="10" points="326.8,339.2 330.1,337.7 326.8,339.2 "/>
<line fill="none" stroke="#000000" stroke-miterlimit="10" x1="312.6" y1="346" x2="314.6" y2="345.1"/>
<polyline fill="none" stroke="#000000" stroke-miterlimit="10" points="319.7,342.7 323.1,341 319.7,342.7 "/>
<polyline fill="none" stroke="#000000" stroke-miterlimit="10" points="274.4,360.9 275,361.1 275,364.1 275.2,364 "/>
<line fill="none" stroke="#000000" stroke-miterlimit="10" x1="228" y1="364.1" x2="228.1" y2="361.1"/>
<polyline fill="none" stroke="#000000" stroke-miterlimit="10" points="228.7,360.8 228.1,361.1 226.9,360.7 221.1,358 219.6,357.1 
	217.2,356 215.4,355.1 213.4,354.3 210.6,352.6 207.3,351.2 204,349.6 202.8,349 200.8,347.9 198.4,346.8 197.4,346.2 191.4,343.6 
	189.2,342.5 186.7,341.5 183.4,339.6 182.2,339 179.7,338 178.6,337.4 169.4,332.8 168.1,332.4 167,331.8 164.5,330.9 163.3,330.3 
	161.2,329.1 159,328.1 155.5,326.6 152.4,324.9 150.1,323.7 147.8,322.9 146.6,322.4 144.6,321.4 142.9,320.4 137.5,317.9 
	135.8,317 128.8,313.8 126.2,312.4 "/>
<polyline fill="none" stroke="#000000" stroke-miterlimit="10" points="213.7,257.8 216.8,256.7 219.6,255.2 222.5,254.8 
	225.1,252.8 230.5,251.1 230.4,248.5 229.8,248.3 223.5,250.8 195.9,262.9 187.9,266.3 183.6,268 182.3,268.7 170.5,273.8 
	162.5,277.2 155.5,280.4 146,284.3 136.6,288.5 128.8,291.8 128.3,291.9 128.3,294.9 128.8,295.1 131.4,293.4 "/>
<polyline fill="none" stroke="#000000" stroke-miterlimit="10" points="173.4,404.6 172.7,406.9 172.4,408.7 172.2,412.5 
	172.3,414.5 172.4,415.1 172.9,417.5 174.8,423.2 175.2,423.9 176.4,425.6 180.2,430.6 181,431.5 182.8,433.1 188.3,437 
	190.8,438.4 193.4,439.8 194.8,440.8 197,442 201.8,443.9 203.5,444.8 205.9,445.8 208.1,446.2 210.1,446.9 211.4,447.3 
	214.6,448.4 223.3,450.1 225.6,450.7 228,451.2 230.8,451.4 238.5,452.2 242.5,452.3 250.2,452.9 255.6,452.7 259.7,452.4 
	266,452.1 268.5,451.9 275,451 282.5,449.6 286.1,448.8 288.6,448.2 294.4,446.4 301.9,443.8 308.6,440.7 311.2,439.3 313.4,438 
	316,436.3 318.2,434.7 322.1,431.3 323.7,429.6 325.5,427.5 326.8,425.7 328.6,422.7 330.4,417.7 330.7,415.8 331.1,413.1 
	331.1,410.6 330.4,406.8 329.6,404.7 "/>
<line fill="none" stroke="#000000" stroke-miterlimit="10" x1="321" y1="342" x2="319.6" y2="342.7"/>
<line fill="none" stroke="#000000" stroke-miterlimit="10" x1="319.8" y1="342.6" x2="321.1" y2="342"/>
<polyline fill="none" stroke="#000000" stroke-miterlimit="10" points="330.1,337.7 326.8,339.2 323.9,340.7 319.8,342.6 
	324.4,340.5 326.8,339.1 "/>
<polyline fill="none" stroke="#000000" stroke-miterlimit="10" points="330,337.7 326.8,339.2 330,337.7 "/>
<line fill="none" stroke="#000000" stroke-miterlimit="10" x1="341.6" y1="332.2" x2="335" y2="335.2"/>
<line fill="none" stroke="#000000" stroke-miterlimit="10" x1="336.9" y1="334.3" x2="335" y2="335.2"/>
<line fill="none" stroke="#000000" stroke-miterlimit="10" x1="326.8" y1="339.2" x2="333.1" y2="336.2"/>
<line fill="none" stroke="#000000" stroke-miterlimit="10" x1="350.4" y1="327.8" x2="348.4" y2="328.8"/>
<line fill="none" stroke="#000000" stroke-miterlimit="10" x1="341.8" y1="332" x2="344.7" y2="330.6"/>
<polyline fill="none" stroke="#000000" stroke-miterlimit="10" points="347.9,329.1 350.5,327.8 349.2,328.4 "/>
<line fill="none" stroke="#000000" stroke-miterlimit="10" x1="343.7" y1="331.1" x2="341.8" y2="332"/>
<polyline fill="none" stroke="#000000" stroke-miterlimit="10" points="353.2,326.5 351,327.5 346.8,329.6 "/>
<polyline fill="none" stroke="#000000" stroke-miterlimit="10" points="353.4,326.5 353.3,326.5 353.4,326.5 "/>
<line fill="none" stroke="#000000" stroke-miterlimit="10" x1="353.4" y1="326.5" x2="353.1" y2="326.6"/>
<polyline fill="none" stroke="#000000" stroke-miterlimit="10" points="347.5,329.3 353.5,326.5 351.2,327.5 "/>
<line fill="none" stroke="#000000" stroke-miterlimit="10" x1="353.6" y1="326.4" x2="350.4" y2="327.8"/>
<line fill="none" stroke="#000000" stroke-miterlimit="10" x1="350.5" y1="327.8" x2="343.8" y2="331.1"/>
<line fill="none" stroke="#000000" stroke-miterlimit="10" x1="338" y1="333.9" x2="341.6" y2="332.2"/>
<line fill="none" stroke="#000000" stroke-miterlimit="10" x1="362.5" y1="322.2" x2="361.3" y2="322.8"/>
<line fill="none" stroke="#000000" stroke-miterlimit="10" x1="356.6" y1="325" x2="357.5" y2="324.6"/>
<line fill="none" stroke="#000000" stroke-miterlimit="10" x1="362.7" y1="322" x2="361.1" y2="322.9"/>
<line fill="none" stroke="#000000" stroke-miterlimit="10" x1="356.2" y1="325.2" x2="359.1" y2="323.8"/>
<polyline fill="none" stroke="#000000" stroke-miterlimit="10" points="364.7,321 367.9,319.5 356.3,325.1 "/>
<line fill="none" stroke="#000000" stroke-miterlimit="10" x1="365.4" y1="320.7" x2="363.7" y2="321.5"/>
<line fill="none" stroke="#000000" stroke-miterlimit="10" x1="362.7" y1="322" x2="365.6" y2="320.7"/>
<line fill="none" stroke="#000000" stroke-miterlimit="10" x1="356.6" y1="325" x2="361.5" y2="322.7"/>
<line fill="none" stroke="#000000" stroke-miterlimit="10" x1="373.5" y1="316.9" x2="370.5" y2="318.3"/>
<line fill="none" stroke="#000000" stroke-miterlimit="10" x1="365" y1="320.9" x2="367.7" y2="319.6"/>
<line fill="none" stroke="#000000" stroke-miterlimit="10" x1="375.9" y1="315.7" x2="376.1" y2="315.6"/>
<polyline fill="none" stroke="#000000" stroke-miterlimit="10" points="368.1,319.4 365.4,320.7 368.4,319.3 "/>
<line fill="none" stroke="#000000" stroke-miterlimit="10" x1="368.1" y1="319.4" x2="365.2" y2="320.9"/>
<line fill="none" stroke="#000000" stroke-miterlimit="10" x1="226.5" y1="252.4" x2="224.8" y2="253.1"/>
<line fill="none" stroke="#000000" stroke-miterlimit="10" x1="218.7" y1="255.7" x2="220.1" y2="255.1"/>
<line fill="none" stroke="#000000" stroke-miterlimit="10" x1="218" y1="256" x2="220.1" y2="255.1"/>
<line fill="none" stroke="#000000" stroke-miterlimit="10" x1="219.1" y1="255.6" x2="220.1" y2="255.2"/>
<line fill="none" stroke="#000000" stroke-miterlimit="10" x1="212.9" y1="258.3" x2="215.5" y2="257.1"/>
<line fill="none" stroke="#000000" stroke-miterlimit="10" x1="210.8" y1="259.2" x2="215.6" y2="257.1"/>
<line fill="none" stroke="#000000" stroke-miterlimit="10" x1="213.1" y1="258.2" x2="215.6" y2="257.1"/>
<line fill="none" stroke="#000000" stroke-miterlimit="10" x1="220.1" y1="255.1" x2="218" y2="256"/>
<line fill="none" stroke="#000000" stroke-miterlimit="10" x1="212.6" y1="258.4" x2="210.6" y2="259.2"/>
<line fill="none" stroke="#000000" stroke-miterlimit="10" x1="213.1" y1="258.2" x2="215.6" y2="257.1"/>
<line fill="none" stroke="#000000" stroke-miterlimit="10" x1="219.1" y1="255.6" x2="218" y2="256"/>
<line fill="none" stroke="#000000" stroke-miterlimit="10" x1="219.6" y1="255.3" x2="218" y2="256"/>
<line fill="none" stroke="#000000" stroke-miterlimit="10" x1="197.9" y1="264.8" x2="202.3" y2="262.9"/>
<line fill="none" stroke="#000000" stroke-miterlimit="10" x1="200.2" y1="263.8" x2="197.9" y2="264.8"/>
<polyline fill="none" stroke="#000000" stroke-miterlimit="10" points="184.2,271.4 187.5,269.6 194.4,266.4 197.7,264.7 
	200.5,263.7 202.4,262.9 "/>
<polyline fill="none" stroke="#000000" stroke-miterlimit="10" points="373.4,313.4 373.6,311.5 374,310 373.5,306.7 373.4,302.9 
	373.8,296 373.7,295.1 "/>
<line fill="none" stroke="#000000" stroke-miterlimit="10" x1="329.9" y1="390.8" x2="329.8" y2="389.3"/>
<polyline fill="none" stroke="#000000" stroke-miterlimit="10" points="329.5,411.2 329.4,408.3 329.6,407 329.6,403.5 329.8,402.4 
	"/>
<line fill="none" stroke="#000000" stroke-miterlimit="10" x1="329.8" y1="391.1" x2="329.9" y2="388.4"/>
<line fill="none" stroke="#000000" stroke-miterlimit="10" x1="329.7" y1="389.5" x2="329.8" y2="388.4"/>
<polyline fill="none" stroke="#000000" stroke-miterlimit="10" points="331.3,378.3 331.8,376.6 332.4,375 "/>
<line fill="none" stroke="#000000" stroke-miterlimit="10" x1="331" y1="379.8" x2="331.3" y2="378.3"/>
<line fill="none" stroke="#000000" stroke-miterlimit="10" x1="170.9" y1="376.4" x2="171.7" y2="378.5"/>
<polyline fill="none" stroke="#000000" stroke-miterlimit="10" points="129.5,295.3 129.5,304.2 129,310.1 129.3,310.8 129.7,313.8 
	"/>
<polyline fill="none" stroke="#000000" stroke-miterlimit="10" points="173.3,402.4 173.4,407.2 173.7,411.3 "/>
<line fill="none" stroke="#000000" stroke-miterlimit="10" x1="173.2" y1="388.2" x2="173.2" y2="391.1"/>
<polyline fill="none" stroke="#000000" stroke-miterlimit="10" points="171.2,377.2 171.9,379.3 172.1,380.1 "/>
<polyline fill="none" stroke="#000000" stroke-miterlimit="10" points="329.4,403.2 330.1,401.1 330.5,399.1 330.8,396.6 
	330.5,392.9 329.9,389.9 "/>
<polyline fill="none" stroke="#000000" stroke-miterlimit="10" points="329.1,390.2 330.8,385.7 331.3,383.7 331.4,381.9 
	331.1,379.1 "/>
<line fill="none" stroke="#000000" stroke-miterlimit="10" x1="330.9" y1="381.1" x2="331" y2="379.8"/>
<line fill="none" stroke="#000000" stroke-miterlimit="10" x1="329.5" y1="389.3" x2="329.7" y2="388.8"/>
<polyline fill="none" stroke="#000000" stroke-miterlimit="10" points="332,375.3 333.7,372.5 334.7,370.7 335.2,369 335.5,367.1 
	335.6,365.5 "/>
<line fill="none" stroke="#000000" stroke-miterlimit="10" x1="332" y1="375.5" x2="332.9" y2="373.9"/>
<line fill="none" stroke="#000000" stroke-miterlimit="10" x1="331.5" y1="376.9" x2="332.3" y2="375"/>
<polyline fill="none" stroke="#000000" stroke-miterlimit="10" points="294,385.9 298.9,383.4 304.2,380.9 320.5,372.8 325.9,370.3 
	330.8,367.7 336.3,365.1 346.5,360 352.6,357.2 355.9,355.4 362.3,352.4 "/>
<line fill="none" stroke="#000000" stroke-miterlimit="10" x1="275.2" y1="394.3" x2="275" y2="395.3"/>
<polyline fill="none" stroke="#000000" stroke-miterlimit="10" points="274,394.4 275,395.3 276,394.7 "/>
<polyline fill="none" stroke="#000000" stroke-miterlimit="10" points="140.8,352.6 145,354.8 147,355.5 149.3,356.8 152.6,358.1 
	154.5,359.3 156.6,360.3 158.8,361.6 165.7,364.5 172,368 175.8,369.5 178.7,371.2 181.7,372.4 182.9,373 185,374.3 188.6,375.9 
	192,377.6 200,381.4 202.4,382.7 203.5,383.1 208.6,385.8 210.8,386.7 "/>
<polyline fill="none" stroke="#000000" stroke-miterlimit="10" points="173.2,389.9 172.8,391.1 172.4,393 172.2,396.7 172.4,398.6 
	173.6,403.2 "/>
<polyline fill="none" stroke="#000000" stroke-miterlimit="10" points="171.9,379.2 171.7,380.1 171.7,382 171.9,383.9 172.2,385.8 
	172.9,387.6 173.5,388.9 174,390.3 "/>
<polyline fill="none" stroke="#000000" stroke-miterlimit="10" points="167.4,366.2 167.6,369.2 168,371.2 168.7,373.1 170.8,376.4 
	171.4,377.7 "/>
<line fill="none" stroke="#000000" stroke-miterlimit="10" x1="172" y1="379.7" x2="172.1" y2="381"/>
<line fill="none" stroke="#000000" stroke-miterlimit="10" x1="167.2" y1="365.3" x2="167.6" y2="367.3"/>
<polyline fill="none" stroke="#000000" stroke-miterlimit="10" points="299.7,352.2 302.4,351.7 306.1,350 309.6,348.2 "/>
<line fill="none" stroke="#000000" stroke-miterlimit="10" x1="311.3" y1="346" x2="305.9" y2="349.9"/>
<polyline fill="none" stroke="#000000" stroke-miterlimit="10" points="309.7,347.1 312.8,345.4 316.4,343.6 319.1,342.1 "/>
<polyline fill="none" stroke="#000000" stroke-miterlimit="10" points="292.7,355.6 296.4,354.6 299.4,353.1 "/>
<line fill="none" stroke="#000000" stroke-miterlimit="10" x1="296.4" y1="353.4" x2="292.7" y2="355.5"/>
<polyline fill="none" stroke="#000000" stroke-miterlimit="10" points="296.4,353.4 299.7,352.2 301.8,350.4 "/>
<polyline fill="none" stroke="#000000" stroke-miterlimit="10" points="281.4,361.5 283.7,360.7 286.6,359.4 287.3,359.1 288.7,358 
	"/>
<polyline fill="none" stroke="#000000" stroke-miterlimit="10" points="278.2,362.9 281.9,361.2 284.5,359.2 "/>
<line fill="none" stroke="#000000" stroke-miterlimit="10" x1="278.5" y1="363.2" x2="280.8" y2="361.7"/>
<polyline fill="none" stroke="#000000" stroke-miterlimit="10" points="280.8,361.3 281.9,361.2 278.9,361.4 "/>
<polyline fill="none" stroke="#000000" stroke-miterlimit="10" points="288,357.6 287.1,358.5 285.5,359.1 "/>
<polyline fill="none" stroke="#000000" stroke-miterlimit="10" points="288.7,358 287.1,358.5 284.5,360.4 "/>
<polyline fill="none" stroke="#000000" stroke-miterlimit="10" points="275.2,363.3 278.6,363.2 280.6,361.9 "/>
<line fill="none" stroke="#000000" stroke-miterlimit="10" x1="275.7" y1="363" x2="276" y2="364.1"/>
<polyline fill="none" stroke="#000000" stroke-miterlimit="10" points="218.9,360.7 220.1,361.3 221.8,361.9 "/>
<polyline fill="none" stroke="#000000" stroke-miterlimit="10" points="222.2,360.6 220.5,360.7 218.9,360.7 "/>
<line fill="none" stroke="#000000" stroke-miterlimit="10" x1="225" y1="363.4" x2="226.3" y2="364.1"/>
<polyline fill="none" stroke="#000000" stroke-miterlimit="10" points="217.6,359.1 218.9,360.7 215.9,358 "/>
<polyline fill="none" stroke="#000000" stroke-miterlimit="10" points="199.7,350.7 200.7,351.5 202,352 203.7,353.1 206,354.2 
	208.8,355.8 212.6,357.2 "/>
<polyline fill="none" stroke="#000000" stroke-miterlimit="10" points="211.2,355.8 209.9,354.9 212.5,356.6 "/>
<line fill="none" stroke="#000000" stroke-miterlimit="10" x1="212.5" y1="356.6" x2="209.4" y2="356.1"/>
<polyline fill="none" stroke="#000000" stroke-miterlimit="10" points="216,357.4 214.7,357 212.5,356.6 "/>
<polyline fill="none" stroke="#000000" stroke-miterlimit="10" points="212.5,356.6 214.4,356.9 216.2,357.4 "/>
<line fill="none" stroke="#000000" stroke-miterlimit="10" x1="206.5" y1="354.6" x2="204.9" y2="352.5"/>
<polyline fill="none" stroke="#000000" stroke-miterlimit="10" points="190.2,346.6 195.6,349.2 196.4,349.8 199.7,350.7 "/>
<line fill="none" stroke="#000000" stroke-miterlimit="10" x1="197" y1="348.5" x2="199.8" y2="350.7"/>
<polyline fill="none" stroke="#000000" stroke-miterlimit="10" points="198.5,349.4 196.9,348.5 195.6,347.6 "/>
<polyline fill="none" stroke="#000000" stroke-miterlimit="10" points="203.8,351.5 199.8,350.7 198.5,349.4 "/>
<line fill="none" stroke="#000000" stroke-miterlimit="10" x1="193.3" y1="348.1" x2="191.4" y2="346.2"/>
<polyline fill="none" stroke="#000000" stroke-miterlimit="10" points="177.4,340.5 178.6,341 182.7,343.4 186.5,344.7 "/>
<polyline fill="none" stroke="#000000" stroke-miterlimit="10" points="183.1,342.1 184.1,342.8 186.2,344.1 "/>
<line fill="none" stroke="#000000" stroke-miterlimit="10" x1="186.2" y1="344.1" x2="182.7" y2="343.4"/>
<line fill="none" stroke="#000000" stroke-miterlimit="10" x1="184.4" y1="342.9" x2="181.2" y2="340.8"/>
<polyline fill="none" stroke="#000000" stroke-miterlimit="10" points="190.5,345.1 188,344.4 186.2,344 188.1,345.1 190.1,346.6 
	186.4,344.6 "/>
<polyline fill="none" stroke="#000000" stroke-miterlimit="10" points="186.2,344.1 188.2,344.5 190.3,345.1 "/>
<polyline fill="none" stroke="#000000" stroke-miterlimit="10" points="179.7,341.7 178.8,340.7 178,340.1 "/>
<polyline fill="none" stroke="#000000" stroke-miterlimit="10" points="172.8,337 171.7,336.3 169.5,335.2 165.6,334.5 "/>
<polyline fill="none" stroke="#000000" stroke-miterlimit="10" points="169.4,336.7 172.3,337.8 176.4,340.1 "/>
<polyline fill="none" stroke="#000000" stroke-miterlimit="10" points="161.2,332.2 162,332.6 163.1,333.3 164.5,334.2 168.9,336.3 
	"/>
<polyline fill="none" stroke="#000000" stroke-miterlimit="10" points="156,330.3 157.3,330.7 158.8,331.3 159.8,332.1 162.5,333.7 
	163.8,334.1 165.7,334.5 169.4,336.9 "/>
<line fill="none" stroke="#000000" stroke-miterlimit="10" x1="165.7" y1="334.5" x2="163.7" y2="332.8"/>
<polyline fill="none" stroke="#000000" stroke-miterlimit="10" points="346.4,283.5 344,282.4 339.7,280.5 "/>
<line fill="none" stroke="#000000" stroke-miterlimit="10" x1="159.2" y1="330.6" x2="155.9" y2="328.8"/>
<line fill="none" stroke="#000000" stroke-miterlimit="10" x1="156.1" y1="328.9" x2="152.3" y2="328.4"/>
<line fill="none" stroke="#000000" stroke-miterlimit="10" x1="152.3" y1="328.7" x2="155.2" y2="329.9"/>
<polyline fill="none" stroke="#000000" stroke-miterlimit="10" points="145.9,325.2 148.2,326.5 152.3,328.3 155.9,330.2 "/>
<line fill="none" stroke="#000000" stroke-miterlimit="10" x1="158.8" y1="331.3" x2="162.4" y2="332.3"/>
<polyline fill="none" stroke="#000000" stroke-miterlimit="10" points="163.7,332.8 162.4,332.3 161.5,332 "/>
<polyline fill="none" stroke="#000000" stroke-miterlimit="10" points="273.5,251.5 273.4,254.4 273.5,258.3 273.4,261.6 273,264.4 
	272.7,266 273.2,269 273.5,274.8 273.2,278.1 272.9,280.2 270.7,281.5 266.9,283.4 265.5,283.9 262.2,285 257.1,288 253.9,289.6 
	251.8,290.8 248.8,289.2 247.7,288.5 242.3,285.8 241.2,285 238.8,284.1 236.5,283.2 232.7,281.3 231.8,280.8 230.6,280 "/>
<polyline fill="none" stroke="#000000" stroke-miterlimit="10" points="230.3,279.8 230,278 229.7,274 230,269 230.4,266 
	230.2,265.3 229.8,261.9 229.7,258.2 229.1,251.7 "/>
<line fill="none" stroke="#000000" stroke-miterlimit="10" x1="144.2" y1="323.3" x2="143.4" y2="322.9"/>
<polyline fill="none" stroke="#000000" stroke-miterlimit="10" points="146.5,324.5 145.2,324 143.6,322.9 140.1,322.4 "/>
<polyline fill="none" stroke="#000000" stroke-miterlimit="10" points="143.3,324.4 144.5,324.9 145.8,325.2 149.8,325.7 "/>
<polyline fill="none" stroke="#000000" stroke-miterlimit="10" points="138.9,322 139.9,322.7 142.8,324.2 "/>
<polyline fill="none" stroke="#000000" stroke-miterlimit="10" points="128.5,317.1 128.9,317.6 131.5,318.4 134.5,320.3 
	137.3,321.6 140.1,322.5 143.3,324.5 "/>
<polyline fill="none" stroke="#000000" stroke-miterlimit="10" points="126.7,315.6 126.3,315.9 127.3,316.5 129.2,317.3 
	131.8,318.3 "/>
<line fill="none" stroke="#000000" stroke-miterlimit="10" x1="134.5" y1="320.2" x2="131.8" y2="318.4"/>
<polyline fill="none" stroke="#000000" stroke-miterlimit="10" points="126.3,315.9 129.2,317.3 127.8,315.6 "/>
<polyline fill="none" stroke="#000000" stroke-miterlimit="10" points="133.1,318.6 131.8,318.4 135.3,318.9 "/>
<polyline fill="none" stroke="#000000" stroke-miterlimit="10" points="132.8,293.1 132.4,293.6 135,292.9 137.7,291.6 140.5,290.5 
	"/>
<polyline fill="none" stroke="#000000" stroke-miterlimit="10" points="134.4,292.2 137.7,291.6 134.3,292.3 "/>
<line fill="none" stroke="#000000" stroke-miterlimit="10" x1="131.8" y1="293.6" x2="132.8" y2="293.1"/>
<line fill="none" stroke="#000000" stroke-miterlimit="10" x1="132.4" y1="293.6" x2="135.4" y2="292.7"/>
<polyline fill="none" stroke="#000000" stroke-miterlimit="10" points="132.2,294.1 134.7,293.1 135.7,292.5 "/>
<polyline fill="none" stroke="#000000" stroke-miterlimit="10" points="131.8,293.6 132.4,293.6 129.9,294.8 "/>
<polyline fill="none" stroke="#000000" stroke-miterlimit="10" points="129.2,295.1 129.4,295.4 130,295 "/>
<line fill="none" stroke="#000000" stroke-miterlimit="10" x1="134.4" y1="292.2" x2="131.9" y2="293.5"/>
<line fill="none" stroke="#000000" stroke-miterlimit="10" x1="137.3" y1="290.9" x2="131.5" y2="293.5"/>
<polyline fill="none" stroke="#000000" stroke-miterlimit="10" points="156.4,283.6 152.8,285.1 147,287.8 "/>
<polyline fill="none" stroke="#000000" stroke-miterlimit="10" points="146.8,287.9 147,287.9 144.1,288.7 146.8,287.9 "/>
<polyline fill="none" stroke="#000000" stroke-miterlimit="10" points="145.3,288.2 146.5,287.6 149.7,285.5 153,284.5 156.2,283.3 
	159.9,281.3 159.5,281.6 "/>
<line fill="none" stroke="#000000" stroke-miterlimit="10" x1="166.9" y1="278.7" x2="162.9" y2="280.8"/>
<polyline fill="none" stroke="#000000" stroke-miterlimit="10" points="159.5,281.6 163.4,280.7 167,278.7 "/>
<polyline fill="none" stroke="#000000" stroke-miterlimit="10" points="159.5,281.3 163.1,279.8 165.5,279.5 "/>
<polyline fill="none" stroke="#000000" stroke-miterlimit="10" points="166.8,279.1 170.3,277.2 173.5,276.3 "/>
<polyline fill="none" stroke="#000000" stroke-miterlimit="10" points="171.6,276.4 173.5,276.3 172.2,276.6 170.7,276.9 "/>
<line fill="none" stroke="#000000" stroke-miterlimit="10" x1="177.1" y1="274.6" x2="174.3" y2="274.8"/>
<polyline fill="none" stroke="#000000" stroke-miterlimit="10" points="175.6,274.4 177.1,274.3 180.6,272.8 "/>
<line fill="none" stroke="#000000" stroke-miterlimit="10" x1="170.3" y1="277" x2="166.8" y2="279.1"/>
<polyline fill="none" stroke="#000000" stroke-miterlimit="10" points="170.2,277.2 173.4,275.3 180.6,272 "/>
<polyline fill="none" stroke="#000000" stroke-miterlimit="10" points="313.8,268.7 312.3,268.8 311.1,268.3 309.1,267.3 "/>
<polyline fill="none" stroke="#000000" stroke-miterlimit="10" points="314.3,269.4 315.7,270.1 319.2,270.7 320.4,271.2 
	321.4,271.8 322.6,272.3 324.8,273.8 "/>
<polyline fill="none" stroke="#000000" stroke-miterlimit="10" points="374.2,292.3 372.9,291.9 370.3,290.5 364.2,288.4 
	362.6,287.5 359.7,285.9 357.4,284.9 352.1,282.9 350.1,281.9 349,281.3 346.8,280.5 341.1,277.9 338.8,277 333.3,274.3 327.1,272 
	321.6,269.2 316.9,267.1 314.4,266.4 312.1,265.4 307.8,263.2 304.2,261.9 299.7,259.9 296.3,258.6 294.4,257.6 291.2,256.3 
	286.7,254.7 282.3,252.4 280.7,251.7 277.8,250.7 272.6,248.3 "/>
<line fill="none" stroke="#000000" stroke-miterlimit="10" x1="333.2" y1="276.8" x2="336.6" y2="278.3"/>
<polyline fill="none" stroke="#000000" stroke-miterlimit="10" points="346.8,283 348.4,283.5 350.1,284.3 "/>
<polyline fill="none" stroke="#000000" stroke-miterlimit="10" points="354.8,286.9 356.5,287.1 358.1,287.9 359.6,288.4 
	360.1,288.8 362.3,290.5 361.2,289.8 359.1,288.7 356.7,288 "/>
<polyline fill="none" stroke="#000000" stroke-miterlimit="10" points="374.2,295.1 374.2,292.3 374.7,292.1 "/>
<line fill="none" stroke="#000000" stroke-miterlimit="10" x1="365.6" y1="291.2" x2="368.6" y2="292.2"/>
<line fill="none" stroke="#000000" stroke-miterlimit="10" x1="129" y1="292.2" x2="128.9" y2="295.2"/>
<polyline fill="none" stroke="#000000" stroke-miterlimit="10" points="230.4,248.5 221.5,252.2 211.3,256.7 206.4,258.7 
	194.2,264.1 184.2,268.3 171.1,274 167.7,275.4 165.3,276.6 161.9,277.9 154.9,281.1 150.6,282.8 145.4,285.1 140.9,287.1 
	131.6,291.2 128.9,292.2 128.4,292 "/>
<line fill="none" stroke="#000000" stroke-miterlimit="10" x1="180.6" y1="272.6" x2="184.1" y2="270.6"/>
<polyline fill="none" stroke="#000000" stroke-miterlimit="10" points="200.9,263.4 204.1,262.3 207.4,261.4 204,263 "/>
<polyline fill="none" stroke="#000000" stroke-miterlimit="10" points="207.7,260.7 210.7,259.1 213.1,258.2 212.9,258.3 "/>
<polyline fill="none" stroke="#000000" stroke-miterlimit="10" points="288.2,258.3 289.2,258.9 291.1,259.1 "/>
<polyline fill="none" stroke="#000000" stroke-miterlimit="10" points="301.1,263.7 302.1,264.2 305.3,264.9 308.9,266.2 "/>
<polyline fill="none" stroke="#000000" stroke-miterlimit="10" points="319.7,343.4 323.3,341.8 325.6,340.5 "/>
<line fill="none" stroke="#000000" stroke-miterlimit="10" x1="329.9" y1="338.2" x2="333.8" y2="336.7"/>
<line fill="none" stroke="#000000" stroke-miterlimit="10" x1="333.8" y1="336.7" x2="335.2" y2="335.2"/>
<line fill="none" stroke="#000000" stroke-miterlimit="10" x1="340.5" y1="332.3" x2="338.3" y2="333"/>
<line fill="none" stroke="#000000" stroke-miterlimit="10" x1="330.2" y1="337.1" x2="328.5" y2="338.4"/>
<polyline fill="none" stroke="#000000" stroke-miterlimit="10" points="343.5,331.7 347.1,330.4 347.3,330.2 "/>
<line fill="none" stroke="#000000" stroke-miterlimit="10" x1="340.5" y1="332.3" x2="342.4" y2="331.1"/>
<polyline fill="none" stroke="#000000" stroke-miterlimit="10" points="360.8,323 362.8,322.9 365.7,321.5 371,318.8 "/>
<line fill="none" stroke="#000000" stroke-miterlimit="10" x1="353.8" y1="325.9" x2="356.3" y2="324.4"/>
<polyline fill="none" stroke="#000000" stroke-miterlimit="10" points="300,263 299.2,263 301.1,263.7 "/>
<polyline fill="none" stroke="#000000" stroke-miterlimit="10" points="297.1,261.9 296,261.5 297.4,262.3 299.1,263 "/>
<polyline fill="none" stroke="#000000" stroke-miterlimit="10" points="289.3,258.2 290.4,258.8 292.5,259.8 294.2,260.1 
	295.5,260.5 296.6,261.3 "/>
<line fill="none" stroke="#000000" stroke-miterlimit="10" x1="368.7" y1="319.9" x2="370.6" y2="317.6"/>
<line fill="none" stroke="#000000" stroke-miterlimit="10" x1="376.7" y1="316" x2="373.4" y2="317"/>
<line fill="none" stroke="#000000" stroke-miterlimit="10" x1="373.5" y1="317.5" x2="376.7" y2="316"/>
<polyline fill="none" stroke="#000000" stroke-miterlimit="10" points="375.9,315.7 376.7,316 376.2,315.5 "/>
<polyline fill="none" stroke="#000000" stroke-miterlimit="10" points="297.4,261.4 295.8,261.1 294.5,260.2 "/>
<polyline fill="none" stroke="#000000" stroke-miterlimit="10" points="286.9,257.7 286.9,257.7 288.2,258.2 "/>
<line fill="none" stroke="#000000" stroke-miterlimit="10" x1="373.1" y1="294.7" x2="374" y2="295.2"/>
<polyline fill="none" stroke="#000000" stroke-miterlimit="10" points="373.2,294.6 373.1,294.7 371.1,293.5 "/>
<polyline fill="none" stroke="#000000" stroke-miterlimit="10" points="369.6,293 370.3,293.5 373.1,294.7 373.2,296 372.9,300.4 
	372.8,303.1 372.9,306.9 373.2,309.2 373.5,310.1 373.1,311.7 372.8,313.7 "/>
<polyline fill="none" stroke="#000000" stroke-miterlimit="10" points="359.6,289 359,289 362,290 "/>
<polyline fill="none" stroke="#000000" stroke-miterlimit="10" points="373.7,295.1 374,295.2 374.5,295.1 "/>
<polyline fill="none" stroke="#000000" stroke-miterlimit="10" points="278.8,253.7 280,254.1 281.4,254.9 "/>
<polyline fill="none" stroke="#000000" stroke-miterlimit="10" points="274.2,251.6 275.9,252.8 278.7,253.7 277.6,252.8 "/>
<line fill="none" stroke="#000000" stroke-miterlimit="10" x1="280.8" y1="254.8" x2="283.2" y2="255.6"/>
<polyline fill="none" stroke="#000000" stroke-miterlimit="10" points="360.2,288.8 359.2,288.8 356.7,287.9 352.7,285.8 "/>
<line fill="none" stroke="#000000" stroke-miterlimit="10" x1="352.7" y1="286.4" x2="359.1" y2="289"/>
<polyline fill="none" stroke="#000000" stroke-miterlimit="10" points="349.6,284.7 351.9,285.6 353.1,286 "/>
<polyline fill="none" stroke="#000000" stroke-miterlimit="10" points="346.6,283.5 348.1,284.1 352.1,286.2 "/>
<line fill="none" stroke="#000000" stroke-miterlimit="10" x1="220.9" y1="255.5" x2="222.5" y2="254.8"/>
<polyline fill="none" stroke="#000000" stroke-miterlimit="10" points="218.7,255.7 222,255.1 222.2,254.9 "/>
<line fill="none" stroke="#000000" stroke-miterlimit="10" x1="229.2" y1="251.9" x2="226.5" y2="253.1"/>
<polyline fill="none" stroke="#000000" stroke-miterlimit="10" points="226.5,253.3 229.2,252.1 229,251.7 "/>
<polyline fill="none" stroke="#000000" stroke-miterlimit="10" points="226.3,252.6 229.3,252 229.1,251.7 "/>
<polyline fill="none" stroke="#000000" stroke-miterlimit="10" points="346.6,283.5 344,282.4 339.7,280.1 "/>
<polyline fill="none" stroke="#000000" stroke-miterlimit="10" points="346.6,283.5 346.3,283.5 348.1,284.1 "/>
<polyline fill="none" stroke="#000000" stroke-miterlimit="10" points="335.2,278.4 336.3,279.2 337.3,279.5 339.7,280.1 339.6,280 
	"/>
<polyline fill="none" stroke="#000000" stroke-miterlimit="10" points="333.2,277.6 334.4,278 337.3,279.5 340.1,280.8 "/>
<polyline fill="none" stroke="#000000" stroke-miterlimit="10" points="212.9,259 216.4,257.6 217,257.2 "/>
<line fill="none" stroke="#000000" stroke-miterlimit="10" x1="218.7" y1="255.7" x2="215.9" y2="257.6"/>
<polyline fill="none" stroke="#000000" stroke-miterlimit="10" points="210.3,259.3 213,259.1 219,256.4 "/>
<line fill="none" stroke="#000000" stroke-miterlimit="10" x1="207" y1="261.6" x2="207.1" y2="261.5"/>
<polyline fill="none" stroke="#000000" stroke-miterlimit="10" points="336.3,279 334.2,277.7 332.9,277.2 "/>
<polyline fill="none" stroke="#000000" stroke-miterlimit="10" points="332.8,277.1 331.7,276.6 327.8,275.2 325.9,274.2 "/>
<line fill="none" stroke="#000000" stroke-miterlimit="10" x1="329.5" y1="275.8" x2="328.2" y2="275.2"/>
<polyline fill="none" stroke="#000000" stroke-miterlimit="10" points="333.9,277.2 332.9,277.1 331.7,276.6 328.3,275.6 326,274.6 
	"/>
<line fill="none" stroke="#000000" stroke-miterlimit="10" x1="325.4" y1="274" x2="325.9" y2="274.2"/>
<line fill="none" stroke="#000000" stroke-miterlimit="10" x1="322.5" y1="273" x2="325.9" y2="274.6"/>
<polyline fill="none" stroke="#000000" stroke-miterlimit="10" points="200.6,264.5 203.7,263.1 205.1,262.1 "/>
<polyline fill="none" stroke="#000000" stroke-miterlimit="10" points="194,267.3 198.8,265.1 200.6,264.5 198.9,264.6 197.4,264.9 
	"/>
<polyline fill="none" stroke="#000000" stroke-miterlimit="10" points="194,267.3 190.8,268.3 187.2,270.3 "/>
<polyline fill="none" stroke="#000000" stroke-miterlimit="10" points="129.9,294.6 130,294.8 130,299.1 130.1,301.8 130.1,305.3 
	129.6,310.3 130.3,314 "/>
<polyline fill="none" stroke="#000000" stroke-miterlimit="10" points="251.6,290.8 252.7,291.4 256,293.1 257.2,293.8 267.7,299 
	273.9,301.7 275.7,302.6 277,303.1 280.1,304.6 281.4,305 286.7,307.5 288.9,308.4 291.1,309.6 295.4,311.6 297.9,312.5 300,313.6 
	305.7,316.1 308,317.3 311.5,318.7 318.2,321.8 320.5,322.5 322.3,323.6 324.7,324.7 326.6,325.7 328.9,326.4 333.3,328.2 
	337.7,330.6 "/>
<polyline fill="none" stroke="#000000" stroke-miterlimit="10" points="272.8,280.2 275.5,281.2 277.8,282.4 281.8,284.3 
	284.7,285.4 287.5,286.7 290.7,287.7 294.8,289.7 296.6,290.6 297.8,291.1 300.9,292.6 303,293.4 307.6,295.3 309.6,296.4 
	313.2,297.7 315.3,298.8 321.2,301.4 324.6,303 328.1,304.4 333.6,307.2 334.8,307.6 340.5,310.2 342.8,311 348.4,313.7 
	352.8,315.3 355,316.5 357.1,317.3 361.3,319.2 "/>
<polyline fill="none" stroke="#000000" stroke-miterlimit="10" points="164.9,330.6 191.8,318.5 198.3,315.8 219.9,305.9 
	225.4,303.3 229.6,301.6 241.6,296.1 246.9,293.5 249.3,292.1 "/>
<polyline fill="none" stroke="#000000" stroke-miterlimit="10" points="141.8,319.3 154.8,313.6 157.1,312.5 162.6,310.2 
	166.1,308.5 169.3,307.2 176.5,303.9 185.4,300.1 193.7,296.3 204.3,291.8 206.8,290.5 211.7,288.4 230.2,280 "/>
<line fill="none" stroke="#000000" stroke-miterlimit="10" x1="275.2" y1="364" x2="275.5" y2="364.2"/>
<polyline fill="none" stroke="#000000" stroke-miterlimit="10" points="274.6,394.5 275,395.3 274.7,394.2 "/>
<polyline fill="none" stroke="#000000" stroke-miterlimit="10" points="374,294.9 374,295.2 373.8,294.9 "/>
<polyline points="587.2,537.4 578.3,542.9 576,541.7 574.7,541.3 573.4,540.8 571.3,539.4 567.9,537.7 565.5,536.6 559.7,533.7 
	556.1,532.1 553.9,530.8 550.4,529.2 545.9,532 543.7,528.6 542.2,526.6 540.5,524.6 538.3,521.3 535.9,518.2 535.2,517.4 
	539.2,517.9 541.6,518.4 546.9,519.1 549.3,519.6 553.4,520 555.8,520.5 558.5,520.8 559.7,521 563.5,521.4 559,524.1 561.6,525.1 
	562.7,525.7 564.8,527 567.2,528 568.5,528.4 571.9,530.2 575.5,531.8 577.7,533.1 582.5,535.3 584.7,536.5 587.2,537.4 "/>
<polyline fill="none" stroke="#000000" stroke-miterlimit="10" points="220.5,441.5 220.8,436.3 220.4,432.7 220.1,431.3 
	217.7,430.4 215.5,429.8 208.4,428.1 205.2,426.8 198.8,424.5 196,423 195,422.3 193.3,421.6 191.8,420.7 190.5,420.1 184.5,416.2 
	183.4,415.4 176.9,409.5 177.5,411.1 177.7,412.2 178.1,416.3 178.2,419.8 177.8,422.2 177.2,424.1 182.7,429.4 186.9,432.6 
	189.2,434.2 191.8,435.6 198.5,438.9 203.3,441 204.7,441.3 206.5,442.1 207.8,442.5 209.7,443.3 212.4,443.9 214.5,444.5 
	220.4,445.9 220.5,444.9 220.5,441.5 "/>
<polyline fill="none" stroke="#000000" stroke-miterlimit="10" points="377.4,315.7 372.9,318 356,326.5 355.9,329.2 355.9,335.4 
	355.8,337.3 355.7,341 356.5,342.1 358.5,345.4 363,353.6 363.6,354.5 363.8,354.6 373.5,349.1 376.5,347.5 376.6,340.4 
	376.8,337.1 376.8,334.1 377.2,329.9 377.3,327 377.2,324.7 377.6,316.3 377,311.6 376.7,307.4 376.7,305.7 376,298.8 375.9,295.8 
	375.8,294.4 375.6,292.9 374.6,292.5 "/>
<polyline fill="none" stroke="#000000" stroke-miterlimit="10" points="377.4,315.7 377,313 376.7,310.2 376.4,304.4 376.2,303 
	375.8,298.7 375.7,295.7 375.4,293.1 374.8,292.8 "/>
<line fill="none" stroke="#000000" stroke-miterlimit="10" x1="374.8" y1="310.4" x2="374.9" y2="312.7"/>
<polyline fill="none" stroke="#000000" stroke-miterlimit="10" points="275.9,394 278.7,396.8 293,389.1 294.9,383.7 298.8,374.1 
	299.8,371.4 301.8,366.6 301.7,353.1 301.4,353 289.1,359.2 278.7,364.1 272.3,364.1 265.6,364 262.8,364.2 260.8,364.2 257.8,364 
	249.9,364.1 246.8,364 244.7,364.1 239.5,364 236,364.2 230.4,364 227.9,364.1 226.3,364.1 224.1,362.9 221.6,361.9 220.3,361.4 
	214.4,358.4 210.6,356.9 208.4,355.9 205.2,354.1 203,353.1 202.7,353.2 202.8,356.5 202.8,361.1 202.8,368.2 203.3,369.4 
	204.9,372.7 205.2,373.8 206.8,377.3 210.6,386.7 211.6,388.7 212.3,390.3 213.4,390.9 217.1,392.3 218.3,392.9 219.3,393.5 
	222.8,395.2 225.3,396.1 226.8,396.8 229.5,394.1 "/>
<polyline fill="none" stroke="#000000" stroke-miterlimit="10" points="128.5,293.3 127.6,293.8 127.3,295.3 126.9,300.7 
	126.2,306.6 125.9,310.7 125.2,316.7 125.5,319.7 125.5,322.4 125.7,330.3 125.7,338.5 125.9,342.8 125.9,348.5 128.4,349.5 
	131.5,351.2 134,352 136.4,352.9 139.6,354.6 139.8,354.5 147.9,340.6 147.9,334 147.6,327 144.1,325.5 136.3,321.8 130.9,319.3 
	130.1,318.8 125.6,316.6 "/>
<polyline fill="none" stroke="#000000" stroke-miterlimit="10" points="128.4,293.5 127.8,293.8 127.6,295.3 127.2,299.4 127.1,302 
	126.5,306.6 126.2,310.6 125.6,316.6 "/>
<polyline fill="none" stroke="#000000" stroke-miterlimit="10" points="272.5,250.3 261.4,250.2 259.6,250.3 255.3,250.3 
	246.4,250.1 243.3,250.3 234.5,250.1 230.5,250.2 "/>
<polyline fill="none" stroke="#000000" stroke-miterlimit="10" points="356.2,326.6 356.1,327.9 356.2,334.1 356,337.4 355.9,341.1 
	356.7,342.1 358.7,345.5 363.8,354.6 "/>
<polyline fill="none" stroke="#000000" stroke-miterlimit="10" points="377.7,315.7 372.9,318.3 367.9,320.7 360.2,324.6 
	356.2,326.6 356,326.5 "/>
<polyline fill="none" stroke="#000000" stroke-miterlimit="10" points="301.7,353.1 289.3,359.3 278.8,364.3 272.7,364.3 
	265.6,364.1 262.7,364.4 257.6,364.2 249.8,364.2 246.6,364.1 244.6,364.2 239.4,364.2 235.9,364.4 230.3,364.1 228.2,364.3 
	226.1,364.3 223.9,363 220,361.5 217.7,360.2 214.2,358.5 210.4,357.1 208.1,356 205,354.2 202.6,353.3 "/>
<polyline fill="none" stroke="#000000" stroke-miterlimit="10" points="234.7,394 236,394 240.8,394.2 244.7,394 248.3,394.1 
	251.8,394.3 254.2,394.2 259,394.3 271.7,394.2 "/>
<line fill="none" stroke="#000000" stroke-miterlimit="10" x1="270.1" y1="394.2" x2="274" y2="394.4"/>
<polyline fill="none" stroke="#000000" stroke-miterlimit="10" points="228.7,394.7 231.9,394.2 235.5,393.9 "/>
<polyline fill="none" stroke="#000000" stroke-miterlimit="10" points="278.7,396.8 278.8,393.4 278.7,390.5 278.9,387.8 
	278.8,386.9 "/>
<polyline fill="none" stroke="#000000" stroke-miterlimit="10" points="226.8,396.8 226.4,392.7 226.7,387.1 "/>
<polyline fill="none" stroke="#000000" stroke-miterlimit="10" points="147.3,327.1 143.9,325.7 136.2,321.9 131.8,320 125.2,316.7 
	"/>
<polyline fill="none" stroke="#000000" stroke-miterlimit="10" points="139.5,354.6 147.6,340.8 147.6,334.1 147.4,331.5 
	147.4,328.8 147.3,327.2 147.6,327 "/>
<polyline fill="none" stroke="#000000" stroke-miterlimit="10" points="272.5,250.2 261.5,250 259.7,250.2 255.4,250.2 246.6,250 
	243.3,250.2 234.5,250 230.6,250.2 "/>
<polyline fill="none" stroke="#000000" stroke-miterlimit="10" points="504.4,496.9 515.5,501.9 504.3,508.5 499.7,506.1 
	497.4,504.8 496.3,504.2 493.8,503.3 491.1,501.9 489.9,501.4 487.7,500.2 480.5,497 478.2,495.8 473.4,493.7 469.8,491.9 
	468.6,491.4 465,489.7 455.8,485.1 454.5,484.6 451.3,483.1 450.1,482.6 446.8,480.6 444.5,479.4 442,478.4 437.6,475.7 431.6,473 
	426,470 420.1,467.2 416.6,465.4 415.4,464.8 410.4,462.8 404.6,460 397.3,457 387.8,452.4 382.9,450.3 378.5,447.8 377.2,447.3 
	375.9,446.9 370.3,443.8 365.5,441.5 363.2,440.3 360.8,439.3 356.3,436.7 353.8,435.7 351.3,434.3 349.2,433.3 347.3,432.6 
	358.5,426.8 363.2,429 365,429.8 369.5,432.2 371.9,433.3 374.2,434.6 381.3,438 383.6,439.2 384.6,439.9 393.2,443.9 399,446.8 
	400.2,447.3 402.4,448.4 405,449.4 415.6,454.1 424,457.8 426.6,458.7 431.1,461.1 433.6,462.1 439.3,465.2 445.4,468 446.4,468.7 
	448.7,469.9 452.5,471.4 456.9,474 459.2,475.1 464.8,478.1 466.1,478.5 468.4,479.8 470.8,480.8 476.6,483.7 480.3,485.2 
	486.7,488.6 492.6,491.4 493.9,491.9 496.2,493 497.5,493.4 499.7,494.7 504.4,496.9 "/>
<polyline fill="none" stroke="#000000" stroke-miterlimit="10" points="389.6,418.6 384.8,416.5 382.4,415.3 381.1,414.9 379.5,414 
	368.6,419.6 369.7,420.3 371,420.7 375.7,423 379.5,425.1 380.9,425.5 385.7,427.6 388,428.7 391.5,430.3 395.2,431.9 396.5,432.4 
	398.9,433.5 400.7,434.6 401.8,435.2 406.7,437.2 410,439.1 413.6,440.7 421.7,444.8 424.2,445.8 425.3,446.5 426.5,447 
	430.9,449.6 434.6,451.2 439.2,453.6 440.9,454.3 443,455.6 444.2,456.2 446.8,457 448.1,457.6 451.4,459.4 452.6,459.9 
	460.9,463.7 464.6,465.2 468.1,466.9 475.2,470 477.7,471 479,471.3 483.3,473.3 486.7,475.1 492.7,477.8 500.3,481.7 502.8,482.7 
	506.2,484.5 507.3,485.2 509.6,486.5 516.7,489.8 519.5,491.5 523.2,493 525.5,494.1 529.7,491.8 536.3,487.9 532.9,486.1 
	529.2,484.7 525.8,482.9 522.3,481.3 515.6,477.5 510.8,475.2 508.3,474.2 505.4,472.7 501.9,471 500.6,470.5 492.5,466.5 
	489.4,465.2 485.9,463.5 480.9,461.7 478.7,460.4 477.5,459.9 471.3,457.5 469.1,456.4 462.3,453.5 459,451.7 456.5,450.7 
	450.7,447.8 449.5,447.1 447.1,446.1 444.8,444.9 443.5,444.5 440.1,442.6 438,441.2 435.5,440.1 431.8,438.6 428.5,436.7 
	422.1,433.7 416.5,430.7 412.7,429.3 410.5,428.1 406.9,426.5 405.7,426 404.6,425.4 402.1,424.4 398.6,422.8 396.4,421.6 
	392.6,420.2 389.6,418.6 "/>
<polyline fill="none" stroke="#000000" stroke-miterlimit="10" points="345.2,441.7 341.6,440 340.3,439.5 338.1,438.3 335.2,436.9 
	323.8,442.9 326.1,444.1 329.6,445.8 332,446.8 334.9,448.3 337.4,449.4 339.7,450.5 341.9,451.8 346.6,454 349.1,455 352.6,456.8 
	355,457.8 357,459 359.3,460.2 361.8,461.2 362.9,461.8 365.4,462.8 372.2,466.5 374.5,467.7 375.8,468.2 377,468.7 379.4,469.9 
	382.9,471.6 386.1,473.6 388.5,474.7 392,476.5 397.4,479 403.1,482.1 405.5,483.1 410.3,485.6 413.9,487.2 416.2,488.4 
	418.6,489.5 422.3,490.9 423.6,491.3 426,492.4 428.1,493.7 432.8,496 435,496.7 438.6,498.4 440.8,499.6 445.6,501.8 449,503.6 
	451.2,504.5 457,507.5 459.4,508.6 462.8,510.4 468.4,513.5 474,516.2 480.9,519.8 492.2,513.2 491,512.7 486.5,510.4 485.2,509.9 
	481.9,507.9 479.5,506.9 478.2,506.4 475.8,505.2 473.6,503.9 468.9,501.6 465.6,499.7 462.2,498.2 456.6,495.1 454.2,494.1 
	451.7,493.2 450.5,492.6 448.4,491.2 446.5,490.2 445.1,489.8 442.6,488.9 440.3,487.8 439.3,487 437.1,485.9 434.4,485.1 
	431.8,484 429.4,483.1 424.9,480.8 423.8,480.1 419.3,478.2 415.8,476.4 406.1,471.9 402.7,470 399.1,468.4 393.6,465.2 
	391.1,464.1 388.8,463 384.2,460.5 382.4,459.7 381.3,459 380.2,458.4 375.3,456.3 373.1,455 371.9,454.4 368.2,452.9 362.5,449.8 
	357.7,447.7 356.6,447.1 355.3,446.6 351.8,445 347.3,442.5 345.2,441.7 "/>
<polyline fill="none" stroke="#000000" stroke-miterlimit="10" points="138.3,321 137.3,320.6 138.3,321 "/>
<polyline fill="none" stroke="#000000" stroke-miterlimit="10" points="148.9,286.1 149.3,285.9 148.9,286.1 "/>
<line fill="none" stroke="#000000" stroke-miterlimit="10" x1="148.9" y1="286.1" x2="150.8" y2="285.2"/>
<polyline fill="none" stroke="#000000" stroke-miterlimit="10" points="150.5,327.6 152.3,328.7 152.9,328.7 "/>
<line fill="none" stroke="#000000" stroke-miterlimit="10" x1="150.9" y1="327" x2="149.7" y2="325.7"/>
<line fill="none" stroke="#000000" stroke-miterlimit="10" x1="150.6" y1="285.2" x2="152.8" y2="285.2"/>
<line fill="none" stroke="#000000" stroke-miterlimit="10" x1="155.1" y1="283.7" x2="153.5" y2="284.9"/>
<line fill="none" stroke="#000000" stroke-miterlimit="10" x1="157.8" y1="282.5" x2="160" y2="282.1"/>
<line fill="none" stroke="#000000" stroke-miterlimit="10" x1="159.8" y1="281.3" x2="162.9" y2="280"/>
<line fill="none" stroke="#000000" stroke-miterlimit="10" x1="159.8" y1="281.3" x2="163.6" y2="279.6"/>
<polyline fill="none" stroke="#000000" stroke-miterlimit="10" points="165.7,333.4 164.4,333.2 162.1,332.6 "/>
<line fill="none" stroke="#000000" stroke-miterlimit="10" x1="173.3" y1="389.3" x2="173.2" y2="390.8"/>
<line fill="none" stroke="#000000" stroke-miterlimit="10" x1="173.2" y1="388.4" x2="173.3" y2="389.5"/>
<line fill="none" stroke="#000000" stroke-miterlimit="10" x1="173.3" y1="388.6" x2="173.5" y2="389.3"/>
<line fill="none" stroke="#000000" stroke-miterlimit="10" x1="178" y1="340.1" x2="180" y2="340.9"/>
<line fill="none" stroke="#000000" stroke-miterlimit="10" x1="190.4" y1="345.9" x2="190.4" y2="345.9"/>
<line fill="none" stroke="#000000" stroke-miterlimit="10" x1="190.7" y1="346.1" x2="190.3" y2="345.8"/>
<line fill="none" stroke="#000000" stroke-miterlimit="10" x1="193.1" y1="347.2" x2="192.9" y2="347.1"/>
<line fill="none" stroke="#000000" stroke-miterlimit="10" x1="190.7" y1="346.1" x2="190.3" y2="345.9"/>
<line fill="none" stroke="#000000" stroke-miterlimit="10" x1="194.4" y1="267.1" x2="195.5" y2="265.8"/>
<line fill="none" stroke="#000000" stroke-miterlimit="10" x1="196.8" y1="265.3" x2="195.6" y2="265.8"/>
<line fill="none" stroke="#000000" stroke-miterlimit="10" x1="197.2" y1="265" x2="194.4" y2="267.1"/>
<line fill="none" stroke="#000000" stroke-miterlimit="10" x1="196.1" y1="265.8" x2="195.6" y2="265.8"/>
<line fill="none" stroke="#000000" stroke-miterlimit="10" x1="200.5" y1="263.7" x2="202.3" y2="262.9"/>
<line fill="none" stroke="#000000" stroke-miterlimit="10" x1="197.9" y1="264.8" x2="200.4" y2="263.8"/>
<line fill="none" stroke="#000000" stroke-miterlimit="10" x1="202.3" y1="262.9" x2="200.7" y2="263.6"/>
<line fill="none" stroke="#000000" stroke-miterlimit="10" x1="202.3" y1="262.9" x2="201.2" y2="263.4"/>
<line fill="none" stroke="#000000" stroke-miterlimit="10" x1="207.8" y1="261" x2="208.6" y2="260.3"/>
<line fill="none" stroke="#000000" stroke-miterlimit="10" x1="207.8" y1="261" x2="209.7" y2="259.7"/>
<line fill="none" stroke="#000000" stroke-miterlimit="10" x1="213" y1="258.2" x2="215.5" y2="257.1"/>
<line fill="none" stroke="#000000" stroke-miterlimit="10" x1="210.6" y1="259.3" x2="213" y2="258.3"/>
<line fill="none" stroke="#000000" stroke-miterlimit="10" x1="215.6" y1="257.1" x2="213" y2="258.4"/>
<polyline fill="none" stroke="#000000" stroke-miterlimit="10" points="212.8,356.8 215.3,357.8 215.9,358.1 "/>
<line fill="none" stroke="#000000" stroke-miterlimit="10" x1="215.6" y1="257.1" x2="213.2" y2="258.2"/>
<polyline fill="none" stroke="#000000" stroke-miterlimit="10" points="218,256 218.7,255.7 219.8,255.5 "/>
<line fill="none" stroke="#000000" stroke-miterlimit="10" x1="218" y1="256" x2="218.7" y2="255.7"/>
<polyline fill="none" stroke="#000000" stroke-miterlimit="10" points="217,257.2 219,256.3 220.2,255 "/>
<line fill="none" stroke="#000000" stroke-miterlimit="10" x1="218.7" y1="255.7" x2="220.1" y2="255.1"/>
<line fill="none" stroke="#000000" stroke-miterlimit="10" x1="218" y1="256" x2="218.5" y2="255.8"/>
<line fill="none" stroke="#000000" stroke-miterlimit="10" x1="223.3" y1="361.8" x2="222.7" y2="361.5"/>
<line fill="none" stroke="#000000" stroke-miterlimit="10" x1="224.8" y1="253.1" x2="225.2" y2="253"/>
<line fill="none" stroke="#000000" stroke-miterlimit="10" x1="226.3" y1="252.5" x2="226.5" y2="252.4"/>
<line fill="none" stroke="#000000" stroke-miterlimit="10" x1="224.8" y1="253.1" x2="226.5" y2="252.4"/>
<line fill="none" stroke="#000000" stroke-miterlimit="10" x1="226.5" y1="252.4" x2="224.8" y2="253.1"/>
<line fill="none" stroke="#000000" stroke-miterlimit="10" x1="225" y1="253" x2="226.5" y2="252.4"/>
<line fill="none" stroke="#000000" stroke-miterlimit="10" x1="226.7" y1="364.1" x2="224.8" y2="362.5"/>
<line fill="none" stroke="#000000" stroke-miterlimit="10" x1="226.5" y1="252.4" x2="226.3" y2="252.5"/>
<line fill="none" stroke="#000000" stroke-miterlimit="10" x1="226.4" y1="252.4" x2="226.2" y2="252.5"/>
<line fill="none" stroke="#000000" stroke-miterlimit="10" x1="273.4" y1="251.5" x2="273.4" y2="252"/>
<polyline fill="none" stroke="#000000" stroke-miterlimit="10" points="274.5,394.2 274.6,394.5 274.6,394.2 "/>
<line fill="none" stroke="#000000" stroke-miterlimit="10" x1="275.8" y1="364.1" x2="275.2" y2="363.3"/>
<line fill="none" stroke="#000000" stroke-miterlimit="10" x1="276.5" y1="364.1" x2="277.7" y2="363.2"/>
<line fill="none" stroke="#000000" stroke-miterlimit="10" x1="278.5" y1="253.1" x2="278.5" y2="253.1"/>
<line fill="none" stroke="#000000" stroke-miterlimit="10" x1="280.8" y1="361.3" x2="277.8" y2="362.8"/>
<line fill="none" stroke="#000000" stroke-miterlimit="10" x1="280" y1="253.6" x2="278.5" y2="253.1"/>
<line fill="none" stroke="#000000" stroke-miterlimit="10" x1="278.5" y1="253.1" x2="280.4" y2="254.2"/>
<line fill="none" stroke="#000000" stroke-miterlimit="10" x1="284.4" y1="256" x2="286.9" y2="257.8"/>
<line fill="none" stroke="#000000" stroke-miterlimit="10" x1="286" y1="359.1" x2="284.5" y2="359.1"/>
<line fill="none" stroke="#000000" stroke-miterlimit="10" x1="287.5" y1="358.1" x2="287.2" y2="358.3"/>
<line fill="none" stroke="#000000" stroke-miterlimit="10" x1="291.2" y1="356.3" x2="292.7" y2="355.5"/>
<line fill="none" stroke="#000000" stroke-miterlimit="10" x1="292.7" y1="355.6" x2="290.2" y2="356.8"/>
<line fill="none" stroke="#000000" stroke-miterlimit="10" x1="292.8" y1="355.5" x2="292.6" y2="355.7"/>
<line fill="none" stroke="#000000" stroke-miterlimit="10" x1="301.1" y1="351.6" x2="302.7" y2="350.8"/>
<line fill="none" stroke="#000000" stroke-miterlimit="10" x1="301.1" y1="351.6" x2="302.9" y2="350.7"/>
<polyline fill="none" stroke="#000000" stroke-miterlimit="10" points="305,264.9 305.6,265.5 308.1,266 "/>
<line fill="none" stroke="#000000" stroke-miterlimit="10" x1="303.3" y1="350.5" x2="302.6" y2="350.9"/>
<polyline fill="none" stroke="#000000" stroke-miterlimit="10" points="308.7,347.8 305.8,349.2 308.7,347.8 "/>
<line fill="none" stroke="#000000" stroke-miterlimit="10" x1="314.6" y1="345.1" x2="312.9" y2="345.9"/>
<line fill="none" stroke="#000000" stroke-miterlimit="10" x1="321" y1="342.1" x2="319.7" y2="342.7"/>
<line fill="none" stroke="#000000" stroke-miterlimit="10" x1="327.8" y1="275.2" x2="329.6" y2="275.4"/>
<line fill="none" stroke="#000000" stroke-miterlimit="10" x1="333" y1="336.3" x2="330" y2="337.7"/>
<line fill="none" stroke="#000000" stroke-miterlimit="10" x1="336.9" y1="334.3" x2="335" y2="335.2"/>
<line fill="none" stroke="#000000" stroke-miterlimit="10" x1="335" y1="335.2" x2="335.6" y2="335"/>
<line fill="none" stroke="#000000" stroke-miterlimit="10" x1="338" y1="333.9" x2="337.1" y2="334.3"/>
<line fill="none" stroke="#000000" stroke-miterlimit="10" x1="340.2" y1="280.8" x2="343.4" y2="281.4"/>
<line fill="none" stroke="#000000" stroke-miterlimit="10" x1="342.3" y1="331.9" x2="344.2" y2="330.9"/>
<line fill="none" stroke="#000000" stroke-miterlimit="10" x1="342.3" y1="331.9" x2="343.9" y2="331.1"/>
<line fill="none" stroke="#000000" stroke-miterlimit="10" x1="346.8" y1="329.7" x2="346.8" y2="329.7"/>
<line fill="none" stroke="#000000" stroke-miterlimit="10" x1="344" y1="330.9" x2="343.8" y2="331.1"/>
<line fill="none" stroke="#000000" stroke-miterlimit="10" x1="353.5" y1="286.7" x2="354.8" y2="286.9"/>
<line fill="none" stroke="#000000" stroke-miterlimit="10" x1="355.7" y1="325.3" x2="357.7" y2="324.4"/>
<polyline fill="none" stroke="#000000" stroke-miterlimit="10" points="357.8,324.4 356.5,325.1 358.1,324.2 "/>
<line fill="none" stroke="#000000" stroke-miterlimit="10" x1="360.8" y1="323" x2="359.3" y2="323.8"/>
<polyline fill="none" stroke="#000000" stroke-miterlimit="10" points="362.3,322.2 362.6,322 362.3,322.2 "/>
<line fill="none" stroke="#000000" stroke-miterlimit="10" x1="360.9" y1="322.9" x2="359.6" y2="323.6"/>
<line fill="none" stroke="#000000" stroke-miterlimit="10" x1="361" y1="322.9" x2="362.7" y2="322.9"/>
<line fill="none" stroke="#000000" stroke-miterlimit="10" x1="367" y1="291.8" x2="364.6" y2="291.3"/>
<line fill="none" stroke="#000000" stroke-miterlimit="10" x1="373.1" y1="317.1" x2="372.5" y2="317.4"/>
<line fill="none" stroke="#000000" stroke-miterlimit="10" x1="373.1" y1="317.1" x2="372.6" y2="317.3"/>
<line fill="none" stroke="#000000" stroke-miterlimit="10" x1="372.9" y1="317.3" x2="373.4" y2="317"/>
<polyline fill="none" stroke="#000000" stroke-miterlimit="10" points="204.9,372.7 203.9,372.1 200.4,370.7 195.9,368.5 
	194.9,367.9 193.8,367.5 191.4,366.3 189.4,365.1 188.1,364.7 185.8,363.6 184.7,363 182.4,362 181.4,361.3 180.3,360.8 178,359.7 
	176.8,359.2 174.6,357.9 173.5,357.4 171.2,356.2 168.8,355.3 167.6,354.7 165.6,353.5 164.2,353.1 162.3,352.2 161.6,351.6 
	158.9,350.2 156.7,349.3 153.6,347.7 152.3,347.2 146,344.1 "/>
<line fill="none" stroke="#000000" stroke-miterlimit="10" x1="357.6" y1="343.9" x2="299.4" y2="372.2"/>
<line fill="none" stroke="#000000" stroke-miterlimit="10" x1="374.7" y1="294.9" x2="374.8" y2="292.1"/>
<polyline fill="none" stroke="#000000" stroke-miterlimit="10" points="376.5,315.4 376.4,314.8 376.6,312.6 "/>
<line fill="none" stroke="#000000" stroke-miterlimit="10" x1="275.1" y1="361.1" x2="275" y2="364.1"/>
<line fill="none" stroke="#000000" stroke-miterlimit="10" x1="228" y1="364.2" x2="228.2" y2="361.1"/>
<polyline fill="none" stroke="#000000" stroke-miterlimit="10" points="126.3,312.6 126.5,313.9 126.4,315.5 "/>
<polyline fill="none" stroke="#000000" stroke-miterlimit="10" points="128.4,292 128.6,293.2 128.6,294.8 "/>
<line fill="none" stroke="#000000" stroke-miterlimit="10" x1="375.7" y1="315.8" x2="376" y2="315.7"/>
<polyline fill="none" stroke="#000000" stroke-miterlimit="10" points="373.4,313.4 373.5,312.5 374,309.8 373.5,306.6 373.4,304.9 
	373.6,295.9 373.5,295.1 "/>
<polyline fill="none" stroke="#000000" stroke-miterlimit="10" points="329.5,403.3 329.1,405.5 328.7,406.8 327,410.6 325.9,412.4 
	324.6,414.2 322.4,416.7 319.6,419.3 317.5,421.1 313,424.2 312.1,424.6 310.6,425.6 306.6,427.7 302.2,429.6 296.7,431.7 
	294.9,432.2 293.4,432.9 292.6,433.1 289.1,434.1 286.9,434.6 284.5,435.2 283.4,435.4 282.2,435.7 278.4,436.5 276.1,436.7 
	273.4,437.3 270.9,437.6 269.7,437.7 266.9,438.2 260.6,438.6 259.1,438.7 254.1,438.7 248.7,438.9 247.6,438.7 243.4,438.7 
	239.7,438.3 235.6,438.2 230.7,437.2 229.2,437.3 228,437.2 225.5,436.7 224.2,436.6 223,436.2 220.4,435.7 "/>
<polyline fill="none" stroke="#000000" stroke-miterlimit="10" points="329.8,388.6 329.5,389.8 328.9,391.7 328.2,393.5 
	327.2,395.3 324.9,398.8 321.6,402.4 319.6,404.2 317.6,405.8 314.4,408 313.2,408.8 309.6,410.7 305.3,412.9 301.1,414.7 
	292.7,417.6 289.5,418.4 285.8,419.4 283.3,420 281.1,420.3 277.3,421.1 275,421.3 273.6,421.6 272.3,421.8 268.6,422.1 
	267.2,422.4 266,422.4 262,422.9 258.2,422.9 255.4,423.2 250.2,423.1 246.4,422.9 243.6,422.9 241,422.8 237,422.5 233.3,421.9 
	230.4,421.9 229.3,421.5 226.7,421.2 223.1,420.4 220.7,420 219.6,419.5 214.5,418.6 211.2,417.5 210.2,417.3 207.8,416.4 
	204.4,415.5 201.5,414 198.1,413 197.7,412.7 195.4,411.7 193.8,410.7 191.1,409.4 189.8,408.5 188.9,407.7 185.2,405.5 
	184.1,404.8 183.1,403.9 182.4,402.9 181.6,402 180.6,401.2 178.9,399 177.4,397.4 177.1,396.9 176.2,396 175.8,395.3 174.9,393.4 
	174.5,392.1 174.1,391.6 173.4,388.4 "/>
<polyline fill="none" stroke="#000000" stroke-miterlimit="10" points="331.5,377 330.6,378.7 329.4,380.5 326.6,384 323.1,387.5 
	319,390.6 317.3,391.9 314.2,393.8 310.4,395.9 302.8,399.5 300.4,400.5 297.4,401.5 296.4,402 288.3,404.5 284.9,405.2 
	282.4,405.9 278.9,406.6 276.2,407.2 272.6,407.8 271.1,408.1 265.9,408.9 263.6,408.9 262.2,409 260.8,409.3 259.5,409.3 
	256.8,409.5 255.6,409.4 252.8,409.6 247.4,409.6 246.1,409.4 242,409.3 240.8,409.1 239.4,409.1 238.1,408.9 236.7,408.9 
	235.4,408.7 231.4,408.3 230.2,408 223.7,406.9 222.4,406.7 220.1,405.9 218.6,405.9 216.1,405.4 215,405 212.7,404.3 211.6,403.8 
	206.7,402.5 203.5,401.1 202.7,400.9 201.6,400.3 199.6,399.7 198.3,399.2 196.7,398.3 194.1,397.4 192.6,396.4 191.4,395.8 
	190.9,395.6 189.7,395.1 184.6,391.8 180.4,388.5 179.4,387.7 177.6,385.9 175.8,384.3 173.7,381.3 173,380.7 171.1,377 "/>
<polyline fill="none" stroke="#000000" stroke-miterlimit="10" points="327.4,369.5 324.6,371.7 319.6,375.1 314.6,378.1 
	311.8,379.6 305.7,382.7 298.6,385.8 296.2,386.7 295.1,387.2 293.5,387.7 "/>
<polyline fill="none" stroke="#000000" stroke-miterlimit="10" points="271.8,394.2 270.5,394.5 268.8,394.8 266.1,395.6 262.6,396 
	259.7,396.7 255.1,397 253.7,397.2 247.6,397.2 245,396.9 244,396.6 240,396.2 238.8,396 237.3,395.9 234.8,395.5 233.8,395 
	232.5,394.7 231,394.6 230.2,394.3 "/>
<polyline fill="none" stroke="#000000" stroke-miterlimit="10" points="213.8,433.9 210.5,432.8 207.8,432.2 204,430.7 201.3,429.9 
	199.6,429.1 198.5,428.5 193.8,426.5 192.5,425.5 191.4,424.8 189.9,424.2 187.7,422.7 186.6,421.7 185.5,420.9 183.5,419.2 
	182.4,418.6 181.7,417.7 "/>
<polyline fill="none" stroke="#000000" stroke-miterlimit="10" points="211.9,389.3 207.7,387.8 204,386.8 203.1,386.3 202.1,385.6 
	199.9,384.8 199.4,384.7 197.4,383.7 196.6,383.4 193.5,382 192.2,381.5 191.2,380.7 188.2,379.3 187.7,378.9 186.4,378.3 
	185.3,377.6 183.8,376.5 182.1,375.7 180.2,374 178.6,373.2 176.3,371.4 175.4,370.5 172.1,367.9 "/>
<polyline fill="none" stroke="#000000" stroke-miterlimit="10" points="177.9,413.6 177.2,412.4 176.7,411.1 175.1,408.8 
	174.6,407.8 174.3,407 173.4,403.2 "/>
<polyline fill="none" stroke="#000000" stroke-miterlimit="10" points="129.6,295.1 129.6,304.9 129.2,308.1 129.1,309.9 
	129.3,310.7 129.5,312.8 129.8,313.6 "/>
<polyline fill="none" stroke="#000000" stroke-miterlimit="10" points="275.2,394.3 275,395.3 274,394.3 "/>
<line fill="none" stroke="#000000" stroke-miterlimit="10" x1="275.8" y1="363" x2="276.1" y2="364"/>
<polyline fill="none" stroke="#000000" stroke-miterlimit="10" points="372.5,313.9 369.9,313 367.1,311.7 364.6,310.8 360.1,308.7 
	358.5,307.8 354.2,305.9 349.7,304.3 347.7,303.4 346.6,302.8 344.5,301.9 339.2,299.4 337.9,299 335.8,297.9 334.8,297.3 
	333.5,296.8 332.4,296.4 329.9,295.5 327.9,294.3 325.5,293.5 324.2,293.1 321,291.3 319.9,290.7 318.7,290.5 317.6,289.9 
	316.3,289.4 315.3,288.9 313.9,288.5 313,287.8 310.7,286.9 308.7,285.8 307.4,285.3 306.1,284.9 305.4,284.4 300.9,282.4 
	299.4,282.1 296.5,280.4 294.5,279.5 292.3,279 290.3,277.7 288.5,276.9 287.1,276.5 286.7,276.2 281.5,273.9 280.1,273.1 
	278.6,272.5 277.2,272.2 273.3,270.4 "/>
<polyline fill="none" stroke="#000000" stroke-miterlimit="10" points="273.5,251.5 273.5,261.5 273.1,264.4 272.6,266.1 273,268 
	273.3,270.4 273.4,274.9 272.8,280.2 270.7,281.3 266.6,283.4 265.4,283.9 262,285 260.7,285.9 256.8,288.1 254.6,289.2 
	251.6,290.9 248.5,289.3 247.6,288.6 243.8,286.8 241.7,285.4 241.2,285 238.5,284.4 237.4,284 236.2,283.4 233.9,282 232.5,281.5 
	231.6,281 230.4,280.1 "/>
<polyline fill="none" stroke="#000000" stroke-miterlimit="10" points="229.8,270.4 219.3,275 216.3,276.4 212.5,277.9 204.9,281.4 
	198.7,284 189.8,288 182.1,291.3 178.4,293.1 176.4,293.9 149.5,305.8 144.9,307.8 143.3,308.6 139.2,310.5 136.2,311.7 
	133.4,312.8 130.7,314.1 "/>
<polyline fill="none" stroke="#000000" stroke-miterlimit="10" points="230.3,279.8 229.8,275.2 229.6,274.1 229.8,272.3 
	229.8,270.7 230.4,266 230.1,265.3 229.6,260.3 229.7,258.2 229.6,254.4 229.4,251.8 "/>
<line fill="none" stroke="#000000" stroke-miterlimit="10" x1="127.3" y1="316.5" x2="126.3" y2="316"/>
<line fill="none" stroke="#000000" stroke-miterlimit="10" x1="374.2" y1="295.1" x2="374.2" y2="292.3"/>
<line fill="none" stroke="#000000" stroke-miterlimit="10" x1="274.4" y1="360.8" x2="274.4" y2="363.9"/>
<polyline fill="none" stroke="#000000" stroke-miterlimit="10" points="228.7,363.9 228.9,361.5 228.8,360.8 "/>
<line fill="none" stroke="#000000" stroke-miterlimit="10" x1="129.1" y1="292.2" x2="129.1" y2="295.1"/>
<line fill="none" stroke="#000000" stroke-miterlimit="10" x1="230.6" y1="251" x2="230.4" y2="248.5"/>
<line fill="none" stroke="#000000" stroke-miterlimit="10" x1="272.5" y1="248.3" x2="272.4" y2="251.3"/>
<polyline fill="none" stroke="#000000" stroke-miterlimit="10" points="372.8,313.7 373.1,311.7 373.6,310.1 373,306.9 372.9,301.7 
	373.1,297.6 373.2,296.2 373.1,294.8 373.9,295.3 374.4,295.2 "/>
<polyline fill="none" stroke="#000000" stroke-miterlimit="10" points="322.3,337.9 318.4,336 314.8,333.6 313,333 309.2,330.7 
	305.6,329.1 304.3,328.6 302.6,327.6 299.2,326.5 298.2,325.8 297,325.3 288.2,322.3 286.1,321.4 282.6,320.5 279.3,319.3 
	276.5,318.9 273.1,317.9 268.5,317 267.4,316.6 265,316.3 261.8,315.4 260.3,315.4 258.3,314.9 255.8,314.5 252.2,314.5 
	251.5,314.4 250.1,314.6 247,314.5 243.3,315.3 240.1,315.7 236.5,316.6 231,317.6 227.3,318.6 226.2,318.8 217.9,321.3 
	217.2,321.4 215.7,322 214.6,322.3 205.8,325.5 202.6,326.7 200.5,327.8 198.3,328.6 188.7,333.3 186.4,334.6 180.8,338 "/>
<polyline fill="none" stroke="#000000" stroke-miterlimit="10" points="334.1,332.3 331.3,330.9 329.7,330 328.7,329.3 325.8,327.9 
	324.2,326.8 321.7,325.8 318.8,324.2 318.3,323.7 315.6,322.8 313.8,321.8 312.7,321.1 310.6,320.3 309.6,319.6 307.6,318.6 
	305.6,317.6 302.1,316.4 297.8,314.1 295.5,313.3 294.3,312.8 292.3,311.7 289.7,310.9 287.8,309.7 286.4,309.4 283,308.2 
	279.7,306.7 277.4,306 274.3,304.6 272.2,303.9 270.9,303.5 269.2,302.6 267.9,302.2 264.9,300.9 263.5,300.6 261.8,299.8 
	260.6,299.4 258.8,298.8 257,298.6 254.5,297.9 253,297.8 251.8,297.5 250.5,297.6 249,298 246.5,298.4 240.7,300.4 237.4,301.8 
	236.4,302.1 232.1,303.6 225.5,306.3 222.3,307.4 218.9,308.9 218.1,309.2 202.2,316 200,317.1 198.1,317.9 194.6,319.6 
	192.5,320.5 185.1,324.3 182.3,325.6 175.2,329.4 172.6,330.7 169.2,332.6 "/>
<polyline fill="none" stroke="#000000" stroke-miterlimit="10" points="347,326.3 345.7,325.5 344.4,325.2 343.8,324.9 342.8,324.2 
	341.8,323.6 339.9,322.8 338.8,322.1 336.7,321.4 331.5,319.1 330.4,318.4 329.1,318 327,317 324.9,316 321.3,314.7 319,313.6 
	316.7,312.7 315.6,312.1 314.5,311.6 312.4,310.4 310,309.5 308.9,308.9 307.8,308.6 306.7,308 304.5,306.9 303.1,306.5 
	302.2,305.8 299.8,305 297.7,304 296.4,303.6 295.3,303 294.3,302.6 293.3,301.9 292,301.4 291,301.1 288.8,299.9 287.8,299.6 
	283.4,297.7 280.3,296.2 279,295.7 277.2,294.9 276.1,294.2 274.3,293.3 272.9,293 270.7,291.8 267.3,290.3 266,289.5 264.3,289 
	259.3,286.5 "/>
<polyline fill="none" stroke="#000000" stroke-miterlimit="10" points="358.6,320.6 355.6,319.2 354.4,318.8 353.2,318.2 
	351.5,317.2 348.3,315.8 347,315.4 345.1,314.5 343.8,314.1 343.1,313.6 341.6,313.3 340.4,312.7 338.6,311.5 337.5,311 
	335.2,310.2 331.9,308.6 330.6,308.2 327.3,306.6 321.5,304.3 319.3,303.2 318,302.8 316.9,302.2 314.7,301.1 313.6,300.5 
	312.7,299.9 310.2,298.9 307.9,298.1 306.8,297.5 305.7,297.1 303.4,296.1 302.6,295.5 301.5,294.9 300.2,294.5 299.4,294.1 
	298,293.8 296,292.9 293.7,291.7 286.9,288.7 284.7,287.4 282.8,286.9 279.5,285.3 277.1,284.5 276,283.8 272,282 270.7,281.2 "/>
<polyline fill="none" stroke="#000000" stroke-miterlimit="10" points="130,294.5 130.1,294.8 130.2,296.1 130.2,304.3 129.7,310.2 
	129.9,311 129.9,312 130.4,313.8 "/>
<polyline fill="none" stroke="#000000" stroke-miterlimit="10" points="243.8,286.7 240.3,288.2 237.5,289.6 230.7,292.5 
	228.1,293.8 222.5,296.2 219.2,297.7 207.7,302.8 200.9,305.9 198.5,307.1 195.4,308.3 191.8,310.1 179.4,315.4 175.8,317.2 
	173.9,318 171.6,319.2 169.4,320.1 165.2,322 158.2,325 155.9,326.2 "/>
<polyline fill="none" stroke="#000000" stroke-miterlimit="10" points="232.5,281.4 228.7,283.2 224.8,284.8 220.6,286.8 214,289.6 
	209.9,291.6 207.8,292.3 200.4,295.7 199.4,296 198.1,296.6 195,297.9 189.2,300.7 184.8,302.5 174.4,307.2 170.1,309.1 
	167.4,310.4 165.5,311.1 160.8,313.3 158.9,314 155.3,315.8 151.3,317.4 149.1,318.4 144.4,320.5 "/>
<polyline fill="none" stroke="#000000" stroke-miterlimit="10" points="308.7,344.4 306.1,343.5 304.8,342.8 302,341.6 300.7,341.2 
	300.2,341 298.8,340.6 297.2,339.9 294.8,338.9 292.8,338.4 290.8,337.6 289.4,337.5 286.4,336.3 284.2,335.8 281.5,335.3 
	280.8,334.9 273.5,333.6 270.1,332.9 268.6,333 267.3,332.8 265.1,332.3 262.5,332.2 259.9,332 256.5,331.5 255.2,331.6 
	251.6,331.5 250.2,331.7 247.9,331.5 246.5,331.8 244.2,331.8 241.5,332.1 239.4,332.1 238.1,332.3 235.5,332.8 228.3,333.8 
	224.7,334.6 223.6,334.7 221.1,335.4 219.9,335.6 216.5,336.5 208,339 204.6,340.4 200.6,341.8 198.7,342.7 197.6,343.1 
	194.6,344.5 "/>
<polyline fill="none" stroke="#000000" stroke-miterlimit="10" points="291,352.9 289.4,352.3 288,352.1 286,351.5 282.6,350.9 
	281.5,350.5 279.4,350 277,349.6 274.6,349 273.6,349 272.4,348.8 268.6,348.5 267.4,348.3 262.8,347.7 259.9,347.8 259,347.6 
	256.2,347.6 254.1,347.3 242.9,347.6 233.2,348.5 225.9,349.6 219.9,350.8 219.2,350.8 216.5,351.5 214.7,351.8 211.9,352.6 "/>
<polyline fill="none" stroke="#000000" stroke-miterlimit="10" points="273.6,364.1 272,364 270.9,363.7 268.5,363.6 266.4,363.2 
	265,363 263.6,363 259.9,362.8 259,362.6 255.2,362.6 253.8,362.6 252.7,362.4 251.5,362.4 250.1,362.6 246.6,362.5 241.4,362.8 
	239.3,362.8 236.5,363.4 234.1,363.4 230,363.9 "/>
<polyline fill="none" stroke="#000000" stroke-miterlimit="10" points="220.5,434.9 215.9,433.6 214.7,433.1 213.8,432.9 "/>
<polyline fill="none" stroke="#000000" stroke-miterlimit="10" points="181.7,416.5 179.8,415 178.6,414.3 177.9,413.4 "/>
<polyline fill="none" stroke="#000000" stroke-miterlimit="10" points="374.8,312.8 374.9,306.5 375,302.7 375.2,301.3 375.2,299.2 
	375.4,296.5 375.3,294.8 375.4,293 "/>
<polyline fill="none" stroke="#000000" stroke-miterlimit="10" points="128.2,313 128.3,310.4 128.1,309.2 128,306.4 128.1,302.5 
	127.9,301.3 127.8,297.2 128,293.8 "/>
<polyline fill="none" stroke="#000000" stroke-miterlimit="10" points="272.9,279.9 271.9,279.2 270.5,279.1 267.7,278.5 
	266.4,278.4 263.2,278.5 261.6,278.2 255.4,278.2 253.3,278.3 250.4,278.1 249,278.2 246,278.1 244,278.2 241.6,278.1 238.4,278.2 
	235.5,278 233.5,278.3 231.8,278.3 230,278.5 "/>
<polyline fill="none" stroke="#000000" stroke-miterlimit="10" points="376.4,347.5 376.6,342.8 376.6,338.4 377.3,329.8 377.4,327 
	377.2,324.7 377.5,320.9 377.4,319.1 377.5,315.8 "/>
<polyline fill="none" stroke="#000000" stroke-miterlimit="10" points="278.8,364.3 278.7,367.6 278.9,370.7 278.7,374.7 
	278.9,377.3 278.8,379.5 278.8,380.8 279,382.2 278.7,386.5 278.8,388.4 278.8,389.7 278.7,391.1 278.8,393.4 278.7,395.4 
	278.7,396.8 277.8,396 276,394 "/>
<polyline fill="none" stroke="#000000" stroke-miterlimit="10" points="226.2,364.3 226.5,373.5 226.4,375 226.6,377.5 226.5,379.8 
	226.6,382.4 226.5,384.1 226.7,385 226.7,386.3 226.5,391.4 226.8,393.8 226.9,396.8 229.8,393.8 "/>
<polyline fill="none" stroke="#000000" stroke-miterlimit="10" points="275.9,394 272.9,393.1 271.9,393 269.7,392.7 266.1,392.9 
	263,392.7 260.2,392.9 258.2,392.8 256.8,392.9 253.7,392.7 250.2,392.9 246.8,392.9 243.5,392.7 239.9,392.9 238.1,392.7 
	236.1,392.7 234.5,393 232.8,393 229.7,393.9 "/>
<polyline fill="none" stroke="#000000" stroke-miterlimit="10" points="125.1,316.8 125.5,319.7 125.4,326.6 125.7,330.3 125.6,333 
	125.8,335.7 125.6,340.4 125.8,343.7 125.9,344.9 125.9,348.6 "/>
<polyline fill="none" stroke="#000000" stroke-miterlimit="10" points="274.5,394.2 274.6,394.5 274.6,394.2 "/>
<line fill="none" stroke="#000000" stroke-miterlimit="10" x1="275.9" y1="364" x2="275.2" y2="363.2"/>
<path fill="none" stroke="#000000" stroke-miterlimit="10" d="M173.7,390.9c0,0,1.8,2.9,6.6,7.5"/>
<path fill="none" stroke="#000000" stroke-miterlimit="10" d="M173.7,390.9c0,0,1.8,2.9,6.6,7.5"/>
<path fill="none" stroke="#000000" stroke-miterlimit="10" d="M187,405.7c0,0-0.6,1,9.8,6.2"/>
<path fill="none" stroke="#000000" stroke-miterlimit="10" d="M187,405.7c0,0-0.6,1,9.8,6.2"/>
<path fill="none" stroke="#000000" stroke-miterlimit="10" d="M210,416.9c3.1,1.5,8.9,2.7,15.5,3.7"/>
<path fill="none" stroke="#000000" stroke-miterlimit="10" d="M210,416.9c3.1,1.5,8.9,2.7,15.5,3.7"/>
<path fill="none" stroke="#000000" stroke-miterlimit="10" d="M294,416.5c-3.2,1.1-9.9,2.9-15.3,3.8"/>
<path fill="none" stroke="#000000" stroke-miterlimit="10" d="M294,416.5c-3.2,1.1-9.9,2.9-15.3,3.8"/>
<path fill="none" stroke="#000000" stroke-miterlimit="10" d="M305.5,412.1c4.3-2,7.4-3.7,10.3-5.9"/>
<path fill="none" stroke="#000000" stroke-miterlimit="10" d="M305.5,412.1c4.3-2,7.4-3.7,10.3-5.9"/>
<path fill="none" stroke="#000000" stroke-miterlimit="10" d="M328.8,389.6c-1.7,4.1-2,5.8-4.5,8.8"/>
<path fill="none" stroke="#000000" stroke-miterlimit="10" d="M328.8,389.6c-1.7,4.1-2,5.8-4.5,8.8"/>
<path fill="none" stroke="#000000" stroke-miterlimit="10" d="M222.2,349.6c5.6-1,9.4-1.8,16.9-2.5"/>
<path fill="none" stroke="#000000" stroke-miterlimit="10" d="M222.2,349.6c5.6-1,9.4-1.8,16.9-2.5"/>
<path fill="none" stroke="#000000" stroke-miterlimit="10" d="M266.2,347.5c5.2,0.6,12.4,1.4,15.8,2.1"/>
<path fill="none" stroke="#000000" stroke-miterlimit="10" d="M266.2,347.5c5.2,0.6,12.4,1.4,15.8,2.1"/>
<path d="M52.3,173.3c0.9,0.5,1.2,1.3,1.2,2.4c0,4.4,0,8.8,0,13.2c0,0.6,0.3,0.9,0.7,0.9s0.7-0.3,0.7-0.9c0-3.9,0-7.8-0.1-11.6
	c0-0.7,0.1-1.3,0.7-1.7c0.6-0.5,1.3-0.7,2-0.3c0.8,0.3,1.2,1,1.2,1.9c0,3.1,0,6.3,0,9.4c0,6.9,0,13.9,0,20.8v0.7H39.2v-2.4
	c0-5,0-9.9,0-14.8c0-3.3,0-6.6,0-10c0-1.2,0.8-2.1,1.9-2c1.1,0,1.8,0.8,1.8,2c0,2.6,0,5.2,0,7.7c0,0.2,0,0.3,0,0.5
	c0,0.5,0.3,0.7,0.8,0.8c0.4,0,0.7-0.3,0.8-0.8c0-0.2,0-0.3,0-0.5c0-4.1-0.1-8.1-0.1-12.2c0-1.3,0.8-2.2,1.9-2.2
	c1.1,0,1.9,0.9,1.9,2.2c0,4,0,8-0.1,12c0,0.3-0.1,0.6,0.1,0.8c0.1,0.2,0.4,0.5,0.7,0.5c0.4,0.1,0.7-0.2,0.7-0.6c0-0.3,0-0.5,0-0.8
	c0-4.3,0-8.5-0.1-12.7c0-1,0.3-1.7,1.2-2.2L52.3,173.3L52.3,173.3z"/>
<path d="M67.2,222.9c-3.3-1.6-6.6-3.1-9.9-4.6c0,0,0-0.1,0-0.1h4.1c-0.2-0.9-0.3-1.8-0.5-2.6c-0.3-1.9-0.8-3.8-1-5.7
	c-0.2-1.4,0-2.8-0.1-4.1c0-0.8,0.2-1.4,0.6-2.1c1.9-2.9,3.6-5.8,5.5-8.7c0.8-1.2,1-2.5,0.2-3.8c-0.1-0.2-0.2-0.4-0.4-0.5
	c-0.5-0.3-0.4-0.7-0.2-1.1c1.6-3.4,3.1-6.8,4.7-10.2c0.1-0.3,0.3-0.6,0.4-0.9c0.5-0.9,1.5-1.3,2.4-0.9c0.9,0.4,1.3,1.4,0.9,2.4
	c-1,2.3-2,4.5-3,6.8c-0.9,2.1-1.8,4.1-2.8,6.2c-0.2,0.6-0.1,1,0.3,1.2c0.4,0.2,0.8,0,1.1-0.6c1.7-3.9,3.5-7.8,5.2-11.7
	c0.5-1.1,1.5-1.6,2.6-1.1c1,0.5,1.4,1.6,0.9,2.7c-1.7,3.9-3.5,7.8-5.2,11.7c-0.2,0.6-0.1,0.9,0.3,1.1c0.4,0.2,0.7,0,1-0.6
	c1.1-2.4,2.1-4.8,3.2-7.1c0.1-0.2,0.2-0.4,0.3-0.7c0.5-0.9,1.5-1.2,2.4-0.8c0.9,0.4,1.3,1.4,1,2.3c-0.8,1.8-1.6,3.6-2.4,5.4
	c-2.5,5.7-5,11.4-7.6,17c-1.5,3.3-2.5,6.8-3.6,10.2C67.5,222.1,67.4,222.4,67.2,222.9"/>
<path d="M38.3,216.8c0.3-2.5,0.6-5,0.9-7.5c0.2,0,0.3,0,0.5,0c6.1,0,12.3,0,18.4,0c0.5,0,0.7,0.1,0.8,0.7c0.3,2.1,0.6,4.1,0.9,6.2
	c0,0.2,0,0.4,0,0.7L38.3,216.8L38.3,216.8z"/>
<path d="M59.8,191.8c-0.1-1.1-0.2-2.1,0.3-3.1c1.6-3.4,3.2-6.9,4.8-10.4c0.4-0.9,1.2-1.3,2.1-1.2c0.8,0.1,1.5,0.8,1.5,1.7
	c0,0.3-0.1,0.7-0.2,1.1c-1.3,3-2.6,5.9-3.8,8.9c-0.2,0.5-0.3,0.7-1,0.6c-1.3-0.2-2.4,0.4-3.1,1.5C60.2,191.1,60,191.5,59.8,191.8"/>
<path d="M59.7,201.8c0-0.2,0-0.4,0-0.6c0-2.2,0-4.3,0-6.5c0-0.3,0.1-0.6,0.3-0.9c0.5-0.8,1-1.6,1.6-2.4c0.6-0.9,1.8-1.2,2.7-0.7
	c1,0.6,1.4,1.8,0.8,2.8c-1.7,2.7-3.4,5.4-5.1,8.1C59.9,201.8,59.9,201.8,59.7,201.8"/>
<path fill="none" stroke="#000000" stroke-miterlimit="10" d="M64,163.3c19.2,2.3,33,19.7,30.7,38.9c-2.3,19.2-19.7,33-38.9,30.7
	c-19.2-2.3-33-19.7-30.7-38.9S44.8,161,64,163.3z"/>
</svg>
