<?xml version="1.0" encoding="utf-8"?>
<!-- Generator: Adobe Illustrator 18.0.0, SVG Export Plug-In . SVG Version: 6.00 Build 0)  -->
<!DOCTYPE svg PUBLIC "-//W3C//DTD SVG 1.1//EN" "http://www.w3.org/Graphics/SVG/1.1/DTD/svg11.dtd">
<svg version="1.1" id="Layer_1" xmlns="http://www.w3.org/2000/svg" xmlns:xlink="http://www.w3.org/1999/xlink" x="0px" y="0px"
	 viewBox="0 0 612 792" enable-background="new 0 0 612 792" xml:space="preserve">
<g>
	<line fill="none" stroke="#000000" stroke-miterlimit="10" x1="357.5" y1="396.8" x2="361.9" y2="394.7"/>
	<polyline fill="none" stroke="#000000" stroke-miterlimit="10" points="360.3,395.5 358.5,396.4 363.7,393.8 	"/>
	<line fill="none" stroke="#000000" stroke-miterlimit="10" x1="361.8" y1="394.7" x2="358.1" y2="396.6"/>
	<line fill="none" stroke="#000000" stroke-miterlimit="10" x1="357.5" y1="396.8" x2="364.5" y2="393.4"/>
	<line fill="none" stroke="#000000" stroke-miterlimit="10" x1="370.5" y1="390.6" x2="368.6" y2="391.5"/>
	<line fill="none" stroke="#000000" stroke-miterlimit="10" x1="361.6" y1="394.8" x2="358" y2="396.6"/>
	<line fill="none" stroke="#000000" stroke-miterlimit="10" x1="358.2" y1="396.5" x2="356.3" y2="397.5"/>
	<polyline fill="none" stroke="#000000" stroke-miterlimit="10" points="385.7,458.1 385.4,460.1 384.4,464 382.8,467.6 
		381.6,469.5 380.3,471.3 378.7,473.2 377.1,474.8 375.3,476.6 373.1,478.3 370.9,480 368.5,481.5 364.9,483.6 361,485.6 
		357.5,487.2 351.2,489.6 343.1,491.9 340.9,492.5 337.5,493.1 330.9,494.5 320.6,495.8 318.1,495.9 314,496.2 306.1,496.3 
		299.4,496.2 295.4,496.1 290.1,495.6 287.6,495.2 284.8,495.1 283.5,494.9 281,494.5 274.4,492.9 	"/>
	<line fill="none" stroke="#000000" stroke-miterlimit="10" x1="344.2" y1="403.2" x2="348.2" y2="401.3"/>
	<line fill="none" stroke="#000000" stroke-miterlimit="10" x1="346" y1="402.3" x2="344.2" y2="403.3"/>
	<polyline fill="none" stroke="#000000" stroke-miterlimit="10" points="348.2,401.3 344.8,403 348,401.4 	"/>
	<polyline fill="none" stroke="#000000" stroke-miterlimit="10" points="433.1,360.5 433.8,360.2 433.7,357.4 433.2,357.1 
		430.6,358.2 427.7,359.7 419.7,363.4 414.4,366.1 408.6,368.8 395,375.4 390.4,377.4 388,378.7 378.6,383.1 375.5,384.7 366.6,389 
		364.5,389.9 356.1,394 350.8,396.4 329.4,406.7 329.4,409.7 330,410 330.3,409.9 	"/>
	<polyline fill="none" stroke="#000000" stroke-miterlimit="10" points="274.5,406.5 272.7,405.6 274.5,406.5 	"/>
	<polyline fill="none" stroke="#000000" stroke-miterlimit="10" points="272.5,405.4 275.1,406.8 278.3,408.1 	"/>
	<line fill="none" stroke="#000000" stroke-miterlimit="10" x1="278.4" y1="408.2" x2="275.6" y2="407"/>
	<polyline fill="none" stroke="#000000" stroke-miterlimit="10" points="278.9,408.4 279.9,409.1 281.5,409.8 	"/>
	<polyline fill="none" stroke="#000000" stroke-miterlimit="10" points="278.4,408.2 280.1,409.2 281.9,410.1 	"/>
	<polyline fill="none" stroke="#000000" stroke-miterlimit="10" points="279.3,408.6 278.4,408.1 276.1,407.2 	"/>
	<polyline fill="none" stroke="#000000" stroke-miterlimit="10" points="281.9,410.1 280.3,409.3 278.4,408.1 276.3,407.3 	"/>
	<line fill="none" stroke="#000000" stroke-miterlimit="10" x1="271.5" y1="404.8" x2="274.5" y2="406.5"/>
	<polyline fill="none" stroke="#000000" stroke-miterlimit="10" points="273.4,405.9 269.3,403.7 267.3,402.9 	"/>
	<polyline fill="none" stroke="#000000" stroke-miterlimit="10" points="268,403.1 271.2,404.7 272.9,405.7 	"/>
	<line fill="none" stroke="#000000" stroke-miterlimit="10" x1="273.3" y1="405.9" x2="271.5" y2="404.8"/>
	<polyline fill="none" stroke="#000000" stroke-miterlimit="10" points="269.9,404 268.7,403.4 268,403.1 	"/>
	<polyline fill="none" stroke="#000000" stroke-miterlimit="10" points="267.4,402.9 268.5,403.3 270.2,404.3 269.1,403.6 
		266.9,402.7 	"/>
	<line fill="none" stroke="#000000" stroke-miterlimit="10" x1="243.7" y1="391.4" x2="243.9" y2="391.6"/>
	<line fill="none" stroke="#000000" stroke-miterlimit="10" x1="233" y1="386.3" x2="231.6" y2="385.7"/>
	<line fill="none" stroke="#000000" stroke-miterlimit="10" x1="233" y1="386.3" x2="231.6" y2="385.7"/>
	<polyline fill="none" stroke="#000000" stroke-miterlimit="10" points="227.3,383.8 228.4,384.4 230.4,385.2 	"/>
	<polyline fill="none" stroke="#000000" stroke-miterlimit="10" points="230.4,385.2 228.1,384.2 227.3,383.8 	"/>
	<polyline fill="none" stroke="#000000" stroke-miterlimit="10" points="230.4,385.2 228.1,384.2 227.5,383.9 	"/>
	<line fill="none" stroke="#000000" stroke-miterlimit="10" x1="187.4" y1="364.7" x2="190.4" y2="366"/>
	<line fill="none" stroke="#000000" stroke-miterlimit="10" x1="188.8" y1="365.3" x2="190.5" y2="366"/>
	<line fill="none" stroke="#000000" stroke-miterlimit="10" x1="190.1" y1="365.9" x2="190.5" y2="366"/>
	<polyline fill="none" stroke="#000000" stroke-miterlimit="10" points="230.8,469.7 229.5,467.7 228,464.6 227.3,462.7 
		226.8,460.1 226.6,458.1 	"/>
	<line fill="none" stroke="#000000" stroke-miterlimit="10" x1="190.1" y1="365.9" x2="186.7" y2="364.3"/>
	<line fill="none" stroke="#000000" stroke-miterlimit="10" x1="187.2" y1="364.6" x2="190.5" y2="366"/>
	<line fill="none" stroke="#000000" stroke-miterlimit="10" x1="190.5" y1="366" x2="187" y2="364.5"/>
	<line fill="none" stroke="#000000" stroke-miterlimit="10" x1="189.7" y1="365.7" x2="187" y2="364.5"/>
	<line fill="none" stroke="#000000" stroke-miterlimit="10" x1="186.8" y1="364.4" x2="187.7" y2="364.8"/>
	<line fill="none" stroke="#000000" stroke-miterlimit="10" x1="189.5" y1="365.6" x2="186.8" y2="364.4"/>
	<line fill="none" stroke="#000000" stroke-miterlimit="10" x1="189.5" y1="365.6" x2="187.8" y2="364.8"/>
	<polyline fill="none" stroke="#000000" stroke-miterlimit="10" points="282.2,410 282.7,409.7 282.8,406.7 280.2,405.7 
		276.8,404.1 269.8,400.5 267.8,399.7 263.7,397.3 261.4,396.6 260.2,396 250.3,390.9 246.2,389.3 244.9,388.7 243.1,387.7 
		240.5,386.7 236.1,384.2 233.5,383.1 227.6,380.3 226.5,379.6 225.2,379.1 222.9,378 221.1,377.3 219.3,376.3 217.7,375.8 
		215.7,374.8 214.6,374.1 213.4,373.5 209.9,371.9 208.3,371.3 204.5,369.1 203.3,368.5 201,367.8 199.8,367.2 197.8,366.3 
		196,365.2 190.5,362.7 186,360.4 180.3,357.9 179,357.1 178.4,357.3 178.5,358.8 178.4,360.3 178.6,360.5 	"/>
	<line fill="none" stroke="#000000" stroke-miterlimit="10" x1="203.2" y1="329.5" x2="201.3" y2="330.3"/>
	<line fill="none" stroke="#000000" stroke-miterlimit="10" x1="202.2" y1="329.9" x2="203.2" y2="329.5"/>
	<polyline fill="none" stroke="#000000" stroke-miterlimit="10" points="203.2,329.5 202.2,329.9 203.2,329.5 	"/>
	<line fill="none" stroke="#000000" stroke-miterlimit="10" x1="201.7" y1="330.1" x2="203.2" y2="329.5"/>
	<line fill="none" stroke="#000000" stroke-miterlimit="10" x1="201.9" y1="330" x2="203.2" y2="329.5"/>
	<line fill="none" stroke="#000000" stroke-miterlimit="10" x1="215.6" y1="324.1" x2="212.6" y2="325.5"/>
	<line fill="none" stroke="#000000" stroke-miterlimit="10" x1="216.3" y1="323.8" x2="212.4" y2="325.5"/>
	<line fill="none" stroke="#000000" stroke-miterlimit="10" x1="216.3" y1="323.8" x2="215.6" y2="324.1"/>
	<line fill="none" stroke="#000000" stroke-miterlimit="10" x1="215.7" y1="324.1" x2="212.4" y2="325.5"/>
	<line fill="none" stroke="#000000" stroke-miterlimit="10" x1="215.4" y1="324.2" x2="216.3" y2="323.8"/>
	<line fill="none" stroke="#000000" stroke-miterlimit="10" x1="212.6" y1="325.5" x2="216.3" y2="323.8"/>
	<polyline fill="none" stroke="#000000" stroke-miterlimit="10" points="419.3,334.9 422.2,336.1 427.9,337.8 431.3,339.5 
		431.9,339.3 431.8,336.5 430.5,336 427.9,334.6 423,332.8 421.6,332.4 415.9,329.4 409.3,326.8 404.9,324.7 403.8,324.4 
		399.2,322.3 398,321.7 395.6,320.9 393.4,319.8 390,318.1 383.7,315.8 378,313 375.6,312 373.2,310.9 370.7,310.1 368.4,309 
		367.1,308.6 363.9,306.8 360.2,305.5 355.6,303.5 351.3,301.8 349.1,300.5 345.1,298.9 342.5,298.1 339.6,296.5 336.3,295 
		332.1,293.5 328,291.7 327.5,291.8 327.4,294.7 328.6,295 330.3,295.3 331.5,295.9 333.3,296.4 336,297.6 	"/>
	<polyline fill="none" stroke="#000000" stroke-miterlimit="10" points="433.7,357.4 419.9,363.9 414.3,366.7 409.4,368.9 
		394.4,376.3 390.1,378.2 387.4,379.6 381.7,382.3 375.5,385.3 370.9,387.4 367.2,389.2 364,390.7 355.5,394.9 350.3,397.2 
		345.6,399.5 330,407 	"/>
	<polyline fill="none" stroke="#000000" stroke-miterlimit="10" points="418.1,367.8 425.5,364.2 417.9,367.9 	"/>
	<line fill="none" stroke="#000000" stroke-miterlimit="10" x1="428.2" y1="362.9" x2="431" y2="361.5"/>
	<line fill="none" stroke="#000000" stroke-miterlimit="10" x1="416.5" y1="368.6" x2="417.6" y2="368"/>
	<polyline fill="none" stroke="#000000" stroke-miterlimit="10" points="403.8,374.6 407.3,372.8 410.4,371.4 	"/>
	<line fill="none" stroke="#000000" stroke-miterlimit="10" x1="393.4" y1="379.6" x2="398.1" y2="377.4"/>
	<polyline fill="none" stroke="#000000" stroke-miterlimit="10" points="382.9,384.6 386.3,383 382.9,384.6 	"/>
	<line fill="none" stroke="#000000" stroke-miterlimit="10" x1="368.5" y1="391.5" x2="370.5" y2="390.6"/>
	<polyline fill="none" stroke="#000000" stroke-miterlimit="10" points="375.6,388.1 379.1,386.5 375.7,388.1 	"/>
	<polyline fill="none" stroke="#000000" stroke-miterlimit="10" points="329.4,406.7 330.1,407 330,410 330.3,409.9 	"/>
	<line fill="none" stroke="#000000" stroke-miterlimit="10" x1="282.1" y1="410.1" x2="282.2" y2="407"/>
	<polyline fill="none" stroke="#000000" stroke-miterlimit="10" points="282.8,406.7 282.2,407 280.9,406.5 275,403.8 273.4,402.8 
		270.9,401.7 269.2,400.8 267.2,400 264.2,398.2 260.8,396.8 257.5,395.2 256.3,394.6 254.3,393.4 251.8,392.3 250.9,391.7 
		244.7,389.2 242.4,388 239.9,387 236.6,385.1 235.4,384.5 232.9,383.5 231.7,382.9 222.3,378.2 221,377.7 219.9,377.1 217.4,376.2 
		216.2,375.6 214,374.4 211.7,373.3 208.2,371.8 205.1,370 202.7,368.8 200.4,368 199.2,367.5 197.2,366.5 195.4,365.5 189.9,363 
		188.2,362 180.9,358.7 178.4,357.3 	"/>
	<polyline fill="none" stroke="#000000" stroke-miterlimit="10" points="267.5,301.5 270.7,300.3 273.5,298.8 276.5,298.5 
		279.1,296.4 284.6,294.7 284.5,292 283.9,291.7 277.5,294.3 249.3,306.7 241.2,310.2 236.8,311.9 235.5,312.6 223.4,317.8 
		215.3,321.3 208.1,324.6 198.4,328.6 188.9,332.9 180.8,336.2 180.4,336.4 180.4,339.4 180.9,339.7 183.6,337.9 	"/>
	<polyline fill="none" stroke="#000000" stroke-miterlimit="10" points="226.3,451.3 225.6,453.6 225.3,455.5 225.1,459.4 
		225.2,461.4 225.2,462 225.8,464.4 227.7,470.2 228.1,470.9 229.4,472.7 233.2,477.8 234,478.6 235.9,480.3 241.5,484.2 244,485.7 
		246.7,487.1 248,488.1 250.4,489.3 255.2,491.3 256.9,492.2 259.4,493.1 261.6,493.6 263.7,494.3 265,494.6 268.3,495.8 
		277.2,497.5 279.5,498.2 282,498.6 284.8,498.8 292.7,499.7 296.8,499.8 304.6,500.3 310.1,500.2 314.3,499.9 320.7,499.7 
		323.4,499.4 330,498.5 337.6,497.1 341.3,496.3 343.9,495.7 349.8,493.9 357.4,491.2 364.2,488 366.9,486.6 369.2,485.2 
		371.8,483.5 374.1,481.8 378,478.4 379.7,476.7 381.5,474.5 382.9,472.7 384.7,469.5 386.5,464.5 386.9,462.5 387.2,459.8 
		387.2,457.2 386.5,453.5 385.8,451.3 	"/>
	<line fill="none" stroke="#000000" stroke-miterlimit="10" x1="377.1" y1="387.5" x2="375.6" y2="388.1"/>
	<line fill="none" stroke="#000000" stroke-miterlimit="10" x1="375.8" y1="388.1" x2="377.1" y2="387.5"/>
	<polyline fill="none" stroke="#000000" stroke-miterlimit="10" points="386.3,383 382.9,384.6 379.9,386.1 375.8,388.1 
		380.4,385.9 382.9,384.6 	"/>
	<polyline fill="none" stroke="#000000" stroke-miterlimit="10" points="386.3,383 382.9,384.6 386.2,383.1 	"/>
	<line fill="none" stroke="#000000" stroke-miterlimit="10" x1="398.1" y1="377.4" x2="391.3" y2="380.5"/>
	<line fill="none" stroke="#000000" stroke-miterlimit="10" x1="393.3" y1="379.6" x2="391.3" y2="380.5"/>
	<line fill="none" stroke="#000000" stroke-miterlimit="10" x1="382.9" y1="384.6" x2="389.4" y2="381.5"/>
	<line fill="none" stroke="#000000" stroke-miterlimit="10" x1="407" y1="373" x2="405" y2="374"/>
	<line fill="none" stroke="#000000" stroke-miterlimit="10" x1="398.2" y1="377.3" x2="401.2" y2="375.9"/>
	<polyline fill="none" stroke="#000000" stroke-miterlimit="10" points="404.4,374.3 407.2,372.9 405.8,373.6 	"/>
	<line fill="none" stroke="#000000" stroke-miterlimit="10" x1="400.2" y1="376.4" x2="398.2" y2="377.3"/>
	<polyline fill="none" stroke="#000000" stroke-miterlimit="10" points="409.9,371.7 407.6,372.7 403.4,374.8 	"/>
	<polyline fill="none" stroke="#000000" stroke-miterlimit="10" points="410.1,371.6 409.9,371.7 410,371.6 	"/>
	<line fill="none" stroke="#000000" stroke-miterlimit="10" x1="410.1" y1="371.6" x2="409.8" y2="371.7"/>
	<polyline fill="none" stroke="#000000" stroke-miterlimit="10" points="404.1,374.4 410.2,371.5 407.8,372.6 	"/>
	<line fill="none" stroke="#000000" stroke-miterlimit="10" x1="410.3" y1="371.5" x2="407" y2="373"/>
	<line fill="none" stroke="#000000" stroke-miterlimit="10" x1="407.2" y1="372.9" x2="400.3" y2="376.3"/>
	<line fill="none" stroke="#000000" stroke-miterlimit="10" x1="394.4" y1="379.1" x2="398.1" y2="377.4"/>
	<line fill="none" stroke="#000000" stroke-miterlimit="10" x1="419.4" y1="367.2" x2="418.1" y2="367.8"/>
	<line fill="none" stroke="#000000" stroke-miterlimit="10" x1="413.3" y1="370.1" x2="414.2" y2="369.6"/>
	<line fill="none" stroke="#000000" stroke-miterlimit="10" x1="419.6" y1="367" x2="417.9" y2="367.9"/>
	<line fill="none" stroke="#000000" stroke-miterlimit="10" x1="413" y1="370.3" x2="415.9" y2="368.9"/>
	<polyline fill="none" stroke="#000000" stroke-miterlimit="10" points="421.7,366 424.9,364.5 413.1,370.2 	"/>
	<line fill="none" stroke="#000000" stroke-miterlimit="10" x1="422.3" y1="365.7" x2="420.6" y2="366.5"/>
	<line fill="none" stroke="#000000" stroke-miterlimit="10" x1="419.6" y1="367" x2="422.5" y2="365.6"/>
	<line fill="none" stroke="#000000" stroke-miterlimit="10" x1="413.3" y1="370.1" x2="418.3" y2="367.7"/>
	<line fill="none" stroke="#000000" stroke-miterlimit="10" x1="430.6" y1="361.8" x2="427.6" y2="363.2"/>
	<line fill="none" stroke="#000000" stroke-miterlimit="10" x1="421.9" y1="365.9" x2="424.7" y2="364.6"/>
	<line fill="none" stroke="#000000" stroke-miterlimit="10" x1="433.1" y1="360.5" x2="433.3" y2="360.4"/>
	<polyline fill="none" stroke="#000000" stroke-miterlimit="10" points="425.1,364.4 422.3,365.7 425.3,364.3 	"/>
	<line fill="none" stroke="#000000" stroke-miterlimit="10" x1="425.1" y1="364.4" x2="422.1" y2="365.8"/>
	<line fill="none" stroke="#000000" stroke-miterlimit="10" x1="280.5" y1="296" x2="278.8" y2="296.7"/>
	<line fill="none" stroke="#000000" stroke-miterlimit="10" x1="272.6" y1="299.3" x2="274" y2="298.7"/>
	<line fill="none" stroke="#000000" stroke-miterlimit="10" x1="271.9" y1="299.6" x2="274" y2="298.7"/>
	<line fill="none" stroke="#000000" stroke-miterlimit="10" x1="273" y1="299.1" x2="274" y2="298.7"/>
	<line fill="none" stroke="#000000" stroke-miterlimit="10" x1="266.7" y1="302" x2="269.4" y2="300.8"/>
	<line fill="none" stroke="#000000" stroke-miterlimit="10" x1="264.5" y1="302.9" x2="269.4" y2="300.8"/>
	<line fill="none" stroke="#000000" stroke-miterlimit="10" x1="266.9" y1="301.9" x2="269.4" y2="300.8"/>
	<line fill="none" stroke="#000000" stroke-miterlimit="10" x1="274" y1="298.7" x2="271.9" y2="299.6"/>
	<line fill="none" stroke="#000000" stroke-miterlimit="10" x1="266.4" y1="302.1" x2="264.3" y2="302.9"/>
	<line fill="none" stroke="#000000" stroke-miterlimit="10" x1="266.9" y1="301.9" x2="269.4" y2="300.8"/>
	<line fill="none" stroke="#000000" stroke-miterlimit="10" x1="273" y1="299.1" x2="271.9" y2="299.6"/>
	<line fill="none" stroke="#000000" stroke-miterlimit="10" x1="273.5" y1="298.9" x2="271.9" y2="299.6"/>
	<line fill="none" stroke="#000000" stroke-miterlimit="10" x1="251.3" y1="308.6" x2="255.8" y2="306.7"/>
	<line fill="none" stroke="#000000" stroke-miterlimit="10" x1="253.6" y1="307.7" x2="251.3" y2="308.6"/>
	<polyline fill="none" stroke="#000000" stroke-miterlimit="10" points="237.3,315.4 240.7,313.5 247.7,310.3 251.1,308.6 
		253.9,307.5 255.8,306.7 	"/>
	<polyline fill="none" stroke="#000000" stroke-miterlimit="10" points="430.5,358.3 430.7,356.3 431.1,354.7 430.6,351.4 
		430.5,347.5 430.8,340.4 430.8,339.5 	"/>
	<polyline fill="none" stroke="#000000" stroke-miterlimit="10" points="385.7,458.1 385.6,455.1 385.7,453.8 385.8,450.1 
		385.9,449.1 	"/>
	<line fill="none" stroke="#000000" stroke-miterlimit="10" x1="386" y1="436.6" x2="386.1" y2="434.7"/>
	<line fill="none" stroke="#000000" stroke-miterlimit="10" x1="385.9" y1="435.9" x2="386" y2="434.8"/>
	<polyline fill="none" stroke="#000000" stroke-miterlimit="10" points="387.5,424.6 388,422.8 388.6,421.2 	"/>
	<line fill="none" stroke="#000000" stroke-miterlimit="10" x1="387.2" y1="426" x2="387.5" y2="424.5"/>
	<line fill="none" stroke="#000000" stroke-miterlimit="10" x1="223.7" y1="422.5" x2="224.6" y2="424.7"/>
	<polyline fill="none" stroke="#000000" stroke-miterlimit="10" points="181.5,339.8 181.5,348.8 181,354.8 181.2,355.6 
		181.7,358.5 	"/>
	<polyline fill="none" stroke="#000000" stroke-miterlimit="10" points="226.3,449.1 226.3,454 226.6,458.1 	"/>
	<line fill="none" stroke="#000000" stroke-miterlimit="10" x1="226.1" y1="434.6" x2="226.1" y2="437.6"/>
	<polyline fill="none" stroke="#000000" stroke-miterlimit="10" points="224,423.4 224.8,425.4 224.9,426.3 	"/>
	<polyline fill="none" stroke="#000000" stroke-miterlimit="10" points="385.5,436.2 387,432 387.5,430 387.6,428.2 387.3,425.3 	
		"/>
	<line fill="none" stroke="#000000" stroke-miterlimit="10" x1="385.5" y1="449.9" x2="386.3" y2="447.9"/>
	<line fill="none" stroke="#000000" stroke-miterlimit="10" x1="387.1" y1="427.4" x2="387.2" y2="425.9"/>
	<line fill="none" stroke="#000000" stroke-miterlimit="10" x1="385.7" y1="435.8" x2="385.9" y2="435.2"/>
	<polyline fill="none" stroke="#000000" stroke-miterlimit="10" points="388.3,421.5 390,418.6 390.9,416.7 391.5,415 391.8,413.1 
		392,411.4 	"/>
	<line fill="none" stroke="#000000" stroke-miterlimit="10" x1="388.3" y1="421.7" x2="389.2" y2="420"/>
	<line fill="none" stroke="#000000" stroke-miterlimit="10" x1="387.7" y1="423.1" x2="388.6" y2="421.1"/>
	<polyline fill="none" stroke="#000000" stroke-miterlimit="10" points="349.5,432.3 351.6,431.3 354.2,429.9 359.9,427.2 
		376.5,418.9 382.1,416.4 387.1,413.7 392.7,411.1 402.9,406 409.3,403 412.7,401.2 419.3,398.1 	"/>
	<line fill="none" stroke="#000000" stroke-miterlimit="10" x1="330.2" y1="440.8" x2="330.1" y2="441.8"/>
	<polyline fill="none" stroke="#000000" stroke-miterlimit="10" points="329,440.9 330.1,441.8 331.1,441.3 	"/>
	<polyline fill="none" stroke="#000000" stroke-miterlimit="10" points="193.1,398.3 197.4,400.5 199.4,401.3 201.8,402.5 
		205.1,403.9 207,405.1 209.1,406.1 211.3,407.4 218.5,410.4 224.8,413.9 228.7,415.4 231.7,417.2 234.8,418.4 235.9,419 
		238.1,420.3 241.7,422 245.1,423.8 253.3,427.6 255.8,429 256.9,429.4 264.3,433.1 	"/>
	<line fill="none" stroke="#000000" stroke-miterlimit="10" x1="226.1" y1="448.3" x2="226.5" y2="449.9"/>
	<polyline fill="none" stroke="#000000" stroke-miterlimit="10" points="224.8,425.4 224.6,426.3 224.6,428.3 224.7,430.3 
		225.1,432.2 225.8,434 226.4,435.4 226.9,436.8 	"/>
	<polyline fill="none" stroke="#000000" stroke-miterlimit="10" points="220.2,412.1 220.4,415.1 220.9,417.2 221.6,419.1 
		223.7,422.5 224.3,423.8 	"/>
	<line fill="none" stroke="#000000" stroke-miterlimit="10" x1="224.9" y1="425.9" x2="225" y2="427.3"/>
	<line fill="none" stroke="#000000" stroke-miterlimit="10" x1="219.9" y1="411.2" x2="220.3" y2="413.2"/>
	<line fill="none" stroke="#000000" stroke-miterlimit="10" x1="226.1" y1="436.4" x2="225.6" y2="437.8"/>
	<polyline fill="none" stroke="#000000" stroke-miterlimit="10" points="355.3,397.9 358,397.3 361.8,395.6 365.4,393.8 	"/>
	<line fill="none" stroke="#000000" stroke-miterlimit="10" x1="366.3" y1="392.1" x2="361.6" y2="395.6"/>
	<polyline fill="none" stroke="#000000" stroke-miterlimit="10" points="365.5,392.6 368.7,390.9 372.4,389.1 375.1,387.6 	"/>
	<polyline fill="none" stroke="#000000" stroke-miterlimit="10" points="348.2,401.3 351.9,400.3 354.9,398.8 	"/>
	<line fill="none" stroke="#000000" stroke-miterlimit="10" x1="352.7" y1="398.5" x2="348.2" y2="401.3"/>
	<polyline fill="none" stroke="#000000" stroke-miterlimit="10" points="351.9,399.1 355.3,397.9 356.5,396.8 	"/>
	<polyline fill="none" stroke="#000000" stroke-miterlimit="10" points="336.6,407.4 338.9,406.5 341.9,405.2 342.6,404.9 
		344.1,403.8 	"/>
	<polyline fill="none" stroke="#000000" stroke-miterlimit="10" points="333.3,408.8 337.1,407 339.8,404.9 	"/>
	<line fill="none" stroke="#000000" stroke-miterlimit="10" x1="333.7" y1="409.1" x2="336" y2="407.6"/>
	<polyline fill="none" stroke="#000000" stroke-miterlimit="10" points="333.8,407.4 337.1,407 334.3,407.2 	"/>
	<polyline fill="none" stroke="#000000" stroke-miterlimit="10" points="344.3,402.5 342.4,404.3 340.8,404.9 	"/>
	<polyline fill="none" stroke="#000000" stroke-miterlimit="10" points="344.1,403.8 342.4,404.3 339.7,406.2 	"/>
	<polyline fill="none" stroke="#000000" stroke-miterlimit="10" points="330.2,409.1 333.7,409.1 335.8,407.7 	"/>
	<line fill="none" stroke="#000000" stroke-miterlimit="10" x1="330.8" y1="408.9" x2="331" y2="410"/>
	<polyline fill="none" stroke="#000000" stroke-miterlimit="10" points="271.4,405.3 272.8,406.5 273.9,407.1 275.7,407.7 	"/>
	<polyline fill="none" stroke="#000000" stroke-miterlimit="10" points="276.1,406.4 274.5,406.5 272.8,406.5 	"/>
	<line fill="none" stroke="#000000" stroke-miterlimit="10" x1="279.1" y1="409.3" x2="280.4" y2="410"/>
	<polyline fill="none" stroke="#000000" stroke-miterlimit="10" points="271.5,404.8 272.8,406.5 269.7,403.7 	"/>
	<polyline fill="none" stroke="#000000" stroke-miterlimit="10" points="253.2,396.3 254.3,397 255.5,397.6 257.2,398.7 
		259.6,399.9 262.4,401.6 266.3,403 	"/>
	<polyline fill="none" stroke="#000000" stroke-miterlimit="10" points="264.9,401.5 263.6,400.6 266.3,402.4 	"/>
	<line fill="none" stroke="#000000" stroke-miterlimit="10" x1="266.3" y1="402.4" x2="263.1" y2="401.8"/>
	<polyline fill="none" stroke="#000000" stroke-miterlimit="10" points="269.8,403.1 268.6,402.8 266.3,402.4 	"/>
	<polyline fill="none" stroke="#000000" stroke-miterlimit="10" points="266.3,402.4 268.2,402.7 270,403.2 	"/>
	<line fill="none" stroke="#000000" stroke-miterlimit="10" x1="260.1" y1="400.3" x2="258.5" y2="398.2"/>
	<polyline fill="none" stroke="#000000" stroke-miterlimit="10" points="243.5,392.2 249,394.8 249.9,395.4 253.2,396.3 	"/>
	<line fill="none" stroke="#000000" stroke-miterlimit="10" x1="250.4" y1="394.1" x2="253.2" y2="396.3"/>
	<polyline fill="none" stroke="#000000" stroke-miterlimit="10" points="251.9,395 250.4,394.1 249,393.1 	"/>
	<polyline fill="none" stroke="#000000" stroke-miterlimit="10" points="257.4,397.1 253.2,396.3 251.9,395 	"/>
	<line fill="none" stroke="#000000" stroke-miterlimit="10" x1="246.6" y1="393.7" x2="244.7" y2="391.8"/>
	<polyline fill="none" stroke="#000000" stroke-miterlimit="10" points="230.4,385.9 231.6,386.4 235.8,388.8 239.7,390.2 	"/>
	<polyline fill="none" stroke="#000000" stroke-miterlimit="10" points="236.2,387.5 237.3,388.3 239.4,389.6 	"/>
	<line fill="none" stroke="#000000" stroke-miterlimit="10" x1="239.4" y1="389.6" x2="235.8" y2="388.8"/>
	<line fill="none" stroke="#000000" stroke-miterlimit="10" x1="237.5" y1="388.4" x2="234.3" y2="386.2"/>
	<polyline fill="none" stroke="#000000" stroke-miterlimit="10" points="243.8,390.6 241.2,389.9 239.4,389.6 241.3,390.6 
		243.5,392.2 239.7,390.2 	"/>
	<polyline fill="none" stroke="#000000" stroke-miterlimit="10" points="239.4,389.6 241.4,390 243.6,390.5 	"/>
	<polyline fill="none" stroke="#000000" stroke-miterlimit="10" points="232.7,387.1 231.8,386.1 231,385.5 	"/>
	<polyline fill="none" stroke="#000000" stroke-miterlimit="10" points="225.8,382.3 224.6,381.6 222.4,380.5 218.4,379.7 	"/>
	<polyline fill="none" stroke="#000000" stroke-miterlimit="10" points="222.2,382.1 225.2,383.2 229.4,385.5 	"/>
	<polyline fill="none" stroke="#000000" stroke-miterlimit="10" points="213.9,377.4 214.7,377.8 215.8,378.6 217.2,379.5 
		221.6,381.7 	"/>
	<polyline fill="none" stroke="#000000" stroke-miterlimit="10" points="208.6,375.4 209.9,375.9 211.4,376.5 212.4,377.3 
		215.1,378.9 216.4,379.3 218.4,379.7 222.1,382.1 	"/>
	<line fill="none" stroke="#000000" stroke-miterlimit="10" x1="218.4" y1="379.7" x2="216.4" y2="378"/>
	<polyline fill="none" stroke="#000000" stroke-miterlimit="10" points="402.9,327.7 400.4,326.7 396.1,324.7 	"/>
	<line fill="none" stroke="#000000" stroke-miterlimit="10" x1="211.8" y1="375.8" x2="208.4" y2="374"/>
	<line fill="none" stroke="#000000" stroke-miterlimit="10" x1="208.6" y1="374.1" x2="204.8" y2="373.5"/>
	<line fill="none" stroke="#000000" stroke-miterlimit="10" x1="204.7" y1="373.9" x2="207.7" y2="375.1"/>
	<polyline fill="none" stroke="#000000" stroke-miterlimit="10" points="198.2,370.3 200.6,371.6 204.8,373.5 208.4,375.5 	"/>
	<line fill="none" stroke="#000000" stroke-miterlimit="10" x1="211.4" y1="376.5" x2="215.1" y2="377.5"/>
	<polyline fill="none" stroke="#000000" stroke-miterlimit="10" points="216.4,378 215.1,377.5 214.1,377.2 	"/>
	<polyline fill="none" stroke="#000000" stroke-miterlimit="10" points="328.5,295 328.4,298.1 328.5,302 328.4,305.3 328,308.2 
		327.6,309.9 328.1,312.9 328.4,318.9 328.1,322.2 327.8,324.3 325.5,325.6 321.6,327.5 320.2,328.1 316.8,329.2 311.5,332.3 
		308.3,333.9 306.2,335.1 303.1,333.5 302,332.8 296.5,330.1 295.4,329.3 292.9,328.4 290.6,327.4 286.7,325.5 285.8,325 
		284.5,324.1 	"/>
	<polyline fill="none" stroke="#000000" stroke-miterlimit="10" points="284.4,324 284.1,322.1 283.8,318 284.1,312.9 284.5,309.7 
		284.3,309 283.9,305.5 283.8,301.8 283.3,295.1 	"/>
	<line fill="none" stroke="#000000" stroke-miterlimit="10" x1="196.5" y1="368.4" x2="195.7" y2="367.9"/>
	<polyline fill="none" stroke="#000000" stroke-miterlimit="10" points="198.8,369.6 197.5,369 195.8,368 192.3,367.5 	"/>
	<polyline fill="none" stroke="#000000" stroke-miterlimit="10" points="195.6,369.4 196.8,370 198.1,370.3 202.2,370.8 	"/>
	<polyline fill="none" stroke="#000000" stroke-miterlimit="10" points="191.1,367 192.1,367.7 195.1,369.2 	"/>
	<polyline fill="none" stroke="#000000" stroke-miterlimit="10" points="180.5,362 181,362.5 183.6,363.4 186.6,365.2 189.5,366.5 
		192.3,367.5 195.6,369.5 	"/>
	<polyline fill="none" stroke="#000000" stroke-miterlimit="10" points="178.6,360.5 178.3,360.8 179.2,361.4 181.1,362.3 
		183.9,363.3 	"/>
	<line fill="none" stroke="#000000" stroke-miterlimit="10" x1="186.6" y1="365.2" x2="183.9" y2="363.3"/>
	<polyline fill="none" stroke="#000000" stroke-miterlimit="10" points="178.3,360.8 181.1,362.3 179.8,360.5 	"/>
	<polyline fill="none" stroke="#000000" stroke-miterlimit="10" points="185.1,363.6 183.9,363.3 187.4,363.8 	"/>
	<polyline fill="none" stroke="#000000" stroke-miterlimit="10" points="184.9,337.5 184.5,338 187.1,337.3 189.9,336 192.8,334.9 	
		"/>
	<polyline fill="none" stroke="#000000" stroke-miterlimit="10" points="186.6,336.6 189.9,336 186.4,336.8 	"/>
	<line fill="none" stroke="#000000" stroke-miterlimit="10" x1="183.9" y1="338.1" x2="184.9" y2="337.5"/>
	<line fill="none" stroke="#000000" stroke-miterlimit="10" x1="184.5" y1="338" x2="187.6" y2="337.1"/>
	<polyline fill="none" stroke="#000000" stroke-miterlimit="10" points="184.3,338.5 186.8,337.5 187.8,336.9 	"/>
	<polyline fill="none" stroke="#000000" stroke-miterlimit="10" points="183.9,338.1 184.5,338 182,339.3 	"/>
	<polyline fill="none" stroke="#000000" stroke-miterlimit="10" points="181.2,339.5 181.4,339.8 182,339.4 	"/>
	<line fill="none" stroke="#000000" stroke-miterlimit="10" x1="186.6" y1="336.6" x2="184" y2="338"/>
	<line fill="none" stroke="#000000" stroke-miterlimit="10" x1="189.5" y1="335.2" x2="183.6" y2="337.9"/>
	<polyline fill="none" stroke="#000000" stroke-miterlimit="10" points="209,327.9 205.3,329.4 199.4,332.1 	"/>
	<polyline fill="none" stroke="#000000" stroke-miterlimit="10" points="199.2,332.2 199.4,332.1 196.4,333 199.2,332.2 	"/>
	<polyline fill="none" stroke="#000000" stroke-miterlimit="10" points="197.6,332.6 198.9,331.9 202.1,329.8 205.6,328.7 
		208.8,327.5 212.5,325.5 212.1,325.8 	"/>
	<line fill="none" stroke="#000000" stroke-miterlimit="10" x1="219.7" y1="322.9" x2="215.6" y2="324.9"/>
	<polyline fill="none" stroke="#000000" stroke-miterlimit="10" points="212.1,325.8 216,324.8 219.7,322.9 	"/>
	<polyline fill="none" stroke="#000000" stroke-miterlimit="10" points="212.2,325.5 215.8,323.9 218.2,323.6 	"/>
	<polyline fill="none" stroke="#000000" stroke-miterlimit="10" points="219.6,323.2 223.2,321.3 226.4,320.3 	"/>
	<polyline fill="none" stroke="#000000" stroke-miterlimit="10" points="224.5,320.5 226.4,320.3 225.1,320.7 223.5,321 	"/>
	<line fill="none" stroke="#000000" stroke-miterlimit="10" x1="230.1" y1="318.6" x2="227.3" y2="318.9"/>
	<polyline fill="none" stroke="#000000" stroke-miterlimit="10" points="228.6,318.5 230.2,318.3 233.7,316.8 	"/>
	<line fill="none" stroke="#000000" stroke-miterlimit="10" x1="223.1" y1="321.1" x2="219.6" y2="323.2"/>
	<polyline fill="none" stroke="#000000" stroke-miterlimit="10" points="223,321.3 226.3,319.3 233.7,316 	"/>
	<polyline fill="none" stroke="#000000" stroke-miterlimit="10" points="369.6,312.6 368.2,312.7 366.9,312.2 364.9,311.1 	"/>
	<polyline fill="none" stroke="#000000" stroke-miterlimit="10" points="370.2,313.3 371.6,314 375.2,314.6 376.4,315.1 
		377.5,315.8 378.6,316.3 380.9,317.8 	"/>
	<polyline fill="none" stroke="#000000" stroke-miterlimit="10" points="431.3,336.7 430,336.3 427.3,334.8 421.1,332.7 
		419.5,331.7 416.5,330.2 414.1,329.1 408.7,327.1 406.6,326.1 405.6,325.5 403.2,324.7 397.4,322 395.1,321.2 389.4,318.3 
		383.1,316 377.4,313.2 372.7,311.1 370.1,310.3 367.8,309.3 363.3,307 359.7,305.8 355.1,303.7 351.7,302.3 349.7,301.4 346.5,300 
		341.9,298.3 337.4,296 335.8,295.3 332.8,294.3 327.5,291.8 	"/>
	<line fill="none" stroke="#000000" stroke-miterlimit="10" x1="389.5" y1="320.8" x2="392.9" y2="322.4"/>
	<polyline fill="none" stroke="#000000" stroke-miterlimit="10" points="403.3,327.1 404.9,327.7 406.7,328.5 	"/>
	<polyline fill="none" stroke="#000000" stroke-miterlimit="10" points="411.6,331.2 413.3,331.4 415,332.2 416.5,332.8 417,333.1 
		419.3,334.9 418.2,334.2 416,333.1 413.6,332.4 	"/>
	<polyline fill="none" stroke="#000000" stroke-miterlimit="10" points="431.3,339.5 431.3,336.7 431.8,336.5 	"/>
	<line fill="none" stroke="#000000" stroke-miterlimit="10" x1="422.5" y1="335.5" x2="425.6" y2="336.6"/>
	<line fill="none" stroke="#000000" stroke-miterlimit="10" x1="181" y1="336.6" x2="180.9" y2="339.7"/>
	<polyline fill="none" stroke="#000000" stroke-miterlimit="10" points="284.5,292 275.3,295.7 265,300.4 260,302.5 247.6,307.9 
		237.4,312.2 224,318.1 220.6,319.5 218,320.7 214.7,322 207.5,325.4 203.1,327.1 197.8,329.4 193.2,331.5 183.7,335.6 181,336.6 
		180.4,336.4 	"/>
	<line fill="none" stroke="#000000" stroke-miterlimit="10" x1="233.7" y1="316.5" x2="237.2" y2="314.5"/>
	<polyline fill="none" stroke="#000000" stroke-miterlimit="10" points="254.4,307.2 257.7,306.1 261.1,305.2 257.6,306.8 	"/>
	<polyline fill="none" stroke="#000000" stroke-miterlimit="10" points="261.4,304.4 264.4,302.8 266.9,301.9 266.7,302 	"/>
	<polyline fill="none" stroke="#000000" stroke-miterlimit="10" points="343.5,302 344.6,302.5 346.5,302.8 	"/>
	<polyline fill="none" stroke="#000000" stroke-miterlimit="10" points="356.7,307.5 357.7,308 361,308.7 364.6,310.1 	"/>
	<line fill="none" stroke="#000000" stroke-miterlimit="10" x1="371.7" y1="390.8" x2="372.1" y2="390.7"/>
	<polyline fill="none" stroke="#000000" stroke-miterlimit="10" points="375.6,388.9 379.3,387.2 381.7,385.9 	"/>
	<line fill="none" stroke="#000000" stroke-miterlimit="10" x1="386.1" y1="383.6" x2="390.1" y2="382"/>
	<line fill="none" stroke="#000000" stroke-miterlimit="10" x1="390.1" y1="382" x2="391.6" y2="380.5"/>
	<line fill="none" stroke="#000000" stroke-miterlimit="10" x1="397" y1="377.6" x2="394.7" y2="378.3"/>
	<line fill="none" stroke="#000000" stroke-miterlimit="10" x1="386.4" y1="382.4" x2="384.6" y2="383.8"/>
	<polyline fill="none" stroke="#000000" stroke-miterlimit="10" points="400,377 403.7,375.6 403.9,375.4 	"/>
	<line fill="none" stroke="#000000" stroke-miterlimit="10" x1="397" y1="377.6" x2="398.9" y2="376.3"/>
	<polyline fill="none" stroke="#000000" stroke-miterlimit="10" points="417.6,368.1 419.6,368 422.6,366.5 428,363.7 	"/>
	<line fill="none" stroke="#000000" stroke-miterlimit="10" x1="410.5" y1="371" x2="413.1" y2="369.5"/>
	<polyline fill="none" stroke="#000000" stroke-miterlimit="10" points="355.6,306.8 354.7,306.8 356.7,307.5 	"/>
	<polyline fill="none" stroke="#000000" stroke-miterlimit="10" points="352.6,305.7 351.5,305.3 353,306 354.7,306.8 	"/>
	<polyline fill="none" stroke="#000000" stroke-miterlimit="10" points="344.7,301.8 345.8,302.5 347.9,303.5 349.7,303.8 
		351,304.3 352.2,305 	"/>
	<line fill="none" stroke="#000000" stroke-miterlimit="10" x1="425.7" y1="364.9" x2="427.7" y2="362.5"/>
	<line fill="none" stroke="#000000" stroke-miterlimit="10" x1="433.9" y1="360.8" x2="430.5" y2="361.9"/>
	<line fill="none" stroke="#000000" stroke-miterlimit="10" x1="430.6" y1="362.4" x2="433.9" y2="360.8"/>
	<polyline fill="none" stroke="#000000" stroke-miterlimit="10" points="433.1,360.5 433.9,360.8 433.4,360.4 	"/>
	<polyline fill="none" stroke="#000000" stroke-miterlimit="10" points="352.9,305.2 351.3,304.9 350,303.9 	"/>
	<polyline fill="none" stroke="#000000" stroke-miterlimit="10" points="342.3,301.4 342.2,301.4 343.5,302 	"/>
	<line fill="none" stroke="#000000" stroke-miterlimit="10" x1="430.2" y1="339.1" x2="431.1" y2="339.6"/>
	<polyline fill="none" stroke="#000000" stroke-miterlimit="10" points="430.4,339.1 430.2,339.1 428.2,337.9 	"/>
	<polyline fill="none" stroke="#000000" stroke-miterlimit="10" points="426.7,337.4 427.4,338 430.2,339.1 430.3,340.4 430,344.9 
		429.9,347.7 430.1,351.6 430.4,354 430.6,354.9 430.2,356.6 429.9,358.6 	"/>
	<polyline fill="none" stroke="#000000" stroke-miterlimit="10" points="416.5,333.3 415.8,333.3 418.9,334.4 	"/>
	<polyline fill="none" stroke="#000000" stroke-miterlimit="10" points="430.8,339.5 431.1,339.6 431.6,339.5 	"/>
	<polyline fill="none" stroke="#000000" stroke-miterlimit="10" points="333.9,297.3 335.2,297.8 336.5,298.5 	"/>
	<polyline fill="none" stroke="#000000" stroke-miterlimit="10" points="329.3,295.1 331.1,296.3 333.9,297.3 332.8,296.3 	"/>
	<line fill="none" stroke="#000000" stroke-miterlimit="10" x1="336" y1="298.4" x2="338.5" y2="299.2"/>
	<polyline fill="none" stroke="#000000" stroke-miterlimit="10" points="417,333.1 416,333.1 413.5,332.1 409.4,330.1 	"/>
	<line fill="none" stroke="#000000" stroke-miterlimit="10" x1="409.3" y1="330.6" x2="415.8" y2="333.3"/>
	<polyline fill="none" stroke="#000000" stroke-miterlimit="10" points="406.2,328.9 408.6,329.9 409.8,330.2 	"/>
	<polyline fill="none" stroke="#000000" stroke-miterlimit="10" points="403.1,327.7 404.7,328.3 408.8,330.4 	"/>
	<line fill="none" stroke="#000000" stroke-miterlimit="10" x1="274.8" y1="299.1" x2="276.4" y2="298.5"/>
	<polyline fill="none" stroke="#000000" stroke-miterlimit="10" points="272.6,299.3 276,298.7 276.1,298.5 	"/>
	<line fill="none" stroke="#000000" stroke-miterlimit="10" x1="283.3" y1="295.5" x2="280.6" y2="296.7"/>
	<polyline fill="none" stroke="#000000" stroke-miterlimit="10" points="280.5,296.8 283.3,295.6 283.1,295.2 	"/>
	<polyline fill="none" stroke="#000000" stroke-miterlimit="10" points="280.3,296.1 283.3,295.5 283.1,295.2 	"/>
	<polyline fill="none" stroke="#000000" stroke-miterlimit="10" points="403.1,327.7 400.5,326.6 396,324.3 	"/>
	<polyline fill="none" stroke="#000000" stroke-miterlimit="10" points="403.2,327.7 402.9,327.7 404.7,328.3 	"/>
	<polyline fill="none" stroke="#000000" stroke-miterlimit="10" points="391.4,322.5 392.6,323.3 393.6,323.6 396,324.3 
		395.9,324.1 	"/>
	<polyline fill="none" stroke="#000000" stroke-miterlimit="10" points="389.4,321.7 390.7,322.1 393.6,323.6 396.5,324.9 	"/>
	<polyline fill="none" stroke="#000000" stroke-miterlimit="10" points="266.6,302.7 270.2,301.2 270.8,300.9 	"/>
	<line fill="none" stroke="#000000" stroke-miterlimit="10" x1="272.6" y1="299.3" x2="269.7" y2="301.4"/>
	<polyline fill="none" stroke="#000000" stroke-miterlimit="10" points="264,303 266.8,302.8 272.9,300 	"/>
	<line fill="none" stroke="#000000" stroke-miterlimit="10" x1="260.6" y1="305.4" x2="260.8" y2="305.3"/>
	<polyline fill="none" stroke="#000000" stroke-miterlimit="10" points="392.7,323.1 390.5,321.8 389.2,321.2 	"/>
	<polyline fill="none" stroke="#000000" stroke-miterlimit="10" points="389.1,321.2 387.9,320.6 383.9,319.2 382,318.2 	"/>
	<line fill="none" stroke="#000000" stroke-miterlimit="10" x1="385.7" y1="319.9" x2="384.4" y2="319.3"/>
	<polyline fill="none" stroke="#000000" stroke-miterlimit="10" points="390.2,321.3 389.1,321.2 387.9,320.7 384.4,319.6 
		382,318.6 	"/>
	<line fill="none" stroke="#000000" stroke-miterlimit="10" x1="381.5" y1="318" x2="382" y2="318.2"/>
	<line fill="none" stroke="#000000" stroke-miterlimit="10" x1="378.6" y1="317" x2="382" y2="318.6"/>
	<polyline fill="none" stroke="#000000" stroke-miterlimit="10" points="254.1,308.3 257.3,306.9 258.7,305.9 	"/>
	<polyline fill="none" stroke="#000000" stroke-miterlimit="10" points="247.3,311.2 252.3,309 254.1,308.3 252.4,308.4 
		250.8,308.7 	"/>
	<polyline fill="none" stroke="#000000" stroke-miterlimit="10" points="247.4,311.2 244.1,312.2 240.4,314.2 	"/>
	<polyline fill="none" stroke="#000000" stroke-miterlimit="10" points="181.8,339.1 182,339.3 182,343.6 182.1,346.4 182,350 
		181.5,355.1 182.3,358.8 	"/>
	<polyline fill="none" stroke="#000000" stroke-miterlimit="10" points="306.2,335.1 307.3,335.8 310.6,337.5 311.8,338.3 
		322.6,343.5 328.9,346.2 330.8,347.2 332.1,347.7 335.3,349.2 336.6,349.7 342,352.2 344.2,353.1 346.5,354.4 350.9,356.4 
		353.5,357.4 355.7,358.5 361.5,361 363.8,362.2 367.4,363.7 374.2,366.8 376.6,367.6 378.5,368.7 380.9,369.8 382.9,370.9 
		385.1,371.6 389.7,373.4 394.2,375.8 	"/>
	<polyline fill="none" stroke="#000000" stroke-miterlimit="10" points="327.8,324.3 330.5,325.4 332.8,326.6 336.9,328.6 
		339.9,329.6 342.8,331 346,332 350.2,334.1 352,335.1 353.3,335.6 356.4,337.1 358.6,337.9 363.3,339.9 365.3,341 369,342.4 
		371.1,343.5 377.1,346.1 380.5,347.8 384.2,349.2 389.8,352.1 391.1,352.5 396.9,355.1 399.2,355.9 404.9,358.7 409.4,360.3 
		411.7,361.5 413.8,362.3 418,364.3 	"/>
	<polyline fill="none" stroke="#000000" stroke-miterlimit="10" points="217.7,375.8 245.1,363.5 251.7,360.7 273.8,350.6 
		279.5,348 283.7,346.2 295.9,340.5 301.4,337.8 303.8,336.4 	"/>
	<polyline fill="none" stroke="#000000" stroke-miterlimit="10" points="194.1,364.3 207.3,358.5 209.6,357.3 215.3,354.9 
		218.9,353.3 222.2,351.9 229.5,348.5 238.6,344.7 247,340.8 257.9,336.1 260.5,334.9 265.5,332.7 284.4,324.2 	"/>
	<line fill="none" stroke="#000000" stroke-miterlimit="10" x1="330.3" y1="409.9" x2="330.5" y2="410.1"/>
	<polyline fill="none" stroke="#000000" stroke-miterlimit="10" points="329.6,441.1 330.1,441.8 329.7,440.7 	"/>
	<polyline fill="none" stroke="#000000" stroke-miterlimit="10" points="431.1,339.4 431.1,339.6 431,339.3 	"/>
	<polyline fill="none" stroke="#000000" stroke-miterlimit="10" points="230.8,460 231.1,463.2 231.2,466.8 230.8,469.3 
		230.3,471.2 235.8,476.5 242.5,481.5 245.2,482.9 252,486.3 257,488.3 258.3,488.7 260.2,489.6 261.5,489.9 263.5,490.8 
		266.2,491.3 268.3,492 274.4,493.4 274.5,492.4 274.5,487.7 274.7,483.6 274.3,480 274,478.5 271.6,477.6 269.3,477 263.3,475.6 	
		"/>
	<polyline fill="none" stroke="#000000" stroke-miterlimit="10" points="250.1,470.4 243.8,467.1 238.6,463.7 	"/>
	<polyline fill="none" stroke="#000000" stroke-miterlimit="10" points="230.8,457.1 229.9,456.3 230.3,457.3 	"/>
	<polyline fill="none" stroke="#000000" stroke-miterlimit="10" points="434.5,360.6 430,363 412.7,371.6 412.6,374.3 412.7,380.6 
		412.5,382.7 412.4,386.5 413.2,387.5 415.3,390.9 419.9,399.3 420.5,400.2 420.7,400.3 430.6,394.6 433.7,393 433.8,385.7 
		434,382.3 434,379.3 434.4,375 434.6,372.1 434.5,369.7 434.9,361.2 434.3,356.4 434,352.1 434,350.4 433.3,343.3 433.2,340.2 
		433.1,338.8 432.8,337.3 431.9,336.9 	"/>
	<polyline fill="none" stroke="#000000" stroke-miterlimit="10" points="434.5,360.6 434.1,357.8 433.8,355 433.5,349 433.3,347.5 
		432.9,343.2 432.9,340.1 432.5,337.4 431.9,337.1 	"/>
	<line fill="none" stroke="#000000" stroke-miterlimit="10" x1="432" y1="355.2" x2="432" y2="357.6"/>
	<polyline fill="none" stroke="#000000" stroke-miterlimit="10" points="331,440.5 333.8,443.4 348.4,435.6 350.4,430.1 
		354.4,420.3 355.3,417.5 357.3,412.5 357.2,398.8 357,398.7 344.5,405 333.8,410 328.1,410.1 320.5,409.9 317.6,410.2 315.6,410.2 
		312.4,410 303.7,410 301.2,409.9 299,410 293.7,410 290.2,410.2 284.5,409.9 281.9,410.1 280.3,410 278.1,408.8 275.5,407.7 
		274.2,407.3 268.2,404.2 264.3,402.7 262,401.6 258.8,399.8 256.5,398.8 256.2,398.9 256.4,402.3 256.3,407 256.4,414.2 
		256.8,415.5 258.4,418.9 258.7,419.9 260.1,422.8 264.3,433.1 265.3,435.1 265.9,436.8 267.1,437.4 270.9,438.8 272.1,439.3 
		273.2,440 276.7,441.7 279.3,442.6 280.8,443.3 283.5,440.6 	"/>
	<polyline fill="none" stroke="#000000" stroke-miterlimit="10" points="180.5,337.8 179.5,338.2 179.2,339.8 178.8,345.3 
		178.1,351.3 177.8,355.5 177.1,361.6 177.4,364.6 177.4,367.4 177.6,375.4 177.6,383.8 177.8,388.2 177.8,394.1 180.3,395 
		183.6,396.8 186.1,397.5 188.5,398.5 191.7,400.3 192,400.2 200.3,386 200.2,379.3 200,372.1 196.4,370.7 188.4,366.8 182.9,364.3 
		182.1,363.8 177.5,361.5 	"/>
	<polyline fill="none" stroke="#000000" stroke-miterlimit="10" points="180.4,337.9 179.8,338.3 179.6,339.8 179.2,343.9 
		179.1,346.6 178.4,351.3 178.1,355.4 177.5,361.5 	"/>
	<polyline fill="none" stroke="#000000" stroke-miterlimit="10" points="327.5,293.8 316.2,293.6 314.3,293.8 309.9,293.8 
		300.9,293.6 297.6,293.8 288.6,293.6 284.6,293.7 	"/>
	<polyline fill="none" stroke="#000000" stroke-miterlimit="10" points="413,371.7 412.8,373.1 413,379.4 412.8,382.8 412.7,386.6 
		413.5,387.6 415.5,391 420.7,400.3 	"/>
	<polyline fill="none" stroke="#000000" stroke-miterlimit="10" points="434.9,360.6 430,363.3 424.9,365.7 417.1,369.7 413,371.7 
		412.7,371.6 	"/>
	<polyline fill="none" stroke="#000000" stroke-miterlimit="10" points="357.2,398.8 344.7,405.1 333.9,410.2 328,410.3 
		320.5,410.1 317.6,410.3 312.4,410.2 303.7,410.2 301.2,410.1 299,410.2 293.7,410.1 290.2,410.3 284.5,410.1 281.7,410.2 
		280.2,410.2 277.9,408.9 274,407.4 271.6,406.1 268,404.3 264.1,402.8 261.8,401.8 258.6,399.9 256.2,398.9 	"/>
	<polyline fill="none" stroke="#000000" stroke-miterlimit="10" points="288.9,440.6 290.3,440.5 295.1,440.8 299.1,440.5 
		303,440.6 306.3,440.8 308.8,440.7 313.7,440.8 326.7,440.7 	"/>
	<line fill="none" stroke="#000000" stroke-miterlimit="10" x1="325.1" y1="440.7" x2="329" y2="440.9"/>
	<polyline fill="none" stroke="#000000" stroke-miterlimit="10" points="282.8,441.3 286,440.8 289.6,440.5 	"/>
	<polyline fill="none" stroke="#000000" stroke-miterlimit="10" points="333.8,443.4 333.9,439.9 333.9,433.3 	"/>
	<polyline fill="none" stroke="#000000" stroke-miterlimit="10" points="280.8,443.3 280.4,439.2 280.7,433.4 	"/>
	<polyline fill="none" stroke="#000000" stroke-miterlimit="10" points="199.7,372.2 196.2,370.8 188.3,367 183.9,365 177.1,361.6 	
		"/>
	<polyline fill="none" stroke="#000000" stroke-miterlimit="10" points="191.7,400.3 200,386.2 200,379.4 199.8,376.6 199.8,373.9 
		199.7,372.3 200,372.1 	"/>
	<polyline fill="none" stroke="#000000" stroke-miterlimit="10" points="327.5,293.7 316.2,293.5 314.3,293.6 309.9,293.6 
		300.9,293.4 297.6,293.7 288.6,293.5 284.6,293.6 	"/>
	<polyline fill="none" stroke="#000000" stroke-miterlimit="10" points="371.7,453 372.3,453.4 376.6,455.2 381.9,458 385.3,459.4 
		373.8,465.2 371.5,463.9 365.4,461.2 361.1,459.1 	"/>
	<polyline fill="none" stroke="#000000" stroke-miterlimit="10" points="239.9,452.5 231.9,456.5 228.1,458.3 231.6,460.4 
		234.2,461.4 236.5,462.7 239.4,464.1 250.2,458.8 	"/>
	<polyline fill="none" stroke="#000000" stroke-miterlimit="10" points="233.4,445 218.4,451.9 215.5,453.5 214.3,452.9 
		212.2,451.5 208.5,449.8 204.5,447.6 209.2,445.5 221.7,439.6 226.9,437.3 	"/>
	<polyline fill="none" stroke="#000000" stroke-miterlimit="10" points="337.2,395.9 335.5,396.8 323.4,402.7 318.2,405 	"/>
	<polyline fill="none" stroke="#000000" stroke-miterlimit="10" points="307.3,399.6 311.6,397.7 322,392.6 	"/>
	<polyline fill="none" stroke="#000000" stroke-miterlimit="10" points="283.5,410 292.6,405.8 295.6,404.6 	"/>
	<polyline fill="none" stroke="#000000" stroke-miterlimit="10" points="279.5,467.7 277.7,468.4 272.7,471 266.6,473.8 
		261.2,476.6 257.9,474.6 255.5,473.4 252.9,472.4 251.7,471.8 249.8,470.6 263.7,463.9 	"/>
	<polyline fill="none" stroke="#000000" stroke-miterlimit="10" points="402.9,406 404,406.4 391.8,412.6 	"/>
	<polyline fill="none" stroke="#000000" stroke-miterlimit="10" points="379.2,444.3 383.4,446.6 385.2,447.3 387.5,448.5 
		391.6,450.3 393.7,451.8 395.3,452.5 406.7,446.7 399.1,443.1 395.4,441.4 392,439.5 388.3,437.9 385,436 	"/>
	<polyline fill="none" stroke="#000000" stroke-miterlimit="10" points="276.3,395.7 282.2,398.2 285.6,400.1 290.4,402.4 
		294.2,403.9 298.4,406 299.5,406.7 306.3,410 	"/>
	<polyline fill="none" stroke="#000000" stroke-miterlimit="10" points="328.1,410.1 325.9,408.9 324.6,408.4 320,405.8 318.2,405 
		317.1,404.4 313.4,402.7 309.8,401 307.3,399.5 304.9,398.3 300,396.2 296.5,394.3 293.3,393.1 	"/>
	<polyline fill="none" stroke="#000000" stroke-miterlimit="10" points="207.8,405.5 207.3,405.7 211.9,408.1 218.9,411.1 
		220.1,411.7 	"/>
	<polyline fill="none" stroke="#000000" stroke-miterlimit="10" points="322.6,461.6 323.9,462.2 328.4,464.8 329.7,465.3 
		339.3,470.2 341.5,471.6 343.2,472.5 349.9,475.3 356.7,472 361.3,469.7 356.6,467.2 353.8,465.9 351.5,464.5 349.4,463.5 	"/>
	<polyline fill="none" stroke="#000000" stroke-miterlimit="10" points="190.4,366 189.5,365.6 190.4,366 	"/>
	<polyline fill="none" stroke="#000000" stroke-miterlimit="10" points="201.3,330.3 201.7,330.1 201.3,330.3 	"/>
	<line fill="none" stroke="#000000" stroke-miterlimit="10" x1="201.3" y1="330.3" x2="203.2" y2="329.5"/>
	<polyline fill="none" stroke="#000000" stroke-miterlimit="10" points="203,372.7 204.7,373.9 205.4,373.9 	"/>
	<line fill="none" stroke="#000000" stroke-miterlimit="10" x1="203.3" y1="372.2" x2="202.2" y2="370.8"/>
	<line fill="none" stroke="#000000" stroke-miterlimit="10" x1="203.1" y1="329.5" x2="205.3" y2="329.4"/>
	<line fill="none" stroke="#000000" stroke-miterlimit="10" x1="207.6" y1="327.9" x2="206" y2="329.2"/>
	<line fill="none" stroke="#000000" stroke-miterlimit="10" x1="210.4" y1="326.7" x2="212.6" y2="326.3"/>
	<line fill="none" stroke="#000000" stroke-miterlimit="10" x1="212.4" y1="325.5" x2="215.5" y2="324.1"/>
	<line fill="none" stroke="#000000" stroke-miterlimit="10" x1="212.4" y1="325.5" x2="216.3" y2="323.8"/>
	<polyline fill="none" stroke="#000000" stroke-miterlimit="10" points="218.5,378.7 217.1,378.4 214.7,377.8 	"/>
	<line fill="none" stroke="#000000" stroke-miterlimit="10" x1="226.2" y1="435.7" x2="226" y2="437.2"/>
	<line fill="none" stroke="#000000" stroke-miterlimit="10" x1="226.2" y1="434.7" x2="226.3" y2="435.9"/>
	<line fill="none" stroke="#000000" stroke-miterlimit="10" x1="226.3" y1="435" x2="226.5" y2="435.7"/>
	<line fill="none" stroke="#000000" stroke-miterlimit="10" x1="231" y1="385.5" x2="233" y2="386.3"/>
	<line fill="none" stroke="#000000" stroke-miterlimit="10" x1="243.7" y1="391.4" x2="243.7" y2="391.4"/>
	<line fill="none" stroke="#000000" stroke-miterlimit="10" x1="243.9" y1="391.6" x2="243.5" y2="391.4"/>
	<line fill="none" stroke="#000000" stroke-miterlimit="10" x1="246.5" y1="392.8" x2="246.3" y2="392.6"/>
	<line fill="none" stroke="#000000" stroke-miterlimit="10" x1="243.9" y1="391.6" x2="243.6" y2="391.4"/>
	<line fill="none" stroke="#000000" stroke-miterlimit="10" x1="247.7" y1="310.9" x2="249" y2="309.6"/>
	<line fill="none" stroke="#000000" stroke-miterlimit="10" x1="250.2" y1="309.1" x2="249" y2="309.6"/>
	<line fill="none" stroke="#000000" stroke-miterlimit="10" x1="250.6" y1="308.8" x2="247.7" y2="310.9"/>
	<line fill="none" stroke="#000000" stroke-miterlimit="10" x1="249.5" y1="309.6" x2="249" y2="309.6"/>
	<line fill="none" stroke="#000000" stroke-miterlimit="10" x1="254" y1="307.5" x2="255.8" y2="306.7"/>
	<line fill="none" stroke="#000000" stroke-miterlimit="10" x1="251.3" y1="308.6" x2="253.8" y2="307.6"/>
	<line fill="none" stroke="#000000" stroke-miterlimit="10" x1="255.8" y1="306.7" x2="254.1" y2="307.4"/>
	<line fill="none" stroke="#000000" stroke-miterlimit="10" x1="255.8" y1="306.7" x2="254.7" y2="307.2"/>
	<line fill="none" stroke="#000000" stroke-miterlimit="10" x1="261.5" y1="304.7" x2="262.2" y2="304"/>
	<line fill="none" stroke="#000000" stroke-miterlimit="10" x1="261.5" y1="304.7" x2="263.3" y2="303.4"/>
	<line fill="none" stroke="#000000" stroke-miterlimit="10" x1="266.8" y1="301.9" x2="269.3" y2="300.8"/>
	<line fill="none" stroke="#000000" stroke-miterlimit="10" x1="264.3" y1="303" x2="266.8" y2="302"/>
	<line fill="none" stroke="#000000" stroke-miterlimit="10" x1="269.4" y1="300.8" x2="266.7" y2="302"/>
	<polyline fill="none" stroke="#000000" stroke-miterlimit="10" points="266.6,402.6 269.1,403.6 269.7,403.9 	"/>
	<line fill="none" stroke="#000000" stroke-miterlimit="10" x1="269.4" y1="300.8" x2="266.9" y2="301.9"/>
	<polyline fill="none" stroke="#000000" stroke-miterlimit="10" points="271.9,299.6 272.6,299.3 273.7,299.1 	"/>
	<line fill="none" stroke="#000000" stroke-miterlimit="10" x1="271.9" y1="299.6" x2="272.6" y2="299.3"/>
	<polyline fill="none" stroke="#000000" stroke-miterlimit="10" points="270.8,300.9 272.9,300 274.1,298.7 	"/>
	<line fill="none" stroke="#000000" stroke-miterlimit="10" x1="272.6" y1="299.3" x2="274" y2="298.7"/>
	<line fill="none" stroke="#000000" stroke-miterlimit="10" x1="271.9" y1="299.6" x2="272.4" y2="299.4"/>
	<line fill="none" stroke="#000000" stroke-miterlimit="10" x1="277.3" y1="407.7" x2="276.6" y2="407.4"/>
	<line fill="none" stroke="#000000" stroke-miterlimit="10" x1="278.8" y1="296.7" x2="279.2" y2="296.5"/>
	<line fill="none" stroke="#000000" stroke-miterlimit="10" x1="280.4" y1="296.1" x2="280.5" y2="296"/>
	<line fill="none" stroke="#000000" stroke-miterlimit="10" x1="278.8" y1="296.7" x2="280.5" y2="296"/>
	<line fill="none" stroke="#000000" stroke-miterlimit="10" x1="280.5" y1="296" x2="278.8" y2="296.7"/>
	<line fill="none" stroke="#000000" stroke-miterlimit="10" x1="279" y1="296.6" x2="280.5" y2="296"/>
	<line fill="none" stroke="#000000" stroke-miterlimit="10" x1="280.8" y1="410.1" x2="278.8" y2="408.4"/>
	<line fill="none" stroke="#000000" stroke-miterlimit="10" x1="280.5" y1="296" x2="280.4" y2="296.1"/>
	<line fill="none" stroke="#000000" stroke-miterlimit="10" x1="280.4" y1="296" x2="280.3" y2="296.1"/>
	<line fill="none" stroke="#000000" stroke-miterlimit="10" x1="328.4" y1="295" x2="328.4" y2="295.5"/>
	<polyline fill="none" stroke="#000000" stroke-miterlimit="10" points="329.6,440.7 329.6,441.1 329.7,440.7 	"/>
	<line fill="none" stroke="#000000" stroke-miterlimit="10" x1="330.9" y1="410" x2="330.2" y2="409.1"/>
	<line fill="none" stroke="#000000" stroke-miterlimit="10" x1="331.5" y1="410" x2="332.8" y2="409.1"/>
	<line fill="none" stroke="#000000" stroke-miterlimit="10" x1="333.7" y1="296.7" x2="333.6" y2="296.7"/>
	<line fill="none" stroke="#000000" stroke-miterlimit="10" x1="335.9" y1="407.1" x2="332.9" y2="408.6"/>
	<line fill="none" stroke="#000000" stroke-miterlimit="10" x1="335.1" y1="297.2" x2="333.7" y2="296.7"/>
	<line fill="none" stroke="#000000" stroke-miterlimit="10" x1="333.7" y1="296.7" x2="335.6" y2="297.8"/>
	<line fill="none" stroke="#000000" stroke-miterlimit="10" x1="329.4" y1="409.6" x2="328.4" y2="410.1"/>
	<line fill="none" stroke="#000000" stroke-miterlimit="10" x1="339.7" y1="299.6" x2="342.2" y2="301.4"/>
	<line fill="none" stroke="#000000" stroke-miterlimit="10" x1="341.3" y1="404.9" x2="339.8" y2="404.9"/>
	<line fill="none" stroke="#000000" stroke-miterlimit="10" x1="342.7" y1="404" x2="342.4" y2="404.1"/>
	<line fill="none" stroke="#000000" stroke-miterlimit="10" x1="346.6" y1="402" x2="348.2" y2="401.3"/>
	<line fill="none" stroke="#000000" stroke-miterlimit="10" x1="348.2" y1="401.3" x2="345.6" y2="402.6"/>
	<line fill="none" stroke="#000000" stroke-miterlimit="10" x1="348.2" y1="401.3" x2="348" y2="401.4"/>
	<line fill="none" stroke="#000000" stroke-miterlimit="10" x1="356.7" y1="397.2" x2="358.3" y2="396.4"/>
	<line fill="none" stroke="#000000" stroke-miterlimit="10" x1="356.7" y1="397.2" x2="358.5" y2="396.4"/>
	<polyline fill="none" stroke="#000000" stroke-miterlimit="10" points="360.7,308.7 361.2,309.3 363.8,309.8 	"/>
	<line fill="none" stroke="#000000" stroke-miterlimit="10" x1="358.9" y1="396.2" x2="358.2" y2="396.5"/>
	<polyline fill="none" stroke="#000000" stroke-miterlimit="10" points="364.5,393.4 361.5,394.8 364.5,393.4 	"/>
	<line fill="none" stroke="#000000" stroke-miterlimit="10" x1="370.5" y1="390.6" x2="368.8" y2="391.4"/>
	<line fill="none" stroke="#000000" stroke-miterlimit="10" x1="377" y1="387.5" x2="375.7" y2="388.1"/>
	<line fill="none" stroke="#000000" stroke-miterlimit="10" x1="383.9" y1="319.2" x2="385.8" y2="319.4"/>
	<line fill="none" stroke="#000000" stroke-miterlimit="10" x1="386.1" y1="436.6" x2="386" y2="435.8"/>
	<line fill="none" stroke="#000000" stroke-miterlimit="10" x1="389.3" y1="381.6" x2="386.3" y2="383"/>
	<line fill="none" stroke="#000000" stroke-miterlimit="10" x1="393.3" y1="379.6" x2="391.3" y2="380.5"/>
	<line fill="none" stroke="#000000" stroke-miterlimit="10" x1="391.3" y1="380.5" x2="391.9" y2="380.2"/>
	<line fill="none" stroke="#000000" stroke-miterlimit="10" x1="394.3" y1="379.1" x2="393.4" y2="379.6"/>
	<line fill="none" stroke="#000000" stroke-miterlimit="10" x1="396.7" y1="324.9" x2="399.8" y2="325.6"/>
	<line fill="none" stroke="#000000" stroke-miterlimit="10" x1="398.8" y1="377" x2="400.7" y2="376.1"/>
	<line fill="none" stroke="#000000" stroke-miterlimit="10" x1="398.8" y1="377" x2="400.4" y2="376.3"/>
	<line fill="none" stroke="#000000" stroke-miterlimit="10" x1="403.3" y1="374.9" x2="403.4" y2="374.8"/>
	<line fill="none" stroke="#000000" stroke-miterlimit="10" x1="400.5" y1="376.2" x2="400.3" y2="376.3"/>
	<line fill="none" stroke="#000000" stroke-miterlimit="10" x1="410.2" y1="331" x2="411.5" y2="331.2"/>
	<line fill="none" stroke="#000000" stroke-miterlimit="10" x1="412.4" y1="370.5" x2="414.5" y2="369.5"/>
	<polyline fill="none" stroke="#000000" stroke-miterlimit="10" points="414.6,369.5 413.2,370.1 414.9,369.3 	"/>
	<line fill="none" stroke="#000000" stroke-miterlimit="10" x1="417.6" y1="368" x2="416" y2="368.8"/>
	<polyline fill="none" stroke="#000000" stroke-miterlimit="10" points="419.1,367.3 419.6,367 419.2,367.2 	"/>
	<line fill="none" stroke="#000000" stroke-miterlimit="10" x1="417.7" y1="368" x2="416.4" y2="368.7"/>
	<line fill="none" stroke="#000000" stroke-miterlimit="10" x1="417.9" y1="367.9" x2="419.6" y2="368"/>
	<line fill="none" stroke="#000000" stroke-miterlimit="10" x1="424" y1="336.2" x2="421.5" y2="335.6"/>
	<line fill="none" stroke="#000000" stroke-miterlimit="10" x1="430.2" y1="362" x2="429.6" y2="362.3"/>
	<line fill="none" stroke="#000000" stroke-miterlimit="10" x1="430.2" y1="362" x2="429.7" y2="362.2"/>
	<line fill="none" stroke="#000000" stroke-miterlimit="10" x1="430" y1="362.2" x2="430.5" y2="361.9"/>
	<polyline fill="none" stroke="#000000" stroke-miterlimit="10" points="258.5,418.8 257.4,418.1 253.9,416.7 249.3,414.5 
		248.2,413.8 247.1,413.4 244.7,412.2 242.6,411 241.3,410.6 238.9,409.5 237.8,408.8 235.4,407.8 234.3,407.1 233.2,406.6 
		230.8,405.4 229.6,405 227.4,403.6 226.2,403.2 223.9,402 221.5,401 220.3,400.4 218.2,399.1 216.8,398.7 214.9,397.9 214.1,397.3 
		211.4,395.8 209.2,394.9 206,393.2 204.7,392.8 198.2,389.6 	"/>
	<line fill="none" stroke="#000000" stroke-miterlimit="10" x1="414.3" y1="389.3" x2="355" y2="418.3"/>
	<line fill="none" stroke="#000000" stroke-miterlimit="10" x1="431.8" y1="339.4" x2="431.8" y2="336.5"/>
	<polyline fill="none" stroke="#000000" stroke-miterlimit="10" points="433.7,360.3 433.6,359.7 433.7,357.4 	"/>
	<line fill="none" stroke="#000000" stroke-miterlimit="10" x1="330.1" y1="406.9" x2="330.1" y2="409.9"/>
	<line fill="none" stroke="#000000" stroke-miterlimit="10" x1="282" y1="410.1" x2="282.2" y2="406.9"/>
	<polyline fill="none" stroke="#000000" stroke-miterlimit="10" points="178.3,357.4 178.5,358.7 178.4,360.4 	"/>
	<polyline fill="none" stroke="#000000" stroke-miterlimit="10" points="180.4,336.4 180.6,337.6 180.5,339.3 	"/>
	<line fill="none" stroke="#000000" stroke-miterlimit="10" x1="432.8" y1="360.7" x2="433.2" y2="360.5"/>
	<polyline fill="none" stroke="#000000" stroke-miterlimit="10" points="430.5,358.3 430.6,357.3 431.2,354.6 430.7,351.3 
		430.5,349.6 430.8,340.4 430.7,339.6 	"/>
	<polyline fill="none" stroke="#000000" stroke-miterlimit="10" points="385.7,450 385.3,452.2 384.9,453.7 383.1,457.5 
		382.7,458.2 	"/>
	<line fill="none" stroke="#000000" stroke-miterlimit="10" x1="386" y1="435" x2="385.7" y2="436.4"/>
	<polyline fill="none" stroke="#000000" stroke-miterlimit="10" points="387.7,423.1 386.8,424.9 385.6,426.7 382.7,430.3 
		379.1,433.8 374.9,437.1 373.1,438.4 370,440.3 366.1,442.5 358.3,446.2 356.3,447 352.8,448.2 351.8,448.7 349.4,449.4 
		345.9,450.6 340.2,452 337.6,452.7 334,453.4 332.5,453.8 330.4,454.2 327.5,454.6 326.1,454.9 320.7,455.7 318.3,455.7 317,455.8 
		315.5,456.1 308.8,456.4 301.8,456.4 300.6,456.3 296.4,456.2 295.2,455.9 293.7,455.9 292.4,455.8 291,455.7 289.6,455.5 
		285.6,455.1 284.3,454.8 277.7,453.7 276.4,453.4 274,452.7 272.5,452.6 270,452.1 268.8,451.7 266.5,451 264.7,450.3 260.3,449.2 
		257.1,447.8 256.2,447.6 255.1,447 251.3,445.7 250,445 247.4,444 245.9,443 244.7,442.4 244.2,442.2 243,441.6 237.8,438.3 
		233.5,435 228.8,430.7 226.7,427.6 226,427 224,423.2 	"/>
	<polyline fill="none" stroke="#000000" stroke-miterlimit="10" points="379.6,462.3 377.6,464.5 375.5,466.4 373.4,468.2 
		368.8,471.3 367.9,471.7 366.3,472.7 362.3,474.9 357.8,476.8 352.1,479 350.3,479.5 348.8,480.2 344.5,481.4 342.1,481.9 
		339.7,482.5 338.6,482.6 337.4,483 333.5,483.8 331.2,484 328.5,484.6 325.9,484.9 324.7,485 321.9,485.4 315.5,485.8 314,486 
		308.8,486 303.3,486.2 302.2,485.9 297.9,486 294.1,485.6 290,485.4 285,484.5 283.5,484.5 282.3,484.4 279.7,483.8 278.4,483.8 
		277.2,483.4 274.6,482.9 	"/>
	<polyline fill="none" stroke="#000000" stroke-miterlimit="10" points="381.2,445.2 379.4,447.3 377.7,449 375.6,450.8 
		372.3,453.4 	"/>
	<polyline fill="none" stroke="#000000" stroke-miterlimit="10" points="383.5,415.5 380.6,417.7 375.5,421.2 370.5,424.2 
		367.6,425.8 361.4,428.9 353.9,432.2 350.6,433.5 348.9,434 	"/>
	<polyline fill="none" stroke="#000000" stroke-miterlimit="10" points="361.8,459.4 357.9,461.1 349.9,464 	"/>
	<polyline fill="none" stroke="#000000" stroke-miterlimit="10" points="334.5,467.8 332.4,468.2 330.1,468.4 328.6,468.8 
		323.6,469.2 322.1,469.6 320.9,469.6 316.7,470 312.9,470.1 310,470.4 304.7,470.3 300.8,470.1 298,470.1 291.3,469.7 287.5,469.1 
		284.6,469.1 283.4,468.7 280.8,468.4 278.7,468 	"/>
	<polyline fill="none" stroke="#000000" stroke-miterlimit="10" points="326.8,440.7 325.4,441.1 322.9,441.5 321,442.2 
		317.5,442.6 314.5,443.3 309.8,443.7 308.2,443.9 302.1,443.8 299.4,443.6 298.5,443.3 294.4,442.9 293.1,442.7 291.6,442.6 
		289,442.1 287.9,441.7 286.6,441.4 285.8,441.4 284.3,440.9 	"/>
	<polyline fill="none" stroke="#000000" stroke-miterlimit="10" points="267.5,481.3 264.2,480.1 261.4,479.6 257.6,477.9 
		254.9,477.2 253.1,476.3 252,475.7 247.2,473.7 245.9,472.7 244.7,472 243.2,471.3 241,469.9 239.9,468.8 238.7,468 236.7,466.3 
		235.5,465.6 234.8,464.6 	"/>
	<polyline fill="none" stroke="#000000" stroke-miterlimit="10" points="265.6,435.7 261.4,434.2 257,432.9 255.7,431.9 
		253.4,431.1 252.9,431.1 250.9,430 250,429.8 245.2,427.6 244.2,426.8 241.4,425.5 240.9,425.1 239.7,424.5 238.6,423.8 237,422.7 
		235.3,421.9 233.3,420.2 231.8,419.3 229.4,417.5 228.5,416.6 225.2,414 	"/>
	<polyline fill="none" stroke="#000000" stroke-miterlimit="10" points="263,464.2 260.6,463.3 258,462.7 255,461.1 251.6,460.1 
		251.2,459.8 249.6,459.1 	"/>
	<polyline fill="none" stroke="#000000" stroke-miterlimit="10" points="239.1,453 237.2,451.7 236.2,450.8 235.4,449.8 
		234.6,448.9 233.5,448.1 231.7,445.7 	"/>
	<polyline fill="none" stroke="#000000" stroke-miterlimit="10" points="229.4,457.6 228.1,455.6 227.5,454.6 227.3,453.8 
		226.4,449.9 	"/>
	<polyline fill="none" stroke="#000000" stroke-miterlimit="10" points="181.6,339.6 181.6,349.6 181.2,352.9 181.1,354.7 
		181.3,355.5 181.5,357.6 181.8,358.4 	"/>
	<line fill="none" stroke="#000000" stroke-miterlimit="10" x1="226.7" y1="437.3" x2="226.2" y2="434.9"/>
	<polyline fill="none" stroke="#000000" stroke-miterlimit="10" points="330.2,440.8 330,441.8 329.1,440.9 	"/>
	<line fill="none" stroke="#000000" stroke-miterlimit="10" x1="330.8" y1="408.8" x2="331.1" y2="409.9"/>
	<polyline fill="none" stroke="#000000" stroke-miterlimit="10" points="429.6,358.7 426.9,357.8 424.2,356.5 421.6,355.5 
		417,353.5 415.4,352.5 411,350.6 406.4,348.9 404.3,348 403.2,347.4 401,346.5 395.6,343.9 394.3,343.5 392.2,342.4 391.1,341.7 
		389.9,341.2 388.7,340.8 386.2,339.9 384.1,338.7 381.7,337.8 380.3,337.4 377.1,335.6 375.9,335 374.7,334.7 373.5,334.1 
		372.2,333.7 371.2,333.1 369.9,332.8 368.9,332 366.5,331.2 364.4,330.1 363.2,329.6 361.8,329.2 361,328.6 356.5,326.6 355,326.3 
		352,324.6 350,323.7 347.8,323.1 345.7,321.8 343.8,320.9 342.5,320.6 342,320.3 336.6,318 335.2,317.1 333.7,316.5 332.3,316.1 
		328.2,314.3 	"/>
	<polyline fill="none" stroke="#000000" stroke-miterlimit="10" points="328.5,295.1 328.5,305.2 328.1,308.1 327.6,309.9 
		328,311.8 328.2,314.3 328.4,318.9 327.8,324.3 325.7,325.5 321.5,327.6 320.2,328.1 316.8,329.2 315.4,330.1 311.4,332.3 
		309.2,333.4 306.1,335.2 303,333.6 302,332.8 298.2,331 296,329.6 295.5,329.2 292.8,328.5 291.6,328.1 290.4,327.6 288.1,326.1 
		286.6,325.6 285.7,325.1 284.5,324.2 	"/>
	<polyline fill="none" stroke="#000000" stroke-miterlimit="10" points="283.8,314.3 273.1,319 270.1,320.4 266.2,322 258.4,325.6 
		252.2,328.2 243.1,332.3 235.2,335.6 231.4,337.5 229.3,338.3 201.9,350.4 197.2,352.4 195.6,353.2 191.3,355.1 188.4,356.4 
		185.4,357.5 182.7,358.8 	"/>
	<polyline fill="none" stroke="#000000" stroke-miterlimit="10" points="284.4,324 283.9,319.3 283.7,318.2 283.8,316.3 
		283.8,314.6 284.5,309.9 284.2,309.1 283.8,304.1 283.8,301.8 283.7,298 283.5,295.3 	"/>
	<line fill="none" stroke="#000000" stroke-miterlimit="10" x1="179.2" y1="361.4" x2="178.2" y2="360.9"/>
	<line fill="none" stroke="#000000" stroke-miterlimit="10" x1="431.3" y1="339.6" x2="431.3" y2="336.7"/>
	<line fill="none" stroke="#000000" stroke-miterlimit="10" x1="329.4" y1="406.7" x2="329.4" y2="409.8"/>
	<polyline fill="none" stroke="#000000" stroke-miterlimit="10" points="282.7,409.7 282.9,407.3 282.8,406.6 	"/>
	<line fill="none" stroke="#000000" stroke-miterlimit="10" x1="181.1" y1="336.5" x2="181.1" y2="339.5"/>
	<line fill="none" stroke="#000000" stroke-miterlimit="10" x1="284.8" y1="294.5" x2="284.5" y2="291.9"/>
	<line fill="none" stroke="#000000" stroke-miterlimit="10" x1="327.5" y1="291.8" x2="327.4" y2="294.8"/>
	<polyline fill="none" stroke="#000000" stroke-miterlimit="10" points="429.9,358.6 430.2,356.5 430.7,354.8 430.1,351.6 
		430,346.3 430.2,342.1 430.3,340.6 430.2,339.2 431,339.7 431.5,339.6 	"/>
	<polyline fill="none" stroke="#000000" stroke-miterlimit="10" points="378.3,383.3 374.3,381.3 370.6,378.9 368.8,378.3 
		364.9,376 361.3,374.2 360,373.8 358.2,372.7 354.7,371.7 353.7,371 352.5,370.5 343.5,367.4 341.4,366.5 337.8,365.6 334.4,364.3 
		331.6,363.9 328.1,362.9 323.4,361.9 322.3,361.5 319.8,361.2 316.5,360.2 315,360.2 313,359.8 310.4,359.4 306.8,359.4 
		306.1,359.3 304.7,359.4 301.5,359.4 297.8,360.1 294.5,360.5 290.8,361.4 285.2,362.5 281.4,363.6 280.3,363.8 271.8,366.3 
		271,366.5 269.5,367.1 268.4,367.4 259.4,370.6 256.2,371.9 254,372.9 251.7,373.8 242,378.7 239.7,379.9 233.9,383.5 	"/>
	<polyline fill="none" stroke="#000000" stroke-miterlimit="10" points="390.4,377.5 387.5,376.1 385.9,375.2 384.9,374.4 
		381.9,373 380.3,372 377.7,371 374.7,369.4 374.2,368.9 371.5,368 369.6,367 368.5,366.2 366.3,365.4 365.3,364.7 363.2,363.7 
		361.1,362.7 357.6,361.4 353.2,359.1 350.8,358.3 349.6,357.8 347.6,356.6 344.9,355.8 343,354.6 341.6,354.3 338.1,353 
		334.7,351.5 332.4,350.8 329.2,349.3 327.1,348.6 325.7,348.2 323.9,347.2 322.6,346.8 319.5,345.5 318.1,345.2 316.3,344.4 
		315.1,343.9 313.3,343.4 311.4,343.1 308.9,342.4 307.4,342.3 306.2,342.1 304.9,342.1 303.3,342.5 300.7,342.9 294.7,344.9 
		291.4,346.3 290.3,346.6 286,348.2 279.2,350.9 276,352.1 272.5,353.6 271.7,353.8 255.5,360.7 253.2,361.9 251.2,362.6 
		247.7,364.4 245.6,365.3 238,369.2 235.1,370.5 227.8,374.4 225.2,375.7 221.8,377.6 	"/>
	<polyline fill="none" stroke="#000000" stroke-miterlimit="10" points="403.5,371.3 402.3,370.6 400.9,370.2 400.3,370 
		399.3,369.2 398.1,368.6 396.2,367.8 395.2,367.1 393.1,366.4 387.7,364 386.5,363.4 385.2,362.9 383.2,361.8 381,360.9 
		377.4,359.6 375.1,358.3 372.6,357.5 371.5,356.9 370.4,356.4 368.2,355.1 365.8,354.3 364.6,353.7 363.5,353.3 362.4,352.6 
		360.1,351.6 358.8,351.2 357.7,350.5 355.3,349.6 353.1,348.6 351.8,348.1 350.7,347.5 349.7,347.1 348.6,346.4 347.4,345.9 
		346.3,345.6 344.1,344.4 343.1,344 338.5,342.1 335.5,340.5 334.1,340.1 332.2,339.2 331.2,338.5 329.3,337.7 327.9,337.4 
		325.6,336.2 322.1,334.7 320.7,333.9 319.1,333.3 313.9,330.9 	"/>
	<polyline fill="none" stroke="#000000" stroke-miterlimit="10" points="415.4,365.6 412.3,364.2 411,363.7 409.8,363.2 
		408.1,362.1 404.9,360.8 403.6,360.4 401.6,359.4 400.3,359 399.5,358.4 398.1,358.1 396.9,357.5 395,356.3 393.8,355.8 391.4,355 
		388.1,353.3 386.8,352.9 383.5,351.2 377.5,348.8 375.3,347.7 374,347.3 372.9,346.7 370.5,345.7 369.4,345.1 368.5,344.5 
		366,343.5 363.6,342.7 362.5,342 361.4,341.7 359,340.5 358.2,340 357.1,339.4 355.7,339 354.9,338.5 353.5,338.2 351.4,337.3 
		349.1,336.1 342.1,333 339.9,331.7 337.9,331.2 334.5,329.6 332.2,328.7 331.1,328.1 326.9,326.3 325.7,325.5 	"/>
	<polyline fill="none" stroke="#000000" stroke-miterlimit="10" points="182,338.9 182.1,339.2 182.2,340.6 182.2,349 181.6,355 
		181.8,355.8 181.9,356.8 182.4,358.7 	"/>
	<polyline fill="none" stroke="#000000" stroke-miterlimit="10" points="298.2,331 294.6,332.5 291.7,333.9 284.8,336.9 
		282.1,338.3 276.4,340.7 273.1,342.3 261.3,347.5 254.4,350.6 251.9,351.8 248.7,353.1 245,354.9 232.4,360.4 228.7,362.2 
		226.7,363 224.3,364.2 222.1,365.1 217.8,367.1 210.6,370.1 208.4,371.3 	"/>
	<polyline fill="none" stroke="#000000" stroke-miterlimit="10" points="286.6,325.6 282.7,327.4 278.8,329 274.5,331.1 
		267.7,333.9 263.6,335.9 261.5,336.7 253.9,340.2 253,340.5 251.6,341.2 248.4,342.5 242.5,345.3 238,347.2 227.4,352 223,353.8 
		220.2,355.2 218.4,355.9 213.5,358.1 211.6,358.9 208,360.7 203.8,362.4 201.6,363.4 196.8,365.5 	"/>
	<polyline fill="none" stroke="#000000" stroke-miterlimit="10" points="364.4,389.9 361.8,389 360.5,388.3 357.6,387 356.3,386.6 
		355.8,386.3 354.4,386 352.7,385.2 350.2,384.2 348.2,383.6 346.2,382.9 344.8,382.8 341.6,381.6 339.4,381 336.7,380.6 
		335.9,380.2 328.5,378.9 325,378.2 323.5,378.2 322.1,378 319.9,377.5 317.3,377.5 314.6,377.3 311.1,376.8 309.8,376.9 
		306.1,376.8 304.6,377 302.4,376.8 300.9,377.1 298.5,377.1 295.8,377.4 293.6,377.4 292.3,377.5 289.6,378 282.4,379 278.6,379.8 
		277.5,380 275,380.7 273.8,380.9 270.3,381.8 261.6,384.3 258.1,385.7 254,387.1 252.1,388 251,388.4 247.9,390 	"/>
	<polyline fill="none" stroke="#000000" stroke-miterlimit="10" points="276.8,395.9 273.8,396.5 273.1,396.5 270.3,397.3 
		268.5,397.6 265.7,398.4 	"/>
	<polyline fill="none" stroke="#000000" stroke-miterlimit="10" points="319.9,393.6 317.6,393.3 314.7,393.5 313.7,393.3 
		310.9,393.3 308.7,393.1 297.2,393.3 294.4,393.6 	"/>
	<line fill="none" stroke="#000000" stroke-miterlimit="10" x1="328.4" y1="410.1" x2="327.8" y2="410.1"/>
	<polyline fill="none" stroke="#000000" stroke-miterlimit="10" points="346.4,398.6 344.7,397.9 343.3,397.8 341.3,397.2 
		337.8,396.5 336.8,396.1 	"/>
	<polyline fill="none" stroke="#000000" stroke-miterlimit="10" points="274.4,482.3 269.6,480.9 268.5,480.5 267.6,480.2 	"/>
	<polyline fill="none" stroke="#000000" stroke-miterlimit="10" points="234.8,463.5 232.8,461.9 231.6,461.2 230.9,460.3 	"/>
	<polyline fill="none" stroke="#000000" stroke-miterlimit="10" points="431.9,357.6 432,351.2 432.1,347.3 432.3,345.8 
		432.3,343.8 432.5,341 432.4,339.3 432.5,337.4 	"/>
	<polyline fill="none" stroke="#000000" stroke-miterlimit="10" points="180.2,357.9 180.3,355.1 180.1,353.9 180,351.1 
		180.1,347.1 179.9,345.9 179.8,341.7 179.9,338.2 	"/>
	<polyline fill="none" stroke="#000000" stroke-miterlimit="10" points="327.9,324 326.9,323.3 325.4,323.2 322.6,322.6 
		321.3,322.5 318,322.6 316.4,322.3 310,322.3 307.9,322.5 305,322.2 303.6,322.3 300.5,322.2 298.6,322.3 296,322.2 292.7,322.3 
		289.8,322.1 287.8,322.4 286.1,322.4 284.3,322.6 	"/>
	<polyline fill="none" stroke="#000000" stroke-miterlimit="10" points="433.6,393.1 433.8,388.2 433.8,383.7 434.5,375 
		434.5,372.1 434.4,369.8 434.8,366 434.6,364.1 434.8,360.7 	"/>
	<polyline fill="none" stroke="#000000" stroke-miterlimit="10" points="334,410.2 333.8,413.6 334,416.8 333.8,420.8 334,423.4 
		333.9,425.7 333.9,427 334.1,428.5 333.8,432.8 333.9,434.7 333.7,437.8 333.9,439.9 333.8,441.9 333.8,443.4 332.8,442.5 
		331,440.5 	"/>
	<polyline fill="none" stroke="#000000" stroke-miterlimit="10" points="280.2,410.2 280.5,419.6 280.4,421.1 280.6,423.6 
		280.4,426 280.5,428.6 280.5,430.4 280.7,431.3 280.7,432.7 280.4,437.8 280.7,440.3 280.8,443.3 283.7,440.4 	"/>
	<polyline fill="none" stroke="#000000" stroke-miterlimit="10" points="331,440.5 327.9,439.6 326.9,439.6 324.6,439.3 321,439.5 
		317.8,439.2 314.9,439.4 313.5,439.3 312,439.4 310.7,439.4 308.3,439.2 304.6,439.4 301.1,439.4 297.1,439.2 294.2,439.4 
		292.3,439.2 290.3,439.2 288.7,439.5 286.9,439.5 283.7,440.4 	"/>
	<polyline fill="none" stroke="#000000" stroke-miterlimit="10" points="177,361.7 177.4,364.6 177.3,371.7 177.6,375.4 
		177.5,378.2 177.7,380.9 177.5,385.8 177.7,389.1 177.8,390.3 177.8,394.1 	"/>
	<polyline fill="none" stroke="#000000" stroke-miterlimit="10" points="329.6,440.7 329.6,441.1 329.7,440.7 	"/>
	<line fill="none" stroke="#000000" stroke-miterlimit="10" x1="331" y1="409.9" x2="330.3" y2="409.1"/>
	<polyline fill="none" stroke="#FF0000" stroke-miterlimit="10" points="339.6,437.6 341.9,438.9 344.3,440 348.9,442.5 
		355.2,445.1 358.6,447 359.9,447.5 362.2,448.7 364.7,449.7 368.2,451.5 370.7,452.5 373,453.7 376.6,455.2 381.2,457.7 
		385.3,459.4 373.8,465.2 371.5,463.9 364.1,460.7 360.3,458.7 359.2,458.1 354.3,456 352,454.7 349.6,453.6 348.5,452.9 
		343.5,450.8 342.5,450.3 336.4,447.5 335.1,447 331.8,445 328.1,443.3 	"/>
	<polyline fill="none" stroke="#000000" stroke-miterlimit="10" points="270.8,416 269,415.1 267.7,414.7 264.3,412.8 261.8,411.7 
		259.5,410.5 250.3,406.2 248.1,404.8 244.5,403 242.3,401.7 235.9,398.7 233.6,397.4 231.3,396.4 242.8,391 244,391.7 248.7,393.8 
		254.4,397 255.7,397.4 258.2,398.6 262.7,401.2 265.1,402.4 269.1,404.2 273.7,406.6 278.6,408.8 280.9,410.1 282.1,410.6 	"/>
	<polyline fill="none" stroke="#FF0000" stroke-miterlimit="10" points="316.9,437.5 310.9,434.6 308.6,433.3 306.6,432 
		303.6,430.8 301.3,429.5 297.4,428 292,425.2 289.4,424.3 285.8,422.6 282.7,421 	"/>
	<polyline fill="none" stroke="#FF0000" stroke-miterlimit="10" points="294,415.6 295.2,416.2 297.5,417.4 303.5,419.6 
		306.3,421.2 312.3,424.2 313.5,424.7 318.7,427.5 322.5,429.1 325.9,431 328.2,432 	"/>
	<polyline fill="none" stroke="#FF0000" stroke-miterlimit="10" points="317.6,426.8 323.7,423.6 331,420 334.8,417.9 339.7,415.5 
		344.3,413.4 354.1,408.5 362.2,404.8 367.2,402.3 373.9,399.3 377.6,397.4 381.7,395.5 378.3,393.6 377.1,393 375.7,392.6 
		374.5,392.1 372,391.1 370.4,390.2 364.6,392.9 356.5,396.8 350.7,399.4 334.3,407.2 326.4,411 317.2,415.8 313.9,417.4 
		306.3,421.2 	"/>
	<polyline fill="none" stroke="#FF0000" stroke-miterlimit="10" points="294.9,426.8 290.6,428.8 287.2,430.2 280.8,432.9 
		277,434.7 269.7,437.8 262.4,441.4 256.6,444.1 238.4,453.3 228.1,458.3 231.4,460.3 234,461.3 237.5,463.2 239.4,464.1 
		249.2,459.4 264.9,451.2 268.7,449.6 275,446.4 279.7,444.1 301.8,434.4 306.6,432 	"/>
	<polyline fill="none" stroke="#FF0000" stroke-miterlimit="10" points="260.9,432 240.9,441.5 226.6,448.1 223.1,449.9 
		218.4,451.9 215.6,453.5 214.3,452.9 212.2,451.5 208.5,449.8 204.5,447.6 209.2,445.5 221.7,439.6 227.5,437 231.3,435.1 
		250.1,426.3 	"/>
	<polyline fill="none" stroke="#FF0000" stroke-miterlimit="10" points="307.3,399.6 311.6,397.7 325.4,391 337.4,384.9 
		346.9,380.4 349.5,381.4 354.1,383.8 355.3,384.4 358.3,385.4 354.4,387.4 346.6,391.2 334.4,397.4 323.4,402.7 318.2,405 	"/>
	<polyline fill="none" stroke="#FF0000" stroke-miterlimit="10" points="261.3,420.8 272.5,415.1 280.7,411.3 284.7,409.3 
		288.7,407.6 292.6,405.8 295.6,404.6 	"/>
	<polyline fill="none" stroke="#FF0000" stroke-miterlimit="10" points="306.5,410.1 297.6,413.9 294,415.6 290.1,417.7 
		281.5,421.6 276.4,424.3 272.2,426.3 	"/>
	<polyline fill="none" stroke="#FF0000" stroke-miterlimit="10" points="307.3,454.2 302.6,456.4 296.4,459.6 289.2,462.9 
		281.8,466.6 277.3,468.7 272.2,471.2 266.6,473.8 261.2,476.6 257.9,474.6 255.5,473.4 252.9,472.4 251.7,471.8 249.8,470.6 
		269.4,461.1 277.6,457.3 282.5,454.8 285.9,453.3 295.2,448.8 	"/>
	<polyline fill="none" stroke="#FF0000" stroke-miterlimit="10" points="352.6,421 367.2,414 386.2,404.2 392.2,401.3 394.9,402.2 
		398.4,404 400.8,405.1 404,406.4 389.9,413.6 382.5,417.5 364.6,426.3 	"/>
	<polyline fill="none" stroke="#FF0000" stroke-miterlimit="10" points="306.4,443 317.8,437 323.5,434.4 329.5,431.4 334.1,429.3 
		336.4,428.4 340.8,426.2 	"/>
	<polyline fill="none" stroke="#FF0000" stroke-miterlimit="10" points="352.7,431.7 350.2,432.9 346.8,434.2 339.8,437.5 
		325.9,444.4 318.5,448.3 	"/>
	<polyline fill="none" stroke="#FF0000" stroke-miterlimit="10" points="328.2,410.2 325.9,408.9 324.6,408.4 320.1,405.8 
		318.2,405 317.1,404.4 313.4,402.7 309.8,401 307.3,399.5 304.9,398.3 300,396.2 296.5,394.3 290.8,392.1 288.4,390.9 283.7,388.5 
		281.1,387.6 278.8,386.4 276.3,385.3 270.9,382.6 268.5,381.5 264.3,379.5 257.1,382.7 253,384.7 254.3,385.2 259,387.6 
		262.1,388.9 265.7,390.7 266.8,391.3 270.4,392.9 271.8,393.4 276.4,395.8 282.2,398.2 285.6,400.1 289.2,401.8 294.2,403.9 
		298.4,406 299.5,406.7 311.2,412.5 314.5,414.5 317.2,415.8 	"/>
	<polyline fill="none" stroke="#FF0000" stroke-miterlimit="10" points="328.7,421.1 331.4,422.5 332.8,422.9 337.7,425 
		338.9,425.6 342,426.8 346.8,429 350.3,430.7 351.5,431.3 352.7,431.7 355.1,432.6 357.4,433.8 361.1,435.4 362.2,436 366,437.6 
		368.5,438.9 369.8,439.4 370.9,439.9 374.3,441.9 378,443.6 383.7,446.8 385,447.3 391.6,450.3 393.7,451.8 395.3,452.5 
		406.7,446.7 399.1,443.1 395.4,441.4 392,439.5 388.3,437.9 384.9,436 377.2,432.2 374.7,431.2 373.6,430.5 371.1,429.5 
		365.1,426.5 363.3,425.9 362.2,425.3 359.6,424.4 357.2,423.2 354.8,422.1 353.7,421.5 347.7,418.9 345.1,418 339.7,415.5 	"/>
	<polyline fill="none" stroke="#FF0000" stroke-miterlimit="10" points="283.2,431.9 282.1,431.3 275.9,428.5 272.2,426.3 
		267.4,424 266.3,423.3 258.8,419.6 256.6,418.3 254.2,417.2 249.2,415.1 245.6,413 242,411.3 240.7,410.9 239.5,410.4 237.2,409.1 
		233.6,407.3 228.6,405.3 226.7,404.2 223.1,402.4 220.6,401.4 218.9,400.3 215.4,401.9 211.6,403.8 207.3,405.7 211.9,408.1 
		218.9,411.1 224.6,414.3 228.5,415.7 231.9,417.6 234.5,418.6 238.7,420.9 241.2,422 244.7,423.8 250.3,426.4 262.1,432.7 
		265.7,434.5 267.9,435.8 271.2,437.2 	"/>
	<polyline fill="none" stroke="#FF0000" stroke-miterlimit="10" points="282.4,442.9 283.5,443.6 288.4,445.5 291.8,447.4 
		295.2,448.8 297.5,450 301.4,451.4 304.8,453.1 306.1,453.6 309.2,455.2 310.5,455.7 315.3,458 317.8,459 321.2,461 323.9,462.2 
		328.4,464.8 329.7,465.3 333.2,467.2 339.2,470.1 341.4,471.5 343.2,472.5 349.9,475.3 356.7,472 361.3,469.7 356.6,467.2 
		353.8,465.9 351.5,464.5 347.8,462.9 346.7,462.2 344.1,461.2 341.8,460 336.2,456.6 334.3,455.8 331.7,454.9 329.3,453.7 
		328.3,453 322.3,450 321,449.5 319.7,448.8 316,447.3 313.7,446.1 307.5,443.6 305.3,442.3 303,441.1 300.5,440.1 299.3,439.5 
		297.4,438.9 294.6,437.5 	"/>
</g>
</svg>
