<?xml version="1.0" encoding="utf-8"?>
<!-- Generator: Adobe Illustrator 18.0.0, SVG Export Plug-In . SVG Version: 6.00 Build 0)  -->
<!DOCTYPE svg PUBLIC "-//W3C//DTD SVG 1.1//EN" "http://www.w3.org/Graphics/SVG/1.1/DTD/svg11.dtd">
<svg version="1.1" id="Layer_1" xmlns="http://www.w3.org/2000/svg" xmlns:xlink="http://www.w3.org/1999/xlink" x="0px" y="0px"
	 viewBox="0 0 612 792" enable-background="new 0 0 612 792" xml:space="preserve">
<polyline fill="none" stroke="#000000" stroke-miterlimit="10" points="291.3,358.6 292.1,358.7 292.8,358.7 293.6,358.8 
	294.4,358.6 296,358.7 296.7,358.6 298.3,358.7 303,358.7 304.6,358.6 305.4,358.7 306.1,358.6 306.9,358.7 307.7,358.7 
	308.5,358.6 309.3,358.7 310.8,358.7 311.6,358.8 315.2,358.6 316.8,358.7 319.1,358.6 319.9,358.7 321.5,358.8 322.3,358.7 
	323.8,358.8 325.4,358.7 327.7,358.8 330.1,358.6 332.4,358.8 334.8,358.7 335.5,358.7 337.1,358.7 337.6,358.8 338.4,358.7 
	339.2,358.8 340,358.6 341.5,358.7 343.1,358.7 343.9,358.7 344.7,358.6 346.2,358.8 350.2,358.6 350.9,358.6 351.7,358.8 
	352.5,358.7 353.3,358.8 354.9,358.7 355.6,358.8 357.2,358.6 358,358.7 359.6,358.7 360.3,358.6 361.6,358.7 363.2,358.6 
	363.9,358.8 364.7,358.7 365.5,358.7 366.3,358.6 367.1,358.8 368.6,358.7 369.4,358.6 371,358.7 371.8,358.7 372.6,358.6 
	374.1,358.7 378,358.7 378.8,358.6 379.6,358.7 382,358.6 382.7,358.6 383.5,358.5 384,358.6 384,357.8 384,357 384,355.5 
	384.1,354.7 384,353.1 384,351.6 384,350.8 384,350 384,348.4 384,347.6 384,347.2 384,346.4 383.8,345.6 383.9,344.8 384,344 
	384,343.2 384,342.4 384,341.7 384,340.9 384.1,339.3 383.9,338.5 383.9,337.7 384,336.9 384,336.2 384,335.8 384,335 384,333.5 
	384.1,332.7 384,331.9 384,331.1 384,330.3 384,329.5 384.1,328.8 384,328 384,326.4 384.1,325.6 384,324.4 384.1,323.6 384,322.1 
	384,321.3 384,319.7 384.1,318.9 384,318.1 384.1,317.4 384.1,315.8 384.1,313.5 384,312.3 384.1,310.7 384.1,309.9 384,308.3 
	384.1,306.8 384,306 384,304.4 384,302.1 384.1,300.9 384,300.1 384.1,299.3 384,297.7 384.1,296.9 384,295.4 384.1,294.6 384,293 
	384,291.5 384.1,290.7 384,290.2 384.1,287.1 384,286.3 384.1,284.8 384,283.2 384.1,280.8 383.9,278.8 384,276.5 384.1,275.7 
	384,274.9 384,274.1 384,273.9 384,273.1 384,272.3 384,271.5 384,270.7 384,269.2 384.1,265.9 384,264.3 384,261.2 384,260.4 
	384,259.6 384,258.8 384.1,257.3 384,256.5 384.1,255.3 384,251.4 384,249.8 384,249 384,247.4 384,246.7 384,245.9 384,245.1 
	384.1,242.3 384,239.2 384,238.4 384,237.6 384.1,236.8 384,236 384.1,235.3 384.1,234.5 384,233.7 384,233.3 384.1,232.5 
	384,230.9 384,229.3 384,228.6 384,226.2 384,225.4 384,223.9 384,223.1 384,222.3 383.9,221.9 384,219.5 383.9,217.9 384,216.4 
	383.9,214.8 384,213.3 383.9,212 384.1,209.8 384.1,208.3 384,207.5 384.1,206.7 384.1,204.4 384,203.6 384,202 384,201.2 
	384,199.7 384.1,198.5 384,197.7 384.1,196.1 384,195.3 384.1,194.5 384,193.7 384,193 384,192.2 384.1,190.6 384,189.8 384,188.3 
	384.1,187.8 384,186.3 384.1,184.7 384,183.1 384,182.3 384.1,181.6 384.1,180.8 384,180 384.1,179.2 384,177.7 384,176.5 
	381.7,176.4 380.9,176.5 380.1,176.5 379.4,176.5 378.6,176.5 377.8,176.4 377,176.5 376.2,176.5 373.9,176.5 373.1,176.4 
	370.7,176.5 370,176.4 369.2,176.5 367.6,176.4 366.8,176.5 366.1,176.5 365.3,176.5 362.9,176.5 361.4,176.5 359.3,176.4 
	358.5,176.5 357.8,176.5 356.2,176.5 354.6,176.5 353.8,176.6 352.3,176.5 351.5,176.5 349.1,176.5 347.6,176.5 343.6,176.5 
	342.9,176.5 341.3,176.6 339.7,176.5 339,176.5 338.2,176.5 337.7,176.6 334.6,176.5 333.8,176.5 331.4,176.5 330.6,176.5 
	329.9,176.5 329.1,176.5 328.3,176.5 327.5,176.5 326,176.5 324.4,176.6 322.8,176.5 322,176.5 320.5,176.5 319.7,176.5 
	317.3,176.5 316.6,176.5 315.8,176.5 313.8,176.6 312.2,176.5 309.8,176.5 309,176.5 307.5,176.5 306.7,176.5 305.9,176.5 
	305.1,176.6 304.4,176.5 302.8,176.5 302,176.5 301.2,176.6 300.4,176.5 298.1,176.5 294.1,176.6 291.3,176.5 290.6,176.6 
	289,176.5 287.4,176.5 285.9,176.5 285.1,176.6 284.3,176.5 283.5,176.6 282.7,176.5 281.2,176.5 279.6,176.5 278.8,176.6 
	278,176.5 276.5,176.5 273.3,176.5 269.4,176.6 267.4,176.5 266.6,176.5 265.8,176.5 265,176.6 262.7,176.5 261.9,176.5 
	259.5,176.5 258.8,176.6 258,176.5 256.4,176.6 255.6,176.5 252.5,176.5 251.7,176.5 250.1,176.5 248.6,176.5 247,176.5 
	246.2,176.5 245,176.6 244.2,176.5 243.4,176.6 242.6,176.5 241.8,176.5 241.1,176.6 239.5,176.5 238.7,176.5 237.9,176.5 
	237.1,176.5 236.4,176.6 235.6,176.5 234,176.6 230.9,176.5 229.3,176.6 223.8,176.5 223,176.6 221.8,176.5 221,176.6 220.2,176.5 
	219.4,176.7 218.7,176.6 215.5,176.5 214.8,176.6 213.2,176.5 211.6,176.6 210.8,176.7 209.1,176.6 208.3,176.8 207.5,176.6 
	205.9,176.6 205.2,176.5 202.8,176.6 202,176.5 201.2,176.6 199.7,176.7 198.9,176.6 197.8,176.5 197,176.6 196.3,176.5 
	194.7,176.6 193.9,176.5 192.3,176.7 190,176.5 189.2,176.6 188.4,176.7 187.7,176.6 186.9,176.6 186.1,176.7 185.3,176.6 
	184.5,176.6 182.9,176.5 181.4,176.5 179.8,176.6 179,176.5 177.5,176.5 176.7,176.5 175.9,176.5 175.4,176.6 173.1,176.5 
	172.3,176.5 171.5,176.5 170.7,176.6 169.9,176.5 169.2,176.6 166.8,176.5 166,176.6 165.3,176.6 164.5,176.5 162.1,176.6 
	161.3,176.5 159.8,176.5 159,176.5 158.2,176.5 157.4,176.5 155.9,176.6 154.3,176.5 153.5,176.6 149.9,176.5 146.8,176.5 
	146,176.5 142.1,176.6 141.3,176.5 140.5,176.6 139.7,176.5 137.4,176.5 129.5,176.5 129.1,176.5 126.7,176.5 125.2,176.5 
	123.6,176.5 119.7,176.5 118.9,176.5 118.1,176.5 117.3,176.5 113.4,176.6 111.8,176.5 107.1,176.5 106.4,176.5 105.9,176.5 
	104.3,176.5 103.5,176.5 102,176.5 101.2,176.5 98.1,176.5 96.5,176.5 94.9,176.5 93.3,176.5 91.8,176.5 90.2,176.5 88.7,176.5 
	87.1,176.5 85.5,176.5 84.7,176.6 83.9,176.5 83.2,176.5 82.7,176.5 81.9,176.5 81.1,176.5 80.4,176.6 78.8,176.5 75.7,176.5 
	74.9,176.6 73.3,176.5 72.5,176.4 71.2,176.5 68.8,176.5 67.2,176.5 62.5,176.5 61.8,176.5 61,176.5 59.5,176.5 58.7,176.5 
	58,176.5 57.2,176.5 56.4,176.5 54,176.5 52.5,176.5 48.6,176.5 44.6,176.5 42.3,176.5 41.5,176.5 40.7,176.6 39.2,176.5 
	38.4,176.5 37.6,176.5 36.3,176.6 35.6,176.5 33.2,176.6 32.4,176.5 30.9,176.5 30.1,176.5 29.3,176.5 28.5,176.5 27.7,176.5 
	27,176.5 26.2,176.5 23.8,176.5 23,176.5 22.2,176.5 19.9,176.5 19.1,176.6 18.3,176.5 17.6,176.5 15.2,176.5 14.4,176.5 
	13.6,176.5 13.1,176.6 13.2,176.5 13.2,177.3 13.1,178.1 13.2,180.5 13.1,182 13.2,182.8 13.1,184.4 13.2,185.2 13.1,186.8 
	13.2,187.5 13.1,187.9 13.1,188.7 13.2,190.3 13.1,191.8 13.2,193.4 13.1,195 13.3,196.5 13.1,197.3 13.1,198.1 13.2,198.9 
	13.1,200.1 13.2,200.9 13.3,201.7 13.2,203.2 13.3,204 13.3,205.6 13.1,207.2 13.2,208.7 13.3,209.5 13.3,210.3 13.2,210.7 
	13.3,211.5 13.2,213.1 13.3,214.6 13.1,217 13.2,217.8 13.1,218.5 13.3,219.3 13.2,220.1 13.3,220.9 13.1,222.9 13.3,223.7 
	13.1,224.4 13.3,225.2 13.1,227.6 13.3,229.2 13.1,230.7 13.3,231.5 13.2,232.3 13.3,234.3 13.2,235.8 13.3,236.6 13.1,241.3 
	13.3,242.9 13.2,246.5 13.3,247.3 13.2,248.8 13.3,249.6 13.2,250.4 13.3,252.7 13.2,255.9 13.3,257.1 13.2,259.4 13.3,261 
	13.2,262.5 13.3,263.3 13.3,267.3 13.1,267.7 13.1,270 13.2,270.8 13.1,273.9 13.2,275.5 13.1,276.3 13.2,279.9 13.1,281.4 
	13.2,282.2 13.1,284.5 13.2,285.3 13.1,286.1 13.2,287.7 13.1,288.5 13.2,289.3 13.1,290 13.1,291.3 13.2,292 13.1,292.8 
	13.1,294.4 13.1,295.2 13.2,296 13.1,299.1 13.2,299.9 13.1,301.4 13.2,301.9 13.1,303.4 13.3,304.2 13.1,305 13.2,307.4 
	13.1,308.9 13.3,310.5 13.1,312.8 13.2,313.3 13.1,314.8 13.2,315.6 13.1,316.4 13.2,318.7 13.1,319.5 13.2,321.9 13.1,322.7 
	13.2,325.4 13.1,327.8 13.2,328.6 13.1,330.1 13.2,331.7 13.1,334.8 13.2,335.6 13.1,336.1 13.2,336.8 13.1,337.6 13.2,340 
	13,341.5 13.2,343.9 13.1,346.2 13.1,347 13.2,347.5 13.2,349 13.3,351.4 13.2,352.9 13.1,353.7 13.2,355.3 13.1,356.1 13.2,357.6 
	13.1,358.4 13.2,358.8 14,358.8 17.1,358.9 17.9,358.8 19.5,358.9 21.8,358.8 23.4,359 25,358.8 26.5,358.8 27.3,359 29.6,358.8 
	31.2,358.8 32,358.8 33.5,358.8 34.4,358.8 35.1,358.9 38.7,358.8 44.2,358.9 46.6,358.8 47.3,358.9 48.1,358.8 49.7,358.9 
	50.5,358.8 51.3,358.9 52.8,358.8 53.6,358.8 55.2,358.8 56.7,358.8 57.5,358.8 59.6,358.9 61.9,358.8 62.7,358.9 64.2,358.8 
	65,358.7 66.6,358.9 67.4,358.9 68.2,358.8 69.7,358.9 74.5,358.8 76,358.9 79.1,358.8 80.7,358.9 82.7,358.8 83.5,359 85.1,358.8 
	85.9,358.9 89,358.8 90.6,358.9 91.4,358.8 92.1,358.9 94.5,358.8 96.1,359 96.8,358.8 98.4,358.8 100.7,358.9 104.7,358.8 
	105.5,358.9 105.9,358.8 106.7,358.8 106.9,358.8 110,358.8 113.1,358.9 113.9,359 114.7,358.9 115.5,358.9 116.3,358.8 117,358.9 
	117.8,358.8 118.6,358.9 121,358.8 121.7,358.9 123.3,358.9 124.1,358.8 124.9,358.9 125.7,358.8 126.4,358.9 128.8,358.9 
	129.9,358.8 136.2,358.8 136.9,358.8 137.7,358.8 140.1,358.8 140.8,358.9 141.6,358.8 143.2,358.9 144,358.8 145.6,358.8 
	146.3,358.8 147.1,358.9 147.9,358.8 151,358.8 151.8,358.8 153.1,358.9 153.8,358.9 154.6,358.8 156.2,358.9 157.8,358.8 
	158.6,358.9 159.3,358.9 160.1,358.8 162.5,358.9 163.2,358.8 165.6,359 166.4,358.9 167.2,359 168,358.8 168.7,358.9 169.5,358.9 
	170.3,358.8 171.1,358.9 173.4,358.8 174.2,358.9 175,358.8 177,358.8 178.6,358.8 179.4,358.8 180.2,358.7 182.5,358.8 
	183.3,358.8 184.1,358.8 186.4,358.8 189.6,358.9 190.3,358.8 191.1,358.8 191.9,358.8 192.7,358.8 194.3,358.9 195.8,358.9 
	198.2,358.8 198.7,358.7 202.6,358.8 204.1,358.8 205.7,358.9 206.5,358.8 207.3,358.9 208.1,358.7 208.8,358.7 209.6,358.9 
	211.2,358.7 212.7,358.8 214.3,358.7 217.4,358.9 218.2,358.8 219.8,358.9 221.4,358.8 221.8,358.9 223.4,358.8 225,358.8 
	225.8,358.8 226.5,358.8 228.1,358.8 228.9,358.8 232,358.8 232.8,358.7 233.6,358.8 234.4,358.7 236,358.8 238.4,358.7 243,358.9 
	243.8,358.8 244.6,358.9 245.8,358.8 247.4,358.8 248.1,358.8 249.7,358.8 250.5,358.7 253.6,358.8 254.4,358.8 255.2,358.8 
	256,358.8 258.3,358.8 259.3,358.7 260.9,358.7 262.4,358.8 264,358.8 264.8,358.7 265.6,358.7 266.3,358.8 267.1,358.8 
	267.9,358.8 268.2,358.7 269,358.8 270.6,358.7 271.4,358.8 272.1,358.8 272.9,358.7 274.5,358.8 276.9,358.7 277.6,358.8 
	278.4,358.8 279.2,358.7 281.5,358.8 283.1,358.7 283.9,358.8 285.5,358.7 286.3,358.8 289.4,358.7 290.2,358.7 290.9,358.8 
	291.4,358.8 "/>
<polyline fill="none" stroke="#000000" stroke-miterlimit="10" points="324.6,358.6 323.8,358.7 323.1,358.6 322.3,358.5 
	321.5,358.7 319.9,358.7 319.1,358.6 317.6,358.7 314.4,358.6 313.6,358.8 312.8,358.6 312.1,358.6 311.3,358.7 310.5,358.6 
	309.7,358.6 308.9,358.8 307.4,358.6 305.8,358.6 305,358.7 304.2,358.6 301.9,358.6 301.1,358.7 300.3,358.6 298.7,358.6 
	298,358.6 296.4,358.7 294.8,358.6 294,358.7 290.5,358.6 288.9,358.8 286.5,358.6 285.7,358.7 285,358.6 284.2,358.6 282.6,358.6 
	281,358.7 280.2,358.6 279.5,358.7 278.7,358.6 277.9,358.6 277.1,358.7 273.2,358.6 272.4,358.7 270.9,358.6 269.3,358.7 
	268.5,358.6 267.3,358.7 264.9,358.7 264.1,358.6 263.3,358.7 261.8,358.6 259.4,358.7 259.2,358.7 "/>
<polyline fill="none" stroke="#000000" stroke-miterlimit="10" points="384.1,274 384,275.5 384.1,277.1 384,278.9 384.1,279.7 
	384.1,281.3 384.1,282.8 384,285.2 384.1,286 384.1,286.8 384.2,287.5 384.1,288.3 384.2,289.1 384,291.1 384.2,291.9 384.1,292.6 
	384.2,293.4 384.1,295.8 384.2,297.3 384.1,298.1 384,298.9 384.2,299.7 384.1,300.5 384.2,302.5 384,304 384.2,304.8 384.1,306.4 
	384.1,307.2 384,309.5 384.1,311.1 384.1,311.9 384.1,314.6 384.1,315.4 384.1,317 384.1,317.8 384.1,318.5 384.1,320.9 384,324 
	384.1,325.2 384,327.6 384.1,329.2 384,330.7 384.1,331.5 384.1,333.1 384.1,335.4 384,335.8 384,336.6 384,338.2 384.1,338.9 
	384,341.3 384,342.1 384,343.6 384,344.4 384.1,345.6 "/>
<polyline fill="none" stroke="#000000" stroke-miterlimit="10" points="384.1,176.5 384,178.1 384.1,178.8 384,180.4 384.1,182.7 
	384,184.3 384.1,185.9 384,191 384.1,191.8 384.1,192.6 384.1,193.3 384,194.1 384.1,194.9 384,195.7 384.1,196.5 384,198.1 
	384,201.6 384.1,203.2 384,204 384.1,204.8 384.1,206.3 384,207.9 384.1,208.7 384.1,210.2 384.1,211.4 384,212.1 "/>
<polyline fill="none" stroke="#000000" stroke-miterlimit="10" points="12.9,358.6 12.8,358.6 12.8,356.3 12.8,355.5 12.8,354.7 
	12.8,353.1 12.7,350 12.8,347.6 12.8,347.2 12.9,346.4 12.8,344.9 12.8,344.1 12.7,341 12.9,339.4 12.7,338.6 12.8,337.8 
	12.8,336.2 12.8,335 12.8,334.3 12.8,333.5 12.8,332.7 12.9,331.1 12.8,330.3 12.7,329.5 12.8,328.8 12.7,328 12.8,327.2 
	12.8,326.4 12.8,325.6 12.8,324.9 12.9,324.4 12.8,323.6 12.9,322.9 12.7,322.1 12.8,321.3 12.9,320.5 12.8,319.7 12.7,318.2 
	12.8,316.6 12.8,313.5 12.8,313 12.8,312.3 12.8,311.5 12.9,310.7 12.8,309.9 12.8,309.1 12.8,308.3 12.9,307.5 12.8,306.8 
	12.9,306 12.8,303.6 12.8,302.9 12.8,302.1 12.9,301.6 12.9,300.8 12.8,300 12.8,296.1 12.9,293.8 12.8,293 12.9,292.2 12.9,290.2 
	13,288.6 12.9,286.3 13,285.5 12.8,283.2 13,282.4 12.9,278.8 12.8,278.1 13,276.5 12.9,275.7 13,274.1 13,273.4 13,271.8 12.9,271 
	13,270.2 13,267.9 13.1,267.5 13,266.7 13.1,262.8 13,262 13.1,260.4 13,259.6 13,258.9 13,258.1 13.1,257.3 13,254.6 13,251.4 
	13,250.6 13.1,249.1 13,248.3 13,247.5 13,246.7 13,246 13,244.7 13,241.6 12.9,240.8 13,239.2 13,238.5 13.1,237.7 13,236.9 
	13.1,236.1 13,235.3 13.1,233.8 13,230.2 13,229.4 13,228.6 13,227.9 13.1,227.1 13.1,226.3 13,225.5 13,224.7 13,223.2 13.1,222.4 
	13,221.9 12.9,221.2 13,220.4 12.9,219.6 12.9,218 13,217.2 13,216.5 13,215.7 12.9,214.9 13,214.1 13,213.3 13,212.5 13,211.8 
	13,211 12.9,209.8 13,208.2 12.9,206.7 13,205.1 12.9,204.3 13,203.5 12.9,202.7 13,202 12.9,199.2 13,197.6 12.9,196.1 12.8,195.3 
	12.9,194.5 12.8,192.9 12.8,190.6 13,189 12.8,187 12.9,186.2 12.8,185.5 12.8,184.7 12.8,183.9 12.9,182.3 12.8,181.5 12.9,180.7 
	12.8,179.2 12.8,178.4 12.7,176.8 12.9,176.4 12.9,176.5 "/>
<polyline fill="none" stroke="#000000" stroke-miterlimit="10" points="70.9,176.4 71.7,176.4 74.8,176.4 75.6,176.4 76.4,176.5 
	78,176.3 79.5,176.4 80.3,176.4 81.1,176.5 81.9,176.4 82.5,176.4 83.3,176.5 84,176.4 85.6,176.4 86.4,176.5 88,176.5 90.3,176.4 
	91.1,176.5 91.9,176.4 92.6,176.4 95,176.4 97.4,176.5 98.1,176.4 98.9,176.4 99.7,176.3 102,176.5 104.4,176.4 105.2,176.5 
	105.6,176.4 106.4,176.4 107.2,176.5 108,176.4 108.8,176.5 109.6,176.4 111.1,176.5 111.9,176.4 112.7,176.5 114.3,176.3 
	115,176.4 116.6,176.4 117.4,176.5 119,176.4 120.5,176.4 121.3,176.5 122.1,176.4 122.9,176.5 123.7,176.4 124.4,176.5 
	126.8,176.4 127.6,176.5 128.8,176.4 131.2,176.5 132.7,176.4 133.5,176.4 134.3,176.4 135.1,176.5 135.9,176.4 136.7,176.5 
	137.5,176.5 139,176.4 142.1,176.5 142.9,176.4 144.5,176.5 146,176.5 147.6,176.4 150,176.4 153.6,176.5 154.4,176.3 155.1,176.4 
	156.7,176.5 159.9,176.4 162.2,176.4 163,176.4 164.5,176.4 165.3,176.4 166.1,176.4 166.9,176.4 167.7,176.5 168.5,176.4 
	170,176.5 170.8,176.4 171.6,176.5 172.4,176.4 174.7,176.5 175.3,176.4 176.1,176.4 177.6,176.4 178.4,176.3 180,176.4 
	183.1,176.4 184.7,176.4 186.2,176.3 187,176.4 187.8,176.3 188.6,176.4 190.2,176.3 190.9,176.4 191.7,176.4 193.3,176.4 
	194.1,176.4 195.6,176.5 197.2,176.4 198.5,176.4 200,176.4 200.9,176.4 201.6,176.5 204,176.4 205.5,176.4 206.3,176.3 
	207.9,176.3 208.7,176.2 209,176.3 "/>
<polyline fill="none" stroke="#000000" stroke-miterlimit="10" points="233.5,358.7 231.9,358.7 228.8,358.6 227.2,358.7 
	226.5,358.7 225.7,358.6 224.9,358.7 224.1,358.6 223.3,358.8 222.5,358.8 221.6,358.6 219.3,358.8 217.7,358.7 215.4,358.8 
	214.6,358.7 213.8,358.6 213,358.7 211.5,358.6 209.1,358.7 207.5,358.6 206,358.8 204.4,358.8 203.6,358.6 202.1,358.7 
	201.3,358.8 198.9,358.8 197.7,358.6 196.9,358.7 196.1,358.6 191.5,358.7 190.7,358.6 187.5,358.7 186.7,358.6 184.4,358.8 
	183.6,358.6 180.5,358.7 177.3,358.6 176.6,358.7 175.3,358.6 174.5,358.8 173,358.7 172.2,358.8 171.4,358.6 169,358.8 
	167.5,358.6 165.9,358.8 163.6,358.6 162.8,358.8 162,358.8 160.4,358.6 159.6,358.7 158.1,358.7 157.3,358.8 155.7,358.8 
	155,358.7 154.2,358.7 153.4,358.8 151.3,358.7 149.7,358.7 148.9,358.6 148.2,358.7 145,358.6 144.3,358.7 142.7,358.7 
	141.9,358.8 141.1,358.6 140.3,358.6 139.6,358.8 138.8,358.6 136.4,358.7 134.9,358.6 132.5,358.8 130.2,358.6 129.4,358.6 
	128.9,358.7 127.3,358.7 125,358.8 120.3,358.6 118.7,358.7 117.9,358.6 117.2,358.7 115.6,358.6 114.8,358.7 114,358.6 
	113.3,358.6 112.5,358.6 111.7,358.5 110.9,358.6 110.1,358.5 107.8,358.6 106.6,358.5 "/>
<g>
	<line fill="none" stroke="#000000" stroke-miterlimit="10" stroke-dasharray="2.356" x1="80.7" y1="270.9" x2="78.4" y2="270.9"/>
</g>
<g>
	<g>
		<polyline fill="none" stroke="#000000" stroke-miterlimit="10" points="74,270.9 73.7,271 72.9,270.9 70.6,270.9 69,270.9 
			68.1,270.9 		"/>
		<polyline fill="none" stroke="#000000" stroke-miterlimit="10" stroke-dasharray="9.7854,9.7854" points="58.3,270.9 56,270.9 
			55.2,270.9 53.4,271 52.6,270.8 51.8,270.9 51,270.8 49.5,270.9 48.7,271 47.9,270.8 46.9,271 45.3,270.9 44.5,271 43.7,270.9 		
			"/>
		<polyline fill="none" stroke="#000000" stroke-miterlimit="10" points="38.8,270.9 37.6,270.9 36.8,270.8 36,270.9 35.2,270.9 
			34.5,271 33.7,270.9 32.8,270.9 		"/>
	</g>
</g>
<g>
	<polyline fill="none" stroke="#000000" stroke-miterlimit="10" points="30.7,270.9 30.6,270.9 29,270.9 28.3,270.9 28.3,272.5 
		28.3,273.2 28.3,273.3 	"/>
</g>
<g>
	<g>
		<polyline fill="none" stroke="#000000" stroke-miterlimit="10" points="28.5,277.2 28.5,278 28.5,279.5 28.4,280.3 28.5,281.1 
			28.4,281.6 28.6,283.1 28.6,283.2 		"/>
		<polyline fill="none" stroke="#000000" stroke-miterlimit="10" points="28.5,285 28.5,285.5 28.6,286.9 28.5,287.7 28.6,288.5 
			28.5,289.3 28.7,289.7 28.5,290.5 28.5,290.9 		"/>
	</g>
</g>
<g>
	<polyline fill="none" stroke="#000000" stroke-miterlimit="10" points="28.6,292.9 28.6,293 28.6,293.7 28.7,294.5 28.6,295.2 
		29.2,295.7 29.9,296.1 30.4,296.7 	"/>
</g>
<g>
	<g>
		<polyline fill="none" stroke="#000000" stroke-miterlimit="10" points="33.4,299.1 33.9,299.6 35.2,300.5 35.7,301 36.4,301.4 
			36.9,302 37.6,302.5 38,302.7 38.1,302.8 		"/>
		<polyline fill="none" stroke="#000000" stroke-miterlimit="10" points="39.3,304 39.9,304.3 40.4,304.8 42.2,306.2 44,307.7 		"/>
	</g>
</g>
<g>
	<polyline fill="none" stroke="#000000" stroke-miterlimit="10" points="45.5,309 45.6,309.1 46.3,309.6 47.3,310.5 48.1,310.4 
		48.9,310.5 49.6,310.5 	"/>
</g>
<g>
	<polyline fill="none" stroke="#000000" stroke-miterlimit="10" stroke-dasharray="8.6342" points="55.4,310.3 56.1,310.3 
		56.9,310.4 60.9,310.3 61.6,310.3 63.5,310.3 64,310.3 	"/>
</g>
<g>
	<polyline fill="none" stroke="#000000" stroke-miterlimit="10" stroke-dasharray="2.3206" points="66.9,310.2 67.2,310.2 68,310.3 
		69.2,310.1 	"/>
</g>
<g>
	<polyline fill="none" stroke="#000000" stroke-miterlimit="10" stroke-dasharray="2.3378" points="160.6,327 160.4,326.3 
		160,324.7 	"/>
</g>
<g>
	<polyline fill="none" stroke="#000000" stroke-miterlimit="10" stroke-dasharray="7.6961" points="158.2,320 158,319.7 157.7,319 
		157,317.6 156.6,316.9 155.8,315.5 155.4,314.8 154.4,313.3 	"/>
</g>
<g>
	<polyline fill="none" stroke="#000000" stroke-miterlimit="10" stroke-dasharray="2.3629" points="153,311.2 152.8,310.7 
		151.6,309.3 	"/>
</g>
<g>
	<polyline fill="none" stroke="#000000" stroke-miterlimit="10" stroke-dasharray="2.3771" points="76.5,310.1 76.2,310.8 
		75.6,311.4 75.3,312.1 	"/>
</g>
<g>
	<g>
		<polyline fill="none" stroke="#000000" stroke-miterlimit="10" points="72.4,316.7 72.3,317.1 71.8,317.8 71.6,318.5 70.8,319.9 
			70.4,320.7 70.2,321.4 69.8,322.1 		"/>
		<polyline fill="none" stroke="#000000" stroke-miterlimit="10" points="67.9,328.8 67.9,328.8 67.8,329.6 67.9,330.4 67.8,331.9 
			68.1,334.2 68.2,334.8 		"/>
	</g>
</g>
<g>
	<polyline fill="none" stroke="#000000" stroke-miterlimit="10" stroke-dasharray="2.36" points="69.1,337.3 69.4,337.7 70,339.2 
		70.1,339.4 	"/>
</g>
<g>
	<polyline fill="none" stroke="#000000" stroke-miterlimit="10" stroke-dasharray="3.8105" points="160.7,327 160.9,328.6 
		161,330.8 	"/>
</g>
<g>
	<polyline fill="none" stroke="#000000" stroke-miterlimit="10" stroke-dasharray="2.3654" points="61.9,310.2 61.1,310.3 
		59.6,310.3 	"/>
</g>
<g>
	<polyline fill="none" stroke="#000000" stroke-miterlimit="10" stroke-dasharray="2.372" points="56.9,310.4 56.4,310.3 
		54.8,310.4 54.6,310.4 	"/>
</g>
<g>
	<polyline fill="none" stroke="#000000" stroke-miterlimit="10" stroke-dasharray="2.3421" points="180.9,308.9 180.2,309 
		179.4,308.9 178.6,309 	"/>
</g>
<g>
	<polyline fill="none" stroke="#000000" stroke-miterlimit="10" points="176,309 174.7,309.1 173.6,309 175.2,309 176,309.1 	"/>
</g>
<g>
	<polyline fill="none" stroke="#000000" stroke-miterlimit="10" stroke-dasharray="2.3367" points="178.6,308.9 179.1,308.9 
		179.9,308.8 180.9,308.9 	"/>
</g>
<g>
	<line fill="none" stroke="#000000" stroke-miterlimit="10" stroke-dasharray="2.3565" x1="28.3" y1="270.9" x2="28.4" y2="273.2"/>
</g>
<g>
	<g>
		<polyline fill="none" stroke="#000000" stroke-miterlimit="10" points="28.4,277.2 28.4,278 28.5,278.7 28.4,282.4 28.5,283.1 		
			"/>
		<polyline fill="none" stroke="#000000" stroke-miterlimit="10" points="28.5,284.9 28.6,286.9 28.5,287.7 28.6,289.3 28.7,290.5 
			28.6,290.9 		"/>
	</g>
</g>
<g>
	<polyline fill="none" stroke="#000000" stroke-miterlimit="10" stroke-dasharray="2.3684" points="28.6,292.9 28.6,293 28.7,293.7 
		28.6,295.2 	"/>
</g>
<g>
	<polyline fill="none" stroke="#000000" stroke-miterlimit="10" stroke-dasharray="2.3368" points="173.2,270.9 172.4,271 
		170.9,270.9 	"/>
</g>
<g>
	<polyline fill="none" stroke="#000000" stroke-miterlimit="10" stroke-dasharray="8.65" points="165.1,270.9 163.6,270.8 
		162.8,270.9 162,270.9 161.2,270.9 160.4,270.9 158.9,270.9 158.6,270.9 156.5,270.9 	"/>
</g>
<g>
	<polyline fill="none" stroke="#000000" stroke-miterlimit="10" stroke-dasharray="2.3388" points="153.6,270.9 153.1,270.9 
		151.5,270.9 151.3,270.8 	"/>
</g>
<g>
	<polyline fill="none" stroke="#000000" stroke-miterlimit="10" stroke-dasharray="2.3649" points="166.3,309.1 167.9,309.1 
		168.7,309 	"/>
</g>
<g>
	<g>
		<polyline fill="none" stroke="#000000" stroke-miterlimit="10" points="173,309 173.4,309 174.4,309 175.2,308.9 176.8,308.9 
			177.5,308.8 178.3,309 179,308.9 		"/>
		<polyline fill="none" stroke="#000000" stroke-miterlimit="10" stroke-dasharray="12.6891,12.6891" points="189.1,302 
			190.1,301.2 190.6,300.6 191.3,300.1 192.4,299.1 193.1,298.6 194.3,297.6 195.2,296.7 196.4,295.7 197,295.2 197.7,294.8 
			198.2,294.2 198.8,293.7 199.2,293.3 199.3,292.7 199.2,292 199.2,289.6 199.2,288.8 199.2,288.1 199.2,287.7 		"/>
		<polyline fill="none" stroke="#000000" stroke-miterlimit="10" points="199.1,281.4 199,280.6 199.1,279.1 198.9,275.9 199,275.4 
					"/>
	</g>
</g>
<g>
	<polyline fill="none" stroke="#000000" stroke-miterlimit="10" points="199,273.2 198.9,272 199,271.2 198.9,270.9 196.6,270.9 	
		"/>
</g>
<g>
	<g>
		<polyline fill="none" stroke="#000000" stroke-miterlimit="10" points="192.4,270.9 191.2,270.9 190.4,271 189.7,271 188.9,270.9 
			188.2,270.9 187.4,270.9 186.6,270.9 186.4,270.9 		"/>
		<polyline fill="none" stroke="#000000" stroke-miterlimit="10" points="183.6,270.9 182.8,271 182,270.9 181.2,271 180.5,270.8 
			179.7,270.9 179,271 178.2,270.9 177.7,270.9 		"/>
	</g>
</g>
<g>
	<polyline fill="none" stroke="#000000" stroke-miterlimit="10" stroke-dasharray="2.3624" points="175.5,270.8 174.3,270.9 
		173.2,270.9 	"/>
</g>
<g>
	<polyline fill="none" stroke="#000000" stroke-miterlimit="10" stroke-dasharray="2.3674" points="151.3,270.9 150.5,271 
		149.7,270.9 148.9,270.9 	"/>
</g>
<g>
	<g>
		<polyline fill="none" stroke="#000000" stroke-miterlimit="10" points="144.6,270.9 142.7,270.9 141.9,270.8 141.1,270.9 
			139.5,270.9 138.6,270.9 		"/>
		<polyline fill="none" stroke="#000000" stroke-miterlimit="10" stroke-dasharray="9.4886,9.4886" points="129.1,270.9 
			127.8,270.8 126.2,270.9 125.4,270.9 124.6,270.9 123.9,270.9 123.1,271 122.3,270.8 120.7,270.9 119.9,270.9 119.2,270.9 
			116,270.9 112.9,270.8 110.5,271 109.8,270.9 106.6,270.9 105.9,271 104.3,270.8 101.9,270.9 101.1,270.8 99.6,270.9 98.8,270.8 
			98,270.9 97.2,270.9 96,270.9 		"/>
		<polyline fill="none" stroke="#000000" stroke-miterlimit="10" points="91.3,270.9 90.1,270.8 88.6,270.9 87.8,270.9 85.5,270.9 
			85.3,270.9 		"/>
	</g>
</g>
<g>
	<polyline fill="none" stroke="#000000" stroke-miterlimit="10" stroke-dasharray="2.3836" points="83.1,271 82.3,270.8 81.5,270.9 
		80.7,271 	"/>
</g>
<g>
	<polyline fill="none" stroke="#000000" stroke-miterlimit="10" stroke-dasharray="2.3127" points="160.5,327 160.4,326.3 
		160,324.8 	"/>
</g>
<g>
	<polyline fill="none" stroke="#000000" stroke-miterlimit="10" stroke-dasharray="7.6837" points="158.2,320 156.9,317.7 
		156.7,316.9 154.4,313.5 154.4,313.3 	"/>
</g>
<g>
	<polyline fill="none" stroke="#000000" stroke-miterlimit="10" points="153,311.2 152.8,310.7 152.2,310.1 151.9,309.4 
		151.7,309.3 151.7,309.2 153.3,309.2 154.1,309.2 	"/>
</g>
<g>
	<polyline fill="none" stroke="#000000" stroke-miterlimit="10" stroke-dasharray="4.9777" points="157.4,309.2 158,309.2 
		159,309.1 160.6,309.1 161.4,309.1 162.2,309.2 162.4,309.2 	"/>
</g>
<g>
	<polyline fill="none" stroke="#000000" stroke-miterlimit="10" stroke-dasharray="2.3345" points="164,309.1 166.1,309.1 
		166.3,309 	"/>
</g>
<g>
	<polyline fill="none" stroke="#000000" stroke-miterlimit="10" stroke-dasharray="2.3663" points="69.2,310.1 70,310.1 70.8,310.3 
		71.6,310.2 	"/>
</g>
<g>
	<polyline fill="none" stroke="#000000" stroke-miterlimit="10" points="74.2,310.1 74.7,310.1 75.5,310 76.2,310 76.5,310.2 
		76.1,310.7 75.7,311.5 75.3,312.1 	"/>
</g>
<g>
	<g>
		<polyline fill="none" stroke="#000000" stroke-miterlimit="10" points="73.3,315.4 72.7,316.3 72.2,317.1 71.9,317.8 71.4,318.5 
			71.2,319.2 70.8,319.9 70.4,320.7 		"/>
		<polyline fill="none" stroke="#000000" stroke-miterlimit="10" points="69.9,322 69.8,322.1 69.5,322.9 68.9,324.3 68.5,325.8 
			68.4,326.6 68.1,327.4 68.1,327.6 		"/>
	</g>
</g>
<g>
	<polyline fill="none" stroke="#000000" stroke-miterlimit="10" stroke-dasharray="2.3547" points="67.9,329.5 67.9,329.6 
		67.9,330.4 67.7,331.2 67.8,331.9 	"/>
</g>
<g>
	<polyline fill="none" stroke="#000000" stroke-miterlimit="10" stroke-dasharray="2.323" points="104,354.5 104.7,354.6 
		105.6,354.6 106.3,354.7 	"/>
</g>
<g>
	<g>
		<polyline fill="none" stroke="#000000" stroke-miterlimit="10" points="110.8,354.9 111.9,354.9 112.7,355 113.4,354.9 114.2,355 
			115.4,354.9 116.8,355 		"/>
		<polyline fill="none" stroke="#000000" stroke-miterlimit="10" stroke-dasharray="9.7915,9.7915" points="126.5,354.4 
			126.8,354.4 127.6,354.4 128.4,354.3 128.8,354.3 129.6,354.2 130.4,354.2 131.1,354.1 132,354.2 135.5,353.8 136,353.9 
			137.5,353.3 139.1,353.1 139.8,352.9 141.2,352.4 143.5,351.6 143.8,351.4 145.2,350.7 145.8,350.3 146.6,350 148.1,349.1 
			150,347.6 150.6,347.1 151.3,346.7 151.8,346.2 152.3,345.9 155,343.1 155.9,342.3 156.4,341.7 156.6,341.3 		"/>
		<polyline fill="none" stroke="#000000" stroke-miterlimit="10" points="159.3,337.3 159.4,337.1 159.7,336.4 160.4,334.6 
			160.5,333.9 160.7,333.1 160.7,332.3 160.9,331.6 		"/>
	</g>
</g>
<g>
	<polyline fill="none" stroke="#000000" stroke-miterlimit="10" stroke-dasharray="2.3645" points="160.8,329.4 160.7,328.5 
		160.7,327 	"/>
</g>
<g>
	<line fill="none" stroke="#000000" stroke-miterlimit="10" stroke-dasharray="2.3655" x1="96.9" y1="354.1" x2="99.2" y2="354.3"/>
</g>
<g>
	<polyline fill="none" stroke="#000000" stroke-miterlimit="10" stroke-dasharray="2.3476" points="101.7,354.3 103.6,354.6 
		104,354.5 	"/>
</g>
<g>
	<polyline fill="none" stroke="#000000" stroke-miterlimit="10" stroke-dasharray="2.3326" points="70.1,339.4 70.6,340 71,340.7 
		71.5,341.3 	"/>
</g>
<g>
	<polyline fill="none" stroke="#000000" stroke-miterlimit="10" stroke-dasharray="5.1427" points="73.8,343.8 74.1,344.2 
		74.8,344.6 75.9,345.7 77.4,346.9 77.7,347.1 	"/>
</g>
<g>
	<polyline fill="none" stroke="#000000" stroke-miterlimit="10" stroke-dasharray="2.346" points="79.1,348.1 79.3,348.3 80,348.7 
		81,349.4 	"/>
</g>
<g>
	<polyline fill="none" stroke="#000000" stroke-miterlimit="10" stroke-dasharray="2.3803" points="81,349.5 82.5,350 83.1,350.4 	
		"/>
</g>
<g>
	<polyline fill="none" stroke="#000000" stroke-miterlimit="10" stroke-dasharray="6.0658" points="86.8,352.1 87.5,352.4 
		88.4,352.6 89,353 90.2,353.1 90.9,353.4 91.7,353.5 92.5,353.6 92.6,353.7 	"/>
</g>
<g>
	<polyline fill="none" stroke="#000000" stroke-miterlimit="10" stroke-dasharray="2.3316" points="94.6,354 96.3,354.1 96.9,354 	
		"/>
</g>
<g>
	<polyline fill="none" stroke="#000000" stroke-miterlimit="10" stroke-dasharray="2.3445" points="28.6,295.2 29.3,295.6 
		29.8,296.2 30.4,296.7 	"/>
</g>
<g>
	<g>
		<polyline fill="none" stroke="#000000" stroke-miterlimit="10" points="34.2,299.8 34.5,300 35.2,300.5 36.3,301.5 38,302.8 
			38.9,303.5 		"/>
		<polyline fill="none" stroke="#000000" stroke-miterlimit="10" points="51.2,310.5 51.2,310.5 52.8,310.3 54.4,310.3 54.6,310.4 
			55.4,310.3 57,310.4 57.2,310.4 		"/>
	</g>
</g>
<g>
	<polyline fill="none" stroke="#000000" stroke-miterlimit="10" stroke-dasharray="2.3648" points="59.6,310.3 60.1,310.4 
		60.9,310.3 61.9,310.3 	"/>
</g>
<g>
	<line fill="none" stroke="#000000" stroke-miterlimit="10" stroke-dasharray="2.359" x1="64.9" y1="310.3" x2="67.2" y2="310.2"/>
</g>
<g>
	<polyline fill="none" stroke="#000000" stroke-miterlimit="10" stroke-dasharray="2.3605" points="74.2,310.1 74.7,310.1 
		75.5,310.2 76.2,310.1 76.5,310.2 	"/>
</g>
<g>
	<polyline fill="none" stroke="#000000" stroke-miterlimit="10" stroke-dasharray="3.819" points="161,330.8 160.9,330 160.8,329.2 
		160.6,327.7 160.7,327 	"/>
</g>
<g>
	<polyline fill="none" stroke="#000000" stroke-miterlimit="10" stroke-dasharray="2.3604" points="259,271.3 257.4,271.2 
		256.6,271.2 	"/>
</g>
<g>
	<g>
		<polyline fill="none" stroke="#000000" stroke-miterlimit="10" points="252.3,271.2 248.8,271.2 248,271.2 247.2,271.2 247,271.2 
			246.3,271.2 		"/>
		<polyline fill="none" stroke="#000000" stroke-miterlimit="10" stroke-dasharray="9.7944,9.7944" points="236.6,271.2 
			235.8,271.3 235,271.2 232.6,271.3 232.4,271.2 227.7,271.2 226.9,271.1 226.1,271.2 224.3,271.2 222.7,271.1 222,271.2 
			221.9,271.2 		"/>
		<polyline fill="none" stroke="#000000" stroke-miterlimit="10" points="217,271.3 216.5,271.2 215.8,271.2 215.1,271.2 
			213.5,271.2 212.7,271.2 211.2,271.2 211.1,271.2 		"/>
	</g>
</g>
<g>
	<polyline fill="none" stroke="#000000" stroke-miterlimit="10" points="208.9,271.2 208.9,271.2 208.1,271.3 207.3,271.1 
		206.6,271.2 206.6,272 206.6,272.8 206.6,273.5 	"/>
</g>
<g>
	<g>
		<polyline fill="none" stroke="#000000" stroke-miterlimit="10" points="206.7,277.5 206.6,279.8 206.7,280.6 206.6,281.9 
			206.8,282.6 206.7,283.4 206.7,283.5 		"/>
		<polyline fill="none" stroke="#000000" stroke-miterlimit="10" points="206.7,285.3 206.7,285.8 206.8,286.4 206.8,287.2 
			206.9,288 206.8,289.5 206.9,290.8 206.8,291.2 		"/>
	</g>
</g>
<g>
	<polyline fill="none" stroke="#000000" stroke-miterlimit="10" points="206.8,293.2 206.8,293.2 206.8,294 206.9,294.8 
		206.8,295.5 208.1,296.5 208.7,297 	"/>
</g>
<g>
	<g>
		<polyline fill="none" stroke="#000000" stroke-miterlimit="10" points="212.2,299.9 213.3,300.9 214,301.3 214.5,301.8 
			216.9,303.6 216.9,303.6 		"/>
		<polyline fill="none" stroke="#000000" stroke-miterlimit="10" stroke-dasharray="7.5051,7.5051" points="222.7,308.4 
			222.7,308.4 223.3,308.9 223.9,309.4 225.5,310.7 227.9,310.7 230.2,310.7 231,310.7 231.8,310.6 232.6,310.7 232.8,310.6 
			233.1,310.6 		"/>
		<polyline fill="none" stroke="#000000" stroke-miterlimit="10" points="236.8,310.6 239.1,310.5 239.9,310.6 241.7,310.5 
			242.5,310.6 242.8,310.6 		"/>
	</g>
</g>
<g>
	<polyline fill="none" stroke="#000000" stroke-miterlimit="10" stroke-dasharray="2.3941" points="245.1,310.5 245.5,310.4 
		247.1,310.6 247.5,310.4 	"/>
</g>
<g>
	<polyline fill="none" stroke="#000000" stroke-miterlimit="10" stroke-dasharray="2.3417" points="338.9,327.3 338.6,326.6 
		338.3,325 	"/>
</g>
<g>
	<polyline fill="none" stroke="#000000" stroke-miterlimit="10" points="336.4,320.3 336.3,320 336,319.3 335.5,318.6 335.2,317.9 
		334.8,317.3 334.5,316.5 334.3,316.5 334.1,315.7 333.6,315.1 333.2,314.4 332.7,313.8 332.6,313.6 	"/>
</g>
<g>
	<line fill="none" stroke="#000000" stroke-miterlimit="10" stroke-dasharray="2.3329" x1="331.2" y1="311.5" x2="330" y2="309.5"/>
</g>
<g>
	<polyline fill="none" stroke="#000000" stroke-miterlimit="10" stroke-dasharray="2.35" points="254.7,310.4 254.3,311 
		253.5,312.4 	"/>
</g>
<g>
	<g>
		<polyline fill="none" stroke="#000000" stroke-miterlimit="10" points="251.2,316.2 251,316.6 250.5,317.3 250.1,318.1 
			249.1,320.2 248.6,321 248.4,321.5 		"/>
		<polyline fill="none" stroke="#000000" stroke-miterlimit="10" points="246.3,334.1 246.5,335.2 246.7,335.9 247,336.6 
			247.6,338.1 248.4,339.7 248.4,339.7 		"/>
	</g>
</g>
<g>
	<polyline fill="none" stroke="#000000" stroke-miterlimit="10" stroke-dasharray="2.3561" points="249.8,341.6 250.3,342.2 
		251.2,343.4 	"/>
</g>
<g>
	<polyline fill="none" stroke="#000000" stroke-miterlimit="10" stroke-dasharray="3.8249" points="338.9,327.3 338.9,328.8 
		339,329.6 339.2,330.4 339.2,331.1 	"/>
</g>
<g>
	
		<line fill="none" stroke="#000000" stroke-miterlimit="10" stroke-dasharray="2.3561" x1="240.1" y1="310.6" x2="237.8" y2="310.6"/>
</g>
<g>
	<polyline fill="none" stroke="#000000" stroke-miterlimit="10" stroke-dasharray="2.3331" points="235.2,310.6 234.6,310.6 
		232.8,310.6 	"/>
</g>
<g>
	<polyline fill="none" stroke="#000000" stroke-miterlimit="10" stroke-dasharray="2.321" points="206.6,271.2 206.5,272 
		206.6,272.8 206.6,273.5 	"/>
</g>
<g>
	<g>
		<polyline fill="none" stroke="#000000" stroke-miterlimit="10" points="206.8,277.5 206.6,278.3 206.8,279 206.6,279.8 
			206.6,280.6 206.8,281.4 206.8,281.9 206.6,282.6 206.7,283.4 		"/>
		<polyline fill="none" stroke="#000000" stroke-miterlimit="10" points="206.8,285.2 206.8,285.8 206.8,288 206.8,290.8 
			206.8,291.2 		"/>
	</g>
</g>
<g>
	<polyline fill="none" stroke="#000000" stroke-miterlimit="10" stroke-dasharray="2.3598" points="206.9,293.2 206.9,293.2 
		206.9,295.5 	"/>
</g>
<g>
	
		<line fill="none" stroke="#000000" stroke-miterlimit="10" stroke-dasharray="2.3345" x1="359.2" y1="309.2" x2="360.9" y2="307.7"/>
</g>
<g>
	<g>
		<polyline fill="none" stroke="#000000" stroke-miterlimit="10" points="364.5,304.6 364.9,304.3 366.1,303.3 368,301.8 
			368.9,300.9 369.1,300.8 		"/>
		<polyline fill="none" stroke="#000000" stroke-miterlimit="10" points="372.9,297.5 373.5,297 374.1,296.6 375.8,294.9 
			376.4,294.4 377.1,294 377.5,293.7 377.5,293.1 377.4,292.3 377.4,292.2 377.3,291.4 377.4,290.7 377.3,289.9 377.5,289.1 
			377.3,288.4 377.3,287.7 		"/>
		<polyline fill="none" stroke="#000000" stroke-miterlimit="10" points="377.3,281.8 377.3,281.2 377.3,278.6 377.2,277.8 
			377.2,277 377.2,275.9 		"/>
	</g>
</g>
<g>
	<polyline fill="none" stroke="#000000" stroke-miterlimit="10" points="377.2,273.5 377.2,273.1 377.2,272.3 377.1,271.2 
		375.6,271.1 374.8,271.3 374.8,271.3 	"/>
</g>
<g>
	<g>
		<polyline fill="none" stroke="#000000" stroke-miterlimit="10" points="370.1,271.2 367.2,271.2 366.4,271.1 365.6,271.2 
			364.1,271.2 		"/>
		<polyline fill="none" stroke="#000000" stroke-miterlimit="10" stroke-dasharray="12.3465,12.3465" points="351.8,271.2 
			351.7,271.2 351.4,271.2 349.1,271.2 348.3,271.2 347.5,271.3 346.7,271.1 345.1,271.2 344.1,271.3 343.3,271.2 341.8,271.1 
			341,271.2 337.9,271.2 337.1,271.2 336.8,271.2 335.2,271.1 334.5,271.2 333.7,271.2 332.9,271.2 332.1,271.1 330.5,271.2 
			329.7,271.1 329.5,271.2 328.7,271.1 326.4,271.2 325.6,271.1 324.8,271.2 323.2,271.1 322.5,271.2 321.7,271.2 320.1,271.2 
			318.6,271.1 317.8,271.3 316.2,271.2 315.4,271.2 313.1,271.1 311.5,271.2 308.7,271.2 		"/>
		<polyline fill="none" stroke="#000000" stroke-miterlimit="10" points="302.6,271.1 302.1,271.1 301.3,271.2 300.5,271.2 
			299.7,271.1 297.4,271.2 296.6,271.2 		"/>
	</g>
</g>
<g>
	<polyline fill="none" stroke="#000000" stroke-miterlimit="10" stroke-dasharray="2.3605" points="294.2,271.2 293.4,271.2 
		291.9,271.1 	"/>
</g>
<g>
	
		<line fill="none" stroke="#000000" stroke-miterlimit="10" stroke-dasharray="2.3561" x1="291.9" y1="271.2" x2="289.5" y2="271.2"/>
</g>
<g>
	<g>
		<polyline fill="none" stroke="#000000" stroke-miterlimit="10" points="285.5,271.2 284.8,271.3 283.3,271.1 282.5,271.2 
			281.7,271.1 280.9,271.2 280.1,271.2 279.6,271.1 		"/>
		<polyline fill="none" stroke="#000000" stroke-miterlimit="10" points="269.3,271.2 265.3,271.2 263.7,271.2 263.3,271.2 		"/>
	</g>
</g>
<g>
	<polyline fill="none" stroke="#000000" stroke-miterlimit="10" stroke-dasharray="2.3128" points="261.3,271.1 259.8,271.2 
		259,271.2 	"/>
</g>
<g>
	<polyline fill="none" stroke="#000000" stroke-miterlimit="10" stroke-dasharray="2.3516" points="334.2,342.6 334.6,341.9 
		335.1,341.4 335.6,340.8 	"/>
</g>
<g>
	<g>
		<polyline fill="none" stroke="#000000" stroke-miterlimit="10" points="337.9,336.8 338,336.7 338.1,335.9 338.5,335.2 
			338.8,333.4 339.1,332.6 339.1,331.8 339.2,331.1 339.2,331 		"/>
		<polyline fill="none" stroke="#000000" stroke-miterlimit="10" points="335.4,318.5 335.2,317.9 334.5,316.5 334.3,316.5 
			333.9,315.8 333.5,315.2 332.8,313.7 332.5,313.4 		"/>
	</g>
</g>
<g>
	<polyline fill="none" stroke="#000000" stroke-miterlimit="10" points="331.2,311.5 330.1,309.7 329.9,309.6 330,309.5 
		332.3,309.5 	"/>
</g>
<g>
	<polyline fill="none" stroke="#000000" stroke-miterlimit="10" stroke-dasharray="4.9321" points="335.6,309.5 336.2,309.5 
		337,309.5 337.3,309.4 338.1,309.5 340.4,309.4 340.6,309.4 	"/>
</g>
<g>
	<polyline fill="none" stroke="#000000" stroke-miterlimit="10" stroke-dasharray="2.3724" points="342.2,309.4 342.8,309.4 
		343.5,309.5 344.3,309.4 344.6,309.4 	"/>
</g>
<g>
	
		<line fill="none" stroke="#000000" stroke-miterlimit="10" stroke-dasharray="2.3329" x1="247.5" y1="310.5" x2="249.8" y2="310.4"/>
</g>
<g>
	<polyline fill="none" stroke="#000000" stroke-miterlimit="10" points="252.4,310.4 252.9,310.4 254.5,310.3 254.7,310.4 
		253.9,311.7 253.4,312.3 	"/>
</g>
<g>
	<g>
		<polyline fill="none" stroke="#000000" stroke-miterlimit="10" points="251.5,315.6 250.1,318.1 249.8,318.8 248.6,320.9 		"/>
		<polyline fill="none" stroke="#000000" stroke-miterlimit="10" points="248.1,322.2 248,322.4 247.8,323.2 247.4,323.9 
			247.1,324.6 246.8,326.2 246.6,326.9 246.3,327.6 246.3,327.9 		"/>
	</g>
</g>
<g>
	<polyline fill="none" stroke="#000000" stroke-miterlimit="10" stroke-dasharray="2.3679" points="246.2,329.8 246,330.7 
		246.1,331.5 246,332.1 	"/>
</g>
<g>
	<polyline fill="none" stroke="#000000" stroke-miterlimit="10" stroke-dasharray="3.7984" points="339.2,331.1 339,328.7 339,328 
		338.8,327.3 	"/>
</g>
<g>
	<polyline fill="none" stroke="#000000" stroke-miterlimit="10" stroke-dasharray="2.3158" points="285.8,355 287.3,355.2 
		288.1,355.1 	"/>
</g>
<g>
	<polyline fill="none" stroke="#000000" stroke-miterlimit="10" stroke-dasharray="8.3663" points="293.6,355.3 293.7,355.3 
		295.2,355.2 296,355.2 296.4,355.1 298,355.2 298.7,355.2 299.5,355 300.7,355.1 301.5,354.9 301.9,354.9 	"/>
</g>
<g>
	<line fill="none" stroke="#000000" stroke-miterlimit="10" stroke-dasharray="2.3443" x1="304.7" y1="354.8" x2="307" y2="354.5"/>
</g>
<g>
	<polyline fill="none" stroke="#000000" stroke-miterlimit="10" stroke-dasharray="2.3616" points="251.2,343.4 251.7,344 
		252.3,344.5 253,344.9 	"/>
</g>
<g>
	<g>
		<polyline fill="none" stroke="#000000" stroke-miterlimit="10" points="256.6,347.9 257,348 258.2,349 258.9,349.4 259.3,349.7 
			259.9,350.1 260.7,350.4 261.3,350.8 261.7,351 		"/>
		<polyline fill="none" stroke="#000000" stroke-miterlimit="10" points="275.1,354.4 275.9,354.4 276.6,354.5 278.2,354.6 
			279.4,354.7 280.2,354.7 281,354.7 281.1,354.7 		"/>
	</g>
</g>
<g>
	<polyline fill="none" stroke="#000000" stroke-miterlimit="10" stroke-dasharray="2.3612" points="283.4,354.9 283.8,355 
		284.6,355 285.8,355 	"/>
</g>
<g>
	<polyline fill="none" stroke="#000000" stroke-miterlimit="10" stroke-dasharray="2.3372" points="307,354.7 307.8,354.5 
		309.3,354.5 	"/>
</g>
<g>
	<g>
		<polyline fill="none" stroke="#000000" stroke-miterlimit="10" points="314.6,354 315,353.9 315.8,353.7 316.6,353.6 317.3,353.3 
			318,353.3 319.5,352.6 320.3,352.3 		"/>
		<polyline fill="none" stroke="#000000" stroke-miterlimit="10" points="325.8,349.6 326.1,349.5 327.5,348.3 328.8,347.4 
			329.5,347.1 330.5,346.3 330.7,346.1 		"/>
	</g>
</g>
<g>
	<polyline fill="none" stroke="#000000" stroke-miterlimit="10" stroke-dasharray="2.3672" points="332.5,344.3 332.8,344 
		334.2,342.6 	"/>
</g>
<g>
	<polyline fill="none" stroke="#000000" stroke-miterlimit="10" stroke-dasharray="2.3266" points="206.9,295.5 207.5,296 
		208.7,297 	"/>
</g>
<g>
	<g>
		<polyline fill="none" stroke="#000000" stroke-miterlimit="10" points="211.7,299.5 212.1,299.9 212.8,300.2 213.4,300.8 
			214.6,301.7 215.1,302.3 215.8,302.8 216.2,303.1 216.3,303.2 		"/>
		<polyline fill="none" stroke="#000000" stroke-miterlimit="10" points="217.6,304.2 218,304.6 218.6,305.1 219.8,306.2 
			220.5,306.6 220.9,307 222,308 222.2,308.1 		"/>
	</g>
</g>
<g>
	<polyline fill="none" stroke="#000000" stroke-miterlimit="10" points="223.8,309.2 225.5,310.7 226.3,310.7 227.9,310.8 	"/>
</g>
<g>
	<polyline fill="none" stroke="#000000" stroke-miterlimit="10" stroke-dasharray="4.9832" points="231.2,310.6 231.8,310.7 
		232.6,310.6 232.8,310.7 234.4,310.6 235.2,310.6 236,310.5 236.1,310.6 	"/>
</g>
<g>
	<polyline fill="none" stroke="#000000" stroke-miterlimit="10" stroke-dasharray="2.3405" points="237.8,310.6 238.3,310.5 
		239.1,310.6 239.9,310.5 240.1,310.6 	"/>
</g>
<g>
	<polyline fill="none" stroke="#000000" stroke-miterlimit="10" stroke-dasharray="2.3178" points="351.9,309.3 353.5,309.4 
		354.2,309.3 	"/>
</g>
<g>
	<polyline fill="none" stroke="#000000" stroke-miterlimit="10" stroke-dasharray="2.3344" points="356.8,309.3 358.1,309.2 
		359.2,309.2 	"/>
</g>
<g>
	<polyline fill="none" stroke="#000000" stroke-miterlimit="10" stroke-dasharray="2.3581" points="351.9,309.3 352.7,309.3 
		354.2,309.3 	"/>
</g>
<g>
	<polyline fill="none" stroke="#000000" stroke-miterlimit="10" points="356.8,309.2 357.4,309.3 358.1,309.2 359.2,309.3 
		359.2,309.1 357.6,309.2 356.8,309.2 	"/>
</g>
<g>
	<polyline fill="none" stroke="#000000" stroke-miterlimit="10" stroke-dasharray="2.3145" points="354.2,309.3 353.7,309.3 
		352.9,309.2 351.9,309.3 	"/>
</g>
<g>
	
		<line fill="none" stroke="#000000" stroke-miterlimit="10" stroke-dasharray="2.3571" x1="243.2" y1="310.5" x2="245.5" y2="310.4"/>
</g>
<g>
	<polyline fill="none" stroke="#000000" stroke-miterlimit="10" stroke-dasharray="2.3583" points="252.4,310.4 252.9,310.4 
		253.7,310.4 254.7,310.4 	"/>
</g>
<g>
	<polyline fill="none" stroke="#000000" stroke-miterlimit="10" stroke-dasharray="2.3628" points="301.2,265.1 302,265.1 
		302.8,265.1 303.6,265.1 	"/>
</g>
<g>
	<g>
		<polyline fill="none" stroke="#000000" stroke-miterlimit="10" points="308.3,265 309.1,265 310.6,265.1 311.4,265 313.8,265 
			314.3,265.1 		"/>
		<polyline fill="none" stroke="#000000" stroke-miterlimit="10" stroke-dasharray="10.4702,10.4702" points="324.8,265.1 
			326.4,265 327.1,265.1 327.9,265.1 328.7,265 329.5,265.1 331,265 331.8,265.1 332.6,265 333.4,265.1 341.5,265.1 342.2,265.1 
			343,265.1 343.8,265.1 345.6,265.1 348.7,265 349.5,265.1 350.3,265 351.1,265.1 351.4,265.1 352.2,265.2 353.7,265 354.5,265 
			355.3,265.1 356.1,265.1 356.8,265 357.6,265 358.4,265.1 358.7,265 359.4,265.1 360.2,265 361,265.1 361.2,265.1 		"/>
		<polyline fill="none" stroke="#000000" stroke-miterlimit="10" points="366.5,265.1 367.2,265 367.9,265.1 368.7,265 371,265.1 
			371.8,265 372.4,265.1 		"/>
	</g>
</g>
<g>
	<polyline fill="none" stroke="#000000" stroke-miterlimit="10" points="374.8,265.1 374.9,265.1 375.6,265 376.4,265.1 
		377.2,265.1 377.2,264.3 377.1,263.5 377.1,262.8 	"/>
</g>
<g>
	<g>
		<polyline fill="none" stroke="#000000" stroke-miterlimit="10" points="377.1,258.8 377.1,257.2 377,254.4 377.1,252.8 
			377.1,252.8 		"/>
		<polyline fill="none" stroke="#000000" stroke-miterlimit="10" points="377,251 376.9,250.5 377,249.8 376.9,249 377,248.3 
			376.9,246.7 377,246.2 376.9,245 		"/>
	</g>
</g>
<g>
	<polyline fill="none" stroke="#000000" stroke-miterlimit="10" points="377,243.1 377,243 376.9,241.3 376.9,240.8 376.2,240.3 
		375.7,239.7 375.1,239.2 	"/>
</g>
<g>
	<g>
		<polyline fill="none" stroke="#000000" stroke-miterlimit="10" points="372.1,236.8 371.7,236.4 369.8,235 368.6,233.9 367.4,233 
					"/>
		<polyline fill="none" stroke="#000000" stroke-miterlimit="10" points="366.2,232 365.7,231.7 363.9,230.1 362.9,229.4 
			361.6,228.4 361.5,228.2 		"/>
	</g>
</g>
<g>
	<polyline fill="none" stroke="#000000" stroke-miterlimit="10" points="360,227 359.2,226.4 358.7,225.9 358.1,225.6 358.2,225.6 
		357.4,225.5 355.9,225.5 	"/>
</g>
<g>
	<polyline fill="none" stroke="#000000" stroke-miterlimit="10" stroke-dasharray="4.989" points="352.6,225.6 352,225.5 
		350.9,225.7 350.1,225.6 349.3,225.7 348.5,225.6 348.3,225.7 347.6,225.6 	"/>
</g>
<g>
	<polyline fill="none" stroke="#000000" stroke-miterlimit="10" stroke-dasharray="2.321" points="345.9,225.6 345.2,225.6 
		344.4,225.7 343.6,225.7 	"/>
</g>
<g>
	<polyline fill="none" stroke="#000000" stroke-miterlimit="10" stroke-dasharray="2.348" points="249.4,219.8 249.7,220.5 
		250.1,221.2 250.6,221.8 	"/>
</g>
<g>
	<polyline fill="none" stroke="#000000" stroke-miterlimit="10" stroke-dasharray="2.3825" points="252.5,224.8 252.8,225.2 
		253.7,226.5 253.7,226.7 	"/>
</g>
<g>
	
		<line fill="none" stroke="#000000" stroke-miterlimit="10" stroke-dasharray="2.3542" x1="247.5" y1="216.3" x2="246.5" y2="214.1"/>
</g>
<g>
	<polyline fill="none" stroke="#000000" stroke-miterlimit="10" stroke-dasharray="5.414" points="245.4,210.7 245,209.7 244.8,209 
		244.8,208.2 244.8,207.4 244.6,205.8 244.6,205.4 	"/>
</g>
<g>
	<polyline fill="none" stroke="#000000" stroke-miterlimit="10" stroke-dasharray="2.3833" points="244.8,203.7 244.8,203.6 
		244.9,202.8 245.1,201.3 	"/>
</g>
<g>
	<polyline fill="none" stroke="#000000" stroke-miterlimit="10" stroke-dasharray="2.3546" points="329,225.9 329.4,225.2 
		330.3,223.9 	"/>
</g>
<g>
	<polyline fill="none" stroke="#000000" stroke-miterlimit="10" stroke-dasharray="3.7746" points="331.6,221.7 332,221 
		332.9,219.7 333.2,218.8 333.4,218.5 	"/>
</g>
<g>
	
		<line fill="none" stroke="#000000" stroke-miterlimit="10" stroke-dasharray="2.3497" x1="334.1" y1="217.4" x2="335.1" y2="215.3"/>
</g>
<g>
	
		<line fill="none" stroke="#000000" stroke-miterlimit="10" stroke-dasharray="3.8055" x1="244.9" y1="208.9" x2="244.6" y2="205.2"/>
</g>
<g>
	<polyline fill="none" stroke="#000000" stroke-miterlimit="10" stroke-dasharray="2.3412" points="336.3,225.8 337.9,225.7 
		338.7,225.8 	"/>
</g>
<g>
	<polyline fill="none" stroke="#000000" stroke-miterlimit="10" stroke-dasharray="3.6592" points="341.1,225.6 342.6,225.7 
		343.6,225.7 344.8,225.7 	"/>
</g>
<g>
	<line fill="none" stroke="#000000" stroke-miterlimit="10" stroke-dasharray="2.359" x1="346" y1="225.6" x2="348.3" y2="225.7"/>
</g>
<g>
	<polyline fill="none" stroke="#000000" stroke-miterlimit="10" stroke-dasharray="2.3247" points="377.2,265.1 377.1,264.3 
		377.2,263.5 377.1,262.8 	"/>
</g>
<g>
	<g>
		<polyline fill="none" stroke="#000000" stroke-miterlimit="10" points="377,258.8 377.1,255.7 377,254.9 377,254.4 376.9,252.8 
			376.9,252.8 		"/>
		<polyline fill="none" stroke="#000000" stroke-miterlimit="10" points="376.9,251 376.9,249 377,246.2 376.9,245.4 376.9,245 		
			"/>
	</g>
</g>
<g>
	<polyline fill="none" stroke="#000000" stroke-miterlimit="10" stroke-dasharray="2.3354" points="376.9,243.1 376.9,242.2 
		376.9,240.8 	"/>
</g>
<g>
	<polyline fill="none" stroke="#000000" stroke-miterlimit="10" stroke-dasharray="2.3137" points="246.5,226.8 245.7,226.9 
		244.2,226.8 	"/>
</g>
<g>
	<g>
		<polyline fill="none" stroke="#000000" stroke-miterlimit="10" points="239.6,226.9 239.4,226.9 239.2,226.9 237.6,226.9 
			236.8,226.8 236,226.9 235.3,226.9 234.5,227 233.7,226.9 233.6,226.9 		"/>
		<polyline fill="none" stroke="#000000" stroke-miterlimit="10" stroke-dasharray="7.4849,7.4849" points="226.2,227 225.6,227 
			224.8,227 224.6,227.1 222.8,228.6 222.1,229 221.6,229.6 221,230.1 218.2,232.5 217.2,233.2 		"/>
		<polyline fill="none" stroke="#000000" stroke-miterlimit="10" points="214.4,235.6 213.6,236.3 211.9,237.9 211.3,238.3 
			210.9,238.8 209.9,239.6 		"/>
	</g>
</g>
<g>
	<polyline fill="none" stroke="#000000" stroke-miterlimit="10" points="208.1,241.1 207.8,241.2 206.3,242.6 206.4,244 
		206.3,244.9 206.3,244.9 	"/>
</g>
<g>
	<polyline fill="none" stroke="#000000" stroke-miterlimit="10" stroke-dasharray="8.9228" points="206.4,250.9 206.3,251.9 
		206.5,254.3 206.4,255.1 206.5,255.3 206.5,256.9 206.6,257.7 206.4,258.4 206.6,259.2 206.5,259.7 	"/>
</g>
<g>
	<polyline fill="none" stroke="#000000" stroke-miterlimit="10" points="206.6,262.7 206.6,263.2 206.6,265.1 207.4,265.1 
		208.1,265 208.9,265 	"/>
</g>
<g>
	<g>
		<polyline fill="none" stroke="#000000" stroke-miterlimit="10" points="213.3,265 214.3,265 215.8,265.1 216.6,265 217.4,265.1 
			219.3,265 		"/>
		<polyline fill="none" stroke="#000000" stroke-miterlimit="10" stroke-dasharray="9.6031,9.6031" points="228.9,265.1 
			228.9,265.1 229.7,265 230.5,265 231.3,265.1 234.7,265 236.2,265.1 238.6,265 239.4,265 239.6,265.1 240.4,265 241.2,265.1 
			244.3,265.1 245.9,265.2 246.7,265 247.7,265.1 248.5,265 250.1,265.1 251.6,265 252.4,265.1 253.2,265 254,265 254.2,265 
			255,265.1 256.6,265.1 258.1,265 259.7,265.1 260.5,265 262.4,265 		"/>
		<polyline fill="none" stroke="#000000" stroke-miterlimit="10" points="267.2,265 269.1,265.1 272.2,265.1 273.1,265.1 
			273.2,265.1 		"/>
	</g>
</g>
<g>
	<line fill="none" stroke="#000000" stroke-miterlimit="10" stroke-dasharray="2.3565" x1="275.4" y1="265" x2="277.8" y2="265.1"/>
</g>
<g>
	<polyline fill="none" stroke="#000000" stroke-miterlimit="10" stroke-dasharray="2.3591" points="247.5,216.3 247.8,217 
		248.6,218.3 	"/>
</g>
<g>
	<polyline fill="none" stroke="#000000" stroke-miterlimit="10" stroke-dasharray="3.7702" points="249.8,220.5 250.1,221.2 
		251,222.4 251.4,223.2 251.8,223.7 	"/>
</g>
<g>
	<polyline fill="none" stroke="#000000" stroke-miterlimit="10" points="252.5,224.8 252.7,225.3 253.7,226.5 253.7,226.8 
		253.8,226.6 253,226.8 252.2,226.7 251.4,226.8 	"/>
</g>
<g>
	<polyline fill="none" stroke="#000000" stroke-miterlimit="10" stroke-dasharray="2.3717" points="248.8,226.8 248.3,226.7 
		247.5,226.9 246.5,226.8 	"/>
</g>
<g>
	<polyline fill="none" stroke="#000000" stroke-miterlimit="10" stroke-dasharray="2.3353" points="245,201.3 245,202.1 245,202.9 
		244.8,203.6 	"/>
</g>
<g>
	<polyline fill="none" stroke="#000000" stroke-miterlimit="10" stroke-dasharray="5.4705" points="244.7,207.2 244.7,207.5 
		244.9,208.9 245,209.7 245.3,210.5 245.5,211.2 245.8,212 245.9,212.5 	"/>
</g>
<g>
	<polyline fill="none" stroke="#000000" stroke-miterlimit="10" stroke-dasharray="2.3342" points="246.6,214.1 247.1,215.6 
		247.5,216.2 	"/>
</g>
<g>
	
		<line fill="none" stroke="#000000" stroke-miterlimit="10" stroke-dasharray="2.356" x1="343.6" y1="225.7" x2="341.3" y2="225.7"/>
</g>
<g>
	<polyline fill="none" stroke="#000000" stroke-miterlimit="10" stroke-dasharray="5.0138" points="337.9,225.7 337.4,225.8 
		336.6,225.7 336.3,225.8 335.5,225.7 334.7,225.8 333.9,225.7 333.2,225.9 333,225.9 	"/>
</g>
<g>
	<polyline fill="none" stroke="#000000" stroke-miterlimit="10" points="331.3,225.8 330,225.7 329.3,225.9 329,225.8 329.4,225.1 
		329.9,224.5 330.3,223.9 330.3,223.9 	"/>
</g>
<g>
	<polyline fill="none" stroke="#000000" stroke-miterlimit="10" stroke-dasharray="3.7633" points="331.6,221.7 331.6,221.7 
		331.9,221 332.8,219.7 333.2,218.9 333.3,218.8 333.4,218.5 	"/>
</g>
<g>
	<polyline fill="none" stroke="#000000" stroke-miterlimit="10" stroke-dasharray="2.354" points="334,217.3 334.8,216.1 
		335.1,215.3 	"/>
</g>
<g>
	<polyline fill="none" stroke="#000000" stroke-miterlimit="10" stroke-dasharray="2.3327" points="287.2,265 287.9,265.1 
		288.7,265.1 289.5,265.1 	"/>
</g>
<g>
	<polyline fill="none" stroke="#000000" stroke-miterlimit="10" stroke-dasharray="4.7049" points="292.6,265.1 293.4,265.1 
		294.2,265 296.6,265.1 297.3,265.1 	"/>
</g>
<g>
	<polyline fill="none" stroke="#000000" stroke-miterlimit="10" stroke-dasharray="2.3442" points="298.9,265 299.7,265.1 
		300.5,265 301.2,265.1 	"/>
</g>
<g>
	<polyline fill="none" stroke="#000000" stroke-miterlimit="10" stroke-dasharray="2.3574" points="277.8,265 278.5,265.1 
		280.1,265.1 	"/>
</g>
<g>
	<line fill="none" stroke="#000000" stroke-miterlimit="10" stroke-dasharray="2.3565" x1="284.8" y1="265" x2="287.2" y2="265"/>
</g>
<g>
	<polyline fill="none" stroke="#000000" stroke-miterlimit="10" stroke-dasharray="2.3335" points="335.1,215.3 335.4,214.6 
		335.6,213.8 336,213.1 	"/>
</g>
<g>
	<polyline fill="none" stroke="#000000" stroke-miterlimit="10" stroke-dasharray="2.3615" points="337.6,206.4 337.6,206.3 
		337.7,205.5 337.7,204.1 	"/>
</g>
<g>
	<polyline fill="none" stroke="#000000" stroke-miterlimit="10" stroke-dasharray="2.3743" points="337.7,204.1 337.7,203.3 
		337.5,202.6 337.4,201.8 	"/>
</g>
<g>
	<polyline fill="none" stroke="#000000" stroke-miterlimit="10" stroke-dasharray="4.0206" points="336.7,199.3 336.5,198.9 
		336.1,198.2 335.9,197.4 335.4,196.5 334.9,195.9 334.8,195.8 	"/>
</g>
<g>
	<polyline fill="none" stroke="#000000" stroke-miterlimit="10" points="334,194.7 333.9,194.7 332.5,192.9 	"/>
</g>
<g>
	<polyline fill="none" stroke="#000000" stroke-miterlimit="10" stroke-dasharray="2.3243" points="253.3,190.1 252.7,190.6 
		251.6,191.7 	"/>
</g>
<g>
	<polyline fill="none" stroke="#000000" stroke-miterlimit="10" stroke-dasharray="4.7342" points="249.4,193.9 249.1,194.3 
		248.6,194.9 248.2,195.6 247.2,196.7 246.7,197.7 	"/>
</g>
<g>
	<line fill="none" stroke="#000000" stroke-miterlimit="10" stroke-dasharray="2.3669" x1="245.9" y1="199.1" x2="245" y2="201.3"/>
</g>
<polyline fill="none" stroke="#000000" stroke-miterlimit="10" points="301.5,181.4 299.9,181.3 299.2,181.3 "/>
<polyline fill="none" stroke="#000000" stroke-miterlimit="10" points="293.7,181 292.1,181 290.1,180.9 287.7,181.1 287.3,181 
	286.6,181.2 285.3,181.1 "/>
<polyline fill="none" stroke="#000000" stroke-miterlimit="10" points="282.6,181.4 282.2,181.4 281.4,181.3 280.6,181.4 
	280.2,181.4 "/>
<g>
	<polyline fill="none" stroke="#000000" stroke-miterlimit="10" stroke-dasharray="2.3274" points="265.7,183 264.3,183.6 
		263.5,183.9 	"/>
</g>
<g>
	<polyline fill="none" stroke="#000000" stroke-miterlimit="10" stroke-dasharray="4.902" points="260.5,185.1 260.3,185.2 
		259.7,185.7 259,186 258.3,186.4 257.6,186.9 257.4,186.9 256.8,187.4 256.5,187.7 	"/>
</g>
<g>
	<polyline fill="none" stroke="#000000" stroke-miterlimit="10" stroke-dasharray="2.3517" points="255.1,188.6 254.3,189.2 
		253.7,189.8 253.2,190 	"/>
</g>
<g>
	<polyline fill="none" stroke="#000000" stroke-miterlimit="10" stroke-dasharray="3.8713" points="269.5,182.2 266.4,182.8 
		265.7,183.1 	"/>
</g>
<line fill="none" stroke="#000000" stroke-miterlimit="10" x1="276.7" y1="181.6" x2="274.3" y2="181.8"/>
<polyline fill="none" stroke="#000000" stroke-miterlimit="10" points="271.8,182 270.8,182 270,182.3 269.5,182.2 "/>
<polyline fill="none" stroke="#000000" stroke-miterlimit="10" points="280.2,181.4 278.7,181.6 277.9,181.5 276.7,181.7 "/>
<g>
	<polyline fill="none" stroke="#000000" stroke-miterlimit="10" stroke-dasharray="2.3475" points="332.5,192.9 331.3,191.9 
		330.8,191.3 	"/>
</g>
<g>
	<g>
		<polyline fill="none" stroke="#000000" stroke-miterlimit="10" points="326.7,188.1 324.5,186.5 323.8,186.3 323.1,185.8 
			321.6,185.1 		"/>
		<polyline fill="none" stroke="#000000" stroke-miterlimit="10" points="315.8,182.9 315.3,182.9 314.6,182.6 312.3,182.2 
			311.5,182 310.7,182 309.9,182 		"/>
	</g>
</g>
<polyline fill="none" stroke="#000000" stroke-miterlimit="10" points="307.4,181.7 307.1,181.7 306.3,181.8 305.5,181.7 
	305.1,181.7 "/>
<g>
	<polyline fill="none" stroke="#000000" stroke-miterlimit="10" stroke-dasharray="2.3567" points="343.6,225.7 342,225.6 
		341.3,225.6 	"/>
</g>
<g>
	
		<line fill="none" stroke="#000000" stroke-miterlimit="10" stroke-dasharray="2.3565" x1="338.7" y1="225.7" x2="336.3" y2="225.7"/>
</g>
<g>
	<line fill="none" stroke="#000000" stroke-miterlimit="10" stroke-dasharray="2.3476" x1="376.9" y1="240.7" x2="375" y2="239.2"/>
</g>
<g>
	<g>
		<polyline fill="none" stroke="#000000" stroke-miterlimit="10" points="372,236.8 371.6,236.4 371,236 369.8,235 369.1,234.5 
			367.6,233.1 367.4,233 		"/>
		<polyline fill="none" stroke="#000000" stroke-miterlimit="10" points="366.2,232 365.7,231.7 363.9,230.1 363.3,229.6 
			362.8,229.4 361.7,228.3 361.5,228.2 		"/>
	</g>
</g>
<g>
	<polyline fill="none" stroke="#000000" stroke-miterlimit="10" stroke-dasharray="2.3315" points="360,227 359.8,226.9 
		359.2,226.3 358.2,225.6 	"/>
</g>
<g>
	<polyline fill="none" stroke="#000000" stroke-miterlimit="10" stroke-dasharray="3.9674" points="245.9,212.6 246.2,213.4 
		246.6,214.1 246.8,214.8 247.5,216.3 	"/>
</g>
<g>
	<polyline fill="none" stroke="#000000" stroke-miterlimit="10" stroke-dasharray="2.3603" points="146.5,264.8 147.3,264.8 
		148.9,264.7 	"/>
</g>
<g>
	<g>
		<polyline fill="none" stroke="#000000" stroke-miterlimit="10" points="153.2,264.8 153.6,264.8 154.4,264.8 155.9,264.7 
			157.5,264.8 158.5,264.7 159.2,264.8 		"/>
		<polyline fill="none" stroke="#000000" stroke-miterlimit="10" stroke-dasharray="9.7885,9.7885" points="168.9,264.8 169,264.9 
			170.5,264.8 171.3,264.9 172.1,264.7 172.9,264.8 173.1,264.7 173.9,264.8 175.5,264.7 176.3,264.8 177.8,264.7 178.6,264.7 
			179.4,264.8 181.2,264.8 182,264.7 182.8,264.8 183.5,264.7 		"/>
		<polyline fill="none" stroke="#000000" stroke-miterlimit="10" points="188.4,264.7 189,264.7 189.7,264.7 190.5,264.7 
			191.2,264.7 192,264.7 192.8,264.7 193.6,264.8 194.3,264.7 194.4,264.7 		"/>
	</g>
</g>
<g>
	<polyline fill="none" stroke="#000000" stroke-miterlimit="10" points="196.6,264.8 196.7,264.8 197.4,264.7 198.2,264.8 
		198.9,264.7 199,264 198.8,262.4 	"/>
</g>
<g>
	<g>
		<polyline fill="none" stroke="#000000" stroke-miterlimit="10" points="198.8,258.6 198.8,258.5 198.8,257.7 198.8,256.1 
			198.7,252.6 		"/>
		<polyline fill="none" stroke="#000000" stroke-miterlimit="10" points="198.8,251.3 198.9,251 198.7,248 198.8,247.2 198.7,246 
			198.8,245.4 		"/>
	</g>
</g>
<g>
	<polyline fill="none" stroke="#000000" stroke-miterlimit="10" points="198.8,243.5 198.6,242.7 198.8,241.2 198.7,241.1 
		198.6,240.5 198.1,239.9 197.4,239.5 	"/>
</g>
<g>
	<g>
		<polyline fill="none" stroke="#000000" stroke-miterlimit="10" points="193.6,236.3 192.8,235.7 192.2,235.2 191.6,234.6 
			190.9,234.2 189.4,232.8 189,232.5 		"/>
		<polyline fill="none" stroke="#000000" stroke-miterlimit="10" points="176.1,225.3 175.3,225.2 172.9,225.3 172.7,225.3 
			171.9,225.4 170.3,225.3 170.2,225.3 		"/>
	</g>
</g>
<g>
	
		<line fill="none" stroke="#000000" stroke-miterlimit="10" stroke-dasharray="2.359" x1="167.7" y1="225.3" x2="165.4" y2="225.4"/>
</g>
<g>
	<polyline fill="none" stroke="#000000" stroke-miterlimit="10" stroke-dasharray="2.3492" points="75.6,226.4 75.1,225.8 
		74.2,224.5 	"/>
</g>
<g>
	<polyline fill="none" stroke="#000000" stroke-miterlimit="10" stroke-dasharray="2.3312" points="72.3,221.5 72,221 71.1,219.5 	
		"/>
</g>
<g>
	<polyline fill="none" stroke="#000000" stroke-miterlimit="10" stroke-dasharray="2.3115" points="69.2,216 68.9,215.3 68.7,214.5 
		68.3,213.8 	"/>
</g>
<g>
	<polyline fill="none" stroke="#000000" stroke-miterlimit="10" stroke-dasharray="5.4001" points="67.1,210.4 66.7,208.7 
		66.6,207.9 66.5,207.1 66.4,205.1 	"/>
</g>
<g>
	<polyline fill="none" stroke="#000000" stroke-miterlimit="10" stroke-dasharray="2.3471" points="66.5,203.3 66.6,202.5 
		66.9,201.8 66.9,201 	"/>
</g>
<g>
	
		<line fill="none" stroke="#000000" stroke-miterlimit="10" stroke-dasharray="2.3827" x1="156.8" y1="214.9" x2="155.9" y2="217.1"/>
</g>
<g>
	<polyline fill="none" stroke="#000000" stroke-miterlimit="10" stroke-dasharray="3.8205" points="154.6,219.2 154.2,219.9 
		153.9,220.6 153.4,221.2 153.1,221.9 152.8,222.5 	"/>
</g>
<g>
	<line fill="none" stroke="#000000" stroke-miterlimit="10" stroke-dasharray="2.3354" x1="152" y1="223.6" x2="150.8" y2="225.6"/>
</g>
<g>
	<polyline fill="none" stroke="#000000" stroke-miterlimit="10" stroke-dasharray="2.3412" points="158.1,225.6 159.6,225.4 
		160.4,225.4 	"/>
</g>
<g>
	<polyline fill="none" stroke="#000000" stroke-miterlimit="10" stroke-dasharray="3.6839" points="162.9,225.4 164.4,225.3 
		166.2,225.4 166.5,225.4 	"/>
</g>
<g>
	
		<line fill="none" stroke="#000000" stroke-miterlimit="10" stroke-dasharray="2.3565" x1="167.7" y1="225.4" x2="170.1" y2="225.3"/>
</g>
<g>
	<polyline fill="none" stroke="#000000" stroke-miterlimit="10" stroke-dasharray="2.3138" points="199,264.7 198.9,263.2 
		199,262.4 	"/>
</g>
<g>
	<g>
		<polyline fill="none" stroke="#000000" stroke-miterlimit="10" points="198.8,258.5 198.9,256.1 198.9,254.6 198.8,253.3 
			198.7,252.5 		"/>
		<polyline fill="none" stroke="#000000" stroke-miterlimit="10" points="198.8,250.8 198.7,249.6 198.7,248 198.7,247.2 
			198.7,245.2 198.7,244.8 		"/>
	</g>
</g>
<g>
	<polyline fill="none" stroke="#000000" stroke-miterlimit="10" stroke-dasharray="2.3138" points="198.7,242.8 198.7,242 
		198.7,241.1 198.6,240.5 	"/>
</g>
<g>
	<polyline fill="none" stroke="#000000" stroke-miterlimit="10" stroke-dasharray="2.3603" points="61.4,264.7 63,264.8 63.8,264.8 
			"/>
</g>
<g>
	<polyline fill="none" stroke="#000000" stroke-miterlimit="10" stroke-dasharray="5.011" points="67,264.7 67.7,264.7 68.4,264.8 
		69.5,264.8 70.3,264.7 71,264.7 71.8,264.8 72,264.8 	"/>
</g>
<g>
	<polyline fill="none" stroke="#000000" stroke-miterlimit="10" stroke-dasharray="2.3638" points="73.6,264.8 74.2,264.8 
		74.9,264.8 76,264.7 	"/>
</g>
<g>
	<line fill="none" stroke="#000000" stroke-miterlimit="10" stroke-dasharray="2.3565" x1="53.6" y1="226.7" x2="51.3" y2="226.7"/>
</g>
<g>
	<polyline fill="none" stroke="#000000" stroke-miterlimit="10" points="48.7,226.8 47.4,226.7 46.6,226.8 46.4,226.7 44.6,228.2 	
		"/>
</g>
<g>
	<g>
		<polyline fill="none" stroke="#000000" stroke-miterlimit="10" points="41.6,230.8 40.6,231.7 39.4,232.7 37.6,234.2 37.3,234.6 
			37.1,234.7 		"/>
		<polyline fill="none" stroke="#000000" stroke-miterlimit="10" points="35.9,235.7 35.5,236.1 34.8,236.6 33.6,237.6 33,238.1 
			32.7,238.4 31.4,239.4 31.3,239.5 		"/>
	</g>
</g>
<g>
	<polyline fill="none" stroke="#000000" stroke-miterlimit="10" points="29.9,240.8 28.5,242 28.1,242.3 28,242.9 28.2,243.8 
		28.1,244.6 	"/>
</g>
<g>
	<polyline fill="none" stroke="#000000" stroke-miterlimit="10" stroke-dasharray="8.9509" points="28.2,250.5 28.2,250.7 
		28.2,250.9 28.2,251.7 28.2,253.2 28.3,256.6 28.2,258.2 28.3,259.5 	"/>
</g>
<g>
	<polyline fill="none" stroke="#000000" stroke-miterlimit="10" points="28.3,262.4 28.3,263.7 28.3,264.7 29.9,264.7 30.7,264.8 	
		"/>
</g>
<g>
	<g>
		<polyline fill="none" stroke="#000000" stroke-miterlimit="10" points="34.8,264.7 36.1,264.7 36.9,264.8 38.3,264.8 39.1,264.8 
			39.9,264.7 40.7,264.8 40.7,264.8 		"/>
		<polyline fill="none" stroke="#000000" stroke-miterlimit="10" points="51.1,264.8 52.3,264.7 54.9,264.8 55.6,264.8 56.4,264.7 
			57.1,264.8 		"/>
	</g>
</g>
<g>
	<polyline fill="none" stroke="#000000" stroke-miterlimit="10" stroke-dasharray="2.383" points="59,264.7 60.3,264.8 61.1,264.8 
		61.4,264.7 	"/>
</g>
<g>
	<polyline fill="none" stroke="#000000" stroke-miterlimit="10" stroke-dasharray="2.3603" points="141.8,264.8 142.6,264.8 
		144.2,264.7 	"/>
</g>
<g>
	<polyline fill="none" stroke="#000000" stroke-miterlimit="10" stroke-dasharray="2.3453" points="144.2,264.7 145,264.8 
		145.7,264.7 146.5,264.8 	"/>
</g>
<g>
	<polyline fill="none" stroke="#000000" stroke-miterlimit="10" stroke-dasharray="2.3695" points="94.8,264.8 95.6,264.7 
		96.4,264.8 97.2,264.8 	"/>
</g>
<g>
	<g>
		<polyline fill="none" stroke="#000000" stroke-miterlimit="10" points="101.9,264.8 103.4,264.8 105,264.7 107.3,264.8 
			107.8,264.8 		"/>
		<polyline fill="none" stroke="#000000" stroke-miterlimit="10" stroke-dasharray="7.8041,7.8041" points="115.6,264.8 116,264.7 
			116.8,264.9 117.5,264.7 119.9,264.9 122.3,264.7 123,264.8 123.8,264.7 124.6,264.8 126.2,264.7 126.9,264.7 127.2,264.7 		"/>
		<polyline fill="none" stroke="#000000" stroke-miterlimit="10" points="131.1,264.7 131.7,264.8 133.2,264.8 134,264.7 
			134.8,264.8 135.6,264.8 136.3,264.9 137.1,264.8 		"/>
	</g>
</g>
<g>
	<polyline fill="none" stroke="#000000" stroke-miterlimit="10" stroke-dasharray="2.3751" points="139.5,264.8 140.3,264.7 
		141.1,264.9 141.8,264.8 	"/>
</g>
<g>
	<polyline fill="none" stroke="#000000" stroke-miterlimit="10" stroke-dasharray="2.347" points="71.2,219.5 71.6,220.1 
		71.9,220.9 72.4,221.5 	"/>
</g>
<g>
	<polyline fill="none" stroke="#000000" stroke-miterlimit="10" points="74.3,224.4 74.5,225 75,225.6 75.6,226.4 74.8,226.4 
		74,226.5 73.3,226.4 	"/>
</g>
<g>
	<polyline fill="none" stroke="#000000" stroke-miterlimit="10" stroke-dasharray="2.3389" points="70.6,226.4 70.1,226.4 
		68.5,226.5 68.3,226.4 	"/>
</g>
<g>
	<polyline fill="none" stroke="#000000" stroke-miterlimit="10" stroke-dasharray="4.0419" points="69.2,216 69.5,216.7 70,217.3 
		70.4,218 70.8,218.7 71.1,219.5 	"/>
</g>
<g>
	<polyline fill="none" stroke="#000000" stroke-miterlimit="10" stroke-dasharray="2.3531" points="83.5,184.2 82.8,184.6 82.1,185 
		81.4,185.3 	"/>
</g>
<g>
	<g>
		<polyline fill="none" stroke="#000000" stroke-miterlimit="10" points="78.1,187.5 78,187.6 75.4,189.4 74.5,190.3 73.9,190.8 
			73.5,191.2 		"/>
		<polyline fill="none" stroke="#000000" stroke-miterlimit="10" points="72.2,192.4 72.2,192.4 71.7,193 71.3,193.3 70.9,194 
			69.9,195.2 68.5,197.1 		"/>
	</g>
</g>
<g>
	<polyline fill="none" stroke="#000000" stroke-miterlimit="10" stroke-dasharray="4.6873" points="67.7,198.9 67.5,199.3 67,200.8 
		66.8,201 66.6,203.3 	"/>
</g>
<g>
	<polyline fill="none" stroke="#000000" stroke-miterlimit="10" stroke-dasharray="5.3693" points="66.6,206.9 66.6,207.2 
		66.7,208.7 67.1,210.1 67.2,210.9 67.6,212.1 	"/>
</g>
<g>
	<polyline fill="none" stroke="#000000" stroke-miterlimit="10" stroke-dasharray="2.3482" points="68.4,213.8 68.9,215.3 69.3,216 
			"/>
</g>
<g>
	
		<line fill="none" stroke="#000000" stroke-miterlimit="10" stroke-dasharray="2.3579" x1="165.4" y1="225.3" x2="163.1" y2="225.4"/>
</g>
<g>
	<polyline fill="none" stroke="#000000" stroke-miterlimit="10" stroke-dasharray="4.9687" points="159.7,225.5 159.1,225.4 
		158.3,225.5 155.7,225.4 155,225.6 154.8,225.6 	"/>
</g>
<g>
	<polyline fill="none" stroke="#000000" stroke-miterlimit="10" points="153.1,225.5 152.6,225.5 151,225.5 150.8,225.6 
		151.6,224.2 152.1,223.6 	"/>
</g>
<g>
	<polyline fill="none" stroke="#000000" stroke-miterlimit="10" stroke-dasharray="3.7955" points="153.3,221.5 153.4,221.4 
		154.2,220.1 154.6,219.4 155,218.7 155.1,218.5 155.2,218.2 	"/>
</g>
<g>
	<polyline fill="none" stroke="#000000" stroke-miterlimit="10" points="155.9,217.2 156.1,216.5 156.6,215.8 156.8,215 157,215 
		157.2,214.2 157.8,212.8 	"/>
</g>
<g>
	<polyline fill="none" stroke="#000000" stroke-miterlimit="10" stroke-dasharray="2.3721" points="159.4,206.2 159.5,204.5 
		159.6,203.8 	"/>
</g>
<g>
	<line fill="none" stroke="#000000" stroke-miterlimit="10" stroke-dasharray="2.3571" x1="85.4" y1="264.7" x2="87.8" y2="264.7"/>
</g>
<g>
	<polyline fill="none" stroke="#000000" stroke-miterlimit="10" stroke-dasharray="2.3656" points="92.5,264.7 94,264.8 94.8,264.7 
			"/>
</g>
<g>
	<polyline fill="none" stroke="#000000" stroke-miterlimit="10" stroke-dasharray="2.359" points="76,264.7 76.8,264.8 78.4,264.7 	
		"/>
</g>
<g>
	<polyline fill="none" stroke="#000000" stroke-miterlimit="10" stroke-dasharray="2.3624" points="83,264.7 83.8,264.8 85.4,264.8 
			"/>
</g>
<polyline fill="none" stroke="#000000" stroke-miterlimit="10" points="119.8,180.9 119,180.8 117.4,180.8 "/>
<polyline fill="none" stroke="#000000" stroke-miterlimit="10" points="111.4,180.7 111.1,180.7 109.5,180.7 109.1,180.8 "/>
<g>
	<polyline fill="none" stroke="#000000" stroke-miterlimit="10" stroke-dasharray="2.3403" points="158.9,200 158.7,199.3 
		158.2,198.6 157.9,197.9 	"/>
</g>
<g>
	<g>
		<polyline fill="none" stroke="#000000" stroke-miterlimit="10" points="155.4,194 153.7,192 151.2,189.8 		"/>
		<polyline fill="none" stroke="#000000" stroke-miterlimit="10" stroke-dasharray="7.6603,7.6603" points="144.9,185.5 
			144.1,185.2 143.5,184.8 142.1,184.1 141.9,184.1 141.2,183.7 140.5,183.5 139.7,183.3 138.9,183.1 137.9,182.6 137.1,182.6 
			135.6,182.1 134.1,181.9 		"/>
		<polyline fill="none" stroke="#000000" stroke-miterlimit="10" points="130.3,181.6 126.8,181.4 125.3,181.1 124.3,181.2 		"/>
	</g>
</g>
<polyline fill="none" stroke="#000000" stroke-miterlimit="10" points="122.1,181 121.7,181 121,181.1 120.2,180.9 119.8,181 "/>
<g>
	<polyline fill="none" stroke="#000000" stroke-miterlimit="10" stroke-dasharray="4.3014" points="87.5,182.8 86,183.3 85.3,183.6 
		83.5,184.2 	"/>
</g>
<polyline fill="none" stroke="#000000" stroke-miterlimit="10" points="91.3,181.9 90.5,182 89.7,182.2 89,182.3 87.5,182.7 "/>
<line fill="none" stroke="#000000" stroke-miterlimit="10" x1="105.6" y1="181" x2="103.2" y2="181"/>
<polyline fill="none" stroke="#000000" stroke-miterlimit="10" points="100,181.3 98.9,181.4 97.7,181.3 96.9,181.5 95.3,181.4 
	95.2,181.4 "/>
<polyline fill="none" stroke="#000000" stroke-miterlimit="10" points="93.6,181.7 93.3,181.8 91.3,181.9 "/>
<polyline fill="none" stroke="#000000" stroke-miterlimit="10" points="109.1,180.8 108.3,180.7 107.5,180.8 106.8,180.9 106,181 
	"/>
<g>
	<line fill="none" stroke="#000000" stroke-miterlimit="10" stroke-dasharray="2.3561" x1="165.4" y1="225.4" x2="163" y2="225.5"/>
</g>
<g>
	<polyline fill="none" stroke="#000000" stroke-miterlimit="10" stroke-dasharray="2.3504" points="160.4,225.5 159.9,225.4 
		158.3,225.6 158.1,225.5 	"/>
</g>
<g>
	<polyline fill="none" stroke="#000000" stroke-miterlimit="10" stroke-dasharray="2.3768" points="68.3,226.5 67.5,226.5 
		66.7,226.4 65.9,226.6 	"/>
</g>
<g>
	<polyline fill="none" stroke="#000000" stroke-miterlimit="10" stroke-dasharray="5.0008" points="62.6,226.5 62,226.6 61.2,226.5 
		61,226.6 60.2,226.6 58.6,226.5 57.7,226.6 	"/>
</g>
<g>
	<line fill="none" stroke="#000000" stroke-miterlimit="10" stroke-dasharray="2.356" x1="56" y1="226.7" x2="53.6" y2="226.7"/>
</g>
<g>
	<polyline fill="none" stroke="#000000" stroke-miterlimit="10" stroke-dasharray="2.3346" points="198.7,240.4 197.4,239.5 
		196.8,239 	"/>
</g>
<g>
	<g>
		<polyline fill="none" stroke="#000000" stroke-miterlimit="10" points="193.8,236.5 193.5,236.1 192.7,235.7 191.6,234.6 
			190.3,233.7 189.4,232.8 189.2,232.7 		"/>
		<polyline fill="none" stroke="#000000" stroke-miterlimit="10" points="188,231.7 186.2,230.4 185.7,229.9 185,229.4 184.1,228.5 
			183.3,227.9 		"/>
	</g>
</g>
<g>
	<polyline fill="none" stroke="#000000" stroke-miterlimit="10" stroke-dasharray="2.3565" points="181.8,226.7 181.6,226.6 
		180.4,225.6 179.9,225.3 	"/>
</g>
<g>
	<polyline fill="none" stroke="#000000" stroke-miterlimit="10" stroke-dasharray="4.0469" points="155.1,218.6 155.4,217.8 
		156.1,216.5 156.4,215.7 156.9,215 	"/>
</g>
<g>
	<polyline fill="none" stroke="#000000" stroke-miterlimit="10" stroke-dasharray="4.1602" points="73.2,223 74.2,224.3 74.6,225 
		75.1,225.6 75.4,226.3 75.6,226.4 	"/>
</g>
<g>
	<polyline fill="none" stroke="#000000" stroke-miterlimit="10" stroke-dasharray="3.9329" points="67.7,212.4 67.9,213.1 
		68.4,213.8 68.6,214.6 69.2,216 	"/>
</g>
<line fill="none" stroke="#000000" stroke-miterlimit="10" x1="305.1" y1="181.7" x2="301.5" y2="181.4"/>
<g>
	<polyline fill="none" stroke="#000000" stroke-miterlimit="10" stroke-dasharray="3.8562" points="159.5,203.8 159.5,203 
		159.2,202.3 159.2,201.5 158.9,200 	"/>
</g>
<g>
	<polyline fill="none" stroke="#000000" stroke-miterlimit="10" stroke-dasharray="3.984" points="335.1,215.3 333.7,218.1 
		333.3,218.8 	"/>
</g>
<g>
	
		<line fill="none" stroke="#000000" stroke-miterlimit="10" stroke-dasharray="2.3326" x1="344.6" y1="309.4" x2="346.9" y2="309.4"/>
</g>
<g>
	<polyline fill="none" stroke="#000000" stroke-miterlimit="10" stroke-dasharray="2.3369" points="349.5,309.4 351.6,309.2 
		351.9,309.3 	"/>
</g>
<g enable-background="new    ">
	<path d="M89.5,596.9v-20.2H97c1.5,0,2.8,0.2,3.7,0.6c0.9,0.4,1.7,1,2.2,1.9c0.5,0.9,0.8,1.7,0.8,2.7c0,0.9-0.2,1.7-0.7,2.4
		c-0.5,0.8-1.2,1.4-2.1,1.8c1.2,0.4,2.2,1,2.8,1.8c0.7,0.9,1,1.9,1,3.1c0,0.9-0.2,1.8-0.6,2.6s-0.9,1.4-1.5,1.9
		c-0.6,0.4-1.3,0.8-2.2,1s-2,0.3-3.3,0.3H89.5z M92.1,585.2h4.4c1.2,0,2-0.1,2.6-0.2c0.7-0.2,1.2-0.5,1.5-1c0.3-0.5,0.5-1.1,0.5-1.8
		c0-0.7-0.2-1.3-0.5-1.8s-0.8-0.9-1.4-1s-1.6-0.3-3.1-0.3h-4V585.2z M92.1,594.5h5c0.9,0,1.5,0,1.8-0.1c0.6-0.1,1.1-0.3,1.5-0.6
		c0.4-0.3,0.8-0.6,1-1.1c0.3-0.5,0.4-1.1,0.4-1.7c0-0.8-0.2-1.4-0.6-2s-0.9-0.9-1.6-1.2s-1.7-0.3-3-0.3h-4.7V594.5z"/>
</g>
<g enable-background="new    ">
	<path d="M249.3,524.4l7.8-20.2h2.9l8.3,20.2h-3.1l-2.4-6.1h-8.5l-2.2,6.1H249.3z M255.1,516.1h6.9l-2.1-5.6
		c-0.6-1.7-1.1-3.1-1.4-4.2c-0.3,1.3-0.6,2.6-1.1,3.9L255.1,516.1z"/>
</g>
<polyline fill="none" stroke="#000000" stroke-miterlimit="10" points="47.5,486.1 46.7,486.2 45.9,486 44.3,486.1 43.5,486 
	42.7,486.2 42.5,486.1 41.8,486.2 41,486.1 40.2,486.2 39.2,486 38.4,486.1 33.6,486 32.8,486.1 32.9,486 32.4,486.2 31.9,486.7 
	30,488.1 29.4,488.7 28.2,489.8 27,490.5 25.2,492.1 24.6,492.6 24,493.2 22.3,494.4 21.1,495.6 19.2,497 17.6,498.5 17,498.9 
	16.4,499.5 15,500.4 14.5,501 13.8,501.5 13.9,502.2 13.8,503.8 13.8,505.5 13.7,507.1 13.8,507.6 13.8,509.3 13.8,510 13.8,510.8 
	13.8,511.4 13.7,513.8 13.8,515.4 13.7,518.3 13.8,522.3 13.7,523.1 13.8,532.4 13.6,533.2 13.7,534 14.4,534.1 15.2,534 16,534.1 
	16.7,534 18.3,534.2 19,534.1 19.8,534.2 22.2,534 23,534.1 23.7,534 24.4,534.2 25.2,534.2 26,534.1 26.7,534.2 27.5,534.1 
	28.2,534.2 29,534.1 29.8,534.2 30.5,534 31.3,534.1 32.1,534 32.3,534.2 33.1,534.1 33.8,534.1 34.6,534.2 35.4,534.2 36.1,534.1 
	36.9,534 38.5,534.2 39.3,534.2 39.5,534.2 40.3,534.1 41.1,534.2 41.8,534.1 45,534.2 46.8,534.2 47.6,534.2 48.4,534.2 
	49.1,534.2 57.3,534.2 58.1,534.1 58.9,534.2 59.7,534.2 61.3,534.2 62,534.2 62.8,534.3 63.6,534.3 64.4,534.2 66,534.2 
	66.7,534.2 69.1,534.2 70.8,534.1 73.1,534.2 75.5,534.2 76.3,534.2 77.1,534.2 79.4,534.1 80.2,534.2 81.8,534.1 83.4,534.2 
	86.6,534.1 88.2,534.2 89,534.1 89.7,534.2 "/>
<polyline fill="none" stroke="#000000" stroke-miterlimit="10" points="137.9,487.6 138,487.4 139,486.1 139.8,484.7 140.3,484.1 
	140.7,483.2 141.7,481.9 142.1,481.2 142.4,480.4 "/>
<polyline fill="none" stroke="#000000" stroke-miterlimit="10" points="146.9,461.7 147.1,463.2 147.2,464 147.4,464.8 147.5,465.5 
	147.4,466.2 147.2,467.9 147.3,468.6 147.2,469.4 147,470.1 146.5,471.6 146.1,473.3 145.7,474 144.4,476.9 "/>
<polyline fill="none" stroke="#000000" stroke-miterlimit="10" points="55.4,475.9 56.9,478.9 57.3,479.5 57.7,480.4 58.5,481.7 
	59.3,483.2 59.4,483.3 60.2,484.7 61.2,486 61.5,486.7 "/>
<line fill="none" stroke="#000000" stroke-miterlimit="10" x1="147.3" y1="465.6" x2="147" y2="469.5"/>
<polyline fill="none" stroke="#000000" stroke-miterlimit="10" points="41.9,486.6 44.3,486.5 45.1,486.6 46.7,486.5 47.7,486.6 
	49.3,486.5 51,486.7 52.6,486.5 54.2,486.6 "/>
<polyline fill="none" stroke="#000000" stroke-miterlimit="10" points="12.9,502 12.9,503.5 13,505 12.9,506 13,506.7 12.9,507.5 
	12.9,510.4 12.9,514.2 12.9,515.8 12.9,516.3 12.8,517 12.9,520.2 12.7,521.8 12.8,522.6 12.7,523.4 12.8,531.8 12.7,532.6 
	12.8,533.4 12.7,534.2 "/>
<polyline fill="none" stroke="#000000" stroke-miterlimit="10" points="114.1,534.2 118.1,534.1 118.9,534.2 119.6,534.2 
	122.8,534.2 125.2,534.1 126.8,534.2 131.6,534.2 132.3,534.3 134,534.2 135.6,534.2 137.2,534.2 137.9,534.1 138.2,534.2 
	139,534.1 139.8,534.2 140.5,534.1 142.2,534.2 143.8,534 144.5,534.1 145.6,534 146.4,534.2 148,534 151.1,534.1 151.9,534 
	152.7,534.1 152.9,534 153.7,534 156.1,534.1 157.7,533.9 161.1,534 161.9,534 162.7,534 163.4,534 164.2,534 165,534 166.6,534 
	168.1,534 169.7,534.1 170.5,534 171.3,534.1 172.8,534 175.2,534.1 176,534 176.7,534.1 178.3,534 183.8,534 184.5,534 
	185.3,534.1 186.1,534 186,532.1 186.1,523.6 186.1,522 186.1,521.3 186.1,520.4 186.2,519.6 186.1,518.9 186.1,518.1 186.1,516.5 
	186.2,516.3 186.1,515.5 186.3,513.1 186.2,511.3 186.3,510.5 186.2,509.7 186.3,509 186.1,508.2 186.2,507.4 186.1,506.7 
	186.2,506 186.1,505 186.2,503.6 184.6,502.2 181.5,499.7 181.2,499.3 180.5,498.9 178.8,497.2 176.5,495.4 175.3,494.3 174,493.4 
	171.2,490.9 170.2,490.5 169.7,489.9 169,489.4 167.3,487.8 167,487.7 166.2,487.8 164.6,487.7 163.8,487.8 163.1,487.6 
	162.3,487.7 161.5,487.6 159.9,487.8 159.7,487.7 158.1,487.6 157.3,487.7 156.5,487.6 155.8,487.6 155,487.5 154.2,487.6 
	152.6,487.6 152.4,487.6 151.6,487.6 150.9,487.6 150.1,487.6 149.3,487.6 148.5,487.6 146.2,487.7 145.4,487.6 "/>
<polyline fill="none" stroke="#000000" stroke-miterlimit="10" points="145.1,487.6 144,487.6 143.3,487.4 142.5,487.5 140.9,487.4 
	140.1,487.5 139.4,487.4 138.6,487.5 137.8,487.4 137.9,487.5 137.9,487.3 138.9,486 139.3,485.3 140.3,483.9 140.7,483.2 
	141.6,481.9 142.4,480.4 142.8,479.7 144,477.7 144.3,476.9 "/>
<polyline fill="none" stroke="#000000" stroke-miterlimit="10" points="144.1,476.8 144.5,476.1 145.3,473.9 145.7,473.2 
	145.9,472.5 146.2,471.7 146.5,471 146.8,470.2 147,469.4 147.1,467.9 147.1,467.2 147.1,466.4 147.3,465.6 147.3,464.9 
	146.9,463.3 146.9,462.5 146.9,461.7 "/>
<polyline fill="none" stroke="#000000" stroke-miterlimit="10" points="55.1,475.7 55.4,476.6 56.3,477.9 57,479.3 57.1,479.4 
	57.5,480.1 58.3,481.5 58.7,482.2 59.1,482.9 59.2,483.1 59.7,483.8 60,484.5 60.4,485.2 61,485.8 61.4,486.5 61.1,486.7 
	60.4,486.5 58.7,486.6 58,486.5 57.2,486.7 56.4,486.5 55.6,486.6 54.9,486.5 54.1,486.6 53.8,486.5 53.1,486.6 52.3,486.5 
	50.7,486.7 49.9,486.5 46.7,486.5 "/>
<polyline fill="none" stroke="#000000" stroke-miterlimit="10" points="90,534.2 90.8,534.1 91.6,534.2 92.4,534.1 94.7,534.2 
	97.1,534.1 97.9,534.2 98.7,534.2 99.4,534.3 101,534.2 101.8,534.2 102.6,534.2 103.4,534.2 104.1,534.1 "/>
<polyline fill="none" stroke="#000000" stroke-miterlimit="10" points="104.1,534.2 106.5,534.1 108.1,534.3 108.9,534.2 
	112.9,534.2 113.7,534.2 "/>
<polyline fill="none" stroke="#000000" stroke-miterlimit="10" points="52.8,464.6 52.7,466.1 52.8,466.9 52.8,467.7 52.9,468.4 
	53.2,469.1 53.6,470.7 53.6,471.4 54.1,473 54.8,474.4 55,475.2 55.4,475.9 "/>
<polyline fill="none" stroke="#000000" stroke-miterlimit="10" points="58.1,453.1 56.5,455 56.1,455.6 55.5,456.2 55,456.8 
	54.5,457.8 54.3,458.5 54,459.2 53.1,461.4 53,463 52.8,463.8 52.8,464.6 "/>
<polyline fill="none" stroke="#000000" stroke-miterlimit="10" points="146.9,461.7 145.8,459.3 144.7,457.1 143.6,455.9 
	143.2,455.2 142.7,454.7 142,453.6 140.3,452 139.1,450.9 138.4,450.4 "/>
<polyline fill="none" stroke="#000000" stroke-miterlimit="10" points="111.2,441.6 110.7,441.6 110,441.5 109.2,441.6 106.4,441.2 
	104.8,441.3 104,441.1 103.6,441.2 101.2,441 99.2,441.1 96.3,441.1 94.7,441.2 94,441.1 92.7,441.3 91.1,441.4 89.5,441.6 "/>
<polyline fill="none" stroke="#000000" stroke-miterlimit="10" points="138.4,450.2 137.9,450 137.4,449.5 136.1,448.5 135.4,448.2 
	134.9,447.7 134.3,447.2 134.1,447.2 133.5,446.7 132.8,446.2 132.1,445.9 131.4,445.4 130.7,445 130,444.7 129.6,444.5 
	127.3,443.8 125.9,443.1 "/>
<polyline fill="none" stroke="#000000" stroke-miterlimit="10" points="125.8,443.2 125.1,442.9 122,442.3 "/>
<polyline fill="none" stroke="#000000" stroke-miterlimit="10" points="122,442.3 121.5,442.3 120.7,442 119.1,442 117.9,441.9 
	114.7,441.7 "/>
<polyline fill="none" stroke="#000000" stroke-miterlimit="10" points="114.7,441.8 113.5,441.6 112.8,441.7 111.2,441.6 "/>
<polyline fill="none" stroke="#000000" stroke-miterlimit="10" points="85.8,441.6 85.4,441.6 84.6,441.7 83.9,441.6 83.1,441.7 
	82.3,441.6 81.8,441.8 80.2,441.8 79.4,441.9 78.7,442.1 76.4,442.5 75.6,442.8 74.8,442.9 74.5,443.1 72.9,443.5 71.4,444.1 
	70.6,444.3 69.8,444.8 67.6,445.8 67,446.3 66.2,446.6 62.5,449.1 61.9,449.6 61.5,449.8 61.1,450.5 59.8,451.5 59.3,452.1 
	58,453.1 "/>
<polyline fill="none" stroke="#000000" stroke-miterlimit="10" points="54.2,486.5 51.6,486.5 50.8,486.5 50,486.5 48.4,486.4 
	46.8,486.5 "/>
<polyline fill="none" stroke="#000000" stroke-miterlimit="10" points="32.1,486.5 31,487.3 30.5,487.8 29.2,488.8 28.5,489.3 
	27.3,490.3 26.8,490.5 26.2,491 24.4,492.6 23.7,493.1 23.2,493.6 22.5,494 20.9,495.4 20.2,495.9 19,497 18.3,497.4 17.7,498 
	16.7,498.7 15.5,499.8 13,501.8 "/>
<polyline fill="none" stroke="#000000" stroke-miterlimit="10" points="144.5,476.9 145.1,475.4 145.3,474.7 145.7,474 146,473.2 
	"/>
<line fill="none" stroke="#000000" stroke-miterlimit="10" x1="89.6" y1="441.6" x2="85.9" y2="441.8"/>
<polyline fill="none" stroke="#000000" stroke-miterlimit="10" points="57.3,479.5 56.9,478.7 55.4,475.9 "/>
<line fill="none" stroke="#000000" stroke-miterlimit="10" x1="233.8" y1="534.3" x2="185.9" y2="534.3"/>
<line fill="none" x1="233.8" y1="441" x2="233.8" y2="487"/>
<line fill="none" x1="233.8" y1="488.3" x2="233.8" y2="534.3"/>
<line fill="none" stroke="#000000" stroke-miterlimit="10" x1="169.4" y1="487.7" x2="233.8" y2="487.7"/>
<line fill="none" stroke="#000000" stroke-miterlimit="10" x1="98.1" y1="441" x2="233.8" y2="441"/>
<line fill="none" stroke="#000000" stroke-miterlimit="10" x1="185.9" y1="556.8" x2="185.9" y2="534.3"/>
<line fill="none" x1="12.7" y1="556.8" x2="185.9" y2="556.8"/>
<line fill="none" stroke="#000000" stroke-miterlimit="10" x1="12.7" y1="534.3" x2="12.7" y2="556.8"/>
<g enable-background="new    ">
	<path d="M249.3,474.4l7.8-20.2h2.9l8.3,20.2h-3.1l-2.4-6.1h-8.5l-2.2,6.1H249.3z M255.1,466.1h6.9l-2.1-5.6
		c-0.6-1.7-1.1-3.1-1.4-4.2c-0.3,1.3-0.6,2.6-1.1,3.9L255.1,466.1z"/>
</g>
<polyline fill="none" stroke="#000000" stroke-miterlimit="10" points="508.5,495.1 507.8,493.8 506.6,491 505.9,489.7 504.1,485 
	502.7,480.5 500.2,475 496.3,463.4 494.5,459.6 492,452.1 490.6,449.4 489.8,446.7 486.8,445.9 479.5,443.6 476.4,442.9 472.5,442 
	469.7,440.9 462.3,438.8 459.2,438.1 457.1,437.3 452.7,435.9 445,434.1 434,430.8 430.9,430 427.3,428.7 415,432.3 407.6,434.2 
	402.7,435.9 395.7,437.7 389.6,439.6 386.7,440.3 386.1,440.7 388.3,446.5 390,450.2 390.9,453.3 393.2,458.3 395.2,464.3 
	398.5,472.4 399.9,476.3 401.7,480.5 403.7,486.3 404.2,487.7 405,489.1 406.7,493.3 408.3,497.7 408.7,499.2 410,501.9 411,504.9 
	415.1,514.8 415.5,516.3 416.2,517.6 416.8,519 419.2,524.9 422.5,528.2 424.7,530.6 425.9,531.5 429.3,534.6 430.7,535.4 
	432.9,537.5 434.9,539.8 436,540.9 439.4,544 443,546.9 446.3,550 450.6,554.4 453,556.3 454.2,557.3 455.2,558.4 458.6,561.5 
	460.9,563.5 463.1,565.8 467.9,569.7 470,571.9 472.3,574 473.3,575 476.9,578 478.8,580.4 479.9,581.5 484.4,585.6 485.6,586.5 
	486.7,587.6 489.1,589.6 491.5,591.8 501.7,588.7 507.3,587.2 510.7,586 515,584.9 516.6,584.4 523.1,582.5 527.8,581 530.9,580.2 
	535.5,578.7 539.7,577.7 545.8,575.8 556.7,572.7 558.4,572.1 569.9,568.9 574.5,567.4 577.3,566.7 580.7,565.6 585.4,561.8 
	599.3,549.7 599.1,548.9 589.9,550 587.9,550.1 583.1,550.8 567.5,552.4 560.7,553.5 543.7,558.5 539.5,559.9 528.9,563 
	523.2,564.9 511.2,575.5 491.6,590.9 "/>
<polyline fill="none" stroke="#000000" stroke-miterlimit="10" points="386.7,440.3 389.4,447.6 390.5,449.8 391.4,452.9 
	393.7,457.9 395.8,463.9 398.5,470.5 399.9,474.4 402.9,481.6 404.3,486 404.9,487.4 406.2,490.1 407.3,493 409.3,498.9 
	410.7,501.6 412.2,506.1 414.6,511.7 416.2,516.1 416.9,517.4 419.8,524.5 423.2,527.6 425.2,529.9 427.6,531.9 429.8,534.1 
	431.1,534.9 433.4,537 435.4,539.3 438.7,542.5 443.5,546.3 445.8,548.4 451.1,553.8 454.8,556.7 455.8,557.8 458.1,559.9 
	461.5,562.9 463.6,565.2 466,567.1 468.3,569.1 471.5,572.4 474.9,575.5 477.4,577.4 480.4,580.9 481.6,581.9 484.9,585.1 
	492,591.1 "/>
<polyline fill="none" stroke="#000000" stroke-miterlimit="10" points="509.4,493.9 508.1,496.9 506.5,500.1 "/>
<polyline fill="none" stroke="#000000" stroke-miterlimit="10" points="588.6,550.1 589,548.9 589.9,543.9 590.2,537.8 590.2,534.6 
	589.9,530.7 588.8,526.3 588.2,522.8 586,515.4 584.2,511.1 582.1,503.9 578.9,497 578,494.3 576.8,491.4 575.5,488.7 574.7,487.4 
	574,485.3 572.6,482.5 571.2,479.8 570.4,478.5 568.5,475.1 563.1,466 560.2,462 559.5,460.8 557.6,458.4 556.2,456.2 554.3,453.8 
	550.7,449.9 549.8,448.7 547.1,446.4 546,445.1 536.8,437.9 536,437.4 532.5,435.8 528.9,434.6 523.9,433.7 521.8,433.6 518,433.8 
	513,435.3 509,437.1 505.5,439.8 502.5,443.9 501.1,448.5 500.5,454.3 500.6,460.9 501.3,465.4 501.5,467.8 502.2,470.7 
	503.3,476.5 504.5,480.9 505.3,485.5 505.8,486.9 507.5,492.9 508.5,495.5 "/>
<polyline fill="none" stroke="#000000" stroke-miterlimit="10" points="587.9,550.1 588.3,548.9 589.1,544.6 589.4,540.8 589.5,538 
	589.1,531 587.5,523.1 586.7,520 586.1,518.6 585.3,515.6 584.8,514.1 583.5,511.2 582.5,508.3 581.3,504.1 578.2,497.2 
	577.3,494.4 576.7,493.1 574,487.7 571.9,482.8 570.5,480 569.6,478.8 567.8,475.4 566.8,474.1 564,469 562.1,466 558.7,461.1 
	556.9,458.6 555.5,456.4 553.6,453.9 551,451.2 549,448.8 547.5,447.7 545.3,445.3 539.3,440.7 537.3,438.9 536.1,438.1 
	535.4,437.5 532.6,436.3 530.4,435.5 528.3,434.8 526.8,434.5 524.9,434 521.1,433.8 518.2,433.9 517.4,434.1 513.1,435.3 "/>
<polyline fill="none" stroke="#000000" stroke-miterlimit="10" points="482.8,505.6 487.5,504.1 491.7,503 503.3,499.3 507.9,497.8 
	"/>
<polyline fill="none" stroke="#000000" stroke-miterlimit="10" points="523.6,565.6 511.6,576.4 491.8,591.9 "/>
<polyline fill="none" stroke="#000000" stroke-miterlimit="10" points="599.3,549.8 586.8,551.2 583.6,551.7 567.9,553.3 561,554.4 
	557.3,555.4 544.1,559.3 536.9,561.7 529.2,563.9 523.7,565.6 523.3,564.9 "/>
<polyline fill="none" stroke="#000000" stroke-miterlimit="10" points="507.7,497.8 503.1,499.4 501.8,499.7 498.7,500.8 
	489.9,503.6 485.6,504.7 479.8,506.7 477,507.4 473.8,508.6 469,509.8 465.8,511.1 463.1,511.7 459.9,512.8 457.3,513.4 455.6,514 
	446.3,516.8 444.9,517.1 441.8,518.1 433.6,520.4 430.4,521.5 427,522.4 423.8,523.5 419.5,524.5 "/>
<polyline fill="none" stroke="#000000" stroke-miterlimit="10" points="506.5,500.2 508.2,502.8 508.9,504.2 511,506.5 513.9,509.5 
	516.3,511.4 518.3,513.9 519.4,515 521.9,517.1 523.2,518 526.3,521.5 530,524.6 531.2,525.9 537.1,531.2 540.4,534.8 542.8,536.8 
	545.1,538.9 546.5,540 547.6,541.1 548.5,542.4 549.7,543.6 552.1,545.5 554.3,548 556.7,549.9 557.6,551.1 560.6,553.7 "/>
<polyline fill="none" stroke="#000000" stroke-miterlimit="10" points="491.7,591.9 500.4,589.3 503.5,588.2 507.6,587.2 
	511.1,585.9 515.2,584.9 516.8,584.3 526.5,581.5 528.2,580.8 529.7,580.5 535.8,578.6 537,578.4 539.9,577.8 541.4,577.2 
	544.1,576.5 545.8,575.8 547.2,575.5 550.4,574.4 556.9,572.7 558.7,572 562.8,571 566,570 570,568.9 574.7,567.2 577.3,566.7 
	580.9,565.6 "/>
<polyline fill="none" stroke="#000000" stroke-miterlimit="10" points="493.7,590.9 496.8,594.4 499,596.6 502.8,599.4 504.9,601.6 
	506.2,602.5 509.6,605.7 514.2,609.8 523.2,618.3 526.4,621.5 532.1,626.5 531.9,623.4 531.6,618.9 531.4,614.2 531.1,611.3 
	530.9,601.8 530.3,598.6 530,595.4 529,589.4 528.7,587.9 528.6,586.2 527.3,577 526.6,574.2 526.4,571.9 525.4,567.2 524.1,562.9 
	"/>
<polyline fill="none" stroke="#000000" stroke-miterlimit="10" points="386.8,443.5 385,452.4 382.5,463.7 381.8,479 381.2,485.4 
	381,487.7 385.5,492 389.1,494.9 391.3,497.2 394.7,500.2 396.8,502.6 401.5,506.6 403.6,508.7 407.1,511.8 409.6,513.7 
	412.8,517.1 414,518.1 416.4,520.1 "/>
<polyline fill="none" stroke="#000000" stroke-miterlimit="10" points="544.7,444.7 527.3,451.8 510.7,461.7 495.7,474.1 
	482.2,489.1 471,505.6 468.6,511.1 465.6,516.9 462.9,523 457.8,540.8 457.5,542.6 456.1,558.3 "/>
</svg>
