<?xml version="1.0" encoding="utf-8"?>
<!-- Generator: Adobe Illustrator 18.0.0, SVG Export Plug-In . SVG Version: 6.00 Build 0)  -->
<!DOCTYPE svg PUBLIC "-//W3C//DTD SVG 1.1//EN" "http://www.w3.org/Graphics/SVG/1.1/DTD/svg11.dtd">
<svg version="1.1" id="Layer_1" xmlns="http://www.w3.org/2000/svg" xmlns:xlink="http://www.w3.org/1999/xlink" x="0px" y="0px"
	 viewBox="0 0 612 792" enable-background="new 0 0 612 792" xml:space="preserve">
<line fill="none" stroke="#000000" stroke-miterlimit="10" x1="341" y1="407.6" x2="345.3" y2="405.4"/>
<line fill="none" stroke="#000000" stroke-miterlimit="10" x1="345.2" y1="405.6" x2="341.7" y2="407.4"/>
<polyline fill="none" stroke="#000000" stroke-miterlimit="10" points="344,406.2 342,407.2 347.1,404.6 "/>
<polyline fill="none" stroke="#000000" stroke-miterlimit="10" points="345.5,405.4 345.1,405.7 347.9,404.3 "/>
<polyline fill="none" stroke="#000000" stroke-miterlimit="10" points="345,405.7 341.4,407.4 345,405.6 340,408.1 "/>
<line fill="none" stroke="#000000" stroke-miterlimit="10" x1="353.8" y1="401.5" x2="351.9" y2="402.5"/>
<line fill="none" stroke="#000000" stroke-miterlimit="10" x1="342.5" y1="406.9" x2="340.1" y2="408.1"/>
<polyline fill="none" stroke="#000000" stroke-miterlimit="10" points="368.8,468.1 368.5,470 367.5,473.9 365.9,477.5 364.8,479.3 
	363.5,481.1 361.9,482.9 360.3,484.6 358.5,486.3 356.4,488 354.1,489.7 351.8,491.2 348.2,493.3 344.3,495.2 340.8,496.8 
	334.6,499.1 326.7,501.5 324.5,502 321.1,502.6 314.6,504 304.5,505.2 302,505.3 298,505.7 290.2,505.8 283.5,505.7 279.5,505.5 
	274.4,505 271.9,504.7 269.1,504.6 267.8,504.4 259.3,502.7 "/>
<line fill="none" stroke="#000000" stroke-miterlimit="10" x1="328.4" y1="413.7" x2="331.8" y2="412.1"/>
<line fill="none" stroke="#000000" stroke-miterlimit="10" x1="329.9" y1="412.9" x2="327.8" y2="414"/>
<polyline fill="none" stroke="#000000" stroke-miterlimit="10" points="331.8,412.1 328.4,413.7 331.6,412.1 "/>
<polyline fill="none" stroke="#000000" stroke-miterlimit="10" points="415.6,371.9 416.3,371.5 416.2,368.8 415.7,368.5 
	413.2,369.6 410.3,371.1 402.4,374.7 397.3,377.4 391.4,380 378.1,386.5 373.6,388.5 371.2,389.8 361.9,394.1 358.9,395.7 
	350.1,399.9 348,400.7 339.8,404.8 334.5,407.2 313.4,417.4 313.3,420.4 314,420.7 314.3,420.5 "/>
<polyline fill="none" stroke="#000000" stroke-miterlimit="10" points="259.1,417.1 257.4,416.2 259.1,417.1 "/>
<polyline fill="none" stroke="#000000" stroke-miterlimit="10" points="257.2,416.1 260,417.5 258.8,417 256.3,415.6 "/>
<line fill="none" stroke="#000000" stroke-miterlimit="10" x1="263" y1="418.8" x2="260.3" y2="417.6"/>
<polyline fill="none" stroke="#000000" stroke-miterlimit="10" points="263.5,419 264.5,419.6 266,420.3 "/>
<polyline fill="none" stroke="#000000" stroke-miterlimit="10" points="263.6,419.1 264.6,419.8 266.4,420.6 "/>
<polyline fill="none" stroke="#000000" stroke-miterlimit="10" points="263.9,419.2 263,418.8 260.7,417.8 "/>
<polyline fill="none" stroke="#000000" stroke-miterlimit="10" points="266.5,420.6 264.9,419.8 263,418.7 261,417.9 "/>
<line fill="none" stroke="#000000" stroke-miterlimit="10" x1="256.1" y1="415.5" x2="259.1" y2="417.2"/>
<polyline fill="none" stroke="#000000" stroke-miterlimit="10" points="258,416.6 254,414.4 252.1,413.5 "/>
<line fill="none" stroke="#000000" stroke-miterlimit="10" x1="258" y1="416.6" x2="256.1" y2="415.5"/>
<polyline fill="none" stroke="#000000" stroke-miterlimit="10" points="254.6,414.7 253.4,414 252.3,413.5 "/>
<polyline fill="none" stroke="#000000" stroke-miterlimit="10" points="254.8,414.8 253.7,414.1 251.7,413.4 "/>
<polyline fill="none" stroke="#000000" stroke-miterlimit="10" points="252.3,413.6 253,413.9 255,414.9 253.8,414.3 251.7,413.4 
	"/>
<line fill="none" stroke="#000000" stroke-miterlimit="10" x1="228.7" y1="402.2" x2="229" y2="402.4"/>
<polyline fill="none" stroke="#000000" stroke-miterlimit="10" points="258.1,485.6 258.6,486.6 258.8,487.7 258.7,488.6 
	259.3,492.8 259.2,497.5 259.6,502.8 257,502.1 253.3,501.4 249.9,500.3 248.9,500.2 247.7,499.8 243.4,498 241.3,497.4 
	237.1,495.6 231.1,492.6 227.5,490.4 221,485.5 220.1,484.6 216.7,481.1 "/>
<line fill="none" stroke="#000000" stroke-miterlimit="10" x1="218.2" y1="397.2" x2="217" y2="396.6"/>
<polyline fill="none" stroke="#000000" stroke-miterlimit="10" points="212.6,394.7 213.7,395.4 215.6,396.2 "/>
<polyline fill="none" stroke="#000000" stroke-miterlimit="10" points="215.6,396.1 213.3,395.2 212.6,394.7 "/>
<polyline fill="none" stroke="#000000" stroke-miterlimit="10" points="176.3,377.2 173.2,375.9 176.3,377.2 "/>
<line fill="none" stroke="#000000" stroke-miterlimit="10" x1="172.7" y1="375.5" x2="176.3" y2="377.2"/>
<polyline fill="none" stroke="#000000" stroke-miterlimit="10" points="216.2,464.9 215.8,465.2 215.5,465.8 215.3,466.6 
	215.9,468.3 216,469.6 216.6,476.8 216.7,481.1 214.7,477.4 213.3,474.3 212.6,472.5 212.1,469.9 211.9,468 "/>
<line fill="none" stroke="#000000" stroke-miterlimit="10" x1="176.3" y1="377.2" x2="172.9" y2="375.6"/>
<line fill="none" stroke="#000000" stroke-miterlimit="10" x1="175.5" y1="376.8" x2="172.9" y2="375.6"/>
<line fill="none" stroke="#000000" stroke-miterlimit="10" x1="175.3" y1="376.7" x2="172.7" y2="375.5"/>
<polyline fill="none" stroke="#000000" stroke-miterlimit="10" points="266.8,420.6 267.3,420.3 267.3,417.4 264.9,416.4 
	261.4,414.8 258,412.9 255.6,411.9 254.5,411.2 252.5,410.4 248.5,408.1 246.2,407.3 245.1,406.7 235.2,401.7 231.2,400.1 
	230,399.6 228.2,398.5 225.7,397.5 221.2,395 218.7,394 212.8,391.2 211.7,390.5 210.5,390 208.2,388.9 206.4,388.2 204.6,387.3 
	203,386.7 201,385.7 200,385.1 198.8,384.5 195.3,382.9 193.8,382.3 190,380.1 188.8,379.5 186.5,378.8 185.4,378.3 183.4,377.3 
	181.7,376.2 176.2,373.8 171.7,371.5 166.2,369 164.8,368.3 164.2,368.5 164.3,369.9 164.2,371.5 164.5,371.6 "/>
<line fill="none" stroke="#000000" stroke-miterlimit="10" x1="188.9" y1="341.1" x2="187" y2="342"/>
<line fill="none" stroke="#000000" stroke-miterlimit="10" x1="187.9" y1="341.5" x2="188.9" y2="341.1"/>
<polyline fill="none" stroke="#000000" stroke-miterlimit="10" points="188.9,341.1 187.9,341.6 188.9,341.1 "/>
<line fill="none" stroke="#000000" stroke-miterlimit="10" x1="187" y1="342" x2="188.9" y2="341.1"/>
<line fill="none" stroke="#000000" stroke-miterlimit="10" x1="187.6" y1="341.7" x2="188.9" y2="341.1"/>
<line fill="none" stroke="#000000" stroke-miterlimit="10" x1="201.1" y1="335.8" x2="198" y2="337.3"/>
<line fill="none" stroke="#000000" stroke-miterlimit="10" x1="201.8" y1="335.6" x2="198" y2="337.3"/>
<line fill="none" stroke="#000000" stroke-miterlimit="10" x1="201.1" y1="335.8" x2="201.8" y2="335.6"/>
<line fill="none" stroke="#000000" stroke-miterlimit="10" x1="201.8" y1="335.6" x2="201.1" y2="335.8"/>
<line fill="none" stroke="#000000" stroke-miterlimit="10" x1="201.2" y1="335.8" x2="198" y2="337.3"/>
<line fill="none" stroke="#000000" stroke-miterlimit="10" x1="200.9" y1="336" x2="201.8" y2="335.6"/>
<line fill="none" stroke="#000000" stroke-miterlimit="10" x1="198" y1="337.2" x2="201.8" y2="335.5"/>
<polyline fill="none" stroke="#000000" stroke-miterlimit="10" points="401.9,346.6 404.8,347.8 410.5,349.5 413.9,351.2 414.4,351 
	414.3,348.2 413.1,347.8 410.4,346.3 405.6,344.5 404.2,344.2 398.6,341.2 392.1,338.6 387.7,336.5 386.7,336.3 382.1,334.2 
	381,333.6 378.6,332.8 376.4,331.7 373.1,330 366.8,327.8 361.3,325 358.8,324.1 356.5,322.9 354,322.2 351.7,321.1 350.5,320.7 
	347.3,318.9 343.7,317.6 339.2,315.6 334.9,314 332.7,312.7 328.8,311.1 326.2,310.2 323.4,308.7 320.1,307.2 316,305.7 
	311.8,303.8 311.3,304 311.3,306.9 312.5,307.2 314.1,307.4 315.3,308 317.2,308.6 319.8,309.7 "/>
<polyline fill="none" stroke="#000000" stroke-miterlimit="10" points="416.2,368.8 402.5,375.2 396.9,378 392.1,380.2 377.3,387.4 
	373.1,389.3 370.5,390.7 364.8,393.3 358.7,396.3 354.2,398.3 350.5,400.1 347.3,401.5 339,405.7 333.8,408 329.2,410.3 
	313.9,417.6 "/>
<polyline fill="none" stroke="#000000" stroke-miterlimit="10" points="400.7,379.1 408.1,375.5 402,378.4 407.9,375.6 "/>
<line fill="none" stroke="#000000" stroke-miterlimit="10" x1="410.8" y1="374.2" x2="413.5" y2="372.9"/>
<polyline fill="none" stroke="#000000" stroke-miterlimit="10" points="400.4,379.3 399.2,379.8 400.4,379.3 "/>
<polyline fill="none" stroke="#000000" stroke-miterlimit="10" points="386.7,385.8 390.1,384 393.2,382.6 "/>
<line fill="none" stroke="#000000" stroke-miterlimit="10" x1="376.5" y1="390.6" x2="381.1" y2="388.4"/>
<line fill="none" stroke="#000000" stroke-miterlimit="10" x1="366.1" y1="395.6" x2="369.4" y2="394.1"/>
<line fill="none" stroke="#000000" stroke-miterlimit="10" x1="351.8" y1="402.5" x2="353.8" y2="401.5"/>
<line fill="none" stroke="#000000" stroke-miterlimit="10" x1="358.9" y1="399" x2="361.3" y2="397.9"/>
<polyline fill="none" stroke="#000000" stroke-miterlimit="10" points="313.3,417.4 313.9,417.6 313.9,420.7 314.1,420.5 "/>
<line fill="none" stroke="#000000" stroke-miterlimit="10" x1="266.6" y1="420.6" x2="266.7" y2="417.6"/>
<polyline fill="none" stroke="#000000" stroke-miterlimit="10" points="267.3,417.3 266.7,417.6 265.4,417.1 259.7,414.4 
	258.1,413.5 256.1,412.6 253.9,411.5 251.9,410.7 249.1,409 245.7,407.6 242.4,406 241.3,405.4 239.2,404.2 236.8,403.1 
	235.8,402.5 229.7,400 227.5,398.8 225,397.8 221.7,395.9 220.5,395.3 218,394.3 216.9,393.7 207.6,389.1 206.3,388.6 205.2,388 
	202.7,387.1 201.5,386.5 199.3,385.3 197.1,384.3 193.6,382.8 190.5,381.1 188.2,379.9 185.9,379.1 184.7,378.6 182.7,377.6 
	180.9,376.5 175.5,374 173.8,373.1 166.7,369.8 164.1,368.5 "/>
<polyline fill="none" stroke="#000000" stroke-miterlimit="10" points="252.3,313.5 255.4,312.4 258.2,310.9 261.1,310.6 
	263.7,308.5 269.2,306.8 269,304.1 268.5,304 262.2,306.5 234.3,318.7 226.3,322.1 222,323.8 220.6,324.4 208.7,329.6 200.7,333 
	193.7,336.2 184.1,340.2 174.6,344.4 166.7,347.7 166.2,347.9 166.2,350.8 166.8,351.1 169.4,349.3 "/>
<polyline fill="none" stroke="#000000" stroke-miterlimit="10" points="211.6,461.4 210.9,463.7 210.6,465.5 210.4,469.3 
	210.5,471.3 210.6,471.9 211.1,474.3 213,480 213.4,480.8 214.6,482.5 218.4,487.5 219.2,488.4 221.1,490.1 226.6,493.9 
	229.1,495.4 231.7,496.8 233.1,497.7 235.4,499 240.2,500.9 241.9,501.8 244.3,502.8 246.5,503.3 248.5,504 249.9,504.3 
	253.1,505.5 261.8,507.1 264.1,507.8 266.6,508.3 269.4,508.4 277.1,509.3 281.2,509.4 288.9,510 294.4,509.8 298.4,509.5 
	304.8,509.3 307.3,509 313.8,508.1 321.4,506.7 325,505.9 327.6,505.3 333.4,503.5 341,500.9 347.7,497.7 350.3,496.4 352.6,495 
	355.1,493.4 357.4,491.7 361.3,488.3 362.9,486.6 364.7,484.5 366.1,482.7 367.9,479.6 369.6,474.6 370,472.7 370.4,470 
	370.3,467.4 369.6,463.7 368.9,461.5 "/>
<line fill="none" stroke="#000000" stroke-miterlimit="10" x1="359" y1="399" x2="361.2" y2="397.9"/>
<line fill="none" stroke="#000000" stroke-miterlimit="10" x1="358.9" y1="399" x2="359.8" y2="398.6"/>
<polyline fill="none" stroke="#000000" stroke-miterlimit="10" points="359,399 363.6,396.8 366.1,395.5 "/>
<line fill="none" stroke="#000000" stroke-miterlimit="10" x1="366.1" y1="395.6" x2="362.4" y2="397.5"/>
<polyline fill="none" stroke="#000000" stroke-miterlimit="10" points="366.1,395.6 371.4,393.2 372.9,392.3 "/>
<polyline fill="none" stroke="#000000" stroke-miterlimit="10" points="369.4,394.1 366.1,395.6 371.4,393.2 "/>
<line fill="none" stroke="#000000" stroke-miterlimit="10" x1="366.1" y1="395.6" x2="369.3" y2="394.1"/>
<line fill="none" stroke="#000000" stroke-miterlimit="10" x1="381" y1="388.5" x2="374.3" y2="391.6"/>
<line fill="none" stroke="#000000" stroke-miterlimit="10" x1="379.6" y1="389.2" x2="376.4" y2="390.7"/>
<polyline fill="none" stroke="#000000" stroke-miterlimit="10" points="376.4,390.7 379.7,389.2 376.5,390.6 "/>
<line fill="none" stroke="#000000" stroke-miterlimit="10" x1="389.9" y1="384.1" x2="387" y2="385.6"/>
<polyline fill="none" stroke="#000000" stroke-miterlimit="10" points="390,384 393.1,382.7 387.9,385.2 "/>
<polyline fill="none" stroke="#000000" stroke-miterlimit="10" points="384,387 383.2,387.4 390.1,384 388,385.1 "/>
<polyline fill="none" stroke="#000000" stroke-miterlimit="10" points="392.7,382.8 390.4,383.8 381.2,388.4 "/>
<polyline fill="none" stroke="#000000" stroke-miterlimit="10" points="392.9,382.7 392.8,382.8 392.9,382.7 "/>
<line fill="none" stroke="#000000" stroke-miterlimit="10" x1="392.9" y1="382.7" x2="392.6" y2="382.9"/>
<line fill="none" stroke="#000000" stroke-miterlimit="10" x1="392.9" y1="382.7" x2="390.7" y2="383.8"/>
<line fill="none" stroke="#000000" stroke-miterlimit="10" x1="384.8" y1="386.7" x2="381.2" y2="388.4"/>
<line fill="none" stroke="#000000" stroke-miterlimit="10" x1="379.6" y1="389.2" x2="381" y2="388.5"/>
<polyline fill="none" stroke="#000000" stroke-miterlimit="10" points="400.7,379.1 402,378.4 400.7,379.1 "/>
<line fill="none" stroke="#000000" stroke-miterlimit="10" x1="395.6" y1="381.4" x2="397.8" y2="380.4"/>
<polyline fill="none" stroke="#000000" stroke-miterlimit="10" points="400.7,379.1 402.2,378.3 400.7,379.1 "/>
<line fill="none" stroke="#000000" stroke-miterlimit="10" x1="395.7" y1="381.4" x2="398.6" y2="380.1"/>
<line fill="none" stroke="#000000" stroke-miterlimit="10" x1="401.7" y1="378.6" x2="395.8" y2="381.4"/>
<polyline fill="none" stroke="#000000" stroke-miterlimit="10" points="401.7,378.6 404.5,377.2 401.9,378.5 402.8,378 "/>
<line fill="none" stroke="#000000" stroke-miterlimit="10" x1="407.7" y1="375.7" x2="401.3" y2="378.7"/>
<line fill="none" stroke="#000000" stroke-miterlimit="10" x1="407.5" y1="375.7" x2="408.6" y2="375.3"/>
<line fill="none" stroke="#000000" stroke-miterlimit="10" x1="407.7" y1="375.7" x2="404.6" y2="377.2"/>
<line fill="none" stroke="#000000" stroke-miterlimit="10" x1="412.7" y1="373.3" x2="410.2" y2="374.5"/>
<line fill="none" stroke="#000000" stroke-miterlimit="10" x1="410" y1="374.6" x2="412.6" y2="373.4"/>
<polyline fill="none" stroke="#000000" stroke-miterlimit="10" points="413.1,373.1 412.7,373.3 415.6,371.9 "/>
<line fill="none" stroke="#000000" stroke-miterlimit="10" x1="415.6" y1="371.9" x2="415.8" y2="371.8"/>
<line fill="none" stroke="#000000" stroke-miterlimit="10" x1="405.1" y1="376.9" x2="408.4" y2="375.3"/>
<line fill="none" stroke="#000000" stroke-miterlimit="10" x1="404.3" y1="377.3" x2="408.4" y2="375.3"/>
<line fill="none" stroke="#000000" stroke-miterlimit="10" x1="265.2" y1="308.1" x2="263.4" y2="308.8"/>
<line fill="none" stroke="#000000" stroke-miterlimit="10" x1="257.3" y1="311.4" x2="258.7" y2="310.8"/>
<line fill="none" stroke="#000000" stroke-miterlimit="10" x1="257.7" y1="311.3" x2="258.7" y2="310.9"/>
<line fill="none" stroke="#000000" stroke-miterlimit="10" x1="251.5" y1="314" x2="254.1" y2="312.8"/>
<line fill="none" stroke="#000000" stroke-miterlimit="10" x1="249.3" y1="315" x2="254.2" y2="312.9"/>
<line fill="none" stroke="#000000" stroke-miterlimit="10" x1="251.7" y1="314" x2="254.2" y2="312.9"/>
<line fill="none" stroke="#000000" stroke-miterlimit="10" x1="251.7" y1="314" x2="250.6" y2="314.4"/>
<line fill="none" stroke="#000000" stroke-miterlimit="10" x1="258.7" y1="310.8" x2="256.6" y2="311.7"/>
<line fill="none" stroke="#000000" stroke-miterlimit="10" x1="251.1" y1="314.2" x2="249.1" y2="315"/>
<line fill="none" stroke="#000000" stroke-miterlimit="10" x1="251.7" y1="314" x2="254.2" y2="312.9"/>
<line fill="none" stroke="#000000" stroke-miterlimit="10" x1="257.7" y1="311.3" x2="256.6" y2="311.7"/>
<line fill="none" stroke="#000000" stroke-miterlimit="10" x1="258.7" y1="310.8" x2="256.6" y2="311.7"/>
<line fill="none" stroke="#000000" stroke-miterlimit="10" x1="236.3" y1="320.6" x2="240.8" y2="318.7"/>
<line fill="none" stroke="#000000" stroke-miterlimit="10" x1="240.8" y1="318.7" x2="236.3" y2="320.6"/>
<polyline fill="none" stroke="#000000" stroke-miterlimit="10" points="413,369.6 413.2,367.7 413.6,366.2 413.1,362.9 413,359 
	413.4,352.1 413.3,351.2 "/>
<line fill="none" stroke="#000000" stroke-miterlimit="10" x1="369.2" y1="447.5" x2="369.1" y2="446"/>
<polyline fill="none" stroke="#000000" stroke-miterlimit="10" points="368.8,468.1 368.7,465.2 368.8,463.8 368.9,460.3 369,459.2 
	"/>
<line fill="none" stroke="#000000" stroke-miterlimit="10" x1="369.1" y1="447.8" x2="369.2" y2="445.1"/>
<line fill="none" stroke="#000000" stroke-miterlimit="10" x1="369" y1="446.2" x2="369.1" y2="445.1"/>
<polyline fill="none" stroke="#000000" stroke-miterlimit="10" points="370.6,435 371.1,433.2 371.7,431.6 "/>
<line fill="none" stroke="#000000" stroke-miterlimit="10" x1="370.3" y1="436.5" x2="370.6" y2="435"/>
<polyline fill="none" stroke="#000000" stroke-miterlimit="10" points="217.9,465.2 218.6,465.4 220.2,466.5 222.7,469 224.9,470.5 
	227.3,471.8 232.1,474.8 233.6,475.6 234.9,476.1 239.4,478.2 244.8,480.4 250,482 "/>
<line fill="none" stroke="#000000" stroke-miterlimit="10" x1="209.1" y1="432.9" x2="209.9" y2="435.1"/>
<polyline fill="none" stroke="#000000" stroke-miterlimit="10" points="167.4,351.3 167.5,360.2 167,366.2 167.2,366.9 167.7,369.8 
	"/>
<polyline fill="none" stroke="#000000" stroke-miterlimit="10" points="211.5,459.1 211.6,463.9 211.9,468 "/>
<line fill="none" stroke="#000000" stroke-miterlimit="10" x1="211.4" y1="444.8" x2="211.3" y2="447.7"/>
<polyline fill="none" stroke="#000000" stroke-miterlimit="10" points="209.4,433.8 210.1,435.8 210.3,436.6 "/>
<polyline fill="none" stroke="#000000" stroke-miterlimit="10" points="368.6,460 369.4,457.8 369.8,455.9 370.1,453.4 369.8,449.6 
	369.2,446.6 "/>
<polyline fill="none" stroke="#000000" stroke-miterlimit="10" points="368.5,446.8 370.1,442.4 370.6,440.4 370.7,438.6 
	370.4,435.8 "/>
<line fill="none" stroke="#000000" stroke-miterlimit="10" x1="370.2" y1="437.8" x2="370.3" y2="436.4"/>
<line fill="none" stroke="#000000" stroke-miterlimit="10" x1="368.8" y1="446" x2="369" y2="445.5"/>
<polyline fill="none" stroke="#000000" stroke-miterlimit="10" points="371.4,431.9 373.1,429.1 374,427.3 374.5,425.5 374.8,423.7 
	375,422.1 "/>
<line fill="none" stroke="#000000" stroke-miterlimit="10" x1="371.3" y1="432.2" x2="372.2" y2="430.5"/>
<line fill="none" stroke="#000000" stroke-miterlimit="10" x1="370.8" y1="433.5" x2="371.6" y2="431.6"/>
<polyline fill="none" stroke="#000000" stroke-miterlimit="10" points="333.1,442.6 335.1,441.6 337.7,440.2 343.4,437.6 
	359.7,429.4 365.2,426.9 369.6,424.6 401.8,408.9 "/>
<line fill="none" stroke="#000000" stroke-miterlimit="10" x1="314.1" y1="451" x2="313.9" y2="452"/>
<polyline fill="none" stroke="#000000" stroke-miterlimit="10" points="312.9,451.1 313.9,452 314.9,451.5 "/>
<polyline fill="none" stroke="#000000" stroke-miterlimit="10" points="178.8,409 183.1,411.2 185.1,411.9 187.4,413.2 190.7,414.5 
	192.6,415.7 194.7,416.7 196.9,418 203.9,421 210.2,424.5 214,426 216.9,427.7 220.4,429.1 223.2,430.8 226.8,432.4 230.2,434.2 
	238.3,438 240.8,439.3 241.9,439.7 249.2,443.4 "/>
<polyline fill="none" stroke="#000000" stroke-miterlimit="10" points="211.3,446.5 211,447.7 210.6,449.6 210.4,453.4 210.6,455.3 
	211.8,459.9 "/>
<polyline fill="none" stroke="#000000" stroke-miterlimit="10" points="210,435.7 209.9,436.6 209.9,438.6 210,440.5 210.4,442.4 
	211.1,444.2 211.7,445.6 212.2,446.9 "/>
<polyline fill="none" stroke="#000000" stroke-miterlimit="10" points="205.5,422.6 205.8,425.6 206.2,427.7 206.9,429.6 209,433 
	209.6,434.2 "/>
<line fill="none" stroke="#000000" stroke-miterlimit="10" x1="210.2" y1="436.2" x2="210.3" y2="437.6"/>
<line fill="none" stroke="#000000" stroke-miterlimit="10" x1="205.3" y1="421.7" x2="205.7" y2="423.7"/>
<polyline fill="none" stroke="#000000" stroke-miterlimit="10" points="338.9,408.7 341.5,408.1 344.8,406.7 348.8,404.7 "/>
<line fill="none" stroke="#000000" stroke-miterlimit="10" x1="350.5" y1="402.4" x2="346" y2="405.7"/>
<polyline fill="none" stroke="#000000" stroke-miterlimit="10" points="348.9,403.5 352,401.8 355.6,400 358.3,398.5 "/>
<line fill="none" stroke="#000000" stroke-miterlimit="10" x1="338.8" y1="408.7" x2="338.8" y2="408.7"/>
<polyline fill="none" stroke="#000000" stroke-miterlimit="10" points="331.8,412.1 335.5,411.1 338.5,409.6 "/>
<line fill="none" stroke="#000000" stroke-miterlimit="10" x1="336.2" y1="409.3" x2="331.8" y2="412.1"/>
<polyline fill="none" stroke="#000000" stroke-miterlimit="10" points="335.5,409.8 338.8,408.7 340,407.6 "/>
<polyline fill="none" stroke="#000000" stroke-miterlimit="10" points="320.4,418 322.7,417.2 325.6,415.9 326.3,415.5 327.7,414.5 
	"/>
<polyline fill="none" stroke="#000000" stroke-miterlimit="10" points="317.2,419.4 320.9,417.7 323.5,415.7 "/>
<line fill="none" stroke="#000000" stroke-miterlimit="10" x1="317.5" y1="419.7" x2="319.7" y2="418.2"/>
<polyline fill="none" stroke="#000000" stroke-miterlimit="10" points="317.6,418.1 320.9,417.6 318.1,417.8 "/>
<polyline fill="none" stroke="#000000" stroke-miterlimit="10" points="328,413.2 326.1,415 324.5,415.6 "/>
<polyline fill="none" stroke="#000000" stroke-miterlimit="10" points="327.7,414.5 326.1,415 323.5,416.8 "/>
<polyline fill="none" stroke="#000000" stroke-miterlimit="10" points="314.1,419.8 317.6,419.7 319.6,418.4 "/>
<line fill="none" stroke="#000000" stroke-miterlimit="10" x1="314.7" y1="419.5" x2="314.9" y2="420.7"/>
<polyline fill="none" stroke="#000000" stroke-miterlimit="10" points="256.1,416 257.4,417.1 258.6,417.7 260.3,418.3 "/>
<polyline fill="none" stroke="#000000" stroke-miterlimit="10" points="260.7,417.1 259.1,417.2 257.4,417.1 "/>
<line fill="none" stroke="#000000" stroke-miterlimit="10" x1="263.6" y1="419.8" x2="264.9" y2="420.6"/>
<polyline fill="none" stroke="#000000" stroke-miterlimit="10" points="256.1,415.5 257.4,417.1 254.4,414.4 254,414.2 "/>
<polyline fill="none" stroke="#000000" stroke-miterlimit="10" points="238.1,407.1 239.2,407.8 240.5,408.5 242.1,409.5 
	244.5,410.6 247.2,412.2 251.1,413.7 "/>
<polyline fill="none" stroke="#000000" stroke-miterlimit="10" points="249.7,412.2 248.3,411.3 251,413 "/>
<line fill="none" stroke="#000000" stroke-miterlimit="10" x1="251" y1="413" x2="247.9" y2="412.5"/>
<polyline fill="none" stroke="#000000" stroke-miterlimit="10" points="254,413.6 251,413 254,413.6 "/>
<line fill="none" stroke="#000000" stroke-miterlimit="10" x1="244.9" y1="411" x2="243.4" y2="408.9"/>
<polyline fill="none" stroke="#000000" stroke-miterlimit="10" points="228.5,403 234,405.6 234.8,406.1 238.1,407 "/>
<line fill="none" stroke="#000000" stroke-miterlimit="10" x1="235.4" y1="404.9" x2="238.2" y2="407"/>
<polyline fill="none" stroke="#000000" stroke-miterlimit="10" points="236.9,405.8 235.3,404.9 234,404 "/>
<polyline fill="none" stroke="#000000" stroke-miterlimit="10" points="238.8,407.2 238.2,407.1 236.9,405.8 "/>
<line fill="none" stroke="#000000" stroke-miterlimit="10" x1="242.2" y1="407.9" x2="238.8" y2="407.2"/>
<line fill="none" stroke="#000000" stroke-miterlimit="10" x1="231.6" y1="404.5" x2="229.8" y2="402.6"/>
<polyline fill="none" stroke="#000000" stroke-miterlimit="10" points="215.6,396.8 216.9,397.3 221,399.7 224.8,401.1 "/>
<polyline fill="none" stroke="#000000" stroke-miterlimit="10" points="221.4,398.4 222.5,399.2 224.5,400.4 "/>
<line fill="none" stroke="#000000" stroke-miterlimit="10" x1="224.5" y1="400.4" x2="221" y2="399.7"/>
<line fill="none" stroke="#000000" stroke-miterlimit="10" x1="222.7" y1="399.2" x2="219.5" y2="397.1"/>
<polyline fill="none" stroke="#000000" stroke-miterlimit="10" points="228.8,401.4 226.3,400.7 224.5,400.3 226.4,401.4 
	228.5,402.9 224.8,400.9 "/>
<polyline fill="none" stroke="#000000" stroke-miterlimit="10" points="224.5,400.4 226.5,400.8 228.7,401.4 "/>
<polyline fill="none" stroke="#000000" stroke-miterlimit="10" points="217.9,398 217.1,397 216.3,396.4 "/>
<polyline fill="none" stroke="#000000" stroke-miterlimit="10" points="211.1,393.3 209.9,392.6 207.7,391.5 203.8,390.7 "/>
<polyline fill="none" stroke="#000000" stroke-miterlimit="10" points="207.6,393 210.5,394 214.7,396.3 "/>
<polyline fill="none" stroke="#000000" stroke-miterlimit="10" points="199.4,388.4 200.2,388.8 201.2,389.6 202.7,390.4 
	207.1,392.6 "/>
<polyline fill="none" stroke="#000000" stroke-miterlimit="10" points="194.1,386.5 195.4,386.9 196.9,387.6 198,388.3 200.6,390 
	202,390.4 203.9,390.8 207.6,393.1 "/>
<line fill="none" stroke="#000000" stroke-miterlimit="10" x1="203.8" y1="390.7" x2="201.9" y2="389.1"/>
<polyline fill="none" stroke="#000000" stroke-miterlimit="10" points="385.8,339.5 383.4,338.4 379.1,336.5 "/>
<line fill="none" stroke="#000000" stroke-miterlimit="10" x1="197.4" y1="386.8" x2="194" y2="385"/>
<line fill="none" stroke="#000000" stroke-miterlimit="10" x1="194.2" y1="385.1" x2="190.4" y2="384.6"/>
<line fill="none" stroke="#000000" stroke-miterlimit="10" x1="190.4" y1="384.9" x2="193.3" y2="386.1"/>
<polyline fill="none" stroke="#000000" stroke-miterlimit="10" points="183.9,381.4 186.3,382.6 190.4,384.5 194,386.4 "/>
<line fill="none" stroke="#000000" stroke-miterlimit="10" x1="196.9" y1="387.5" x2="200.6" y2="388.5"/>
<polyline fill="none" stroke="#000000" stroke-miterlimit="10" points="201.9,389.1 200.6,388.5 199.7,388.2 "/>
<polyline fill="none" stroke="#000000" stroke-miterlimit="10" points="312.4,307.2 312.4,310.2 312.5,314.1 312.4,317.3 312,320.2 
	311.6,321.9 312.2,324.9 312.4,330.7 312.2,334 311.8,336.1 309.6,337.4 305.8,339.3 304.4,339.9 301.1,340.9 295.9,343.9 
	292.7,345.6 290.6,346.8 287.6,345.1 286.5,344.5 281.1,341.8 280,341 278.4,340.5 275.2,339.2 271.4,337.3 270.5,336.8 
	269.2,335.9 "/>
<polyline fill="none" stroke="#000000" stroke-miterlimit="10" points="269,335.7 268.6,333.9 268.4,329.9 268.6,324.9 269.1,321.8 
	268.9,321.1 268.5,317.7 268.4,314 267.8,307.4 "/>
<line fill="none" stroke="#000000" stroke-miterlimit="10" x1="182.2" y1="379.5" x2="181.4" y2="379.1"/>
<polyline fill="none" stroke="#000000" stroke-miterlimit="10" points="184.5,380.7 183.3,380.1 181.6,379.1 178.2,378.6 "/>
<polyline fill="none" stroke="#000000" stroke-miterlimit="10" points="181.4,380.5 182.5,381 183.9,381.4 187.9,381.8 "/>
<polyline fill="none" stroke="#000000" stroke-miterlimit="10" points="176.9,378.2 177.9,378.9 180.8,380.3 "/>
<polyline fill="none" stroke="#000000" stroke-miterlimit="10" points="166.4,373.2 166.9,373.7 169.5,374.6 172.5,376.4 
	175.3,377.7 178.1,378.7 181.3,380.6 "/>
<polyline fill="none" stroke="#000000" stroke-miterlimit="10" points="164.6,371.7 164.3,372 165.2,372.6 167.1,373.4 169.8,374.4 
	"/>
<line fill="none" stroke="#000000" stroke-miterlimit="10" x1="172.5" y1="376.3" x2="169.8" y2="374.5"/>
<polyline fill="none" stroke="#000000" stroke-miterlimit="10" points="164.3,372 167.1,373.4 165.8,371.7 "/>
<polyline fill="none" stroke="#000000" stroke-miterlimit="10" points="171,374.7 169.8,374.5 173.2,375 "/>
<polyline fill="none" stroke="#000000" stroke-miterlimit="10" points="170.8,349.1 170.4,349.5 173,348.8 175.8,347.5 178.6,346.4 
	"/>
<polyline fill="none" stroke="#000000" stroke-miterlimit="10" points="172.4,348.1 175.8,347.5 172.3,348.3 "/>
<line fill="none" stroke="#000000" stroke-miterlimit="10" x1="169.8" y1="349.6" x2="170.8" y2="349.1"/>
<line fill="none" stroke="#000000" stroke-miterlimit="10" x1="170.4" y1="349.5" x2="173.5" y2="348.7"/>
<polyline fill="none" stroke="#000000" stroke-miterlimit="10" points="170.2,350 172.7,349 173.7,348.5 "/>
<polyline fill="none" stroke="#000000" stroke-miterlimit="10" points="169.8,349.6 170.4,349.5 167.9,350.8 "/>
<polyline fill="none" stroke="#000000" stroke-miterlimit="10" points="167.2,351 167.4,351.4 167.9,351 "/>
<line fill="none" stroke="#000000" stroke-miterlimit="10" x1="172.4" y1="348.1" x2="169.9" y2="349.5"/>
<line fill="none" stroke="#000000" stroke-miterlimit="10" x1="175.4" y1="346.8" x2="169.5" y2="349.5"/>
<polyline fill="none" stroke="#000000" stroke-miterlimit="10" points="194.6,339.5 190.9,341 185.1,343.7 "/>
<polyline fill="none" stroke="#000000" stroke-miterlimit="10" points="184.9,343.8 185.1,343.8 182.2,344.6 184.9,343.8 "/>
<polyline fill="none" stroke="#000000" stroke-miterlimit="10" points="183.4,344.2 184.5,343.5 187.8,341.4 191.2,340.3 
	194.4,339.2 198,337.2 197.7,337.5 "/>
<line fill="none" stroke="#000000" stroke-miterlimit="10" x1="205.1" y1="334.6" x2="201.1" y2="336.6"/>
<polyline fill="none" stroke="#000000" stroke-miterlimit="10" points="197.7,337.5 201.6,336.6 205.2,334.6 "/>
<polyline fill="none" stroke="#000000" stroke-miterlimit="10" points="197.7,337.2 201.3,335.6 203.7,335.4 "/>
<polyline fill="none" stroke="#000000" stroke-miterlimit="10" points="205,334.9 208.6,333.1 211.8,332.1 "/>
<polyline fill="none" stroke="#000000" stroke-miterlimit="10" points="209.8,332.2 211.8,332.1 210.5,332.5 209,332.8 "/>
<line fill="none" stroke="#000000" stroke-miterlimit="10" x1="215.3" y1="330.4" x2="212.6" y2="330.7"/>
<polyline fill="none" stroke="#000000" stroke-miterlimit="10" points="213.9,330.3 215.4,330.1 218.9,328.6 "/>
<line fill="none" stroke="#000000" stroke-miterlimit="10" x1="208.5" y1="332.8" x2="205.1" y2="334.9"/>
<polyline fill="none" stroke="#000000" stroke-miterlimit="10" points="208.4,333 211.7,331.1 219,327.9 "/>
<polyline fill="none" stroke="#000000" stroke-miterlimit="10" points="353,324.6 351.6,324.6 350.3,324.2 348.3,323.1 "/>
<polyline fill="none" stroke="#000000" stroke-miterlimit="10" points="353.5,325.2 355,326 358.4,326.6 359.7,327.1 360.7,327.7 
	361.8,328.2 364.1,329.7 "/>
<polyline fill="none" stroke="#000000" stroke-miterlimit="10" points="413.8,348.4 412.6,347.9 409.9,346.6 403.8,344.5 
	402.2,343.5 399.3,341.9 396.9,340.9 391.6,338.9 389.6,337.9 388.5,337.2 386.2,336.5 380.5,333.8 378.2,333 372.7,330.2 
	366.4,327.9 360.9,325.1 356.1,323 353.7,322.2 351.4,321.2 347,319 343.4,317.8 338.8,315.7 335.4,314.4 333.5,313.4 330.3,312 
	325.8,310.4 321.3,308.1 319.7,307.4 316.8,306.4 311.5,304 "/>
<line fill="none" stroke="#000000" stroke-miterlimit="10" x1="372.6" y1="332.7" x2="376" y2="334.3"/>
<polyline fill="none" stroke="#000000" stroke-miterlimit="10" points="386.2,338.9 387.9,339.5 389.6,340.3 "/>
<polyline fill="none" stroke="#000000" stroke-miterlimit="10" points="394.3,342.9 396.1,343.1 397.6,343.9 399.1,344.5 
	399.7,344.8 401.8,346.6 400.8,345.8 398.7,344.7 396.2,344.1 "/>
<polyline fill="none" stroke="#000000" stroke-miterlimit="10" points="413.9,351.2 413.8,348.4 414.3,348.1 "/>
<line fill="none" stroke="#000000" stroke-miterlimit="10" x1="405.2" y1="347.2" x2="408.2" y2="348.3"/>
<line fill="none" stroke="#000000" stroke-miterlimit="10" x1="167" y1="348.1" x2="166.9" y2="351.1"/>
<polyline fill="none" stroke="#000000" stroke-miterlimit="10" points="269,304.1 260.1,307.9 249.8,312.5 244.9,314.5 232.7,319.9 
	222.6,324 209.3,329.9 206,331.3 203.5,332.4 200.1,333.7 193,337 188.7,338.7 183.5,341 179,343 169.6,347.1 166.9,348.1 
	166.3,347.9 "/>
<line fill="none" stroke="#000000" stroke-miterlimit="10" x1="218.9" y1="328.4" x2="222.4" y2="326.4"/>
<polyline fill="none" stroke="#000000" stroke-miterlimit="10" points="222.6,327.3 225.9,325.4 232.8,322.2 236.1,320.5 239,319.5 
	"/>
<polyline fill="none" stroke="#000000" stroke-miterlimit="10" points="239.3,319.1 242.6,318.1 245.9,317.2 242.5,318.7 "/>
<polyline fill="none" stroke="#000000" stroke-miterlimit="10" points="246.2,316.5 249.2,314.8 251.7,314 251.5,314 "/>
<polyline fill="none" stroke="#000000" stroke-miterlimit="10" points="327.2,314.1 328.3,314.7 330.2,314.9 "/>
<polyline fill="none" stroke="#000000" stroke-miterlimit="10" points="340.2,319.5 341.3,320 344.5,320.8 348.1,322.1 "/>
<polyline fill="none" stroke="#000000" stroke-miterlimit="10" points="358.9,399.8 362.5,398.2 364.9,396.9 "/>
<line fill="none" stroke="#000000" stroke-miterlimit="10" x1="369.2" y1="394.6" x2="373.1" y2="393"/>
<line fill="none" stroke="#000000" stroke-miterlimit="10" x1="373.1" y1="393.1" x2="374.6" y2="391.6"/>
<line fill="none" stroke="#000000" stroke-miterlimit="10" x1="379.9" y1="388.6" x2="377.7" y2="389.3"/>
<line fill="none" stroke="#000000" stroke-miterlimit="10" x1="369.5" y1="393.4" x2="367.8" y2="394.8"/>
<polyline fill="none" stroke="#000000" stroke-miterlimit="10" points="382.9,388 386.6,386.7 386.8,386.5 "/>
<line fill="none" stroke="#000000" stroke-miterlimit="10" x1="379.9" y1="388.6" x2="381.8" y2="387.5"/>
<polyline fill="none" stroke="#000000" stroke-miterlimit="10" points="400.3,379.3 402.3,379.1 405.3,377.8 410.6,375 "/>
<line fill="none" stroke="#000000" stroke-miterlimit="10" x1="393.3" y1="382.2" x2="395.8" y2="380.7"/>
<polyline fill="none" stroke="#000000" stroke-miterlimit="10" points="339.2,318.8 338.3,318.8 340.2,319.5 "/>
<polyline fill="none" stroke="#000000" stroke-miterlimit="10" points="336.2,317.7 335.1,317.3 336.5,318.1 338.2,318.8 "/>
<polyline fill="none" stroke="#000000" stroke-miterlimit="10" points="328.4,314 329.5,314.6 331.6,315.6 333.3,315.9 334.6,316.3 
	335.8,317.1 "/>
<line fill="none" stroke="#000000" stroke-miterlimit="10" x1="408.3" y1="376.2" x2="410.3" y2="373.8"/>
<line fill="none" stroke="#000000" stroke-miterlimit="10" x1="416.3" y1="372.2" x2="413" y2="373.2"/>
<line fill="none" stroke="#000000" stroke-miterlimit="10" x1="413.1" y1="373.8" x2="416.3" y2="372.2"/>
<polyline fill="none" stroke="#000000" stroke-miterlimit="10" points="415.6,371.9 416.3,372.2 415.8,371.7 "/>
<polyline fill="none" stroke="#000000" stroke-miterlimit="10" points="336.5,317.2 334.9,316.9 333.6,316 "/>
<polyline fill="none" stroke="#000000" stroke-miterlimit="10" points="326,313.5 325.9,313.5 327.2,314 "/>
<line fill="none" stroke="#000000" stroke-miterlimit="10" x1="412.8" y1="350.8" x2="413.6" y2="351.3"/>
<polyline fill="none" stroke="#000000" stroke-miterlimit="10" points="412.9,350.7 412.8,350.8 410.7,349.6 "/>
<polyline fill="none" stroke="#000000" stroke-miterlimit="10" points="409.2,349.1 409.9,349.6 412.8,350.8 412.8,352.1 
	412.5,356.5 412.4,359.2 412.6,363 412.9,365.4 413.1,366.3 412.7,367.9 412.4,369.9 "/>
<polyline fill="none" stroke="#000000" stroke-miterlimit="10" points="399.2,345 398.5,345 401.6,346 "/>
<polyline fill="none" stroke="#000000" stroke-miterlimit="10" points="413.3,351.2 413.6,351.3 414.1,351.2 "/>
<polyline fill="none" stroke="#000000" stroke-miterlimit="10" points="317.8,309.4 319.1,309.9 320.4,310.7 "/>
<polyline fill="none" stroke="#000000" stroke-miterlimit="10" points="313.2,307.3 314.9,308.5 317.7,309.5 316.6,308.6 "/>
<line fill="none" stroke="#000000" stroke-miterlimit="10" x1="319.8" y1="310.6" x2="322.3" y2="311.4"/>
<polyline fill="none" stroke="#000000" stroke-miterlimit="10" points="399.7,344.9 398.7,344.8 396.2,343.9 392.2,341.8 "/>
<line fill="none" stroke="#000000" stroke-miterlimit="10" x1="392.2" y1="342.4" x2="398.6" y2="345"/>
<polyline fill="none" stroke="#000000" stroke-miterlimit="10" points="389,340.7 391.4,341.6 392.6,342 "/>
<polyline fill="none" stroke="#000000" stroke-miterlimit="10" points="386,339.5 387.6,340.1 391.6,342.2 "/>
<line fill="none" stroke="#000000" stroke-miterlimit="10" x1="259.5" y1="311.2" x2="261.1" y2="310.6"/>
<polyline fill="none" stroke="#000000" stroke-miterlimit="10" points="257.3,311.4 260.6,310.8 260.8,310.6 "/>
<line fill="none" stroke="#000000" stroke-miterlimit="10" x1="267.9" y1="307.6" x2="265.2" y2="308.8"/>
<polyline fill="none" stroke="#000000" stroke-miterlimit="10" points="265.1,309 267.9,307.8 267.7,307.4 "/>
<polyline fill="none" stroke="#000000" stroke-miterlimit="10" points="386,339.5 383.5,338.4 379.1,336.1 "/>
<polyline fill="none" stroke="#000000" stroke-miterlimit="10" points="386.1,339.5 385.8,339.5 387.6,340.1 "/>
<polyline fill="none" stroke="#000000" stroke-miterlimit="10" points="374.6,334.4 375.7,335.1 376.7,335.5 379.1,336.1 379,335.9 
	"/>
<polyline fill="none" stroke="#000000" stroke-miterlimit="10" points="372.5,333.5 373.8,334 376.6,335.5 379.5,336.7 "/>
<polyline fill="none" stroke="#000000" stroke-miterlimit="10" points="251.4,314.8 255,313.3 255.6,312.9 "/>
<line fill="none" stroke="#000000" stroke-miterlimit="10" x1="257.3" y1="311.4" x2="254.4" y2="313.4"/>
<polyline fill="none" stroke="#000000" stroke-miterlimit="10" points="248.9,315 251.6,314.8 257.6,312.1 "/>
<line fill="none" stroke="#000000" stroke-miterlimit="10" x1="245.5" y1="317.4" x2="245.6" y2="317.2"/>
<polyline fill="none" stroke="#000000" stroke-miterlimit="10" points="375.7,334.9 373.6,333.6 372.3,333.1 "/>
<polyline fill="none" stroke="#000000" stroke-miterlimit="10" points="372.2,333 371,332.5 367.1,331.1 365.2,330.1 "/>
<line fill="none" stroke="#000000" stroke-miterlimit="10" x1="368.9" y1="331.7" x2="367.5" y2="331.1"/>
<polyline fill="none" stroke="#000000" stroke-miterlimit="10" points="373.3,333.2 372.3,333 371,332.5 367.6,331.5 365.3,330.5 
	"/>
<line fill="none" stroke="#000000" stroke-miterlimit="10" x1="364.7" y1="329.9" x2="365.2" y2="330.1"/>
<line fill="none" stroke="#000000" stroke-miterlimit="10" x1="361.8" y1="328.9" x2="365.3" y2="330.5"/>
<polyline fill="none" stroke="#000000" stroke-miterlimit="10" points="239,320.3 242.2,318.9 243.6,317.9 "/>
<polyline fill="none" stroke="#000000" stroke-miterlimit="10" points="232.4,323.1 237.2,320.9 239,320.3 237.4,320.4 235.8,320.7 
	"/>
<polyline fill="none" stroke="#000000" stroke-miterlimit="10" points="232.5,323.1 229.2,324.1 225.6,326.1 "/>
<polyline fill="none" stroke="#000000" stroke-miterlimit="10" points="217.1,481.5 217.4,478.2 217.1,473.1 216.6,468 216,466.5 
	216.6,465.2 "/>
<polyline fill="none" stroke="#000000" stroke-miterlimit="10" points="167.8,350.6 167.9,350.8 167.9,355 168.1,357.8 168,361.3 
	167.6,366.4 168.3,370 "/>
<polyline fill="none" stroke="#000000" stroke-miterlimit="10" points="290.4,346.8 291.5,347.4 294.8,349.1 296,349.8 306.6,355 
	312.8,357.7 314.6,358.7 315.9,359.2 319.1,360.7 320.4,361.1 325.7,363.6 327.9,364.5 330.2,365.7 334.5,367.8 337,368.7 
	339.1,369.8 344.8,372.3 347.1,373.5 350.7,374.9 357.4,378 359.7,378.8 361.6,379.9 364,380.9 365.9,382 368.2,382.7 372.6,384.5 
	377.1,386.9 "/>
<polyline fill="none" stroke="#000000" stroke-miterlimit="10" points="311.8,336.1 314.5,337.1 316.7,338.4 320.8,340.3 
	323.8,341.3 326.6,342.7 329.8,343.7 333.9,345.7 335.7,346.7 336.9,347.1 340,348.6 342.2,349.4 346.7,351.4 348.8,352.5 
	352.4,353.8 354.6,354.9 360.4,357.5 363.9,359.1 367.5,360.5 373,363.3 374.2,363.8 379.9,366.4 382.3,367.2 387.9,369.9 
	392.3,371.5 394.5,372.7 396.6,373.5 400.8,375.5 "/>
<polyline fill="none" stroke="#000000" stroke-miterlimit="10" points="203.1,386.8 230.2,374.6 236.7,371.9 258.5,362 264,359.4 
	268.2,357.6 280.3,352.1 285.7,349.5 288.1,348.1 "/>
<polyline fill="none" stroke="#000000" stroke-miterlimit="10" points="179.9,375.5 192.9,369.7 195.2,368.6 200.8,366.2 
	204.3,364.6 207.5,363.3 214.8,359.9 223.7,356.1 232.1,352.3 242.7,347.7 245.3,346.5 250.3,344.3 268.9,335.9 "/>
<line fill="none" stroke="#000000" stroke-miterlimit="10" x1="314.1" y1="420.5" x2="314.4" y2="420.7"/>
<polyline fill="none" stroke="#000000" stroke-miterlimit="10" points="313.5,451.3 313.9,452 313.6,450.9 "/>
<polyline fill="none" stroke="#000000" stroke-miterlimit="10" points="413.6,351 413.6,351.3 413.5,351 "/>
<polyline fill="none" stroke="#000000" stroke-miterlimit="10" points="264.9,308.3 267.9,307.7 267.7,307.4 "/>
<polyline fill="none" stroke="#000000" stroke-miterlimit="10" points="85.8,285.4 90.3,283.8 94.5,282 98.2,283.6 99.3,284.2 
	100.5,284.6 105.2,286.9 111.2,289.6 113.4,290.9 114.8,291.5 119.3,289.6 120,290.8 120.5,292 122.6,295.3 124.9,300 122.2,299.7 
	118.5,299 113.2,298.4 109.4,297.8 108.1,297.7 101.5,296.8 105.9,295.1 101.1,292.8 99.8,292.4 95.2,290.1 92.7,289 90.5,287.8 
	88,286.8 85.8,285.4 "/>
<polyline fill="none" stroke="#000000" stroke-miterlimit="10" points="526.2,480.7 517.3,485.5 516,485.1 513.7,483.9 512.4,483.4 
	508,480.9 504.3,479.5 498.4,476.7 495.9,475.7 490.5,473 486,475.5 484.7,473.2 481.5,469 479.2,465.8 476.4,462.2 479,462.5 
	481.9,462.6 488.1,463.8 493.4,464.5 499.7,465.5 503.9,466 499.5,468.3 502,469.4 504.4,470.5 506.6,471.7 507.9,472.2 
	511.5,473.9 515.2,475.4 520,477.6 522.1,479 524.6,480 526.2,480.7 "/>
<polyline fill="none" stroke="#000000" stroke-miterlimit="10" points="417,371.9 412.5,374.3 395.5,382.7 395.4,385.5 395.4,391.7 
	395.3,393.7 395.2,397.4 396,398.4 398,401.8 402.6,410 403.1,410.9 403.4,411.1 413,405.5 416.1,403.9 416.2,396.7 416.4,393.4 
	416.4,390.4 416.8,386.2 416.9,383.3 416.9,380.9 417.3,372.5 416.7,367.7 416.3,363.5 416.4,361.8 415.6,354.8 415.6,351.8 
	415.4,350.4 415.3,348.9 414.3,348.5 "/>
<polyline fill="none" stroke="#000000" stroke-miterlimit="10" points="417,371.9 416.6,369.3 416.3,366.4 416.1,360.6 415.8,359.2 
	415.4,354.8 415.4,351.8 415,349.1 414.4,348.9 "/>
<line fill="none" stroke="#000000" stroke-miterlimit="10" x1="414.5" y1="366.6" x2="414.5" y2="368.9"/>
<polyline fill="none" stroke="#000000" stroke-miterlimit="10" points="314.8,450.7 317.6,453.5 332,445.8 334,440.4 337.9,430.8 
	338.8,428 340.9,423.1 340.8,409.6 340.5,409.4 328.1,415.7 317.6,420.6 312,420.7 304.5,420.4 301.6,420.7 299.7,420.7 
	296.6,420.5 288,420.5 285.5,420.4 283.4,420.5 278.2,420.4 274.7,420.6 269,420.4 266.5,420.6 264.9,420.6 262.7,419.3 
	260.1,418.3 258.8,417.8 252.9,414.8 249.1,413.3 246.8,412.2 243.7,410.4 241.4,409.4 241.1,409.5 241.3,412.9 241.2,417.5 
	241.3,424.6 241.7,425.9 243.3,429.2 243.6,430.2 244.9,433.1 249.1,443.3 250.1,445.2 250.7,446.9 251.9,447.5 255.6,448.9 
	256.8,449.5 257.8,450.1 261.3,451.8 263.9,452.7 265.4,453.4 268,450.7 "/>
<polyline fill="none" stroke="#000000" stroke-miterlimit="10" points="166.4,349.2 165.5,349.7 165.3,351.3 164.9,356.7 
	164.1,362.6 163.8,366.7 163.2,372.8 163.4,375.8 163.4,378.6 163.6,386.5 163.6,394.7 163.8,399.1 163.8,404.8 166.3,405.8 
	169.5,407.5 172,408.3 174.3,409.2 177.5,411 177.8,410.9 185.9,396.9 186,390.2 185.7,383.2 182.1,381.7 174.3,377.9 168.9,375.5 
	168,375 163.5,372.7 "/>
<polyline fill="none" stroke="#000000" stroke-miterlimit="10" points="166.4,349.5 165.8,349.8 165.5,351.3 165.1,355.3 165,358 
	164.4,362.6 164.1,366.7 163.5,372.7 "/>
<polyline fill="none" stroke="#000000" stroke-miterlimit="10" points="311.5,306 300.3,305.9 298.5,306 294.1,306 285.2,305.8 
	282,306 273.2,305.8 269.2,305.9 "/>
<polyline fill="none" stroke="#000000" stroke-miterlimit="10" points="395.7,382.9 395.6,384.2 395.7,390.4 395.5,393.8 
	395.4,397.5 396.2,398.5 398.2,401.9 403.4,411.1 "/>
<polyline fill="none" stroke="#000000" stroke-miterlimit="10" points="417.3,371.9 412.5,374.6 407.4,377 399.8,380.9 395.7,382.9 
	395.5,382.7 "/>
<polyline fill="none" stroke="#000000" stroke-miterlimit="10" points="340.8,409.6 328.4,415.8 317.7,420.8 311.9,420.9 
	304.5,420.7 301.6,421 296.5,420.8 287.9,420.8 285.4,420.6 283.3,420.8 278.1,420.8 274.6,421 269,420.7 266.2,420.8 264.8,420.8 
	262.6,419.6 258.6,418 256.3,416.7 252.7,415 248.9,413.5 246.6,412.5 243.5,410.7 241.1,409.7 "/>
<polyline fill="none" stroke="#000000" stroke-miterlimit="10" points="273.3,450.7 274.7,450.6 279.5,450.9 283.4,450.7 
	287.2,450.8 290.5,451 293,450.9 297.8,451.1 310.6,450.9 "/>
<line fill="none" stroke="#000000" stroke-miterlimit="10" x1="309" y1="450.9" x2="312.9" y2="451.1"/>
<polyline fill="none" stroke="#000000" stroke-miterlimit="10" points="267.3,451.4 270.5,450.9 274.1,450.6 "/>
<polyline fill="none" stroke="#000000" stroke-miterlimit="10" points="317.6,453.5 317.7,450.1 317.7,443.7 "/>
<polyline fill="none" stroke="#000000" stroke-miterlimit="10" points="265.4,453.5 265,449.3 265.3,443.7 "/>
<polyline fill="none" stroke="#000000" stroke-miterlimit="10" points="185.4,383.3 181.9,381.8 174.2,378 169.8,376.1 163.1,372.8 
	"/>
<polyline fill="none" stroke="#000000" stroke-miterlimit="10" points="177.5,410.9 185.7,397 185.6,390.4 185.5,387.7 185.5,385 
	185.4,383.3 185.6,383.2 "/>
<polyline fill="none" stroke="#000000" stroke-miterlimit="10" points="311.5,305.9 300.4,305.7 298.5,305.9 294.2,305.9 
	285.4,305.7 282.1,305.9 273.2,305.7 269.2,305.9 "/>
<line fill="none" stroke="#000000" stroke-miterlimit="10" x1="342.8" y1="468" x2="353.9" y2="462.5"/>
<polyline fill="none" stroke="#000000" stroke-miterlimit="10" points="353.9,462.5 353.8,466 353.8,469.8 353.8,474.1 342.5,479.8 
	342.5,477.2 342.6,475.7 342.6,470.6 342.7,468 "/>
<polyline fill="none" stroke="#000000" stroke-miterlimit="10" points="226.5,461.9 233.4,465.6 237.6,467.7 "/>
<polyline fill="none" stroke="#000000" stroke-miterlimit="10" points="226.5,461.9 226.6,465.5 226.5,468.3 226.5,469.4 
	228.9,470.6 230,471.3 231.1,471.8 234.5,473.7 237.7,475.1 237.6,473.8 237.7,471.1 237.6,467.7 "/>
<line fill="none" stroke="#000000" stroke-miterlimit="10" x1="211.7" y1="447.5" x2="217.8" y2="455.3"/>
<polyline fill="none" stroke="#000000" stroke-miterlimit="10" points="218.7,454.9 217.8,455.3 217.8,457.1 217.7,458.5 218,461 
	217.8,464.8 218,466.9 216.1,464.9 211.9,459 211.9,457.6 211.7,455.1 211.8,451 211.6,448.2 211.6,447.6 212.1,447.4 "/>
<path fill="none" stroke="#000000" stroke-miterlimit="10" d="M291.5,410.3l4.1-1.9l8.8-4.2l9.6-5c0,0,2.8,0,14.1,3.6l-9.4,5
	l-11.4,5.5l-5.1,2.3"/>
<polyline fill="none" stroke="#000000" stroke-miterlimit="10" points="268,420.6 277,416.5 279.9,415.3 "/>
<polyline fill="none" stroke="#000000" stroke-miterlimit="10" points="249.9,472.9 251,473.2 253.8,473.3 258.9,474 262.9,474.3 
	266.6,475 268.4,475.1 "/>
<polyline fill="none" stroke="#000000" stroke-miterlimit="10" points="268.5,475.2 268.5,479.9 268.7,485 268.7,486.8 266.1,486.4 
	262,486.2 254.3,485.1 249.9,484.8 249.8,475.1 249.9,473 "/>
<line fill="none" stroke="#000000" stroke-miterlimit="10" x1="362.8" y1="455" x2="369" y2="447.3"/>
<polyline fill="none" stroke="#000000" stroke-miterlimit="10" points="362.2,454.6 362.8,455 362.7,458.4 362.6,461.1 362.7,462.4 
	369,454.6 368.9,452.1 369,447.2 368.3,446.6 "/>
<path fill="none" stroke="#000000" stroke-miterlimit="10" d="M312,420.7l-2.2-1.2l-1.2-0.5l-4.5-2.5l-1.8-0.8l-1.1-0.7l-3.7-1.6
	l-3.5-1.7l-2.4-1.4l-2.3-1.2l-4.9-2.1l-3.4-1.8l-5.7-2.2l-2.4-1.1l-4.6-2.4l-2.1-0.7c-8.9,1.8-12.5,4.4-12.5,4.4l1.2,0.6l2.5,1
	l3.9,2l5.4,2.2l3.3,1.9l4.7,2.2l3.7,1.6l4.2,2.1l1.1,0.7l6.6,3.2"/>
<polyline fill="none" stroke="#000000" stroke-miterlimit="10" points="312.9,475.2 316.9,474.3 322,473.3 326.9,472.5 329.1,472 
	"/>
<polyline fill="none" stroke="#000000" stroke-miterlimit="10" points="312.9,475.2 313,482.7 322,480.8 325.6,480.2 329.1,479.4 
	329.2,475.4 329.1,471.9 "/>
<polyline fill="none" stroke="#000000" stroke-miterlimit="10" points="444.1,423.7 444.1,426.3 443.8,429 443.5,438.4 "/>
<polyline fill="none" stroke="#000000" stroke-miterlimit="10" points="451.8,427.1 452,419.7 444.1,423.7 445.3,424.2 446.6,424.6 
	448.9,425.8 453,427.5 456.3,429.4 457.6,429.8 459.8,430.8 450.6,435.3 446.8,437.4 442,439.7 432.4,444.7 425.7,448 423.5,446.7 
	420.8,445.9 419.6,445.4 415.1,442.9 410,440.6 401.8,444.8 401.7,447.4 401.7,448.6 401.5,454 401.5,457.8 401.4,459.6 
	409.6,455.4 410.7,456 411.8,456.8 414.1,457.9 419.1,459.8 423.6,462.3 425,462.9 432.2,459.1 435.5,457.5 438,456.2 442.5,453.9 
	459,445.5 "/>
<polyline fill="none" stroke="#000000" stroke-miterlimit="10" points="409.7,455.5 409.6,453.1 409.8,447.8 410.2,440.7 "/>
<polyline fill="none" stroke="#000000" stroke-miterlimit="10" points="459.2,445.6 459.6,437.5 459.8,430.8 "/>
<polyline fill="none" stroke="#000000" stroke-miterlimit="10" points="425.2,463.1 425.2,461.8 425.3,459.1 425.6,451.2 425.8,448 
	"/>
<polyline fill="none" stroke="#000000" stroke-miterlimit="10" points="148.4,332.9 148.2,331.7 148.2,327.7 147.9,323.9 147.9,319 
	"/>
<polyline fill="none" stroke="#000000" stroke-miterlimit="10" points="148.4,332.9 140.2,336.5 140.2,333.8 140.1,329.8 
	139.8,326.6 139.8,322.4 147.9,319 144.2,317.4 138.3,314.7 135.8,313.7 134.7,313.1 146.9,308 154,305.2 160.3,302.4 168.9,299 
	175,301.5 180.8,304.4 181.9,304.9 190,301.4 189.9,309.5 190.3,313.1 190.3,315.2 182.3,318.7 177.4,316.6 175.2,315.2 
	171.6,313.6 169.3,312.7 161,316.1 147.8,321.8 "/>
<polyline fill="none" stroke="#000000" stroke-miterlimit="10" points="182.3,318.5 182.2,317.3 182.1,313.3 182.3,310.5 
	182.3,307.9 181.9,304.8 "/>
<polyline fill="none" stroke="#000000" stroke-miterlimit="10" points="134.8,313 135,316.9 135,321 135.3,327 "/>
<polyline fill="none" stroke="#000000" stroke-miterlimit="10" points="135.3,327 138.9,328.6 140,329 "/>
<polyline fill="none" stroke="#000000" stroke-miterlimit="10" points="169.3,312.5 169,303.6 169,298.8 "/>
<polyline fill="none" stroke="#000000" stroke-miterlimit="10" points="176.3,377.1 175.3,376.7 176.3,377.1 "/>
<line fill="none" stroke="#000000" stroke-miterlimit="10" x1="187" y1="342" x2="188.9" y2="341.1"/>
<polyline fill="none" stroke="#000000" stroke-miterlimit="10" points="188.6,383.7 190.4,384.9 191,384.9 "/>
<line fill="none" stroke="#000000" stroke-miterlimit="10" x1="189" y1="383.2" x2="187.8" y2="381.8"/>
<line fill="none" stroke="#000000" stroke-miterlimit="10" x1="188.7" y1="341.1" x2="190.9" y2="341.1"/>
<line fill="none" stroke="#000000" stroke-miterlimit="10" x1="193.3" y1="339.6" x2="191.6" y2="340.8"/>
<line fill="none" stroke="#000000" stroke-miterlimit="10" x1="195.9" y1="338.4" x2="198.2" y2="338"/>
<polyline fill="none" stroke="#000000" stroke-miterlimit="10" points="198,337.2 200.9,335.9 198,337.2 "/>
<line fill="none" stroke="#000000" stroke-miterlimit="10" x1="198" y1="337.2" x2="201.1" y2="335.8"/>
<line fill="none" stroke="#000000" stroke-miterlimit="10" x1="198" y1="337.2" x2="201.8" y2="335.5"/>
<polyline fill="none" stroke="#000000" stroke-miterlimit="10" points="203.9,389.6 202.5,389.4 200.2,388.8 "/>
<line fill="none" stroke="#000000" stroke-miterlimit="10" x1="211.5" y1="445.9" x2="211.3" y2="447.4"/>
<line fill="none" stroke="#000000" stroke-miterlimit="10" x1="211.4" y1="445" x2="211.5" y2="446.2"/>
<line fill="none" stroke="#000000" stroke-miterlimit="10" x1="211.6" y1="445.2" x2="211.7" y2="446"/>
<line fill="none" stroke="#000000" stroke-miterlimit="10" x1="216.3" y1="396.4" x2="218.3" y2="397.2"/>
<line fill="none" stroke="#000000" stroke-miterlimit="10" x1="228.7" y1="402.2" x2="228.7" y2="402.2"/>
<line fill="none" stroke="#000000" stroke-miterlimit="10" x1="229" y1="402.4" x2="228.6" y2="402.2"/>
<line fill="none" stroke="#000000" stroke-miterlimit="10" x1="228.7" y1="402.2" x2="228.7" y2="402.2"/>
<line fill="none" stroke="#000000" stroke-miterlimit="10" x1="232.8" y1="322.9" x2="234" y2="321.6"/>
<line fill="none" stroke="#000000" stroke-miterlimit="10" x1="235.2" y1="321.1" x2="234" y2="321.6"/>
<line fill="none" stroke="#000000" stroke-miterlimit="10" x1="235.6" y1="320.8" x2="232.8" y2="322.9"/>
<line fill="none" stroke="#000000" stroke-miterlimit="10" x1="234.6" y1="321.6" x2="234" y2="321.6"/>
<line fill="none" stroke="#000000" stroke-miterlimit="10" x1="239" y1="319.5" x2="240.8" y2="318.7"/>
<line fill="none" stroke="#000000" stroke-miterlimit="10" x1="236.3" y1="320.6" x2="238.8" y2="319.5"/>
<line fill="none" stroke="#000000" stroke-miterlimit="10" x1="246.4" y1="316.8" x2="247.1" y2="316"/>
<line fill="none" stroke="#000000" stroke-miterlimit="10" x1="246.4" y1="316.8" x2="248.2" y2="315.4"/>
<line fill="none" stroke="#000000" stroke-miterlimit="10" x1="251.6" y1="314" x2="254.1" y2="312.9"/>
<line fill="none" stroke="#000000" stroke-miterlimit="10" x1="249.1" y1="315" x2="251.5" y2="314"/>
<line fill="none" stroke="#000000" stroke-miterlimit="10" x1="254.2" y1="312.9" x2="251.5" y2="314.1"/>
<polyline fill="none" stroke="#000000" stroke-miterlimit="10" points="251.3,413.3 253.8,414.3 254.4,414.6 "/>
<line fill="none" stroke="#000000" stroke-miterlimit="10" x1="254.2" y1="312.9" x2="251.7" y2="314"/>
<polyline fill="none" stroke="#000000" stroke-miterlimit="10" points="256.6,311.7 257.3,311.4 258.4,311.2 "/>
<line fill="none" stroke="#000000" stroke-miterlimit="10" x1="256.6" y1="311.7" x2="257.3" y2="311.4"/>
<line fill="none" stroke="#000000" stroke-miterlimit="10" x1="256.6" y1="311.7" x2="257.5" y2="311.4"/>
<polyline fill="none" stroke="#000000" stroke-miterlimit="10" points="255.6,312.9 257.6,312.1 258.7,310.8 "/>
<line fill="none" stroke="#000000" stroke-miterlimit="10" x1="257.3" y1="311.4" x2="258.7" y2="310.8"/>
<line fill="none" stroke="#000000" stroke-miterlimit="10" x1="256.6" y1="311.7" x2="257.1" y2="311.5"/>
<line fill="none" stroke="#000000" stroke-miterlimit="10" x1="257.6" y1="416.4" x2="257.6" y2="416.4"/>
<line fill="none" stroke="#000000" stroke-miterlimit="10" x1="261.9" y1="418.3" x2="261.3" y2="418"/>
<line fill="none" stroke="#000000" stroke-miterlimit="10" x1="263" y1="418.8" x2="264.1" y2="419.4"/>
<line fill="none" stroke="#000000" stroke-miterlimit="10" x1="265" y1="308.2" x2="265.1" y2="308.1"/>
<line fill="none" stroke="#000000" stroke-miterlimit="10" x1="265.2" y1="308.1" x2="263.4" y2="308.8"/>
<line fill="none" stroke="#000000" stroke-miterlimit="10" x1="263.4" y1="308.8" x2="265.2" y2="308.1"/>
<line fill="none" stroke="#000000" stroke-miterlimit="10" x1="265.3" y1="420.6" x2="263.4" y2="419"/>
<line fill="none" stroke="#000000" stroke-miterlimit="10" x1="265.2" y1="308.1" x2="265" y2="308.2"/>
<line fill="none" stroke="#000000" stroke-miterlimit="10" x1="265" y1="308.1" x2="264.9" y2="308.2"/>
<line fill="none" stroke="#000000" stroke-miterlimit="10" x1="312.4" y1="307.2" x2="312.4" y2="307.7"/>
<polyline fill="none" stroke="#000000" stroke-miterlimit="10" points="313.4,450.9 313.5,451.2 313.5,450.9 "/>
<line fill="none" stroke="#000000" stroke-miterlimit="10" x1="314.7" y1="420.7" x2="314.1" y2="419.8"/>
<line fill="none" stroke="#000000" stroke-miterlimit="10" x1="315.4" y1="420.7" x2="316.6" y2="419.7"/>
<line fill="none" stroke="#000000" stroke-miterlimit="10" x1="317.6" y1="308.9" x2="317.6" y2="308.9"/>
<line fill="none" stroke="#000000" stroke-miterlimit="10" x1="319.7" y1="417.8" x2="316.7" y2="419.3"/>
<line fill="none" stroke="#000000" stroke-miterlimit="10" x1="319" y1="309.4" x2="317.6" y2="308.9"/>
<line fill="none" stroke="#000000" stroke-miterlimit="10" x1="317.6" y1="308.9" x2="319.4" y2="309.9"/>
<line fill="none" stroke="#000000" stroke-miterlimit="10" x1="313.2" y1="420.3" x2="312.2" y2="420.7"/>
<line fill="none" stroke="#000000" stroke-miterlimit="10" x1="323.4" y1="311.8" x2="325.9" y2="313.6"/>
<line fill="none" stroke="#000000" stroke-miterlimit="10" x1="325" y1="415.6" x2="323.5" y2="415.6"/>
<line fill="none" stroke="#000000" stroke-miterlimit="10" x1="330.3" y1="412.7" x2="331.8" y2="412"/>
<line fill="none" stroke="#000000" stroke-miterlimit="10" x1="331.8" y1="412.1" x2="330.5" y2="412.7"/>
<line fill="none" stroke="#000000" stroke-miterlimit="10" x1="331.8" y1="412.1" x2="329.2" y2="413.3"/>
<line fill="none" stroke="#000000" stroke-miterlimit="10" x1="331.8" y1="412" x2="331.6" y2="412.1"/>
<line fill="none" stroke="#000000" stroke-miterlimit="10" x1="340.4" y1="407.9" x2="341.9" y2="407.2"/>
<line fill="none" stroke="#000000" stroke-miterlimit="10" x1="340.4" y1="407.9" x2="342" y2="407.2"/>
<polyline fill="none" stroke="#000000" stroke-miterlimit="10" points="344.1,320.7 344.7,321.3 347.3,321.8 "/>
<polyline fill="none" stroke="#000000" stroke-miterlimit="10" points="347.9,404.2 345,405.7 347.9,404.2 "/>
<line fill="none" stroke="#000000" stroke-miterlimit="10" x1="347.9" y1="404.3" x2="345.2" y2="405.6"/>
<line fill="none" stroke="#000000" stroke-miterlimit="10" x1="353.8" y1="401.5" x2="352.1" y2="402.3"/>
<line fill="none" stroke="#000000" stroke-miterlimit="10" x1="357.7" y1="399.6" x2="361.3" y2="397.9"/>
<line fill="none" stroke="#000000" stroke-miterlimit="10" x1="357.7" y1="399.6" x2="361.3" y2="398"/>
<line fill="none" stroke="#000000" stroke-miterlimit="10" x1="361" y1="398.1" x2="358.9" y2="399"/>
<line fill="none" stroke="#000000" stroke-miterlimit="10" x1="360.5" y1="398.3" x2="358.9" y2="399"/>
<line fill="none" stroke="#000000" stroke-miterlimit="10" x1="367.1" y1="331.1" x2="368.9" y2="331.3"/>
<line fill="none" stroke="#000000" stroke-miterlimit="10" x1="366.1" y1="395.5" x2="369.4" y2="394"/>
<line fill="none" stroke="#000000" stroke-miterlimit="10" x1="367.8" y1="394.7" x2="367.8" y2="394.7"/>
<line fill="none" stroke="#000000" stroke-miterlimit="10" x1="374.3" y1="391.6" x2="376.3" y2="390.7"/>
<line fill="none" stroke="#000000" stroke-miterlimit="10" x1="376.7" y1="390.5" x2="381" y2="388.5"/>
<line fill="none" stroke="#000000" stroke-miterlimit="10" x1="379.7" y1="336.7" x2="382.8" y2="337.4"/>
<line fill="none" stroke="#000000" stroke-miterlimit="10" x1="381.2" y1="388.4" x2="383.2" y2="387.4"/>
<line fill="none" stroke="#000000" stroke-miterlimit="10" x1="381.2" y1="388.4" x2="383.3" y2="387.3"/>
<line fill="none" stroke="#000000" stroke-miterlimit="10" x1="386.2" y1="385.9" x2="386.2" y2="385.9"/>
<line fill="none" stroke="#000000" stroke-miterlimit="10" x1="393" y1="342.7" x2="394.3" y2="342.9"/>
<polyline fill="none" stroke="#000000" stroke-miterlimit="10" points="397.3,380.7 396,381.4 397.9,380.4 "/>
<line fill="none" stroke="#000000" stroke-miterlimit="10" x1="397.3" y1="380.7" x2="397.3" y2="380.7"/>
<line fill="none" stroke="#000000" stroke-miterlimit="10" x1="400.4" y1="379.3" x2="398.8" y2="380.1"/>
<line fill="none" stroke="#000000" stroke-miterlimit="10" x1="400.4" y1="379.3" x2="400.2" y2="379.3"/>
<line fill="none" stroke="#000000" stroke-miterlimit="10" x1="400.7" y1="379.1" x2="400.7" y2="379.1"/>
<line fill="none" stroke="#000000" stroke-miterlimit="10" x1="400.4" y1="379.3" x2="399.9" y2="379.5"/>
<line fill="none" stroke="#000000" stroke-miterlimit="10" x1="400.3" y1="379.3" x2="400.3" y2="379.3"/>
<line fill="none" stroke="#000000" stroke-miterlimit="10" x1="400.5" y1="379.1" x2="402.3" y2="379.1"/>
<line fill="none" stroke="#000000" stroke-miterlimit="10" x1="406.6" y1="347.9" x2="404.2" y2="347.4"/>
<line fill="none" stroke="#000000" stroke-miterlimit="10" x1="412.7" y1="373.3" x2="411.3" y2="374"/>
<line fill="none" stroke="#000000" stroke-miterlimit="10" x1="412.7" y1="373.3" x2="411.7" y2="373.8"/>
<line fill="none" stroke="#000000" stroke-miterlimit="10" x1="412.6" y1="373.5" x2="413" y2="373.2"/>
<polyline fill="none" stroke="#000000" stroke-miterlimit="10" points="243.4,429.3 242.3,428.6 238.8,427.2 234.3,425 233.3,424.3 
	232.1,423.9 229.8,422.8 227.7,421.6 226.4,421.1 224.1,420.1 223,419.4 220.7,418.4 219.6,417.7 218.6,417.2 216.2,416.1 
	215,415.6 212.9,414.3 211.7,413.8 209.4,412.6 207,411.7 205.8,411.1 203.8,409.8 202.4,409.4 200.5,408.6 199.7,408 197,406.6 
	194.9,405.6 191.7,404 190.4,403.5 184.1,400.4 "/>
<line fill="none" stroke="#000000" stroke-miterlimit="10" x1="397.1" y1="400.3" x2="338.5" y2="428.8"/>
<line fill="none" stroke="#000000" stroke-miterlimit="10" x1="414.3" y1="351" x2="414.4" y2="348.1"/>
<polyline fill="none" stroke="#000000" stroke-miterlimit="10" points="416.2,371.7 416.1,371 416.2,368.8 "/>
<line fill="none" stroke="#000000" stroke-miterlimit="10" x1="314" y1="417.6" x2="313.9" y2="420.6"/>
<line fill="none" stroke="#000000" stroke-miterlimit="10" x1="266.6" y1="420.7" x2="266.8" y2="417.5"/>
<polyline fill="none" stroke="#000000" stroke-miterlimit="10" points="164.3,368.7 164.5,370 164.3,371.6 "/>
<polyline fill="none" stroke="#000000" stroke-miterlimit="10" points="166.4,347.9 166.6,349.1 166.5,350.8 "/>
<line fill="none" stroke="#000000" stroke-miterlimit="10" x1="415.3" y1="372" x2="415.6" y2="371.9"/>
<polyline fill="none" stroke="#000000" stroke-miterlimit="10" points="413,369.6 413.1,368.7 413.7,366 413.1,362.8 413,361.1 
	413.3,352 413.2,351.2 "/>
<polyline fill="none" stroke="#000000" stroke-miterlimit="10" points="368.8,460.1 368.4,462.3 368,463.7 366.3,467.4 365.1,469.3 
	363.8,471.1 361.6,473.6 358.8,476.3 356.7,478 352.2,481.1 351.3,481.6 349.7,482.5 345.7,484.6 341.3,486.5 335.7,488.7 
	333.9,489.2 332.4,489.9 331.6,490.1 328.1,491.1 325.8,491.6 323.4,492.2 322.3,492.4 321.1,492.7 317.3,493.5 314.9,493.7 
	312.3,494.3 309.8,494.6 308.5,494.7 305.8,495.2 299.4,495.5 297.9,495.8 292.8,495.7 287.4,495.9 286.2,495.7 282,495.7 
	278.3,495.3 274.2,495.2 269.3,494.2 267.8,494.3 266.5,494.2 264,493.7 262.6,493.6 261.5,493.3 259,492.9 "/>
<line fill="none" stroke="#000000" stroke-miterlimit="10" x1="369" y1="445.3" x2="368.7" y2="446.9"/>
<polyline fill="none" stroke="#000000" stroke-miterlimit="10" points="370.8,433.6 369.9,435.3 368.7,437.1 365.8,440.7 
	362.3,444.1 358.2,447.3 356.5,448.6 353.4,450.5 349.5,452.7 341.9,456.2 339.9,457 336.5,458.2 335.5,458.7 333.1,459.4 
	329.6,460.6 323.9,461.9 321.5,462.7 317.9,463.3 316.5,463.7 314.4,464.1 311.5,464.5 310,464.9 304.8,465.6 302.4,465.6 
	301.1,465.7 299.6,466 293,466.3 286.2,466.3 285,466.1 280.9,466 279.7,465.8 278.2,465.8 276.9,465.6 275.5,465.6 274.2,465.3 
	270.2,464.9 268.9,464.6 262.4,463.5 261.1,463.3 258.8,462.6 257.3,462.5 254.8,462 253.7,461.6 251.4,460.9 249.6,460.3 
	245.3,459.2 242.1,457.8 241.3,457.6 240.2,457 236.5,455.7 235.2,454.9 232.7,454 231.1,453 230,452.4 229.4,452.3 228.2,451.7 
	223.1,448.4 218.8,445.1 214.2,440.8 212.1,437.8 211.4,437.2 209.5,433.4 "/>
<polyline fill="none" stroke="#000000" stroke-miterlimit="10" points="362.7,457.2 360.9,459 358.9,460.8 356.9,462.5 353.8,464.6 
	"/>
<polyline fill="none" stroke="#000000" stroke-miterlimit="10" points="366.6,426.1 363.8,428.3 358.8,431.7 353.8,434.7 351,436.3 
	344.9,439.3 337.4,442.5 334.2,443.9 332.5,444.4 "/>
<polyline fill="none" stroke="#000000" stroke-miterlimit="10" points="342.6,470.5 340.3,471.5 331.8,474.5 329.2,475.1 "/>
<polyline fill="none" stroke="#000000" stroke-miterlimit="10" points="312.9,478.5 311.6,478.7 307.5,479 306,479.4 304.9,479.4 
	300.8,479.8 297,479.9 294.2,480.2 288.9,480.1 285.1,479.8 282.3,479.9 279.6,479.7 275.6,479.4 271.9,478.8 269,478.8 
	268.4,478.6 "/>
<polyline fill="none" stroke="#000000" stroke-miterlimit="10" points="310.7,450.9 309.4,451.2 306.9,451.7 305,452.4 301.5,452.8 
	298.5,453.5 293.9,453.8 292.3,454.1 286.3,454 283.6,453.7 282.7,453.4 278.7,453.1 277.4,452.8 276,452.7 273.4,452.3 
	272.4,451.8 271.1,451.6 270.3,451.6 268.8,451.2 "/>
<polyline fill="none" stroke="#000000" stroke-miterlimit="10" points="249.9,474.6 248.6,474.3 246.3,473.4 242.8,472.5 239.9,471 
	237.7,470.3 "/>
<polyline fill="none" stroke="#000000" stroke-miterlimit="10" points="250.4,445.9 246.2,444.5 241.8,443.2 240.5,442.2 
	238.3,441.4 237.8,441.3 235.8,440.3 235,440 230.2,437.8 229.2,437 226.4,435.8 225.9,435.4 224.7,434.8 223.5,434.1 222,433 
	220.3,432.3 219,430.9 216.9,429.7 214.5,427.9 213.6,427 211.5,425.4 210.3,424.4 "/>
<polyline fill="none" stroke="#000000" stroke-miterlimit="10" points="226.5,464.3 224.6,463.3 222.4,461.7 221.4,460.8 
	220.6,459.8 219.9,458.9 218.8,458.1 218,457.1 "/>
<polyline fill="none" stroke="#000000" stroke-miterlimit="10" points="216.1,471.2 215.2,469.2 214.7,467.9 212.8,464.6 
	212.5,463.7 211.6,459.9 "/>
<polyline fill="none" stroke="#000000" stroke-miterlimit="10" points="167.6,351.1 167.6,360.9 167.2,364.1 167,366 167.3,366.7 
	167.5,368.8 167.7,369.7 "/>
<line fill="none" stroke="#000000" stroke-miterlimit="10" x1="211.9" y1="447.4" x2="211.5" y2="445.2"/>
<polyline fill="none" stroke="#000000" stroke-miterlimit="10" points="314.1,451 313.9,452 313,451.1 "/>
<line fill="none" stroke="#000000" stroke-miterlimit="10" x1="314.7" y1="419.5" x2="315" y2="420.5"/>
<polyline fill="none" stroke="#000000" stroke-miterlimit="10" points="412.1,370.1 409.5,369.3 406.7,367.9 404.2,367 399.6,364.9 
	398,364 393.8,362.1 389.1,360.4 387.2,359.5 386.1,358.9 383.9,358 378.6,355.5 377.3,355.1 375.2,354 374.2,353.4 372.9,352.8 
	371.7,352.5 369.2,351.5 367.2,350.3 364.8,349.5 363.5,349.1 360.3,347.3 359.1,346.7 358,346.5 356.9,345.9 355.5,345.4 
	354.6,344.9 353.2,344.5 352.2,343.8 349.9,342.9 347.9,341.8 346.6,341.3 345.3,340.9 344.5,340.4 340.1,338.3 338.6,338.1 
	335.6,336.4 333.7,335.5 331.4,334.9 329.3,333.6 327.6,332.8 326.2,332.4 325.7,332.1 320.5,329.8 319.1,328.9 317.6,328.4 
	316.2,328 312.2,326.3 "/>
<polyline fill="none" stroke="#000000" stroke-miterlimit="10" points="312.4,307.3 312.4,317.3 312,320.2 311.6,321.9 312,323.8 
	312.2,326.3 312.4,330.8 311.8,336.1 309.6,337.3 305.5,339.4 304.3,339.9 300.9,340.9 299.6,341.9 295.6,344.1 293.4,345.1 
	290.4,346.8 287.3,345.3 286.3,344.5 282.6,342.8 280.4,341.4 280,341 277.2,340.3 276.1,339.9 274.9,339.3 272.6,337.9 
	271.2,337.4 270.3,336.9 269.1,336 "/>
<polyline fill="none" stroke="#000000" stroke-miterlimit="10" points="268.4,326.2 257.9,330.8 254.9,332.3 251,333.8 243.4,337.3 
	237.2,339.9 228.2,344 220.5,347.2 216.7,349.1 214.7,349.9 187.6,361.8 183,363.8 181.4,364.7 177.2,366.6 174.2,367.8 
	171.3,368.9 168.7,370.2 "/>
<polyline fill="none" stroke="#000000" stroke-miterlimit="10" points="269,335.7 268.5,331.1 268.3,330 268.4,328.1 268.4,326.5 
	269,321.8 268.8,321.1 268.3,316.1 268.4,313.9 268.3,310.2 268.1,307.5 "/>
<line fill="none" stroke="#000000" stroke-miterlimit="10" x1="165.2" y1="372.6" x2="164.2" y2="372.1"/>
<line fill="none" stroke="#000000" stroke-miterlimit="10" x1="413.8" y1="351.2" x2="413.8" y2="348.4"/>
<line fill="none" stroke="#000000" stroke-miterlimit="10" x1="313.3" y1="417.3" x2="313.3" y2="420.4"/>
<polyline fill="none" stroke="#000000" stroke-miterlimit="10" points="267.3,420.3 267.5,417.9 267.4,417.3 "/>
<line fill="none" stroke="#000000" stroke-miterlimit="10" x1="167" y1="348.1" x2="167" y2="351"/>
<line fill="none" stroke="#000000" stroke-miterlimit="10" x1="269.3" y1="306.7" x2="269" y2="304.1"/>
<line fill="none" stroke="#000000" stroke-miterlimit="10" x1="311.5" y1="304" x2="311.3" y2="307"/>
<polyline fill="none" stroke="#000000" stroke-miterlimit="10" points="412.4,369.9 412.7,367.9 413.2,366.2 412.6,363 412.6,357.8 
	412.7,353.7 412.9,352.3 412.7,350.9 413.5,351.4 414.1,351.3 "/>
<polyline fill="none" stroke="#000000" stroke-miterlimit="10" points="361.5,394.3 357.6,392.3 354,389.9 352.2,389.3 348.4,387 
	344.8,385.3 343.5,384.9 341.8,383.8 338.3,382.7 337.3,382.1 336.1,381.5 327.2,378.5 325.2,377.6 321.6,376.7 318.3,375.5 
	315.5,375.1 312.1,374.1 307.4,373.1 306.3,372.7 303.9,372.5 300.7,371.5 299.2,371.5 297.1,371.1 294.6,370.7 291,370.6 
	290.3,370.6 288.9,370.7 285.7,370.7 282.1,371.4 278.8,371.8 275.2,372.7 269.7,373.8 265.9,374.8 264.8,375 256.5,377.5 
	255.7,377.6 254.3,378.2 253.1,378.5 244.2,381.7 241.1,382.9 238.9,384 236.7,384.8 227.1,389.6 224.8,390.8 219,394.3 "/>
<polyline fill="none" stroke="#000000" stroke-miterlimit="10" points="373.5,388.6 370.6,387.2 369,386.3 368,385.6 365.1,384.2 
	363.4,383.1 361,382.1 358,380.5 357.5,380 354.9,379 353,378.1 351.9,377.3 349.8,376.5 348.8,375.8 346.7,374.9 344.8,373.8 
	341.2,372.6 336.9,370.3 334.5,369.5 333.4,368.9 331.3,367.8 328.7,367 326.8,365.9 325.4,365.5 322,364.3 318.7,362.8 
	316.4,362.1 313.3,360.7 311.2,360 309.8,359.6 308.1,358.6 306.8,358.3 303.7,357 302.4,356.7 300.7,355.8 299.4,355.4 
	297.7,354.9 295.8,354.6 293.3,354 291.8,353.8 290.6,353.6 289.3,353.6 287.8,354 285.3,354.4 279.4,356.5 276.1,357.8 275,358.2 
	270.8,359.7 264.1,362.4 260.9,363.5 257.4,365 256.6,365.3 240.7,372.1 238.4,373.2 236.5,374 233,375.8 230.9,376.6 223.5,380.5 
	220.6,381.8 213.4,385.6 210.8,386.9 207.4,388.9 "/>
<polyline fill="none" stroke="#000000" stroke-miterlimit="10" points="386.4,382.5 385.1,381.8 383.8,381.4 383.2,381.2 
	382.3,380.4 381.2,379.9 379.2,379.1 378.2,378.3 376.1,377.6 370.8,375.3 369.7,374.7 368.4,374.2 366.3,373.2 364.2,372.2 
	360.6,370.9 358.3,369.7 355.9,368.9 354.8,368.2 353.8,367.8 351.6,366.5 349.2,365.7 348.1,365.1 346.9,364.7 345.9,364.1 
	343.7,363 342.3,362.7 341.3,361.9 338.9,361.1 336.8,360.1 335.5,359.7 334.4,359.1 333.4,358.7 332.3,358 331.1,357.5 330,357.2 
	327.8,356 326.8,355.6 322.4,353.7 319.3,352.2 318,351.8 316.1,350.9 315.1,350.3 313.3,349.3 311.9,349 309.7,347.8 306.3,346.3 
	304.9,345.5 303.2,344.9 298.1,342.5 "/>
<polyline fill="none" stroke="#000000" stroke-miterlimit="10" points="398.1,376.8 395.1,375.5 393.9,375 392.7,374.4 391,373.4 
	387.8,372 386.5,371.7 384.5,370.7 383.2,370.3 382.5,369.8 381,369.5 379.9,368.9 378,367.7 376.8,367.2 374.5,366.4 371.3,364.8 
	369.9,364.4 366.6,362.7 360.8,360.4 358.6,359.3 357.3,358.9 356.2,358.3 353.9,357.2 352.8,356.6 351.9,356 349.4,355 
	347.1,354.2 346,353.5 344.9,353.2 342.6,352.1 341.8,351.6 340.7,351 339.4,350.5 338.5,350.1 337.1,349.8 335.1,348.9 
	332.8,347.7 325.9,344.7 323.8,343.4 321.8,342.8 318.4,341.3 316.1,340.4 315,339.8 310.9,337.9 309.7,337.1 "/>
<polyline fill="none" stroke="#000000" stroke-miterlimit="10" points="167.9,350.4 168.1,350.7 168.2,352.1 168.1,360.3 
	167.6,366.3 167.8,367.1 167.9,368.1 168.3,369.9 "/>
<polyline fill="none" stroke="#000000" stroke-miterlimit="10" points="282.6,342.7 279.1,344.1 276.2,345.6 269.3,348.5 
	266.7,349.8 261.1,352.2 257.8,353.8 246.2,358.9 239.4,361.9 237,363.1 233.8,364.4 230.2,366.1 217.7,371.6 214.1,373.3 
	212.1,374.1 209.8,375.3 207.6,376.2 203.4,378.2 196.3,381.2 194,382.4 "/>
<polyline fill="none" stroke="#000000" stroke-miterlimit="10" points="271.2,337.3 267.3,339.1 263.4,340.7 259.2,342.8 
	252.5,345.6 248.4,347.5 246.3,348.3 238.8,351.7 237.9,352 236.6,352.6 233.4,353.9 227.6,356.7 223.1,358.5 212.6,363.3 
	208.3,365.1 205.6,366.5 203.7,367.2 198.9,369.4 197,370.1 193.4,371.9 189.4,373.5 187.2,374.6 182.4,376.6 "/>
<polyline fill="none" stroke="#000000" stroke-miterlimit="10" points="347.8,400.7 345.2,399.9 344,399.2 341.2,398 339.8,397.6 
	339.3,397.3 337.9,397 336.2,396.2 333.9,395.3 331.8,394.7 329.9,394 328.4,393.8 325.4,392.6 323.2,392.1 320.4,391.6 
	319.7,391.2 312.5,389.9 309,389.2 307.5,389.2 306.2,389 304,388.5 301.4,388.5 298.7,388.3 295.3,387.8 294,387.9 290.4,387.7 
	288.9,387.9 286.7,387.8 285.3,388.1 283,388.1 280.2,388.4 278,388.4 276.8,388.5 274.1,389.1 267,390.1 263.3,390.9 262.2,391 
	259.7,391.7 258.5,391.9 255,392.8 246.4,395.3 243,396.7 239,398.1 237.1,399 236,399.4 232.9,400.9 "/>
<polyline fill="none" stroke="#000000" stroke-miterlimit="10" points="261.4,406.7 258.4,407.2 257.7,407.2 256.3,407.6 
	252.7,408.4 250.4,409.1 "/>
<polyline fill="none" stroke="#000000" stroke-miterlimit="10" points="303.9,404.4 301.6,404.1 298.7,404.3 297.8,404.1 295,404.1 
	292.8,403.8 281.6,404.1 278.8,404.3 "/>
<line fill="none" stroke="#000000" stroke-miterlimit="10" x1="312.3" y1="420.7" x2="311.7" y2="420.8"/>
<polyline fill="none" stroke="#000000" stroke-miterlimit="10" points="330.1,409.4 328.4,408.7 328,408.7 325.1,407.9 321.6,407.3 
	320.6,406.9 "/>
<polyline fill="none" stroke="#000000" stroke-miterlimit="10" points="414.4,369 414.5,362.7 414.6,358.8 414.9,357.4 414.9,355.4 
	415,352.6 414.9,350.9 415,349.1 "/>
<polyline fill="none" stroke="#000000" stroke-miterlimit="10" points="166.1,369.1 166.2,366.4 166,365.2 166,362.4 166,358.5 
	165.9,357.3 165.8,353.1 165.9,349.7 "/>
<polyline fill="none" stroke="#000000" stroke-miterlimit="10" points="311.8,335.8 310.8,335.1 309.4,335 306.6,334.5 305.3,334.3 
	302.1,334.4 300.5,334.1 294.2,334 292.1,334.2 289.2,334 287.8,334.1 284.8,334 282.8,334.1 280.3,334 277.1,334.1 274.1,333.9 
	272.2,334.2 270.5,334.2 268.7,334.4 "/>
<polyline fill="none" stroke="#000000" stroke-miterlimit="10" points="416,404 416.3,399.2 416.3,394.8 416.9,386.1 417,383.3 
	416.9,381 417.2,377.2 417.1,375.3 417.2,372.1 "/>
<polyline fill="none" stroke="#000000" stroke-miterlimit="10" points="317.7,420.8 317.6,424.1 317.8,427.3 317.7,431.3 
	317.8,433.8 317.7,436.1 317.7,437.4 317.9,438.9 317.6,443.2 317.7,445 317.5,448 317.7,450.1 317.5,452.1 317.6,453.5 
	316.6,452.7 314.8,450.7 "/>
<polyline fill="none" stroke="#000000" stroke-miterlimit="10" points="264.8,420.7 265,430.1 265,431.6 265.2,434.1 265,436.4 
	265.2,439 265.1,440.7 265.3,441.7 265.3,443 265,448 265.4,450.4 265.5,453.5 268.4,450.5 "/>
<polyline fill="none" stroke="#000000" stroke-miterlimit="10" points="314.8,450.7 311.8,449.8 310.8,449.8 308.6,449.4 305,449.6 
	301.9,449.3 299,449.5 297.5,449.4 296.2,449.6 294.9,449.6 292.5,449.4 288.9,449.6 285.5,449.6 281.5,449.4 278.7,449.6 
	276.8,449.4 274.8,449.4 273.2,449.8 271.5,449.8 268.4,450.6 "/>
<polyline fill="none" stroke="#000000" stroke-miterlimit="10" points="163,372.9 163.4,375.8 163.3,382.8 163.6,386.5 163.5,389.2 
	163.7,391.9 163.5,396.6 163.7,400 163.8,401.2 163.8,404.9 "/>
<polyline fill="none" stroke="#000000" stroke-miterlimit="10" points="313.4,450.9 313.5,451.2 313.5,450.9 "/>
<line fill="none" stroke="#000000" stroke-miterlimit="10" x1="314.8" y1="420.5" x2="314.1" y2="419.7"/>
</svg>
